<?xml version="1.0" encoding="utf-8"?>
<!-- Generator: Adobe Illustrator 22.0.0, SVG Export Plug-In . SVG Version: 6.00 Build 0)  -->
<svg version="1.1" id="Layer_1" xmlns="http://www.w3.org/2000/svg" xmlns:xlink="http://www.w3.org/1999/xlink" x="0px" y="0px"
	 viewBox="0 0 737 629.4" style="enable-background:new 0 0 737 629.4;" xml:space="preserve">
<style type="text/css">
	.st0{fill:none;}
	.st1{fill:#FFFFFF;}
</style>
<path class="st0" d="M299.8,544.7c95.1,53.2,191.2,48.8,281.4-12.8c68.1-46.5,102.3-113.4,104.8-197.3c-171.3,0-340.3,0-511.7,0
	C178.9,428.2,219.6,499.9,299.8,544.7z"/>
<path class="st0" d="M57.3,377.4c7,41.9,52.2,80.9,93.7,83.1c-8.5-27-17.2-54.5-26.2-83.1C102.5,377.4,80,377.4,57.3,377.4z"/>
<path d="M57.3,377.4c22.7,0,45.2,0,67.5,0c9,28.6,17.7,56.1,26.2,83.1C109.5,458.3,64.2,419.2,57.3,377.4z"/>
<path d="M737.3,321.4c-1-31.7-6.9-38.3-38.9-38.3c-178.9,0-357.8,0-536.7,0c-4.3,0-8.6-0.2-12.9,0.1c-14.4,0.9-23.7,10.1-24.9,24.6
	c-0.4,5.2-0.1,10.4-0.1,17.4c-32,0-61.6-0.2-91.2,0.1c-17.1,0.1-27.2,9.5-28.2,25.9c-2.8,41.8,9.3,78.4,39.2,108.3
	c36.4,36.6,82.2,53.1,132.2,58.8c12,1.4,19.6,6.6,27.6,14.8c80.4,82.2,177.9,112.7,290.3,91.1C631,597.9,742.3,475.8,737.3,321.4z
	 M581.2,531.9c-90.2,61.6-186.3,66-281.4,12.8c-80.2-44.8-120.8-116.5-125.5-210.1c171.4,0,340.5,0,511.7,0
	C683.5,418.5,649.2,485.4,581.2,531.9z"/>
<path d="M402.7,146.5c-5.8,12.5-13.5,24.1-20.1,36.3c-5.6,10.3-4.9,19.3,3.8,28.5c12.5,13,12.4,29.4,1.3,39.3
	c-11.3,10-28.5,7.6-40.1-6.5c-21.1-25.7-25.4-54.1-11.1-84.2c7.4-15.5,17.1-29.8,25.3-44.8c14-25.7,11.4-38.3-11.2-57.3
	c-5.1-4.3-11-7.8-15.5-12.7c-8.8-9.6-9.7-20.8-2.5-31.6c7.4-11.1,18.6-13.5,30.4-9.1c29.7,11.1,58.3,50.5,58.3,85.9
	C421.4,105.1,411,128.6,402.7,146.5z"/>
<path d="M533.2,116.2c-1.2,8.5-6.3,21.5-11.6,34.1c-4.2,10.1-9.9,19.6-15.7,29c-8.1,13.2-10.1,24.3,3.6,36.3c10.3,9,8.8,26-0.2,34.9
	c-9.7,9.6-25.2,9.4-36.3-0.4c-23.9-21.1-31.5-52.7-18.6-82.1c5.9-13.5,14.1-26,20.8-39.2c9.7-19.2,7.9-29.9-7-45.1
	c-5-5.1-10.9-9.5-15.3-15.1c-8.1-10.2-8-21.2,0.1-31.6c7.6-9.7,21.9-13,32.2-5.6C512.3,50.9,538.8,76,533.2,116.2z"/>
<path class="st1" d="M124.8,377.4c9,28.6,17.7,56.1,26.1,83.1c-41.4-2.2-86.7-41.2-93.7-83.1C80,377.4,102.5,377.4,124.8,377.4z"/>
</svg>
