<?xml version="1.0" encoding="utf-8"?>
<!-- Generator: Adobe Illustrator 22.0.0, SVG Export Plug-In . SVG Version: 6.00 Build 0)  -->
<svg version="1.1" id="Layer_1" xmlns="http://www.w3.org/2000/svg" xmlns:xlink="http://www.w3.org/1999/xlink" x="0px" y="0px"
	 viewBox="0 0 737 629.4" style="enable-background:new 0 0 737 629.4;" xml:space="preserve">
<style type="text/css">
	.st0{fill:none;}
	.st1{fill:#FFFFFF;}
</style>
<g>
	<path class="st0" d="M319.2,482.5c69.2,38.7,139,35.5,204.6-9.3c49.5-33.8,74.4-82.5,76.2-143.5c-124.6,0-247.5,0-372.1,0
		C231.2,397.8,260.8,449.9,319.2,482.5z"/>
	<path class="st0" d="M142.8,360.8c5.1,30.5,38,58.8,68.1,60.4c-6.2-19.6-12.5-39.6-19.1-60.4C175.7,360.8,159.3,360.8,142.8,360.8z
		"/>
	<path d="M142.8,360.8c16.5,0,32.9,0,49.1,0c6.5,20.8,12.9,40.8,19.1,60.4C180.8,419.7,147.8,391.2,142.8,360.8z"/>
	<path d="M637.3,320.1c-0.7-23.1-5-27.9-28.3-27.9c-130.1,0-260.2,0-390.3,0c-3.1,0-6.3-0.1-9.4,0.1c-10.5,0.7-17.2,7.3-18.1,17.9
		c-0.3,3.8-0.1,7.6-0.1,12.7c-23.3,0-44.8-0.1-66.3,0.1c-12.4,0.1-19.8,6.9-20.5,18.8c-2,30.4,6.8,57,28.5,78.8
		c26.5,26.6,59.8,38.6,96.1,42.8c8.7,1,14.3,4.8,20.1,10.8c58.5,59.8,129.4,82,211.1,66.2C560,521.2,640.9,432.4,637.3,320.1z
		 M523.8,473.2c-65.6,44.8-135.5,48-204.6,9.3c-58.3-32.6-87.8-84.7-91.3-152.8c124.6,0,247.6,0,372.1,0
		C598.2,390.7,573.2,439.4,523.8,473.2z"/>
	<path d="M394,192.9c-4.2,9.1-9.8,17.5-14.6,26.4c-4.1,7.5-3.6,14,2.8,20.7c9.1,9.5,9,21.4,0.9,28.6c-8.2,7.3-20.7,5.5-29.2-4.7
		c-15.3-18.7-18.5-39.3-8.1-61.2c5.4-11.3,12.4-21.7,18.4-32.6c10.2-18.7,8.3-27.9-8.1-41.7c-3.7-3.1-8-5.7-11.3-9.2
		c-6.4-7-7.1-15.1-1.8-23c5.4-8.1,13.5-9.8,22.1-6.6c21.6,8.1,42.4,36.7,42.4,62.5C407.6,162.8,400,179.9,394,192.9z"/>
	<path d="M488.9,170.9c-0.9,6.2-4.6,15.6-8.4,24.8c-3.1,7.3-7.2,14.3-11.4,21.1c-5.9,9.6-7.3,17.7,2.6,26.4
		c7.5,6.5,6.4,18.9-0.1,25.4c-7.1,7-18.3,6.8-26.4-0.3c-17.4-15.3-22.9-38.3-13.5-59.7c4.3-9.8,10.3-18.9,15.1-28.5
		c7.1-14,5.7-21.7-5.1-32.8c-3.6-3.7-7.9-6.9-11.1-11c-5.9-7.4-5.8-15.4,0.1-23c5.5-7.1,15.9-9.5,23.4-4.1
		C473.7,123.4,493,141.6,488.9,170.9z"/>
	<path class="st1" d="M191.9,360.8c6.5,20.8,12.9,40.8,19,60.4c-30.1-1.6-63-30-68.1-60.4C159.3,360.8,175.7,360.8,191.9,360.8z"/>
</g>
</svg>
