<?xml version="1.0" encoding="utf-8"?>
<!-- Generator: Adobe Illustrator 22.0.0, SVG Export Plug-In . SVG Version: 6.00 Build 0)  -->
<svg version="1.1" id="Layer_1" xmlns="http://www.w3.org/2000/svg" xmlns:xlink="http://www.w3.org/1999/xlink" x="0px" y="0px"
	 viewBox="0 0 1919.9 6277.2" style="enable-background:new 0 0 1919.9 6277.2;" xml:space="preserve">
<style type="text/css">
	.st0{fill:#F4F4F4;}
</style>
<title>Asset 2</title>
<polygon class="st0" points="3.3,1735.8 3.3,1728.9 1.3,1729.6 "/>
<path class="st0" d="M3.3,562.5v43.6c2.3-2.9,4.6-5.7,7-8.6C7.8,585.7,5.5,574.1,3.3,562.5z"/>
<circle class="st0" cx="244.7" cy="654.2" r="98"/>
<path class="st0" d="M54.3,152.4C64.4,138,76,128.4,89,124.6c9.2-2.7,19.1-2.7,30.2,0l0,0c44.6,10.8,100.7,63.9,154,145.6
	c10.5,16.1,20.8,33.1,30.9,51c-44.5,31.3-87,65.2-127.4,101.7C123,414,68.9,408.5,14.6,406.3c-2.2-34.2-2.3-68.6-0.2-102.8
	c0.2-3.4,0.5-6.8,0.7-10.1c-3.9,0.3-7.9,0.2-11.8-0.1v269.3c2.2,11.6,4.5,23.2,7,35c-2.3,2.9-4.7,5.7-7,8.6v50
	c5.1-6.7,10.3-13.5,15.6-20.2c6.2,25.9,13.2,52.1,21,78.6S56,766.9,64.8,792c-21-7.2-41.5-14.8-61.5-22.8v33.1
	c24.1,9.3,49.1,18.2,75,26.7c19.2,50.9,41.4,100.5,66.7,148.7c-13.3,8.8-26.5,17-39.5,24.7c6.8,7.8,12.1,16.8,15.3,26.7
	c12.8-7.6,25.8-15.7,39-24.3c65.7,116.2,139.1,193.7,203.1,209.2c16,3.9,31.5,3.9,46.1-0.4c72.7-21.4,106.2-143.7,96.6-310.4
	c167,1.5,287.6-37.8,305.4-111.5c0.7-2.8,1.2-5.7,1.6-8.6c-10.5,5.7-22.2,8.9-34.2,9.3c-16,36.8-79.2,64.6-172.3,75.2
	c-34.1,3.7-68.4,5.3-102.7,4.8c-4.8-54.2-13-108-24.4-161.1c34.5-42,66.3-86.2,95.4-132.1c30.7,15.2,60.5,32.4,89.1,51.3
	c17.6,11.6,34.4,24.3,50.5,37.9c6.3-8.3,14.3-15.3,23.3-20.5c-37.4-32.7-87.4-65.1-146.9-95c84.8-143.9,111-267.9,56.2-320.2
	c-11-10.5-24.8-17.6-40.8-21.5c-64-15.5-164.7,19.8-276.3,93c-65.6-116.5-139.1-194-203.1-209.5c-16.1-3.9-31.5-3.9-46.1,0.5
	c-21.8,6.4-40.1,22-54.8,45.1c1,0.2,1.9,0.4,2.9,0.6C37.7,143.1,46.4,147,54.3,152.4z M35.6,567.3c-5.2-26.7-9.5-53.2-13-79.3
	c-2.3-17.3-4.2-34.3-5.7-50.8c16.6,0.7,33.6,1.7,51.1,3.2c26.2,2.2,52.8,5.3,79.8,9.2c-19.3,18.3-38.5,37.5-57.6,57.5
	S52.9,547.1,35.6,567.3z M69.5,705.7c-9.9-33.6-18.5-67-25.9-100.2c21.7-26.1,44.7-51.9,68.9-77.3c24.1-25.3,48.8-49.5,73.9-72.6
	c33.5,5.8,67.2,12.8,101.4,21c34.1,8.2,67.4,17.5,99.8,27.7c11.8,31.9,22.6,64.7,32.5,98.3s18.5,67,25.9,100.2
	c-21.7,26.1-44.7,51.8-68.9,77.3c-24.1,25.3-48.7,49.5-73.9,72.6c-33.5-5.8-67.2-12.8-101.4-21c-34.1-8.2-67.4-17.4-99.8-27.7
	C90.2,772.2,79.3,739.3,69.5,705.7z M453.8,741.2c5.2,26.7,9.5,53.2,13,79.3c2.3,17.3,4.2,34.3,5.7,50.9
	c-16.6-0.7-33.6-1.7-51.1-3.2c-26.2-2.2-52.8-5.3-79.8-9.2c19.3-18.3,38.5-37.4,57.6-57.5C418.3,781.5,436.5,761.4,453.8,741.2z
	 M136.6,889.7c-7.2-16.1-14.1-32.5-20.8-49.2c25.5,7.6,51.7,14.6,78.5,21.1c26.9,6.5,53.4,12.2,79.5,17.1
	C260.4,890.6,246.7,902,233,913c-20.9,16.8-41.7,32.5-62.4,47C158.9,937.7,147.6,914.3,136.6,889.7z M475,1005
	c-6.5,100.1-34.4,167-74.6,178.8c-9.2,2.7-19.1,2.7-30.2,0c-44.6-10.8-100.7-63.8-154-145.5c-10.5-16.1-20.8-33.1-30.9-51
	c44.5-31.3,87-65.2,127.4-101.7c53.7,8.8,107.8,14.4,162.1,16.6C477,936.4,477.1,970.8,475,1005L475,1005z M518.3,608.1
	c-15,21.6-31,43.1-47.9,64.5c-6.2-25.9-13.2-52.1-21-78.6s-16.1-52.3-24.9-77.4c25.8,8.9,50.8,18.3,75.2,28.4
	c16.2,6.7,31.8,13.5,46.9,20.5C537.7,579.5,528.3,593.7,518.3,608.1z M395.1,299.7c84.7-48.3,158.9-69.8,203.5-59l0,0
	c11.1,2.7,19.9,7.2,26.8,13.8c30.3,28.9,24.5,101.1-15.5,193.1c-13.8,31.4-29.6,61.9-47.2,91.4c-49.3-22.9-100-42.7-151.7-59.4
	c-19.2-50.9-41.4-100.5-66.7-148.7C361.5,319.6,378.4,309.2,395.1,299.7z M352.7,418.7c7.1,16.1,14.1,32.5,20.7,49.2
	c-25.5-7.5-51.7-14.6-78.6-21.1s-53.4-12.2-79.5-17.1c13.6-11.8,27.2-23.2,40.9-34.3c20.9-16.8,41.8-32.5,62.4-47
	C330.5,370.7,341.8,394.2,352.7,418.7L352.7,418.7z"/>
<path class="st0" d="M714.1,668.1c-25.8,34.1-19,82.7,15.2,108.4c14.1,10.7,31.5,16.2,49.2,15.6c1.1-2.6,2-5.2,2.7-7.9
	C788.8,752.7,764.2,711.1,714.1,668.1z"/>
<path class="st0" d="M812.7,782.8c37.6-20.4,51.5-67.4,31.1-104.9c-20.4-37.6-67.4-51.5-104.9-31.1c-0.4,0.2-0.9,0.5-1.3,0.7
	C790.2,693.8,818.1,740.7,812.7,782.8z"/>
<path class="st0" d="M714.1,668.1c50.1,43,74.7,84.6,67.1,116.1c-0.7,2.7-1.6,5.4-2.7,7.9c11.9-0.4,23.6-3.6,34.2-9.3
	c5.5-42.1-22.4-89.1-75.2-135.3C728.4,652.8,720.4,659.7,714.1,668.1z"/>
<path class="st0" d="M122.7,1071.6c3.4-14.1,2.8-28.9-1.8-42.7c-41.7,24.6-81.4,43.4-117.5,55.7v32.4
	c35.1,24.3,83.4,15.6,107.7-19.6C116.5,1089.6,120.4,1080.8,122.7,1071.6L122.7,1071.6z"/>
<path class="st0" d="M105.5,1002.2c-26-29.5-69.9-34.8-102.2-12.4v62.1c28.1-10.3,58.7-24.8,90.9-43.1
	C98,1006.6,101.8,1004.4,105.5,1002.2z"/>
<path class="st0" d="M94.3,1008.7c-32.2,18.3-62.8,32.8-90.9,43.1v32.7c36.2-12.3,75.8-31.1,117.5-55.7c-3.3-9.8-8.5-18.9-15.3-26.7
	C101.8,1004.4,98,1006.6,94.3,1008.7z"/>
<path class="st0" d="M25.5,140.2c-7.3-1.5-14.8-1.9-22.2-1.2v49.9C9.4,170.2,16.8,153.9,25.5,140.2z"/>
<path class="st0" d="M85.4,234.3c7.5-31.1-4.8-63.6-31.1-81.8c-20.2,29-34,77.9-39.2,140.9C48.9,291.1,77.4,267.2,85.4,234.3z"/>
<path class="st0" d="M3.3,293.2c3.9,0.4,7.8,0.4,11.8,0.2c5.1-63,19-111.9,39.2-140.9c-7.8-5.4-16.6-9.4-25.9-11.6
	c-1-0.2-1.9-0.4-2.9-0.6c-8.7,13.7-16.1,30-22.2,48.6C3.3,188.9,3.3,293.2,3.3,293.2z"/>
<path class="st0" d="M38.8,3329.6c131-142.7,262-285.3,393.2-427.8c4.3-4.7,12.4-8.4,18.7-8.4c54.7-0.1,94.6-24.6,121.5-71.3
	c41.3-71.5,51.8-150.7,59.1-234.2c-31.8,4-60.9,6.7-89.7,11.6c-55.8,9.4-110.2,23.4-157.9,56.2c-39.4,27.2-58.1,64.8-58.8,112.4
	c-0.1,6.8-3.7,15.5-8.6,20.1c-81.4,75-163,149.8-245,224.2c-22.7,20.7-45.3,41.4-68,62.2v77.9c29.6-27,59.2-54,88.8-81
	c38.5-35.1,77.1-70.2,115.7-105.3c3.8-3.5,7.9-6.7,11.8-10c-1.5,2-2.9,4.1-4.3,6.1l42.5,44.6l-79.9,87.3
	C119.7,3157.8,61.5,3221.4,3.3,3285v72.4C16.6,3350.2,28.7,3340.8,38.8,3329.6z M416.7,2702.8c40-27.7,86.7-36.6,133-46.4
	c5.2-1.1,10.5-1.6,18.8-2.9c-9.9,55.2-19.7,108-51.8,152.9c-17.8,24.9-43.3,36.7-73.9,30.2c-32-6.8-53.1-27.1-59.1-59.7
	C377.9,2745.4,390.8,2720.7,416.7,2702.8z M277.9,2901c23.1-20.9,46.3-41.9,67.1-60.7c11.5,11.8,22.1,22.8,33.8,34.9
	c-19.9,21.9-42.5,45.8-64,70.6c-7.6,8.8-14.8,9.2-23.3,3.5c-5.7-3.8-11.3-8-15.7-13.1C262.6,2920.9,263.2,2914.3,277.9,2901z"/>
<path class="st0" d="M1210.6,4129.9c-272.9,178.6-336.7,529.9-183.1,781.8c177,290.3,544,359.2,810.8,186.4
	c28.4-18.4,55.2-39.3,79.9-62.4v-43.2c-24,24.6-50.1,46.9-78.2,66.7c-241.7,170.8-545.9,111.8-714-70.6c15.8,2.2,29.3,4.7,42.9,5.8
	c73.2,6.1,143.5-9.4,212.2-31.6c141.3-45.5,267.5-118.8,383.6-210.6c56.2-44.4,108.6-92.4,153.5-147v-47.8
	c-22.8,30.4-48.4,58.8-75.6,85.9c-59.8,59.7-126,112.6-197.4,157.7c-109.3,70.4-224.4,127.7-352.9,153.9c-47.2,9.6-94.8,15-143,6
	c-46.2-8.6-81.4-29.1-97.9-77.5c-9.8-28.7-31.5-53.4-41.6-82.1c-80.5-227-10.4-466.9,178.7-616.6c208.4-165,508.7-154.8,704.3,25.3
	c9.1,8.5,17.6,17.6,25.4,27.3v-46.8C1728.4,4015.2,1437.5,3983.1,1210.6,4129.9z"/>
<path class="st0" d="M1410.7,4386.7c-17.2,9-33.6,19.7-48.8,31.8c-4.5,3.6-3.7,14-5.4,21.2c7.4,1.1,15.5,4.9,21.9,2.8
	c8.9-2.9,16.5-10,24.7-15.3s17.8-9.3,23.9-16.4c4.3-5,3.8-14.1,5.5-21.3C1425.1,4388.3,1416,4383.9,1410.7,4386.7z"/>
<path class="st0" d="M1506.5,4332c-5.2,2.6-8.7,3.2-9.6,5c-3.5,7.2-6.1,14.7-9.1,22.2c7.3,1.7,15,5.7,21.7,4.4
	c8.9-1.7,17.1-5.8,23.8-11.8c5-4.7,6-13.5,8.8-20.5c-7.8-2-15.5-5.5-23.2-5.6C1513.7,4325.7,1508.7,4330.7,1506.5,4332z"/>
<path class="st0" d="M1045.3,4756.9c-7.1,12.2-11.8,25.5-14.1,39.4c-0.6,3.4,11.8,12.8,18.2,12.7c11.9-0.3,25.7-41.7,15.3-55.9
	C1059.6,4754,1047.8,4752.7,1045.3,4756.9z"/>
<path class="st0" d="M1893.5,4238.3c-15.3-4.9-32.1-5.1-44.1-6.8c-13.8,9.2-13.8,26-3.4,28.5c14.3,3.4,29.1,4.2,43.7,2.6
	C1900,4261.6,1903,4241.3,1893.5,4238.3z"/>
<path class="st0" d="M1304,4476.7c-3.8-3-10.6-4.1-15.6-3.3c-4.7,0.8-8.7,5.2-12.2,7.4c-6.6,6-13.5,10.4-17.7,16.6
	c-2.6,4-2.9,11.5-1,16c1.6,3.6,10.3,8.3,12.1,7c13.5-9.2,26.3-19.4,38.4-30.4C1309.6,4488.6,1307.1,4479.2,1304,4476.7z"/>
<path class="st0" d="M1607,4287c-4.6,3.5-7.4,15.1-5.2,20.7c4.5,11.4,26.8,8.5,51.4-7.9c0.2-4,3.1-12.3,0.6-18.3
	C1649.4,4270.9,1625.4,4273.1,1607,4287z"/>
<path class="st0" d="M1128.2,4649.5c-4.6-2.6-14.3-3.2-17.2-0.2c-9.2,9.7-17,20.7-23.3,32.5c-1.8,3.5,2.3,12.3,6.3,15.9
	c3.3,3,10.2,2,16.6,2.8c8.4-13,16.8-24.4,23.1-36.8C1135.3,4660.6,1131.8,4651.5,1128.2,4649.5z"/>
<path class="st0" d="M1758.8,4242.3c-10.9-0.1-21.7,2.2-31.6,6.8c-5.2,2.5-10.1,11.6-9.8,17.5c0.2,4,9.6,10.8,14.8,10.7
	c11.3-0.1,22.7-3.8,37.3-6.7c1.8-4.7,7.2-12,5.4-16.3C1772.6,4248.8,1764.5,4242.4,1758.8,4242.3z"/>
<path class="st0" d="M1191.7,4557.3c-9.1,6.2-16.9,14.2-22.7,23.6c-2.9,4.9-1.8,15.2,1.6,20.1c2.7,3.8,11.9,2.9,16.6,3.8
	c10.2-10.6,19.4-17.6,24.9-26.8c2.9-4.9,1.7-15.4-1.9-20.1C1207.6,4554.6,1196,4554.3,1191.7,4557.3z"/>
<path class="st0" d="M58.1,5983.3c18.3-7.2,33.8-21.9,54.8-36.2c97.5,21.2,201.3,44,305.3,66c14.3,3,21.7,7.5,25.4,23.3
	c8.6,36.6,41.3,58.4,79,56.2c34.2-1.9,66.3-28.8,69.5-63c1.8-19-3.8-38.8-6.7-62.9c1.6-2.3,3.3-4.5,5.2-6.5
	c67.4-76.8,135-153.4,202.1-230.6c9.1-10.5,16.2-14.2,31-10.1c42.6,11.6,85-17,93.1-60c7.9-42.3-20.1-82.7-63.6-88.8
	c-14-2-19.5-7.5-23.7-20.2c-31.9-98.7-64.4-197.2-97.3-295.5c-4.3-12.8-3.1-20.5,7.1-30.4c28-27.1,29.9-69.5,6.4-100
	s-64.7-39.1-98.4-18.8c-12.5,7.5-22.5,19.4-34.7,30.3c-105.2-22.8-211.8-45.8-318.3-69.6c-5.7-1.3-12.4-9.4-14.1-15.6
	c-12.4-44.8-57.1-70.8-99.7-56.9s-64.5,61.9-45.9,104.4c5,11.4,2.3,17.2-4.8,25c-18.1,19.9-35.6,40.4-53.4,60.6l-73.2,83.3v58.5
	c52.3-59.8,104.8-119.4,157.4-179c3.7-4.2,11.9-8.6,16.3-7.4c41.7,12.3,72.8-1.6,97-37.2c97.6,21.2,195,44.3,293.3,62.6
	c32.3,6,47.8,19.9,50.9,53.8c-54.9,62.6-112.2,128-169.5,193.3c-27.8,31.6-55.9,63-83.1,95.1c-8.1,9.5-15.6,12.8-28.2,10
	c-111.3-24.6-222.6-48.7-334-73v39.4c110.1,23.9,219.3,47.6,328.4,72c6.9,1.5,15.5,9.2,17.8,15.9c40.9,121.9,81.1,244,120.7,366.3
	c1.9,5.8-1.7,14.7-5.2,20.7c-4.4,7.6-11.3,13.8-18.4,21.9c-75-16.2-151.2-32.7-227.3-49.2c-29.7-6.4-59.3-13.3-89.1-19.3
	c-11-2.2-16.7-5.6-19.7-18.6c-7.4-32.5-29.2-53.7-62.8-57.2c-15.2-1.6-19.1-8.6-23-20.5c-7.1-21.8-14.3-43.7-21.4-65.5v141.9
	c4.8-8,12.4-14,21.3-16.8c20.3-6.5,41.9,4.2,48.3,24.1s-4.6,40.8-25.2,47.5c-17.5,5.7-35.6-1.3-44.4-16v50.1
	C20.2,5988.7,39.8,5990.5,58.1,5983.3z M217,5103.4c-19.4,6.8-42.1-4.1-48.9-23.4s4.2-41.7,23.9-48.6s42.2,3.9,48.9,23.2
	C247.7,5073.8,236.5,5096.6,217,5103.4L217,5103.4z M528,6051.5c-19.9,6.1-42.2-5.5-48-25c-5.9-19.7,5.9-41.8,25.6-47.9
	c19.7-6,42.2,5.7,48.1,25.1C559.6,6023.4,547.8,6045.4,528,6051.5L528,6051.5z M828.8,5609.9c20.2-7,41.5,3.2,48.5,23.1
	s-3.5,41-23.8,48c-20.6,7-41.7-2.9-48.7-22.8C797.8,5638.6,808.6,5616.9,828.8,5609.9L828.8,5609.9z M673.3,5136.2
	c20.5-6.8,41.5,3.5,48.1,23.6s-4.1,41.1-24.4,47.8s-41.8-3.9-48.4-23.8C641.8,5163.8,652.6,5143,673.3,5136.2z M388.8,5565.6
	c-4.7-14-3.8-23.5,6.4-35c85.2-96,169.6-192.7,254-288.8c2.1,0.2,3.5,0.5,4.8,0.5c33.2-0.4,42.4,21.3,51,49
	c27.9,90.5,58.5,180.1,88.4,269.9c4.2,12.7,5.1,21.2-6.6,32.1c-24.6,23.1-27.8,52.4-16.2,84c2.1,5.8,2.8,15.5-0.5,19.4
	c-72.3,83.5-145.2,166.3-215.2,246.1c-41.3,6.3-48.7-20-57.8-48.3C461.9,5784.5,425.4,5675,388.8,5565.6L388.8,5565.6z"/>
<path class="st0" d="M338.4,5595.1l-28.9-25l-23.2,27.3l28.9,25.1L338.4,5595.1z"/>
<path class="st0" d="M196.2,5757.4l-29.2-25c-8.2,9.6-15.1,17.8-23.2,27.3l29.4,24.4L196.2,5757.4z"/>
<path class="st0" d="M243.6,5703.5l-29.2-24.8c-8.3,9.6-15.3,17.7-23.1,26.7l28.7,25L243.6,5703.5z"/>
<path class="st0" d="M291.1,5649.2l-29.3-24.6l-23,26.7l28.7,24.9C275.8,5666.7,282.9,5658.6,291.1,5649.2z"/>
<path class="st0" d="M148.6,5811.2c-10.6-8.8-19.8-16.5-29.3-24.4l-23.1,26.8l29.2,24.7L148.6,5811.2z"/>
<path class="st0" d="M593.9,5572.4l-34.3-7.5c-2.9,12.9-5.5,24.6-8.3,37.2l35,8C589.1,5596.3,591.4,5584.7,593.9,5572.4z"/>
<path class="st0" d="M524.2,5557.2l-35.1-7.6c-3,13.5-5.6,25.1-8.3,37.6l35.1,7.1C518.7,5581.5,521.1,5570.9,524.2,5557.2z"/>
<path class="st0" d="M410.5,5571.4l35,8.1l8.1-37.3l-35-8C415.8,5547.4,413.3,5558.5,410.5,5571.4z"/>
<path class="st0" d="M734.9,5603.3l-34.7-8c-2.8,12.8-5.4,24.4-8.3,37.6l34.8,7.3C729.5,5627.3,732,5616.1,734.9,5603.3z"/>
<path class="st0" d="M664.3,5587.5l-34.7-7c-2.8,12.5-5.1,23.2-8.2,37l34.9,7.7C659.1,5611.8,661.6,5600.2,664.3,5587.5z"/>
<path class="st0" d="M253.5,5272.2l34.1-11.2l-11.8-35.9l-33.6,12.8C246.8,5251.8,250.2,5262,253.5,5272.2z"/>
<path class="st0" d="M301.3,5418.5l34.2-11.3l-11.5-34.8l-34.2,11.3C293.8,5395.8,297.4,5406.6,301.3,5418.5z"/>
<path class="st0" d="M325.2,5491l34.2-11.3l-11-33.5l-34.2,11.3L325.2,5491z"/>
<path class="st0" d="M276.7,5344.9l34-11.2c-4-12.2-7.5-22.9-11-33.3l-34,11.2C269.6,5323.2,273,5333.5,276.7,5344.9z"/>
<path class="st0" d="M263.1,5187.4c-3.9-11.9-7.3-22.2-10.8-32.8l-34.3,11.3c3.9,11.9,7.3,22.2,10.8,32.8L263.1,5187.4z"/>
<path class="st0" d="M1687.4,2994.2c-3.2,14.6-4.3,29.6-3.2,44.5l-453.4,98.7c-30.6-81.6-121.6-122.9-203.2-92.3
	c-81.6,30.6-122.9,121.6-92.3,203.2c15,40,45.6,72.2,84.7,89.2l-109.7,402.2c-49.3-6-98.6,11.6-133,47.4l-120.7-86.3
	c6.4-12.3,11.1-25.4,14-39c18.4-85-35.8-169.2-120.8-187.7s-169.2,35.8-187.7,120.8c-10.1,46.4,1.4,94.9,31.1,132l-256.5,274.6
	c-38.9-26.9-87.8-35-133.3-22.2v53.9c54.1-23.9,117.3,0.6,141.2,54.7s-0.6,117.3-54.7,141.2c-20.7,9.1-43.8,11.5-65.9,6.7
	c-7.1-1.5-13.9-3.8-20.6-6.7v53.8c3.2,0.9,6.5,1.7,9.8,2.5c11.1,2.4,22.4,3.6,33.7,3.6c74.1-0.2,138.2-52,153.9-124.4l0,0
	c9-40.9,1.2-83.7-21.5-118.9c-3-4.6-6.1-9-9.5-13.2L426.3,3758c63.7,44.3,150.2,35.7,203.9-20.4l120.8,86.3
	c-39.9,77.5-9.5,172.7,68,212.7c22.3,11.5,47.1,17.5,72.2,17.5c72.7,0,138.2-50.6,154.2-124.4l0,0c16.2-74.7-23.7-148.8-91.3-178.2
	l109.7-402.2c81,9.9,156.2-43.5,173.4-123.2l0,0c3.2-14.6,4.3-29.6,3.2-44.5l453.4-98.7c30.4,81.5,121.2,122.9,202.7,92.5
	c7.5-2.8,14.8-6.2,21.7-10.1V3084c-31.2,42.4-90.8,51.5-133.2,20.4s-51.5-90.8-20.4-133.2c31.2-42.4,90.8-51.5,133.2-20.4
	c7.8,5.7,14.6,12.6,20.4,20.4v-81.6c-13.6-7.5-28.2-13-43.3-16.2C1790,2855,1705.8,2909.2,1687.4,2994.2z M614,3649.6
	c-11.7,54-64.9,88.3-118.9,76.6s-88.3-64.9-76.6-118.9s64.9-88.3,118.9-76.6c0,0,0,0,0.1,0C591.4,3542.4,625.7,3595.6,614,3649.6z
	 M991,3918c-12,55.2-66.4,90.2-121.5,78.2c-55.2-12-90.2-66.4-78.2-121.5c12-55.2,66.4-90.2,121.5-78.2l0,0
	C967.9,3808.4,1002.9,3862.8,991,3918L991,3918z M1186.2,3215.2c-12.4,57-68.6,93.2-125.6,80.8s-93.2-68.6-80.8-125.6
	s68.6-93.2,125.6-80.8l0,0C1162.3,3101.9,1198.5,3158.2,1186.2,3215.2z"/>
<path class="st0" d="M1414.9,3444.5l34.1,16.1l-87.9,186.3l47.4,22.3l87.9-186.3l68.8,32.4l-64.9,137.6c-7.9,16.7-9.2,31.8-4.3,45.1
	c5,13.5,15.4,24,31.5,31.6c8.7,4,17.8,7.1,27.2,9.3c9.4,2.4,18.9,3.8,28.6,4.1l10.8-41c-4.7-0.4-9.4-1-14.1-1.9
	c-4.2-0.6-8.4-1.8-12.3-3.5c-7.8-3.7-12.8-9-15-16c-2-6.9-1.2-14.5,2.8-23.1l56.7-120.1l45.7,21.5l20-42.5L1435,3402L1414.9,3444.5z
	"/>
<path class="st0" d="M599.8,4610.8c-2.2,2.7-4.7,5.2-7.6,7.2c-5.9,4-11.7,5.3-17.4,3.9s-10.7-5.2-15.1-11.6l-61.2-89.7l34.1-23.2
	l-21.7-31.7l-181.2,123.6l21.6,31.8l25.5-17.4l94.9,139.1l35.4-24.1l-94.9-139.1l51.3-35l70.1,102.8c8.5,12.5,18.5,19.6,29.9,21.7
	c11.6,2.1,23.3-0.9,35.3-9.1c6.4-4.5,12.4-9.6,17.8-15.3c5.6-5.6,10.5-11.8,14.7-18.5l-24.4-24.6
	C604.7,4604.9,602.3,4607.9,599.8,4610.8z"/>
<path class="st0" d="M940.2,2683l22.7,11.3l-61.8,124.1l31.5,15.7l61.8-124.1l45.8,22.8l-45.7,91.7c-5.5,11.1-6.7,21.2-3.6,30.2
	s10,16.4,20.7,21.7c5.8,2.8,11.9,5,18.1,6.7c6.3,1.7,12.7,2.8,19.2,3.1l7.8-27.4c-3.2-0.3-6.3-0.8-9.4-1.5c-2.8-0.5-5.6-1.3-8.2-2.6
	c-5.2-2.6-8.5-6.3-9.8-11c-1.2-4.6-0.6-9.8,2.2-15.5l39.8-80l30.4,15.1l14.1-28.3l-161.7-80.5L940.2,2683z"/>
<path class="st0" d="M1346.6,5867.6l73.2-252.9l93.3,27l-54,186.9c-6.6,22.7-5.2,41.9,3.7,57.7c9,16,24.3,27.2,46.1,33.5
	c11.8,3.2,23.9,5.3,36.2,6.3c12.3,1.1,24.7,0.9,36.9-0.6l5.3-53.9c-6,0.5-12.1,0.6-18.2,0.4c-5.5,0.1-10.9-0.6-16.2-2
	c-10.7-3.1-18-8.8-22.1-17.1c-3.9-8.3-4.4-18.1-1.1-29.7l47.1-163l62,17.9l16.7-57.7l-329.6-95.4l-16.7,57.7l46.3,13.4l-73.2,253
	L1346.6,5867.6z"/>
<g id="gears">
	<path class="st0" d="M763.7,1042.6c-3.6,14.7-5.6,29.8-6.1,44.9c-0.2,1.6,0.7,3.1,2.2,3.6l49.6,21.9c1.3,0.4,2.2,1.6,2.2,3
		c1.8,14.4,5.5,28.5,11.1,42c0.6,1.2,0.4,2.7-0.5,3.7c-10.8,14.5-21.6,29-32.4,43.5c-1.1,1.2-1.2,3-0.2,4.2
		c7.9,12.9,17.1,25,27.4,36.1c1,1.3,2.7,1.7,4.1,0.9l50.5-19.6c1.2-0.6,2.7-0.4,3.7,0.5c11.5,8.9,24.1,16.3,37.5,21.9
		c1.3,0.4,2.2,1.6,2.3,2.9l7.8,53.6c0.1,1.6,1.3,2.9,2.8,3.1c14.7,3.6,29.8,5.6,44.9,6.1c1.6,0.2,3.1-0.7,3.6-2.2l21.9-49.6
		c0.4-1.3,1.6-2.2,3-2.2c14.4-1.8,28.5-5.6,42-11.1c1.2-0.6,2.7-0.4,3.7,0.5l43.5,32.4c1.2,1.1,3,1.2,4.2,0.2
		c12.9-7.9,25-17.1,36.1-27.4c1.3-1,1.7-2.7,0.9-4.1c-6.5-16.8-13.1-33.7-19.6-50.5c-0.6-1.2-0.4-2.7,0.5-3.7
		c8.9-11.5,16.3-24.1,21.9-37.6c0.4-1.3,1.6-2.2,2.9-2.3l53.6-7.8c1.6-0.1,2.9-1.3,3.1-2.8c3.6-14.7,5.6-29.8,6.1-44.9
		c0.2-1.6-0.7-3.1-2.2-3.6l-49.6-21.9c-1.3-0.4-2.2-1.6-2.2-3c-1.8-14.4-5.6-28.5-11.1-42c-0.6-1.2-0.4-2.7,0.5-3.7l32.4-43.5
		c1.1-1.2,1.2-3,0.2-4.2c-7.9-12.9-17.1-25-27.4-36.1c-1-1.3-2.7-1.7-4.1-0.9l-50.5,19.6c-1.2,0.6-2.7,0.4-3.7-0.5
		c-11.5-8.9-24.1-16.3-37.6-21.9c-1.3-0.4-2.2-1.6-2.3-2.9l-7.8-53.6c-0.1-1.6-1.3-2.9-2.8-3.1c-14.7-3.6-29.8-5.6-44.9-6.1
		c-1.6-0.2-3.1,0.7-3.6,2.2l-21.9,49.6c-0.4,1.3-1.6,2.2-3,2.2c-14.4,1.8-28.5,5.6-42,11.1c-1.2,0.6-2.7,0.4-3.7-0.5l-43.5-32.4
		c-1.2-1.1-3-1.2-4.2-0.2c-12.9,7.9-25,17.1-36.1,27.4c-1.3,1-1.7,2.7-0.9,4.1c6.5,16.8,13.1,33.7,19.6,50.5
		c0.6,1.2,0.4,2.7-0.5,3.7c-8.9,11.5-16.3,24.1-21.9,37.6c-0.4,1.3-1.6,2.2-2.9,2.3l-53.6,7.8C765.2,1039.8,763.9,1041,763.7,1042.6
		z M969.2,1011.6c45.8-4.8,86.9,28.5,91.7,74.3s-28.5,86.9-74.3,91.7c-45.8,4.8-86.9-28.5-91.7-74.3
		C890.1,1057.4,923.3,1016.4,969.2,1011.6L969.2,1011.6L969.2,1011.6z"/>
	<path class="st0" d="M1182.2,1285.4c-8,7.1-15.1,15-21.5,23.6c-0.8,0.8-0.8,2.1-0.1,3c6.7,10.8,13.3,21.7,20,32.5
		c0.6,0.8,0.6,1.8,0.1,2.6c-4.7,9.1-8.2,18.8-10.4,28.8c-0.1,1-0.8,1.8-1.8,2l-36.1,12.3c-1.1,0.2-1.9,1.2-1.8,2.4
		c-0.6,10.6-0.1,21.3,1.5,31.9c0,1.1,0.9,2,2,2.2l37.1,8.8c0.9,0.1,1.7,0.9,1.9,1.8c3.1,9.8,7.5,19.1,13,27.7
		c0.6,0.8,0.6,1.8,0.2,2.6c-5.6,11.4-11.2,22.8-16.9,34.2c-0.6,1-0.5,2.2,0.4,3c7.1,8,15,15.1,23.6,21.5c0.8,0.8,2.1,0.8,3,0.1
		l32.5-20c0.8-0.6,1.8-0.6,2.6-0.1c9.1,4.7,18.8,8.2,28.8,10.4c1,0.1,1.8,0.8,2,1.7l12.3,36.1c0.2,1.1,1.2,1.9,2.4,1.8
		c10.6,0.6,21.3,0.1,31.9-1.5c1.1,0,2-0.9,2.2-2c2.9-12.4,5.9-24.8,8.8-37.1c0.1-0.9,0.9-1.7,1.8-1.9c9.8-3.1,19.1-7.5,27.7-13
		c0.8-0.6,1.8-0.6,2.6-0.1l34.2,16.7c1,0.6,2.2,0.5,3-0.4c7.9-7.1,15.1-15,21.5-23.6c0.8-0.8,0.8-2.1,0.1-3
		c-6.7-10.8-13.3-21.7-20-32.5c-0.6-0.8-0.6-1.8-0.1-2.6c4.7-9.1,8.2-18.8,10.4-28.8c0.1-0.9,0.8-1.7,1.7-1.9l36.1-12.3
		c1.1-0.2,1.9-1.2,1.8-2.4c0.6-10.6,0.1-21.3-1.5-31.9c0-1.1-0.9-2-2-2.2l-37.1-8.8c-0.9-0.1-1.7-0.9-1.9-1.8
		c-3.1-9.8-7.5-19.1-13-27.7c-0.6-0.8-0.6-1.8-0.1-2.6l16.9-34.2c0.6-1,0.5-2.2-0.4-3c-7.1-7.9-15-15.1-23.6-21.5
		c-0.8-0.8-2.1-0.8-3-0.1l-32.5,20c-0.8,0.6-1.8,0.6-2.6,0.1c-9.1-4.7-18.8-8.2-28.8-10.4c-1-0.1-1.8-0.8-2-1.7
		c-4.1-12-8.2-24.1-12.3-36.1c-0.2-1.1-1.2-1.9-2.4-1.8c-10.6-0.6-21.3-0.1-31.9,1.5c-1.1,0-2,0.9-2.2,2
		c-2.9,12.4-5.9,24.8-8.8,37.1c-0.1,0.9-0.9,1.7-1.8,1.9c-9.8,3.1-19.1,7.5-27.7,13c-0.8,0.6-1.8,0.6-2.6,0.1l-34.2-16.9
		C1184.2,1284.3,1182.9,1284.5,1182.2,1285.4z M1313.8,1349.5c28.5,15.5,39,51.2,23.5,79.7s-51.2,39-79.7,23.5s-39-51.2-23.5-79.7
		C1249.6,1344.5,1285.3,1334,1313.8,1349.5L1313.8,1349.5L1313.8,1349.5z"/>
	<path class="st0" d="M1185.5,490.3c-15.5,22.3-28.7,46.1-39.4,71.1c-1.3,3-0.9,5.1,1.4,7.4l68.7,68.8c1.8,1.6,2.5,4.1,1.8,6.4
		c-6.3,25.3-9.3,51.4-8.8,77.5c0.2,2.4-1,4.7-3.2,5.8l-82.4,51.6c-2.8,1.8-3.7,3.7-3.1,6.9c4.8,26.7,12.3,52.9,22.4,78.1
		c1.2,3.1,3,4.2,6.3,4.2h97.2c2.4-0.2,4.7,1.1,5.8,3.3c13.4,22.4,29.8,42.9,48.6,61c1.9,1.6,2.6,4.1,1.9,6.4
		c-7.2,31.6-14.5,63.2-21.7,94.8c-0.7,3.2,0,5.2,2.7,7.1c22.3,15.5,46.1,28.7,71.1,39.4c3.1,1.3,5.1,0.9,7.4-1.4l68.8-68.7
		c1.6-1.8,4.1-2.5,6.4-1.8c25.3,6.3,51.4,9.3,77.5,8.8c2.4-0.2,4.7,1,5.8,3.2l51.6,82.4c1.8,2.8,3.7,3.7,6.9,3.1
		c26.8-4.8,52.9-12.3,78.1-22.4c3.1-1.2,4.2-3,4.2-6.3v-97.2c-0.2-2.4,1.1-4.7,3.3-5.8c22.4-13.4,42.9-29.8,61-48.6
		c1.6-1.9,4.1-2.6,6.4-1.9l94.8,21.8c3.2,0.7,5.2,0,7.1-2.7c15.5-22.3,28.7-46.1,39.4-71.1c1.3-3,0.9-5.1-1.4-7.4l-68.7-68.7
		c-1.8-1.6-2.5-4.1-1.8-6.4c6.3-25.3,9.3-51.4,8.8-77.5c-0.2-2.4,1-4.7,3.2-5.8l82.4-51.6c2.8-1.8,3.7-3.7,3.1-6.9
		c-4.7-26.7-12.3-52.9-22.4-78.1c-1.2-3.1-3-4.2-6.3-4.2h-97.2c-2.4,0.2-4.7-1.1-5.8-3.3c-13.4-22.4-29.7-42.9-48.5-61.1
		c-1.9-1.5-2.6-4.1-1.9-6.4c7.3-31.6,14.5-63.2,21.7-94.8c0.7-3.2,0-5.2-2.7-7.1c-22.3-15.5-46.1-28.7-71.1-39.4
		c-3-1.3-5.1-0.9-7.4,1.4l-68.8,68.7c-1.6,1.8-4.1,2.5-6.4,1.8c-25.3-6.3-51.4-9.3-77.5-8.8c-2.4,0.2-4.7-1-5.9-3.2l-51.6-82.4
		c-1.8-2.8-3.7-3.6-6.9-3.1c-26.7,4.8-52.9,12.3-78.1,22.4c-3.1,1.2-4.2,3-4.2,6.3c0,32.4,0,64.8,0,97.2c0.2,2.4-1.1,4.7-3.3,5.8
		c-22.4,13.4-42.9,29.8-61,48.6c-1.6,1.9-4.1,2.6-6.4,1.9l-94.8-21.7C1189.3,486.9,1187.4,487.6,1185.5,490.3z M1549.3,572
		c79.8,21.7,126.8,104,105.1,183.8c-21.7,79.8-104,126.8-183.8,105.1s-126.8-104-105.1-183.8l0,0
		C1387.2,597.3,1469.5,550.2,1549.3,572z"/>
</g>
<path class="st0" d="M75.8,1741.8l52.5-30.4l166.2,286.8l72.9-42.3l-166.2-286.8l105.9-61.3l122.8,211.9
	c14.9,25.7,33.6,41.3,55.7,47c22.4,5.8,45.8,1.6,70.6-12.8c11.6-6.8,24.2-16,37.2-27.4c13.2-11.7,23.6-23.1,31.5-34.1l-44.4-51.7
	c-4.8,5.9-10,11.5-15.5,16.9c-4.7,5.1-10,9.4-15.9,13c-12.1,7-23.7,8.7-34.8,5.2c-10.9-3.7-20.3-11.7-27.9-24.9L379.2,1566
	l70.3-40.8l-37.9-65.4L37.9,1676.4L75.8,1741.8z"/>
<path class="st0" d="M1704.5,1863.7c-21.7-7.6-44.9,1.6-51.6,20.6l-36.2,102.9l-176.4-62.1l0.2-0.5c9.1-25.8-7.6-55.4-37.1-65.8
	l-11.4-4c-29.5-10.4-61.1,2.2-70.2,28l-0.2,0.5l-79.9-28.1l0.2-0.5c9.1-25.8-7.6-55.4-37.1-65.8l-11.4-4
	c-29.5-10.4-61.1,2.2-70.2,28l-0.2,0.5l-19.1-6.7l0.2-0.5c9.1-25.8-7.6-55.4-37.1-65.8l-11.4-4c-29.5-10.4-61.1,2.2-70.2,28
	l-0.2,0.5l-22.5-7.9l36.2-102.9c6.7-19-5.6-40.8-27.3-48.4h0c-21.7-7.6-44.9,1.6-51.6,20.6l-249.4,708.3c-6.7,19,5.6,40.8,27.3,48.4
	h0c21.7,7.6,44.9-1.6,51.6-20.6l32.2-91.4l22.5,7.9l-1.4,4.1c-9.1,25.8,7.6,55.4,37.1,65.8l11.4,4c29.5,10.4,61.1-2.2,70.2-28
	l1.4-4.1l210.7,74.2l-1.4,4.1c-9.1,25.8,7.6,55.4,37.1,65.8l11.4,4c29.5,10.4,61.1-2.2,70.2-28l1.4-4.1l19.1,6.7l-1.4,4.1
	c-9.1,25.8,7.6,55.4,37.1,65.8l11.4,4c29.5,10.4,61.1-2.2,70.2-28l1.4-4.1l45.7,16.1l-32.2,91.4c-6.7,19,5.6,40.8,27.3,48.4
	c21.7,7.6,44.9-1.6,51.6-20.6l249.4-708.3C1738.6,1893.1,1726.3,1871.4,1704.5,1863.7z M1355.4,1903.5c3.9-11,17.4-16.4,30-12l0,0
	c12.6,4.4,19.8,17.1,15.9,28.1l-9.8,27.7c-3.9,11-17.4,16.4-30,12l0,0c-12.6-4.4-19.8-17.1-15.9-28.1L1355.4,1903.5z M1156.8,1833.6
	c3.9-11,17.4-16.4,30-12s19.8,17.1,15.9,28.1l-9.8,27.7c-3.9,11-17.4,16.4-30,12l0,0c-12.6-4.4-19.8-17.1-15.9-28.1L1156.8,1833.6z
	 M1019,1785.1c3.9-11,17.4-16.4,30-12l0,0c12.6,4.4,19.8,17.1,15.9,28.1l-9.8,27.7c-3.9,11-17.4,16.4-30,12l0,0
	c-12.6-4.4-19.8-17.1-15.9-28.1L1019,1785.1z M887.9,2303.9c-3.9,11-17.4,16.4-30,12l0,0c-12.6-4.4-19.8-17.1-15.9-28.1l9.8-27.7
	c3.9-11,17.4-16.4,30-12l0,0c12.6,4.4,19.8,17.1,15.9,28.1L887.9,2303.9z M1217.2,2419.9c-3.9,11-17.4,16.4-30,12h0
	c-12.6-4.4-19.8-17.1-15.9-28.1l9.8-27.7c3.9-11,17.4-16.4,30-12h0c12.6,4.4,19.8,17.1,15.9,28.1L1217.2,2419.9z M1355,2468.4
	c-3.9,11-17.4,16.4-30,12l0,0c-12.6-4.4-19.8-17.1-15.9-28.1l9.8-27.7c3.9-11,17.4-16.4,30-12s19.8,17.1,15.9,28.1L1355,2468.4z
	 M1450.7,2458.4l-45.8-16.1c6.7-25-9.8-52.6-38.1-62.6l-11.4-4c-28.3-10-58.5,1.2-68.9,24.9l-19.3-6.8c6.7-25-9.8-52.6-38.1-62.6
	l-11.4-4c-28.3-10-58.5,1.2-68.9,24.9l-210.9-74.3c6.7-25-9.8-52.6-38.1-62.6l-11.4-4c-28.3-10-58.5,1.2-68.9,24.9l-22.7-8l67-190.2
	l22.5,7.9l-0.2,0.4c-9.1,25.8,7.6,55.4,37.1,65.8l11.4,4c29.5,10.4,61.1-2.2,70.2-28l0.2-0.4l19.1,6.7l-0.2,0.4
	c-9.1,25.8,7.6,55.4,37.1,65.8l11.4,4c29.5,10.4,61.1-2.2,70.2-28l0.2-0.4l375,132.1L1450.7,2458.4z M925.3,2051.2l9.8-27.7
	c3.9-11,17.4-16.4,30-12l0,0c12.6,4.4,19.8,17.1,15.9,28.1l-9.8,27.7c-3.9,11-17.4,16.4-30,12l0,0
	C928.6,2074.9,921.4,2062.2,925.3,2051.2z M1063.1,2099.7l9.8-27.7c3.9-11,17.4-16.4,30-12c12.6,4.4,19.8,17.1,15.9,28.1l-9.8,27.7
	c-3.9,11-17.4,16.4-30,12h0C1066.3,2123.4,1059.2,2110.7,1063.1,2099.7z M1532.7,2225.5l-375-132.1l0.2-0.4
	c9.1-25.8-7.6-55.4-37.1-65.8l-11.4-4c-29.5-10.4-61.1,2.2-70.2,28l-0.2,0.4l-19.1-6.7l0.2-0.4c9.1-25.8-7.6-55.4-37.1-65.8l-11.4-4
	c-29.5-10.4-61.1,2.2-70.2,28l-0.2,0.4l-22.5-7.9l68.9-195.6l22.5,7.9l-0.1,0.4c-9.1,25.8,7.6,55.4,37.1,65.8l11.4,4
	c29.5,10.4,61.1-2.2,70.2-28l0.1-0.4l19.1,6.7l-0.1,0.4c-9.1,25.8,7.6,55.4,37.1,65.8l11.4,4c29.5,10.4,61.1-2.2,70.2-28l0.1-0.4
	l79.9,28.1l-0.1,0.4c-9.1,25.8,7.6,55.4,37.1,65.8l11.4,4c29.5,10.4,61.1-2.2,70.2-28l0.1-0.4l176.4,62.1L1532.7,2225.5z"/>
</svg>
