<?xml version="1.0" encoding="utf-8"?>
<!-- Generator: Adobe Illustrator 22.0.0, SVG Export Plug-In . SVG Version: 6.00 Build 0)  -->
<svg version="1.1" id="Layer_1" xmlns="http://www.w3.org/2000/svg" xmlns:xlink="http://www.w3.org/1999/xlink" x="0px" y="0px"
	 viewBox="0 0 1600 5869" style="enable-background:new 0 0 1600 5869;" xml:space="preserve">
<style type="text/css">
	.st0{opacity:0.87;}
	.st1{fill:#EB7630;}
	.st2{fill:none;}
	.st3{fill:#FFFFFF;}
	.st4{fill:#9D64A3;}
	.st5{fill:none;stroke:#EB7630;stroke-width:22;stroke-miterlimit:10;}
	.st6{fill:none;stroke:#EB7630;stroke-width:22;stroke-miterlimit:10;stroke-dasharray:70.0448,10.0064;}
</style>
<title>Asset 8</title>
<g class="st0">
	<path class="st1" d="M-47.7,1800.7L-47.7,1800.7c0-0.1-0.1,0-0.1,0L-47.7,1800.7z"/>
	<g>
		<path class="st1" d="M1261.1,774.7l-9.3-22.1c10.2-4.3,20.3-8.5,32.3-13.5l9.2,22.2C1281.3,766.3,1271.2,770.5,1261.1,774.7z"/>
		<path class="st1" d="M47.2,1635l-9-22.2c24.5-9.9,44.8-18.4,64.1-26.6l9.4,22.1C92.3,1616.5,71.8,1625,47.2,1635z M120.8,1604.3
			l-9.5-22c22.1-9.5,42.8-18.8,63.2-28.2l10.1,21.8C164.1,1585.4,143.2,1594.7,120.8,1604.3z M193.7,1571.6l-10.2-21.7
			c19.6-9.2,38.9-18.6,58.9-28.7l3.3-1.7l10.8,21.4l-3.3,1.7C233,1552.8,213.6,1562.3,193.7,1571.6z M265.4,1536.4l-10.9-21.4
			c22.4-11.4,42.6-21.8,61.8-31.7l11.1,21.3C308.2,1514.6,287.9,1525,265.4,1536.4z M336.2,1500l-11.1-21.3
			c22.3-11.6,36.2-19.1,55.1-29.4l11.5,21.1C372.6,1480.8,358.6,1488.3,336.2,1500z M511.7,1400.5l-12.3-20.6l22.5-14.4l13.3,20
			L511.7,1400.5z M543.5,1379.8L530,1360c20.1-13.7,38.1-27,55.2-40.6l15,18.7C582.7,1352.2,564.1,1365.8,543.5,1379.8z
			 M608.1,1331.8l-15.2-18.5c17.8-14.7,34.4-29.7,50.6-45.9l16.9,17C643.6,1301.1,626.5,1316.6,608.1,1331.8z M667.5,1277.2
			l-17.2-16.8c15.2-15.5,30.1-32.2,45.8-51l18.4,15.4C698.5,1244.1,683.1,1261.2,667.5,1277.2z M721,1217.1l-18.6-15.2
			c12.3-15,25.3-31.6,39.8-50.9l2.7-3.6l19.1,14.5l-2.7,3.5C746.7,1184.9,733.5,1201.8,721,1217.1z M770,1154.1l-19.1-14.6
			c14.6-19.1,29.2-37.5,43.5-54.8L813,1100C798.8,1117,784.4,1135.2,770,1154.1z M819.3,1092.4l-18.4-15.4
			c15.4-18.4,31-36.1,46.3-52.7l17.6,16.3C849.7,1056.8,834.4,1074.3,819.3,1092.4z M871.5,1033.4l-17.5-16.4
			c16.4-17.5,33.1-34.3,49.5-49.8l16.5,17.4C903.9,999.8,887.6,1016.2,871.5,1033.4z M927.2,977.8l-16.3-17.6
			c17.5-16.2,35.4-31.7,53.2-46l15,18.7C961.7,946.9,944.2,962,927.2,977.8z M986.8,926.8l-14.8-18.9c18.5-14.5,37.7-28.4,57.1-41.3
			l13.3,20C1023.4,899.1,1004.8,912.7,986.8,926.8z M1050.5,881.2l-13.1-20.1c19.4-12.6,39.2-24.5,60.4-36.1l11.6,21
			C1088.7,857.4,1069.4,868.9,1050.5,881.2z M1118,841.3l-11.4-21.1c19.5-10.5,40.1-20.7,62.8-31.4l10.1,21.7
			C1157.3,821,1137.2,831,1118,841.3z M1188.6,806.4l-10-21.8c18.6-8.5,39-17.5,64-28.1l9.4,22.1
			C1227.1,789.1,1207,798,1188.6,806.4z"/>
		<path class="st1" d="M4.5,1652.2l-8.9-22.3c11.1-4.4,21.9-8.8,32.4-13l9,22.3C26.4,1643.4,15.6,1647.7,4.5,1652.2z"/>
	</g>
	<path class="st1" d="M1432.8,809.5c-1.7-1.2-3.4-2.6-4.9-4c-17.6-15.6-22.6-36-15.3-61.7c0.5-2.4,1.3-4.7,2.1-7l0.2-0.1
		c0-0.1,0.1-0.2,0.1-0.2l145.2-62.6c0,0,0,0,0,0l0.3,0.1l-0.1,0c1.3,0.4,2.6,1,3.7,1.8c0.9,0.5,1.8,0.9,2.6,1.4
		c19,9.9,29.9,23.4,33.2,40.4v-51.3c-4.8-3.7-10.1-7.4-15.8-11c-6.4-3.9-13.9-8.1-22-12.7c-2.6-1.9-6.4-4-10.1-6.2l0.1,0
		c-4.3-2.4-9.8-5.2-15.8-8.2c-2.4-1.3-4.7-2.2-7.2-3.5l-129.9,56c-0.7,2.7-1.7,5.9-2.7,10.1l-0.4,0.2c-0.5,2.1-1.2,4.7-2,7.3
		c-2.2,7.1-3.5,13.8-4.8,20.5c-0.8,3.6-1.8,7.8-2.6,11.5c-4.5,24.5-7.1,40.3-7.5,47c-0.5,13.6,2.2,27.2,7.6,39.6
		c5.5,12.8,14.5,23.8,25.9,31.7c11.2,8,24.8,11.9,38.6,11.1c8.2-0.3,16.2-1.7,24-4.2c7.3-1.8,14.5-4.1,21.5-6.9
		c2.7-1.2,5.3-1.8,8.1-3c21.2-8.7,37.9-15.9,49.4-20.8c13.9-5.8,27.3-12.6,40.1-20.5c1.8-1.1,3.6-2.3,5.3-3.4v-63.2L1432.8,809.5z"
		/>
	<path class="st1" d="M1496.4,488.7c0-0.1-0.1-0.2-0.1-0.3c-9.7-21.5-10.1-46.1-1-67.9c8.3-21.3,24.6-38.4,45.4-47.8
		c0.6-0.3,1.3-0.6,1.9-0.8c0.1,0,0.1-0.1,0.2-0.1c18.1-8.2,38.3-9.7,57.2-4.6v-33.6c-13.3-0.2-27.5,2.8-42.6,9l-373.8,161.3
		c-60.5,28-72.2,80.6-34.5,158.1c41.5,61.3,88.7,81,142.2,59.8L1381,683l-23-53.4l168.3-72.4l23,53.2l50.8-21.9v-49.4
		C1558.5,549.9,1514.1,529.2,1496.4,488.7z M1333.7,619.5c-0.8,2.9-1.8,5.8-2.9,8.6c-18.1,45.5-69.6,67.8-115.2,49.7
		c-20.9-8.3-37.8-24.2-47.4-44.4c-0.5-1-0.9-1.9-1.3-2.9c0,0,0,0,0,0c-0.6-1.3-1.1-2.6-1.6-3.9c0-0.1-0.1-0.2-0.1-0.3
		c-0.5-1.3-0.9-2.5-1.3-3.8c0-0.1-0.1-0.2-0.1-0.4c-0.4-1.3-0.8-2.6-1.1-3.9c0-0.1,0-0.2-0.1-0.2c-0.4-1.4-0.7-2.7-1-4.1
		c0,0,0-0.1,0-0.1c-0.3-1.4-0.6-2.8-0.8-4.2c0,0,0,0,0-0.1c-0.2-1.4-0.4-2.8-0.6-4.2c0,0,0-0.1,0-0.1c-0.2-1.4-0.3-2.7-0.4-4.1
		c0-0.1,0-0.2,0-0.3c-0.1-1.3-0.1-2.6-0.2-3.8c0-0.2,0-0.4,0-0.6c0-1.2,0-2.3,0-3.5c0-0.3,0-0.7,0-1c0-1,0.1-2,0.2-3
		c0-0.6,0.1-1.3,0.2-1.9c0.1-0.7,0.1-1.4,0.2-2.1c0.1-1.1,0.3-2.3,0.5-3.4c0-0.2,0.1-0.4,0.1-0.5c1-6.2,2.7-12.4,5.1-18.4
		c18.1-45.5,69.7-67.7,115.2-49.6c2.8,1.1,5.6,2.4,8.3,3.8c2,1,3.9,2.1,5.8,3.3c9.4,5.9,17.5,13.3,23.9,21.8
		c0.9,1.1,1.7,2.3,2.5,3.5c1.2,1.8,2.3,3.6,3.4,5.4c2.5,4.3,4.6,8.8,6.4,13.4c1.7,4.6,3.1,9.4,4.1,14.3c1.1,5.6,1.6,11.3,1.6,17.1
		C1337,603.5,1335.9,611.6,1333.7,619.5z"/>
	<g>
		<path class="st1" d="M1312.2,267.9c-4.9,2.2-10.5,2.3-15.5,0.2c-4.8-2-8.6-5.8-10.7-10.5c-2.3-4.8-2.5-10.4-0.5-15.3
			c1.9-5,5.9-9,10.9-10.8c4.8-2.3,10.4-2.5,15.3-0.5c4.8,2.2,8.6,6.1,10.8,10.9c2.1,4.7,2.3,10.1,0.3,15
			C1321,261.8,1317.1,265.8,1312.2,267.9z"/>
		
			<rect x="1331" y="265.6" transform="matrix(0.9182 -0.3961 0.3961 0.9182 -16.6667 554.364)" class="st1" width="5.9" height="103.9"/>
		<path class="st1" d="M1350.7,371.1l2.7-1.2c1.7-0.8,3.5-1.4,5.3-1.8c37.6-14.3,68.8-9.9,93.9,13.2l-159.3,68.7
			C1290,416.2,1309.1,389.5,1350.7,371.1z"/>
		<polygon class="st1" points="1298.8,732.7 1387,694.7 1381.8,721.9 1307.9,753.8 		"/>
		<path class="st2" d="M1203.9,612.1C1203.9,612.1,1203.9,612,1203.9,612.1C1203.9,612,1203.9,612.1,1203.9,612.1z"/>
		<path class="st2" d="M1160.1,605.2c-0.2-1.4-0.3-2.7-0.4-4.1C1159.9,602.4,1160,603.8,1160.1,605.2z"/>
		<path class="st2" d="M1566.8,677.1c-0.9-0.5-1.7-1-2.6-1.4c0.8,0.5,1.6,1.1,2.4,1.7c19.2,10,30.3,23.5,33.5,40.7v-0.6
			C1596.6,700.5,1585.8,687,1566.8,677.1z"/>
		<path class="st2" d="M1160.7,609.5c-0.2-1.4-0.4-2.8-0.6-4.2C1160.3,606.7,1160.5,608.1,1160.7,609.5z"/>
		<path class="st2" d="M1163.7,622.1c-0.4-1.3-0.8-2.6-1.1-3.9C1162.9,619.5,1163.3,620.8,1163.7,622.1z"/>
		<path class="st2" d="M1162.5,617.9c-0.4-1.4-0.7-2.7-1-4.1C1161.8,615.2,1162.2,616.6,1162.5,617.9z"/>
		<path class="st2" d="M1204.7,614.1c0,0.1,0.1,0.2,0.1,0.3C1204.8,614.3,1204.8,614.2,1204.7,614.1
			C1204.7,614.1,1204.7,614.1,1204.7,614.1z"/>
		<path class="st2" d="M1161.5,613.7c-0.3-1.4-0.6-2.8-0.8-4.2C1161,611,1161.2,612.4,1161.5,613.7z"/>
		<path class="st2" d="M1159.6,591.8c0-1,0.1-2,0.2-3C1159.7,589.8,1159.7,590.8,1159.6,591.8z"/>
		<path class="st2" d="M1202.7,608.3c-0.2-0.6-0.3-1.2-0.4-1.7C1202.4,607.1,1202.5,607.7,1202.7,608.3z"/>
		<path class="st2" d="M1159.7,600.8c-0.1-1.3-0.1-2.6-0.2-3.8C1159.6,598.2,1159.7,599.5,1159.7,600.8z"/>
		<path class="st2" d="M1160,586.9c0.1-0.7,0.1-1.4,0.2-2.1C1160.1,585.5,1160.1,586.2,1160,586.9z"/>
		<path class="st2" d="M1203.2,610.1c-0.1-0.2-0.1-0.3-0.2-0.5C1203.1,609.8,1203.2,609.9,1203.2,610.1z"/>
		<path class="st2" d="M1159.6,596.3c0-1.2,0-2.3,0-3.5C1159.6,594,1159.6,595.2,1159.6,596.3z"/>
		<path class="st2" d="M1258,573.7c4.4,1.4,9.1,1.2,13.4-0.6c4.3-1.8,7.8-5.1,9.6-9.4l0.7-1.7c4.5,3.9,8.1,8.9,10.4,14.4
			c-2.4-5.8-6.1-11-10.8-15.2l-0.7,1.7c-2,4.1-5.4,7.5-9.6,9.4c-4.2,1.9-9,2.1-13.4,0.6c-4.1-1.4-7.4-4.5-9.3-8.4
			c0.1,0.2,0.1,0.4,0.2,0.6C1250.2,569.2,1253.7,572.4,1258,573.7z"/>
		<path class="st2" d="M1160.7,581.4c0-0.2,0.1-0.4,0.1-0.5C1160.7,581.1,1160.7,581.2,1160.7,581.4z"/>
		<path class="st2" d="M1534.6,472.3c-5-10.8-4.9-23.4,0.3-34.1c5-11.5,14.2-20.6,25.8-25.3c5.5-2.4,11.4-3.7,17.4-4.1
			c0.2-0.2,0.3-0.5,0.4-0.8c-6.3,0.3-12.5,1.7-18.3,4.2c-11.6,4.7-21,13.8-25.9,25.3c-5,10.8-5.1,23.2-0.4,34.1
			c2.2,5.6,5.7,10.5,10,14.5C1540,482.2,1536.7,477.5,1534.6,472.3z"/>
		<path class="st2" d="M1593.3,733.9l-158.1,68.2c0,0,0.1,0.1,0.1,0.1l158.5-68.4c0.7-22.7-9.9-39.9-32.1-52.2
			C1583.3,693.8,1594.1,711.4,1593.3,733.9z"/>
		<path class="st2" d="M1586.8,430.3c-3-1.1-5.6-3-7.5-5.5c1.9,3,4.8,5.3,8.2,6.4c4.1,1.4,8.5,1.3,12.5-0.3v-1.1
			c-0.1,0-0.1,0.1-0.2,0.1C1595.7,431.7,1591,431.8,1586.8,430.3z"/>
		<path class="st2" d="M1292.1,576.4c2.3,5.7,3.5,11.7,3.4,17.7C1295.7,588.1,1294.6,582,1292.1,576.4z"/>
		<path class="st2" d="M1560.2,673.8C1560.2,673.8,1560.2,673.8,1560.2,673.8L1560.2,673.8C1560.2,673.8,1560.2,673.8,1560.2,673.8
			l-145.2,62.6c0,0.1-0.1,0.2-0.1,0.2l145.5-62.8C1560.3,673.8,1560.2,673.8,1560.2,673.8z"/>
		<path class="st2" d="M1283.8,676.4c-44,19.2-95.1,0-115.6-43c9.6,20.2,26.5,36.1,47.4,44.4c45.5,18.1,97.1-4.2,115.2-49.7
			C1322.1,649.7,1305.2,667,1283.8,676.4z"/>
		<path class="st2" d="M1205.8,616.6c-0.2-0.5-0.5-1.1-0.7-1.6C1205.3,615.5,1205.6,616.1,1205.8,616.6z"/>
		<path class="st2" d="M1165.3,626.6c0.5,1.3,1,2.6,1.6,3.9c0,0,0,0,0,0c0,0,0,0,0,0C1166.3,629.2,1165.8,627.9,1165.3,626.6z"/>
		<path class="st2" d="M1206.7,618.2c0-0.1-0.1-0.2-0.1-0.2C1206.6,618,1206.6,618.1,1206.7,618.2z"/>
		<path class="st2" d="M1205.4,580.8c5-11.5,14.3-20.6,25.8-25.3c5.6-2.4,11.5-3.8,17.6-4.1c0.2-0.3,0.4-0.6,0.5-0.9
			c-6.4,0.2-12.6,1.6-18.5,4.2c-11.6,4.7-20.9,13.8-25.8,25.3c-3.8,8.3-4.8,17.7-2.8,26.5C1200.4,597.9,1201.5,588.9,1205.4,580.8z"
			/>
		<path class="st2" d="M1496.6,488.5c0-0.1-0.1-0.1-0.1-0.2c-19.1-44.3,0.7-95.5,44.2-115.6c-20.8,9.3-37.1,26.4-45.4,47.8
			c-9.1,21.8-8.7,46.4,1,67.9c0,0.1,0.1,0.2,0.1,0.3c17.7,40.6,62,61.3,103.6,50.4v0C1558.5,549.8,1514.2,529.1,1496.6,488.5z"/>
		<path class="st2" d="M1337,595.6c0,7.9-1.1,16-3.3,23.9C1335.9,611.6,1337,603.5,1337,595.6z"/>
		<path class="st2" d="M1165.2,626.3c-0.5-1.3-0.9-2.5-1.3-3.8C1164.3,623.7,1164.7,625,1165.2,626.3z"/>
		<path class="st2" d="M1542.8,371.7c-0.1,0-0.1,0.1-0.2,0.1C1542.7,371.8,1542.7,371.8,1542.8,371.7c18.1-8.1,38.3-9.7,57.2-4.6v0
			C1581.1,362.1,1560.9,363.6,1542.8,371.7z"/>
		<polygon class="st3" points="1560.2,673.8 1560.2,673.8 1560.2,673.8 		"/>
		<path class="st3" d="M1331.3,564.1c-1.7-4.6-3.9-9.1-6.4-13.4c-1.1-1.8-2.2-3.6-3.4-5.4c-0.8-1.2-1.6-2.3-2.5-3.5
			c-6.4-8.5-14.5-16-23.9-21.8c-1.9-1.2-3.8-2.3-5.8-3.3c-2.7-1.4-5.4-2.7-8.3-3.8c-21.9-8.7-46.3-8.3-67.9,1
			c-28.8,12.4-47.6,38.2-52.4,67c0,0.2-0.1,0.4-0.1,0.5c-0.2,1.1-0.3,2.3-0.5,3.4c-0.1,0.7-0.2,1.4-0.2,2.1
			c-0.1,0.6-0.1,1.2-0.2,1.9c-0.1,1-0.1,2-0.2,3c0,0.3,0,0.7,0,1c0,1.2,0,2.3,0,3.5c0,0.2,0,0.4,0,0.6c0,1.3,0.1,2.6,0.2,3.8
			c0,0.1,0,0.2,0,0.3c0.1,1.4,0.2,2.7,0.4,4.1c0,0,0,0.1,0,0.1c0.2,1.4,0.4,2.8,0.6,4.2c0,0,0,0,0,0.1c0.2,1.4,0.5,2.8,0.8,4.2
			c0,0,0,0.1,0,0.1c0.3,1.4,0.6,2.7,1,4.1c0,0.1,0,0.2,0.1,0.2c0.4,1.3,0.7,2.6,1.1,3.9c0,0.1,0.1,0.2,0.1,0.4
			c0.4,1.3,0.8,2.5,1.3,3.8c0,0.1,0.1,0.2,0.1,0.3c0.5,1.3,1,2.6,1.6,3.9c0,0,0,0,0,0c0.4,1,0.9,2,1.3,2.9
			c20.6,42.9,71.7,62.2,115.6,43c21.4-9.3,38.2-26.7,46.9-48.3c1.1-2.8,2.1-5.7,2.9-8.6c2.2-7.9,3.3-16,3.3-23.9
			c0-5.8-0.5-11.5-1.6-17.1C1334.4,573.6,1333.1,568.8,1331.3,564.1z M1292.1,611.3c-5,11.4-14.3,20.5-25.9,25.3
			c-11.4,5.3-24.4,5.8-36.1,1.5c-10.1-3.3-18.5-10.5-23.5-19.8c0-0.1-0.1-0.2-0.1-0.2c-0.2-0.5-0.5-0.9-0.7-1.4
			c-0.3-0.5-0.5-1.1-0.7-1.6c0,0,0-0.1,0-0.1c-0.1-0.2-0.1-0.3-0.2-0.5c0-0.1-0.1-0.2-0.1-0.3c0,0,0,0,0,0c-0.3-0.7-0.6-1.3-0.8-2
			c0,0,0,0,0,0c-0.2-0.6-0.5-1.3-0.7-1.9c-0.1-0.2-0.1-0.3-0.2-0.5c-0.1-0.4-0.3-0.9-0.4-1.3c-0.2-0.6-0.3-1.2-0.4-1.7c0,0,0,0,0,0
			c-2-8.8-1-18.1,2.8-26.5c4.9-11.5,14.2-20.7,25.8-25.3c5.8-2.5,12.1-4,18.5-4.2c-0.1,0.3-0.3,0.6-0.5,0.9c0.3,0,0.6,0,0.9-0.1
			c-0.4,0.4-0.7,0.8-0.8,1.3c-1.9,3.7-2.1,8-0.6,11.8c1.8,3.9,5.2,7,9.3,8.4c4.4,1.5,9.2,1.3,13.4-0.6c4.2-1.9,7.6-5.2,9.6-9.4
			l0.7-1.7c4.7,4.2,8.3,9.4,10.8,15.2c2.4,5.6,3.6,11.7,3.4,17.7C1295.5,599.9,1294.4,605.8,1292.1,611.3z"/>
		<path class="st3" d="M1428.1,805.2c1.4,1.3,2.9,2.5,4.9,4l166.9-72v-19.1c-3.2-17.2-14.3-30.7-33.5-40.7c-0.7-0.7-1.5-1.2-2.4-1.7
			c-1.2-0.6-2.5-1.2-3.8-1.8l-145.5,62.8c-1,2.2-1.7,4.5-2.1,6.8C1405.5,769.2,1410.6,789.7,1428.1,805.2z M1419.4,740.6l139.8-60.3
			l0.1-0.1c0.9,0.4,1.7,0.9,2.5,1.4c22.1,12.3,32.8,29.5,32.1,52.2l-158.5,68.4c0,0-0.1-0.1-0.1-0.1l-0.6,0.2
			C1417.1,786.8,1412.1,766.4,1419.4,740.6z"/>
		<path class="st3" d="M1496.5,488.3c0,0.1,0.1,0.1,0.1,0.2c17.6,40.6,61.9,61.3,103.4,50.6v-47c-1.3,0.7-2.7,1.4-4.1,1.9
			c-11.4,5.3-24.5,5.8-36.3,1.4c-5.9-1.9-11.2-5.2-15.6-9.4c-4.3-4-7.8-8.9-10-14.5c-4.7-10.9-4.6-23.3,0.4-34.1
			c4.9-11.5,14.2-20.6,25.9-25.3c5.8-2.5,12-4,18.3-4.2c-0.1,0.3-0.2,0.5-0.4,0.8c0.4,0,0.7-0.1,1.1-0.1c-0.2,0.6-0.6,0.7-0.8,1.3
			c-2,3.8-2.2,8.4-0.3,12.4c0.3,0.9,0.8,1.7,1.2,2.4c1.9,2.5,4.5,4.4,7.5,5.5c4.2,1.5,8.9,1.4,13-0.4c0.1,0,0.1-0.1,0.2-0.1v-62.6
			c-18.9-5.1-39.1-3.6-57.2,4.6c-0.1,0-0.1,0.1-0.2,0.1c-0.6,0.3-1.3,0.6-1.9,0.8C1497.2,392.8,1477.4,444,1496.5,488.3z"/>
		<path class="st4" d="M1292.1,576.4c-2.3-5.5-5.9-10.4-10.4-14.4l-0.7,1.7c-1.9,4.2-5.3,7.6-9.6,9.4c-4.3,1.8-9,2-13.4,0.6
			c-4.3-1.3-7.7-4.5-9.4-8.7c-0.1-0.2-0.1-0.4-0.2-0.6c0-0.1-0.1-0.2-0.1-0.3c-1.7-4-1.6-8.5,0.3-12.4c0.1-0.1,0.2-0.3,0.3-0.4
			c-6.1,0.4-12,1.7-17.6,4.1c-11.6,4.7-20.9,13.8-25.8,25.3c-3.9,8-5,17.1-3.2,25.7c0,0,0,0,0,0c0.1,0.6,0.3,1.2,0.4,1.7
			c0.1,0.4,0.2,0.9,0.4,1.3c0.1,0.2,0.1,0.3,0.2,0.5c0.2,0.6,0.4,1.3,0.7,1.9c0,0,0,0,0,0c0.3,0.7,0.5,1.3,0.8,2
			c0.1,0.1,0.1,0.2,0.2,0.4c0.1,0.2,0.2,0.4,0.2,0.6c0.2,0.5,0.5,1.1,0.7,1.6c0.2,0.5,0.4,0.9,0.7,1.4c0,0.1,0.1,0.2,0.1,0.2
			c4.9,9.1,13.2,15.9,23.1,19c11.8,4.3,24.7,3.8,36.1-1.4c11.6-4.7,21-13.8,25.9-25.3c2.4-5.2,3.7-10.8,3.8-16.4
			C1295.6,588.1,1294.5,582.1,1292.1,576.4z"/>
		<path class="st4" d="M1595.2,493.3c1.6-0.7,3.2-1.4,4.8-2.3v-60.1c-4,1.6-8.4,1.7-12.5,0.3c-3.5-1.1-6.4-3.4-8.2-6.4
			c-0.7-1-1.4-2-1.9-3.2c-1.7-4-1.6-8.5,0.3-12.4c0.2-0.2,0.3-0.3,0.4-0.5c-6,0.4-11.9,1.8-17.4,4.1c-11.6,4.7-20.9,13.8-25.8,25.3
			c-5.3,10.7-5.4,23.3-0.3,34.1c2.2,5.2,5.4,9.9,9.5,13.8c4.3,3.9,9.4,6.9,15.1,8.7C1570.8,499,1583.8,498.5,1595.2,493.3z"/>
		<path class="st4" d="M1248.2,564.2c0,0.1,0.1,0.2,0.1,0.3c-1.6-3.8-1.4-8.2,0.6-11.8c0.2-0.5,0.5-0.9,0.8-1.3
			c-0.3,0-0.6,0-0.9,0.1c-0.1,0.1-0.2,0.3-0.3,0.4C1246.6,555.7,1246.5,560.2,1248.2,564.2z"/>
		<path class="st4" d="M1265.9,635.8c-11.4,5.2-24.4,5.7-36.1,1.4c-10-3.1-18.2-10-23.1-19c4.9,9.4,13.3,16.5,23.5,19.8
			c11.8,4.3,24.8,3.8,36.1-1.5c11.6-4.8,20.8-13.8,25.9-25.3c2.3-5.5,3.4-11.4,3.4-17.2c-0.1,5.6-1.4,11.2-3.8,16.4
			C1286.9,622,1277.6,631.1,1265.9,635.8z"/>
		<path class="st4" d="M1595.2,493.3c-11.4,5.2-24.4,5.7-36.1,1.5c-5.7-1.8-10.8-4.8-15.1-8.7c4.4,4.2,9.7,7.4,15.6,9.4
			c11.8,4.4,24.9,3.9,36.3-1.4c1.4-0.6,2.8-1.2,4.1-1.9V491C1598.5,491.8,1596.9,492.6,1595.2,493.3z"/>
		<path class="st4" d="M1577.4,421.6c0.5,1.1,1.1,2.2,1.9,3.2c-0.5-0.8-0.9-1.6-1.2-2.4c-1.8-4-1.7-8.5,0.3-12.4
			c0.2-0.6,0.6-0.7,0.8-1.3c-0.4,0-0.7,0-1.1,0.1c-0.1,0.2-0.3,0.4-0.4,0.5C1575.8,413.1,1575.6,417.7,1577.4,421.6z"/>
		<path class="st4" d="M1203.1,609.6c-0.1-0.4-0.3-0.9-0.4-1.3C1202.8,608.7,1203,609.2,1203.1,609.6z"/>
		<path class="st4" d="M1202.3,606.5C1202.3,606.5,1202.3,606.5,1202.3,606.5C1202.3,606.5,1202.3,606.5,1202.3,606.5z"/>
		<path class="st4" d="M1203.9,612c-0.2-0.6-0.5-1.3-0.7-1.9C1203.4,610.8,1203.7,611.4,1203.9,612z"/>
		<path class="st4" d="M1205.1,614.9C1205.1,614.9,1205.1,615,1205.1,614.9c0-0.1-0.1-0.3-0.2-0.5
			C1204.9,614.6,1205,614.7,1205.1,614.9z"/>
		<path class="st4" d="M1204.7,614.1c-0.3-0.7-0.6-1.3-0.8-2C1204.2,612.7,1204.4,613.4,1204.7,614.1z"/>
		<path class="st4" d="M1206.5,618c-0.2-0.5-0.5-0.9-0.7-1.4C1206.1,617,1206.3,617.5,1206.5,618z"/>
		<path class="st1" d="M1560.4,673.9L1560.4,673.9c-0.1,0-0.1-0.1-0.2-0.1C1560.2,673.8,1560.3,673.8,1560.4,673.9z"/>
		<path class="st1" d="M1560.4,673.9L1560.4,673.9l-0.2-0.1c0,0,0,0,0,0C1560.3,673.8,1560.3,673.8,1560.4,673.9z"/>
		<path class="st1" d="M1433.1,809.2c-2.1-1.5-3.5-2.7-4.9-4c-17.5-15.5-22.6-35.9-15.3-61.7c0.4-2.4,1.1-4.6,2.1-6.8l-0.2,0.1
			c-0.9,2.3-1.6,4.7-2.1,7c-7.3,25.7-2.3,46.1,15.3,61.7c1.6,1.4,3.2,2.8,4.9,4l167.2-72.1v-0.2L1433.1,809.2z"/>
		<path class="st1" d="M1564.2,675.6c-1.2-0.7-2.4-1.3-3.7-1.8l0,0C1561.7,674.4,1562.9,675,1564.2,675.6z"/>
		<polygon class="st1" points="1597.1,809 1600,815.8 1600,806.9 		"/>
		<path class="st1" d="M1162.6,618.2c0-0.1,0-0.2-0.1-0.2C1162.5,618,1162.6,618.1,1162.6,618.2z"/>
		<path class="st1" d="M1161.5,613.9c0,0,0-0.1,0-0.1C1161.5,613.8,1161.5,613.8,1161.5,613.9z"/>
		<path class="st1" d="M1163.9,622.5c0-0.1-0.1-0.2-0.1-0.4C1163.8,622.2,1163.8,622.4,1163.9,622.5z"/>
		<path class="st1" d="M1160.7,609.6C1160.7,609.5,1160.7,609.5,1160.7,609.6C1160.7,609.5,1160.7,609.5,1160.7,609.6z"/>
		<path class="st1" d="M1540.7,372.7c0.6-0.3,1.3-0.6,1.9-0.8C1541.9,372.1,1541.3,372.4,1540.7,372.7z"/>
		<path class="st1" d="M1324.9,550.7c2.5,4.3,4.6,8.8,6.4,13.4C1329.6,559.5,1327.4,555,1324.9,550.7z"/>
		<path class="st1" d="M1160.1,605.3c0,0,0-0.1,0-0.1C1160.1,605.2,1160.1,605.3,1160.1,605.3z"/>
		<path class="st1" d="M1168.2,633.4c-0.5-1-0.9-1.9-1.3-2.9C1167.3,631.4,1167.7,632.4,1168.2,633.4z"/>
		<path class="st1" d="M1165.3,626.6c0-0.1-0.1-0.2-0.1-0.3C1165.2,626.4,1165.3,626.5,1165.3,626.6z"/>
		<path class="st1" d="M1160.2,584.8c0.1-1.1,0.3-2.3,0.5-3.4C1160.5,582.6,1160.3,583.7,1160.2,584.8z"/>
		<path class="st1" d="M1321.5,545.3c1.2,1.8,2.3,3.6,3.4,5.4C1323.9,548.9,1322.7,547.1,1321.5,545.3z"/>
		<path class="st1" d="M1319,541.8c-6.4-8.5-14.5-16-23.9-21.8C1304.5,525.8,1312.6,533.3,1319,541.8z"/>
		<path class="st1" d="M1159.8,601.1c0-0.1,0-0.2,0-0.3C1159.8,600.9,1159.8,601,1159.8,601.1z"/>
		<path class="st1" d="M1213.2,513.9c21.6-9.3,46-9.7,67.9-1c2.8,1.1,5.6,2.4,8.3,3.8c-2.7-1.4-5.4-2.7-8.3-3.8
			c-45.5-18.1-97.1,4.1-115.2,49.6c-2.4,6-4.1,12.1-5.1,18.4C1165.5,552.1,1184.4,526.3,1213.2,513.9z"/>
		<path class="st1" d="M1319,541.8c0.9,1.1,1.7,2.3,2.5,3.5C1320.7,544.1,1319.9,543,1319,541.8z"/>
		<path class="st1" d="M1159.6,596.9c0-0.2,0-0.4,0-0.6C1159.6,596.5,1159.6,596.7,1159.6,596.9z"/>
		<path class="st1" d="M1331.3,564.1c1.7,4.6,3.1,9.4,4.1,14.3C1334.4,573.6,1333.1,568.8,1331.3,564.1z"/>
		<path class="st1" d="M1159.6,592.8c0-0.3,0-0.7,0-1C1159.6,592.2,1159.6,592.5,1159.6,592.8z"/>
		<path class="st1" d="M1159.8,588.8c0-0.6,0.1-1.3,0.2-1.9C1159.9,587.6,1159.9,588.2,1159.8,588.8z"/>
		<path class="st1" d="M1289.3,516.6c2,1,3.9,2.1,5.8,3.3C1293.2,518.8,1291.3,517.7,1289.3,516.6z"/>
		<path class="st1" d="M1335.4,578.5c1.1,5.6,1.6,11.3,1.6,17.1C1337,589.8,1336.5,584.1,1335.4,578.5z"/>
		<path class="st1" d="M1420.1,740.5c-7.2,25.7-2.2,46.1,15.2,61.6l158.1-68.2c0.7-22.5-10-40.2-31.5-52.3c-0.8-0.4-1.5-0.8-2.3-1.3
			L1420.1,740.5z"/>
		<path class="st1" d="M1434.7,802.4l0.6-0.2c-17.4-15.5-22.4-35.9-15.2-61.6l139.5-60.2c0.8,0.4,1.6,0.8,2.3,1.3
			c-0.8-0.5-1.7-0.9-2.5-1.4l-0.1,0.1l-139.8,60.3C1412.1,766.4,1417.1,786.8,1434.7,802.4z"/>
		<path class="st1" d="M1549.3,626.6l24.9,15.1c8.6,0.6,17.3,1.5,25.8,2.8v-17.9C1583.1,624.8,1566.1,624.8,1549.3,626.6z"/>
		<path class="st1" d="M1507.3,1054.2c29.2-3.2,54.7-1,76.9,6.9l-53.3-123.5l-0.4,0.2l-62,26.7L1507.3,1054.2z"/>
		
			<rect x="1506.7" y="909.9" transform="matrix(0.9182 -0.3961 0.3961 0.9182 -241.4001 676.73)" class="st1" width="22.5" height="26"/>
		<polygon class="st1" points="1478.5,859.8 1487,879.7 1507.7,870.8 1500.7,854.4 		"/>
		
			<rect x="1494" y="879.2" transform="matrix(0.9182 -0.3961 0.3961 0.9182 -230.7957 669.3054)" class="st1" width="22.5" height="28.6"/>
		<path class="st1" d="M1509.8,1060.2c-41.5,48.1-55.9,93.4-43.6,137.1c4.1,12.8,19.2,16.2,45.5,10.5c31.3-7.6,60.8-20.7,88.3-39.5
			v-92C1575.2,1061.2,1545.1,1055.7,1509.8,1060.2z"/>
		<polygon class="st1" points="1523.3,565.5 1366.4,633.2 1386.6,680.1 1543.4,612.4 		"/>
		<polygon class="st1" points="1590.5,912 1600,934.1 1600,907.9 		"/>
		<path class="st1" d="M1576.6,917.9l-39.3,17l56.3,130.6c2.2,1,4.3,2.1,6.4,3.2v-96.5L1576.6,917.9z"/>
		<path class="st1" d="M1600.9,730.8c0,1.9-0.1,3.7-0.5,6.1l0.2-0.1c0.1-1.9,0.6-4,0.5-6.3c0.1-4.6-0.3-8.9-1.1-13.1v0.6
			C1600.7,722.1,1601.1,726.4,1600.9,730.8z"/>
		<path class="st1" d="M1600,718.1v19.1l0.4-0.2c0.3-2.4,0.4-4.3,0.5-6.1C1601.1,726.4,1600.7,722.1,1600,718.1z"/>
		<path class="st1" d="M1600,737.4l0.4-0.2c0-0.1,0-0.1,0-0.2l-0.4,0.2V737.4z"/>
		<g>
			<path class="st1" d="M31.5,2173.1c-10.9-2.6-22.3-5-33.7-7.2l4.5-23.6c11.8,2.2,23.5,4.7,34.7,7.4L31.5,2173.1z"/>
			<path class="st1" d="M1555.1,3307.4c-21.6-1.9-44.9-5-69.2-9.2l4.2-23.6c23.6,4.2,46.1,7.2,67,9L1555.1,3307.4z M1476.1,3296.3
				c-21.8-4.1-44.6-9.1-67.8-15l5.9-23.3c22.7,5.8,45,10.7,66.4,14.7L1476.1,3296.3z M1398.7,3278.8c-21.9-5.7-44.3-12.2-66.6-19.4
				l7.3-22.9c21.9,7,43.9,13.4,65.4,19L1398.7,3278.8z M1322.6,3256.4c-21.9-7.1-43.8-14.9-65.4-23.1l8.6-22.4
				c21.2,8.1,42.8,15.7,64.2,22.7L1322.6,3256.4z M1248.1,3229.7c-21.8-8.5-43.3-17.5-64-26.8l9.9-21.9c20.3,9.1,41.4,18,62.8,26.3
				L1248.1,3229.7z M1175.1,3198.8c-21.7-10-42.6-20.4-62.2-30.9l11.4-21.1c19.1,10.3,39.6,20.5,60.9,30.2L1175.1,3198.8z
				 M1104.1,3163.2c-21.6-11.9-41.7-24-59.7-36.1l13.4-19.9c17.4,11.7,36.9,23.5,57.9,35L1104.1,3163.2z M1036.2,3121.4
				c-4.4-3.1-8.8-6.2-13-9.3c-14.5-10.7-28.8-21.4-42.6-32.1l14.6-19c13.7,10.5,27.8,21.2,42.2,31.8c4,3,8.2,6,12.5,8.9
				L1036.2,3121.4z M972.8,3074c-18.4-14.3-36.6-28.9-53.9-43.2l15.3-18.5c17.1,14.2,35,28.6,53.3,42.7L972.8,3074z M911.3,3024.5
				c-17.9-15-35.5-30.2-52.2-45.2l16-17.9c16.6,14.9,33.9,29.9,51.6,44.7L911.3,3024.5z M851.8,2972.6
				c-17.2-15.6-34.1-31.6-50.3-47.5l16.8-17.1c15.9,15.6,32.6,31.4,49.6,46.8L851.8,2972.6z M794.5,2918.2
				c-16.4-16.3-32.6-33.1-48-49.8l17.6-16.3c15.2,16.5,31.1,33,47.3,49.1L794.5,2918.2z M739.8,2861.2c-15.5-17-30.8-34.5-45.5-52.1
				l18.4-15.4c14.5,17.4,29.5,34.6,44.8,51.3L739.8,2861.2z M688,2801.4c-14.4-17.5-28.8-35.8-42.8-54.3l19.2-14.4
				c13.8,18.3,28,36.3,42.2,53.5L688,2801.4z M639.2,2739.1c-13.5-18.1-26.7-36.5-40.2-56.2l19.8-13.6
				c13.4,19.4,26.4,37.6,39.7,55.5L639.2,2739.1z M593.5,2674.8c-12.4-18.2-24.8-37-38-57.6l20.2-12.9c13.1,20.4,25.4,39.1,37.6,57
				L593.5,2674.8z M550.2,2608.9l-1.6-2.5c-12.1-19-24.1-37.4-35.8-54.8l19.9-13.4c11.8,17.5,24,36.1,36.2,55.3l1.6,2.5
				L550.2,2608.9z M507.3,2543.6c-13.2-19.4-26.5-38.1-39.5-55.6l19.3-14.3c13.2,17.7,26.6,36.7,40,56.4L507.3,2543.6z M462,2480.2
				c-14.1-18.8-28.3-36.7-42.2-53.4l18.4-15.4c14.2,17,28.6,35.3,42.9,54.4L462,2480.2z M413.6,2419.3
				c-15.1-17.8-30.4-34.8-45.5-50.4l17.3-16.7c15.4,16,31.1,33.4,46.5,51.6L413.6,2419.3z M361.4,2362
				c-16.3-16.5-32.9-32.1-49.4-46.3l15.7-18.2c17,14.6,34.1,30.7,50.8,47.6L361.4,2362z M304.7,2309.4
				c-17.5-14.7-35.6-28.5-53.7-40.8l13.6-19.8c18.7,12.8,37.4,27,55.5,42.3L304.7,2309.4z M243,2263.2c-18.8-12.5-38.3-23.9-58-34.1
				l11-21.3c20.5,10.6,40.8,22.5,60.3,35.5L243,2263.2z M176.4,2224.7c-19.8-9.9-40.6-18.9-61.8-26.7l8.3-22.5
				c22,8.1,43.6,17.5,64.2,27.7L176.4,2224.7z M105.5,2194.7c-20.6-7.3-42.4-13.8-64.7-19.3l5.8-23.3c23,5.7,45.5,12.4,66.9,20
				L105.5,2194.7z"/>
			<path class="st1" d="M1601.1,3309.4c-11.3,0-23.4-0.4-35.8-1.3l1.7-23.9c11.9,0.8,23.4,1.2,34.1,1.2V3309.4z"/>
		</g>
		<g>
			<path class="st1" d="M29.6,960.6C19,957,8,953.7-3,950.9l6-23.2c11.6,3,23.2,6.4,34.4,10.3L29.6,960.6z"/>
			<path class="st1" d="M1552,2081.9c-22.7-0.5-46.5-1.5-70.6-2.8l1.3-24c23.9,1.3,47.4,2.3,69.9,2.8L1552,2081.9z M1471.3,2078.5
				c-23.2-1.4-46.9-3.1-70.5-5.2l2.1-23.9c23.4,2,46.9,3.7,69.8,5.1L1471.3,2078.5z M1390.7,2072.4c-23.6-2.1-47.2-4.6-70.2-7.3
				l2.8-23.8c22.8,2.7,46.2,5.1,69.6,7.2L1390.7,2072.4z M1310.5,2063.9c-24.2-2.9-47.8-6.2-70-9.6l3.7-23.7
				c22,3.4,45.3,6.6,69.3,9.5L1310.5,2063.9z M1230.4,2052.7c-25.2-4-48.6-8.3-69.8-12.7l4.9-23.5c20.7,4.3,43.8,8.6,68.6,12.5
				L1230.4,2052.7z M1150.8,2037.8c-12.1-2.7-23.5-5.4-33.8-8.1c-11.8-3.1-23.6-6.5-35.1-10l7-23c11.2,3.4,22.8,6.7,34.2,9.8
				c10,2.6,21,5.3,32.8,7.9L1150.8,2037.8z M1072.1,2016.7c-22.7-7.2-45.2-15.3-67-24l8.9-22.3c21.2,8.5,43.2,16.4,65.3,23.4
				L1072.1,2016.7z M995.7,1988.8c-21.9-9.1-43.6-19.1-64.7-29.8l10.9-21.4c20.5,10.4,41.6,20.2,63,29L995.7,1988.8z M922,1954.4
				c-20.9-10.9-41.7-22.8-61.8-35.4l12.7-20.3c19.5,12.2,39.8,23.8,60.1,34.5L922,1954.4z M851.7,1913.5
				c-19.8-12.7-39.4-26.4-58.4-40.7l14.5-19.2c18.5,14,37.6,27.3,56.9,39.6L851.7,1913.5z M785.2,1866.7
				c-18.5-14.3-36.9-29.5-54.7-45.4l16-17.9c17.4,15.5,35.4,30.4,53.4,44.3L785.2,1866.7z M722.9,1814.5
				c-17.2-15.6-34.3-32.3-51-49.5l17.3-16.7c16.3,16.9,33,33.2,49.8,48.4L722.9,1814.5z M665,1757.6c-15.9-16.8-31.8-34.6-47.3-52.9
				l18.3-15.5c15.2,18,30.8,35.5,46.4,51.9L665,1757.6z M611.2,1696.9c-14.6-17.6-29.4-36.3-43.9-55.6l19.2-14.4
				c14.3,19,28.8,37.4,43.2,54.7L611.2,1696.9z M561.2,1633.1c-13.5-18.3-27-37.1-41-57.7l19.8-13.6c13.9,20.3,27.1,38.9,40.5,56.9
				L561.2,1633.1z M514.5,1567.1c-3.3-4.8-6.6-9.8-10-14.9c-8.8-13.2-22.4-36.6-32.3-54l20.9-11.8c9.6,17,22.9,39.9,31.4,52.5
				c3.3,4.9,6.6,9.8,9.9,14.8L514.5,1567.1z M406.9,1373.2l-4.8-9.4l21.3-11c1.3,2.6,3.9,8.9,3.9,8.9L406.9,1373.2z M397.5,1354.9
				c-12.3-23.7-22.7-43.3-32.9-61.8l21-11.6c10.3,18.7,20.9,38.5,33.2,62.4L397.5,1354.9z M359.7,1284.4
				c-12.2-21.8-23.8-41.5-35.4-60.1l20.4-12.7c11.8,19,23.6,39,36,61.1L359.7,1284.4z M319,1215.8c-13-20.4-26.2-39.7-39.2-57.4
				l19.3-14.2c13.4,18.1,26.9,37.9,40.1,58.8L319,1215.8z M273.9,1150.5c-14.4-19.1-29.2-37-44.1-53.3l17.7-16.2
				c15.4,16.8,30.7,35.3,45.5,55L273.9,1150.5z M223.1,1090c-16.2-17.2-33-33.1-50-47.3l15.4-18.4c17.7,14.8,35.2,31.4,52,49.3
				L223.1,1090z M165.5,1036.4c-18.1-14.6-37.1-27.7-56.3-39l12.2-20.7c20.2,11.9,40.1,25.7,59.1,41L165.5,1036.4z M100.8,992.5
				c-19.9-11.2-40.8-20.8-62-28.6l8.3-22.5c22.4,8.2,44.4,18.4,65.4,30.2L100.8,992.5z"/>
			<path class="st1" d="M1597.1,2082.4c-11.4,0-23.2-0.1-35.2-0.3l0.5-24c11.9,0.2,23.6,0.3,34.8,0.3V2082.4z"/>
		</g>
		<g>
			<path class="st1" d="M1592.9,2325.8l-21.5-10.7c5.6-11.4,10.6-21.9,14.7-31.2l22,9.7C1603.8,2303.3,1598.7,2314.1,1592.9,2325.8z
				"/>
			<path class="st1" d="M46.8,3935.8l-8.5-22.5c22.4-8.5,43.4-17.3,64-26.9l10.2,21.7C91.3,3918.1,69.8,3927.1,46.8,3935.8z
				 M121.7,3903.8l-10.4-21.6c21-10.1,41-20.8,61.2-32.6l12.1,20.7C164.2,3882.2,143,3893.5,121.7,3903.8z M193.4,3865l-12.4-20.6
				c19.3-11.6,38.8-24.4,58.1-38.1l13.9,19.6C233.3,3839.9,213.2,3853.1,193.4,3865z M261.3,3820l-14.1-19.4
				c18.1-13.1,36.6-27.4,55.1-42.6l15.2,18.6C298.7,3792,279.8,3806.7,261.3,3820z M325.4,3770.1l-15.4-18.4
				c17.1-14.3,34.8-29.7,52.5-46l16.2,17.7C360.7,3739.9,342.8,3755.6,325.4,3770.1z M386.2,3716.5l-16.3-17.6
				c16.3-15.2,33.3-31.5,50.4-48.5l16.9,17C419.9,3684.6,402.8,3701.2,386.2,3716.5z M444.4,3660.2l-17-16.9
				c13.8-13.9,28.1-28.6,42.4-43.7c2.1-2.2,4.2-4.5,6.4-6.7l17.4,16.6c-2.1,2.2-4.2,4.4-6.3,6.6
				C472.7,3631.4,458.3,3646.2,444.4,3660.2z M500.4,3602.2l-17.3-16.6c16.1-16.8,32.8-33.7,49.6-50.3l16.9,17.1
				C532.9,3568.8,516.4,3585.6,500.4,3602.2z M556.7,3545.3l-16.8-17.1c16.4-16.1,33.5-32.6,50.9-48.9l16.4,17.5
				C590,3513,573,3529.3,556.7,3545.3z M614.6,3489.9l-16.4-17.5c16.7-15.6,33.7-31.2,52.1-47.7l16,17.8
				C648.1,3458.9,631.2,3474.4,614.6,3489.9z M673.8,3435.8l-16-17.9c16.4-14.6,33.7-29.9,52.9-46.7l15.8,18.1
				C707.3,3406.1,690.1,3421.3,673.8,3435.8z M734,3382.8l-15.7-18.1c18.5-16.1,36.5-31.6,53.3-46l15.6,18.2
				C770.5,3351.2,752.4,3366.8,734,3382.8z M794.9,3330.3l-15.6-18.2l6.8-5.9c15.2-13.1,31-26.7,46.5-40l15.7,18.2
				c-15.5,13.4-31.3,26.9-46.5,40L794.9,3330.3z M855.8,3277.8l-15.7-18.1c19.8-17.1,37-32.2,52.9-46.2l15.9,18
				C893,3245.4,875.6,3260.6,855.8,3277.8z M916.4,3224.6l-16-17.9c18.6-16.5,35.6-31.9,52-47.1l16.3,17.6
				C952.2,3192.5,935.1,3208,916.4,3224.6z M976.1,3170.4l-16.3-17.6c17.8-16.5,34.4-32.3,50.7-48.3l16.8,17.2
				C1011,3137.5,993.8,3153.9,976.1,3170.4z M1034.5,3114.5l-16.8-17.1c16.8-16.5,33.3-33.3,49.2-49.8l17.3,16.6
				C1068.2,3080.9,1051.5,3097.8,1034.5,3114.5z M1091.2,3056.9l-17.4-16.5c16.1-16.9,32-34.2,47.4-51.5l17.9,16
				C1123.5,3022.3,1107.4,3039.8,1091.2,3056.9z M1145.8,2997.3l-18-15.9c15.4-17.4,30.7-35.2,45.6-53.1l18.5,15.3
				C1176.8,2961.7,1161.3,2979.8,1145.8,2997.3z M1198.3,2935.9l-18.5-15.3c10.4-12.6,20.8-25.5,30.9-38.4c4-5.1,8.3-10.6,12.6-16.3
				l19.1,14.6c-4.4,5.8-8.8,11.4-12.9,16.6C1219.3,2910.1,1208.8,2923.2,1198.3,2935.9z M1248.6,2872.4l-19.2-14.4
				c12.5-16.6,26.4-35.7,41.3-56.7l19.6,13.9C1275.3,2836.3,1261.2,2855.6,1248.6,2872.4z M1296.1,2806.8l-19.6-13.8
				c12.7-18.1,26.1-37.5,39.9-57.8l19.9,13.5C1322.4,2769.1,1308.9,2788.7,1296.1,2806.8z M1341.9,2740.3l-19.9-13.4
				c12.7-18.9,25.8-38.6,38.9-58.5l20.1,13.2C1367.9,2701.6,1354.7,2721.4,1341.9,2740.3z M1386.6,2673.1l-20.1-13.1
				c12.7-19.5,25.5-39.3,38.1-59.1l20.2,12.9C1412.2,2633.6,1399.3,2653.5,1386.6,2673.1z M1430.2,2605.2l-20.3-12.9
				c12.7-20,25.2-40,37.3-59.6l20.4,12.6C1455.6,2565,1443,2585.1,1430.2,2605.2z M1473,2536.7l-20.5-12.6
				c12.6-20.6,24.9-40.8,36.3-60.2l20.6,12.2C1497.9,2495.7,1485.7,2516.1,1473,2536.7z M1514.6,2467.6l-20.7-12.2
				c12.6-21.4,24.4-41.8,35.1-60.8l20.9,11.8C1539.2,2425.4,1527.3,2446,1514.6,2467.6z M1554.9,2397.5l-21-11.7
				c12.6-22.7,23.7-43.5,33-61.8l21.4,10.8C1578.9,2353.4,1567.7,2374.5,1554.9,2397.5z"/>
			<path class="st1" d="M3.8,3951l-7.5-22.8c11.2-3.7,22.2-7.5,32.7-11.4l8.2,22.5C26.4,3943.3,15.2,3947.2,3.8,3951z"/>
		</g>
		<g>
			<path class="st1" d="M9.7,3216.4c-6.5-9.6-13.2-19.4-19.7-29.1L10,3174c6.5,9.7,13.1,19.4,19.6,28.9L9.7,3216.4z"/>
			<path class="st1" d="M1553.3,4359.3c-22.7-1.7-46.1-4.3-69.5-7.7l3.5-23.7c22.9,3.4,45.7,5.9,67.8,7.5L1553.3,4359.3z
				 M1474,4350.1c-22.4-3.5-45.5-7.9-68.6-13.1l5.2-23.4c22.6,5,45.2,9.3,67.1,12.8L1474,4350.1z M1395.7,4334.8
				c-22.1-5.1-44.8-11-67.4-17.6l6.7-23.1c22.3,6.4,44.5,12.2,66.2,17.3L1395.7,4334.8z M1318.7,4314.4c-21.7-6.5-44-13.7-66.3-21.4
				l7.9-22.7c21.9,7.7,43.9,14.7,65.2,21.1L1318.7,4314.4z M1243,4289.7c-21.3-7.6-43.2-15.9-65.1-24.7l9-22.3
				c21.6,8.7,43.1,16.9,64.1,24.4L1243,4289.7z M1168.8,4261.2c-20.9-8.5-42.4-17.8-63.9-27.5l9.9-21.9
				c21.2,9.6,42.5,18.7,63.1,27.1L1168.8,4261.2z M1095.9,4229.7c-20.4-9.3-41.5-19.3-62.8-29.8l10.6-21.5
				c21.1,10.4,42,20.3,62.1,29.5L1095.9,4229.7z M1024.2,4195.5c-19.6-9.8-39.8-20.1-61.8-31.6l11.2-21.2
				c21.8,11.5,41.8,21.7,61.3,31.4L1024.2,4195.5z M953.7,4159.2c-15.2-8-29.4-15.7-42-22.4c-6.7-3.6-13-7-19-10.2l11.3-21.2
				c6,3.2,12.4,6.6,19.1,10.2c12.5,6.7,26.8,14.4,41.9,22.4L953.7,4159.2z M883.9,4121.9c-20.1-10.8-40.5-22.5-60.5-34.8l12.6-20.4
				c19.6,12.1,39.6,23.5,59.3,34.1L883.9,4121.9z M815,4081.9c-19.3-12.1-38.8-25-58.1-38.5l13.8-19.6c18.9,13.3,38.1,26,57,37.8
				L815,4081.9z M748.8,4037.6c-18.5-13.2-37.2-27.2-55.7-41.8l14.8-18.9c18.2,14.3,36.6,28.1,54.8,41.1L748.8,4037.6z
				 M685.3,3989.7c-17.7-14.1-35.7-29.1-53.5-44.5l15.7-18.1c17.5,15.2,35.2,29.9,52.7,43.8L685.3,3989.7z M624.3,3938.7
				c-17-14.9-34.3-30.7-51.4-46.8l16.5-17.5c16.9,15.9,33.9,31.5,50.7,46.2L624.3,3938.7z M565.7,3885c-16.4-15.6-33-32-49.5-48.7
				l17.1-16.8c16.3,16.6,32.8,32.8,48.9,48.2L565.7,3885z M509.3,3829.2c-15.7-16.1-31.8-33.1-47.7-50.4l17.6-16.3
				c15.8,17.1,31.7,33.9,47.3,49.9L509.3,3829.2z M454.9,3771.6c-15.2-16.6-30.7-34-46.2-51.7l18.1-15.8
				c15.4,17.6,30.8,34.9,45.8,51.3L454.9,3771.6z M402.2,3712.4c-6.3-7.2-12.6-14.7-19-22.1c-7.8-9.1-15.5-18.2-23.2-27.3l-2.8-3.3
				l18.3-15.6l2.8,3.3c7.7,9.1,15.4,18.1,23.2,27.3c6.3,7.4,12.6,14.8,18.8,21.9L402.2,3712.4z M350.9,3652.3
				c-13.5-15.8-29.2-34.3-44.7-52.7l18.3-15.5c15.5,18.3,31.2,36.8,44.7,52.6L350.9,3652.3z M299.8,3592.1
				c-16.3-19.3-30.9-36.7-44.5-53l18.4-15.4c13.5,16.3,28,33.5,44.3,52.8L299.8,3592.1z M249,3531.5c-15.6-18.8-29.9-36.3-43.9-53.5
				l18.7-15.1c13.9,17.2,28.2,34.6,43.7,53.3L249,3531.5z M198.9,3470.3c-14.8-18.4-29.3-36.6-43.1-54.2l18.9-14.8
				c13.7,17.5,28.1,35.7,42.8,53.9L198.9,3470.3z M149.8,3408.2c-14.3-18.3-28.4-36.9-42.1-55l19.2-14.4
				c13.6,18.1,27.6,36.5,41.8,54.7L149.8,3408.2z M101.8,3345.3c-13.8-18.5-27.6-37.3-40.9-55.9l19.5-14
				c13.3,18.5,27,37.2,40.7,55.5L101.8,3345.3z M55.1,3281.3c-13.3-18.6-26.7-37.7-39.8-56.7l19.8-13.6c13,18.9,26.3,37.9,39.5,56.4
				L55.1,3281.3z"/>
			<path class="st1" d="M1598.8,4361.5c-11.7-0.2-23.6-0.8-35.5-1.5l1.5-24c11.5,0.7,23.1,1.2,34.5,1.5L1598.8,4361.5z"/>
		</g>
	</g>
	<g>
		<path class="st4" d="M392.4,3744.2c-34,0-61.7-27.7-61.7-61.7c0-34,27.7-61.7,61.7-61.7c34,0,61.7,27.7,61.7,61.7
			C454.2,3716.5,426.5,3744.2,392.4,3744.2z"/>
		<path class="st3" d="M392.4,3627.8c30.2,0,54.7,24.5,54.7,54.7c0,30.2-24.5,54.7-54.7,54.7s-54.7-24.5-54.7-54.7
			C337.7,3652.3,362.2,3627.8,392.4,3627.8 M392.4,3613.8c-37.9,0-68.7,30.8-68.7,68.7c0,37.9,30.8,68.7,68.7,68.7
			c37.9,0,68.7-30.8,68.7-68.7C461.2,3644.6,430.3,3613.8,392.4,3613.8L392.4,3613.8z"/>
	</g>
	<g>
		
			<ellipse transform="matrix(0.9239 -0.3827 0.3827 0.9239 -1108.8219 630.4356)" class="st4" cx="1030.3" cy="3102.4" rx="61.7" ry="61.7"/>
		<path class="st3" d="M1030.3,3047.7c30.2,0,54.7,24.5,54.7,54.7s-24.5,54.7-54.7,54.7c-30.2,0-54.7-24.5-54.7-54.7
			S1000.1,3047.7,1030.3,3047.7 M1030.3,3033.7c-37.9,0-68.7,30.8-68.7,68.7s30.8,68.7,68.7,68.7c37.9,0,68.7-30.8,68.7-68.7
			S1068.2,3033.7,1030.3,3033.7L1030.3,3033.7z"/>
	</g>
	<g>
		
			<ellipse transform="matrix(0.1602 -0.9871 0.9871 0.1602 -1033.2351 1640.3796)" class="st4" cx="447.4" cy="1427.4" rx="61.7" ry="61.7"/>
		<g>
			<path class="st3" d="M447.4,1372.7c30.2,0,54.7,24.5,54.7,54.7c0,30.2-24.5,54.7-54.7,54.7c-30.2,0-54.7-24.5-54.7-54.7
				C392.7,1397.2,417.2,1372.7,447.4,1372.7 M447.4,1358.7c-37.9,0-68.7,30.8-68.7,68.7s30.8,68.7,68.7,68.7
				c37.9,0,68.7-30.8,68.7-68.7S485.3,1358.7,447.4,1358.7L447.4,1358.7z"/>
		</g>
	</g>
</g>
<g>
	<g>
		<path class="st5" d="M1601.1,4511.1c0,0-12.5,3-33.8,9.1"/>
		<path class="st6" d="M1557.8,4523.1c-69.8,20.7-211.1,69.1-328.3,149.8c-504,347-611.5,1016.3-1193.2,1045.6"/>
		<path class="st5" d="M31.2,5718.8c-11.5,0.5-23.1,0.8-35,0.8"/>
	</g>
</g>
</svg>
