<?xml version="1.0" encoding="utf-8"?>
<!-- Generator: Adobe Illustrator 22.0.0, SVG Export Plug-In . SVG Version: 6.00 Build 0)  -->
<svg version="1.1" id="Layer_1" xmlns="http://www.w3.org/2000/svg" xmlns:xlink="http://www.w3.org/1999/xlink" x="0px" y="0px"
	 viewBox="0 0 867.5 864.8" style="enable-background:new 0 0 867.5 864.8;" xml:space="preserve">
<style type="text/css">
	.st0{fill:none;stroke:#9E9E9E;stroke-width:51.0236;stroke-miterlimit:10;}
	.st1{fill:#686868;}
</style>
<g>
	<circle class="st0" cx="434.2" cy="432.3" r="402.8"/>
	<g>
		<path class="st1" d="M335.1,445.8c-68.6-78.2-47.1-168.7,4.8-214.5c52.5-46.3,127.9-47.9,183.1-2c32.5,27.1,48.8,63.3,50.8,105.4
			c2,42.4-15.5,77.9-43.4,110.5c3.9,0.3,6.2,0.6,8.5,0.6c23.9,0,47.7,0,71.6,0c13.6,0,20.2,5.6,22.7,19.1
			c9.9,53.6,19.7,107.2,29.4,160.8c2.1,12.1-6.5,22.6-18.8,23.2c-2,0.1-3.9,0.1-5.9,0.1c-135.9,0-271.9,0-407.7-0.1
			c-4.1,0-8.5,0-12.3-1.3c-8.9-3.2-13.8-13-11.9-23.1c9.7-53.3,19.5-106.7,29.3-160c2.3-13,9-18.7,22.1-18.8c22.7-0.1,45.5,0,68.2,0
			C328.1,445.8,330.8,445.8,335.1,445.8z M249.1,609.1c124,0,246.6,0,369.3,0c0.2-1.2,0.4-1.8,0.3-2.2c-6.9-38.9-13.7-77.9-21-116.8
			c-0.4-1.9-4.6-4.4-7-4.4c-28-0.3-56-0.4-84,0c-3.2,0-7.5,2.1-9.4,4.8c-15.7,20.1-30.8,40.5-46.1,60.9c-5.1,6.8-11.5,12.8-20,10.4
			c-6.1-1.7-12.4-6.1-16.4-11.2c-15.4-19.3-29.7-39.3-44.8-58.8c-2.3-3-6.9-6.1-10.4-6.1c-27.2-0.5-54.3-0.1-81.5-0.4
			c-5.6-0.1-7,2.1-7.7,7.1c-2.2,13.9-4.9,27.8-7.5,41.7C258.1,558.8,253.7,583.5,249.1,609.1z M432.8,510c1.2-1.8,1.7-2.4,2.1-3.1
			c26.8-36,54.2-71.6,80.3-108.1c18-25.1,23.8-53.2,16.2-83.7c-13.2-53.8-64.5-88.5-116.1-78.6c-71.6,13.6-108.4,98.4-67.6,158.9
			C374.3,434.3,403.8,471.2,432.8,510z"/>
		<path class="st1" d="M369.8,326.1c0-35.7,28.6-64.2,64.5-64.3c36.1-0.1,64.8,28.7,64.8,64.9c0,35.6-28.7,64.1-64.6,64.1
			C398.1,390.7,369.8,362.4,369.8,326.1z M434.4,351.4c14.2,0,25.5-11.4,25.3-25.3c-0.2-13.6-11.3-24.8-24.9-25.1
			c-14.3-0.3-25.8,11.3-25.6,25.8C409.3,340.3,420.7,351.4,434.4,351.4z"/>
	</g>
</g>
</svg>
