<svg xmlns="http://www.w3.org/2000/svg" viewBox="0 0 672.1 356.17"><defs><style>.cls-1{fill:#fff;}.cls-2{fill:#eb7630;}.cls-3{fill:#9d64a3;}.cls-4{fill:#56215d;}.cls-5{isolation:isolate;}</style></defs><title>Asset 8</title><g id="Layer_2" data-name="Layer 2"><g id="home"><g id="bg-header"><g id="bg-logo"><path class="cls-1" d="M646.38,351.88H215.27s-14.67,1.85-25,3.23c-7.62,1-25,1.8-35.83-.12-9.85-1.76-22-10-26.46-10-3.76,0-22,9.64-36,10.8-20.48,1.69-34.42-2.22-42.82-6.64s-9.78-11.63-8.4-19.74,2.77-14.09,11.35-23.88c7.32-8.34,21-15.36,21-15.36l-.28-7.64V271c-3.75,4.15-13,12.46-19.15,13.84a11.82,11.82,0,0,1-10.2-2.38l-10-22.71L15,266.61s-5.54.28-11.08-13.1S-.8,232.33,3.36,222c3.42-8.47,12.73-15.81,21.87-18.55,8.3-2.49,18.27-.55,18.27-.55a60.33,60.33,0,0,1,6.72-17.72c4.55-8,16.26-16.06,16.26-16.06h-23S14.43,162,14.43,115.77,47.1,68.52,47.1,68.52H87.51s.07-9.34,9.2-16.19c7.84-5.89,18.77-5.26,18.77-5.26,0-6.93-.43-14.68-.43-14.68s-9.26-5.81-9.26-16.1c0-8,5.54-16.29,19.56-16.29,14.5,0,18.37,9.57,18.37,16.29,0,7.46-7.75,16.38-7.75,16.38v14.4s15.51-.84,24.23,5.39c6.41,4.59,8.16,16.06,8.16,16.06h50.71c10.84,0,27.6,8.4,27.6,47.25,0,27.61-9,32.07-9,32.07H618.81s16.18-.66,25.88,2.49c10.2,3.32,19,8.25,24.24,20.36,2.73,6.35,9,32.65-10.36,52V334.28C658.57,340.67,658.7,351.88,646.38,351.88Z"/><g id="Capa_3" data-name="Capa 3"><path class="cls-1" d="M173.06,115.92a14.09,14.09,0,0,0,4.67,10.51,15.91,15.91,0,0,0,11.4,4.39,16.14,16.14,0,0,0,11.39-4.39,13.37,13.37,0,0,0,4.67-10.51,14.07,14.07,0,0,0-4.67-10.52A15.9,15.9,0,0,0,189.13,101a17.13,17.13,0,0,0-6.28,1.17,1.16,1.16,0,0,0,.43.29,4.92,4.92,0,0,1,1.76,3.8,5.45,5.45,0,0,1-1.76,3.94,6.08,6.08,0,0,1-4.23,1.61,6.69,6.69,0,0,1-4.24-1.61l-.44-.44A14.59,14.59,0,0,0,173.06,115.92ZM168,94.74a29.94,29.94,0,0,1,51.12,21.18A30,30,0,0,1,168,137.1a30,30,0,0,1,0-42.36ZM53.29,109.93A13.12,13.12,0,0,0,52,115.77a14.07,14.07,0,0,0,4.67,10.52A15.88,15.88,0,0,0,68,130.67a16.15,16.15,0,0,0,11.4-4.38,13.38,13.38,0,0,0,4.67-10.52,14.13,14.13,0,0,0-4.67-10.52A15.9,15.9,0,0,0,68,100.87,17.21,17.21,0,0,0,61.76,102a1.07,1.07,0,0,0,.44.29,4.93,4.93,0,0,1,1.75,3.8,5.42,5.42,0,0,1-1.75,3.94,6,6,0,0,1-4.09,1.61,6.34,6.34,0,0,1-4.24-1.61C53.44,110.22,53.44,110.07,53.29,109.93ZM68,86a29.93,29.93,0,0,1,29.94,30A29.91,29.91,0,0,1,68,145.86,29.91,29.91,0,0,1,38.1,115.92a28.77,28.77,0,0,1,8.76-21.18A28.81,28.81,0,0,1,68,86Zm34.91,96h53.61a18.13,18.13,0,0,1,1.6,1.9c5.7,7,6.87,14,3.51,21.17a19.37,19.37,0,0,1-1,1.9H99c-.44-.73-.73-1.31-1-1.9-3.35-7.15-2.19-14.16,3.51-21.17A5.9,5.9,0,0,1,103,181.94Zm1.17,1.9c-5.7,7-6.87,14-3.51,21.17h58.28c3.36-7.15,2.19-14.16-3.5-21.17ZM53,227.51a5.66,5.66,0,1,1,1.6-3.95A5.66,5.66,0,0,1,53,227.51Zm-1-6.87a4.1,4.1,0,0,0-2.93-1.17,4.37,4.37,0,0,0-2.92,1.17A4.09,4.09,0,0,0,45,223.56a4.33,4.33,0,0,0,1.17,2.92,3.56,3.56,0,0,0,2.92,1.17A4.32,4.32,0,0,0,52,226.48a3.69,3.69,0,0,0,1.31-2.92A3.93,3.93,0,0,0,52,220.64Z"/><path class="cls-2" d="M379.15,173H325.26v-7.74h53.89Zm2.48,0v-7.74H429V173Zm50-7.74h46.88V173H431.59ZM480.81,173v-7.74h43.38V173ZM527,165.29h38V173H527ZM567.42,173v-7.74H599.7L594,173Zm60.33-15.78h.73c.87.15,1.75.15,2.48.29v18.85a11.57,11.57,0,0,0-2.48-.73,6.45,6.45,0,0,0-.73-.15,15.53,15.53,0,0,0-2.63-.15,15,15,0,0,0-10.81,4.39,14.75,14.75,0,0,0-4.38,10.8,15,15,0,0,0,4.38,10.81,14,14,0,0,0,9.05,4.38l-8.17,16.95a33.2,33.2,0,0,1-13.73-8.47,32.1,32.1,0,0,1-9.79-23.52,31.15,31.15,0,0,1,5-17.53,31.7,31.7,0,0,1,5-6.13c.59-.59,1.17-1,1.75-1.61a32.69,32.69,0,0,1,21.91-8.18Zm-21.33,11.1a6.47,6.47,0,0,0-6.42,6.43,6.73,6.73,0,0,0,1.89,4.53,5.76,5.76,0,0,0,4.53,1.75,6.52,6.52,0,0,0,4.53-1.75,5.76,5.76,0,0,0,1.75-4.53,6.54,6.54,0,0,0-1.75-4.53A6.67,6.67,0,0,0,606.42,168.35Zm4.09,6.58a4.37,4.37,0,0,1-1.17,2.92,3.9,3.9,0,0,1-2.92,1.31,3.69,3.69,0,0,1-2.92-1.31,3.92,3.92,0,0,1,0-5.85,3.69,3.69,0,0,1,2.92-1.31,3.9,3.9,0,0,1,2.92,1.31A4.1,4.1,0,0,1,610.51,174.93ZM130.41,11.48a6.52,6.52,0,0,1,1.9,4.82,6.75,6.75,0,0,1-1.9,4.68,6.63,6.63,0,0,1-4.82,2,6.88,6.88,0,0,1-4.82-2,6.42,6.42,0,0,1-1.9-4.68,7.41,7.41,0,0,1,1.9-4.82,6.5,6.5,0,0,1,4.82-1.9A6.21,6.21,0,0,1,130.41,11.48Zm-3.94,12.27V58.81h-2V23.75Zm0,36.37h1c15.34.15,24.83,5.84,28.33,16.8H97.25C101.93,66.4,111,60.85,124.57,60.27A7.51,7.51,0,0,1,126.47,60.12ZM168,94.74a30,30,0,0,0,0,42.36,29.94,29.94,0,0,0,51.12-21.18A29.95,29.95,0,0,0,168,94.74ZM68,86a28.81,28.81,0,0,0-21.18,8.77,30,30,0,0,0,0,42.36A28.81,28.81,0,0,0,68,145.86,29.91,29.91,0,0,0,98,115.92a28.77,28.77,0,0,0-8.76-21.18A29.27,29.27,0,0,0,68,86Zm32.43,83.26c1-1.32,2.33-2.92,3.8-4.67.58-.74,1.16-1.32,1.75-2.05h47.76c.58.73,1.31,1.61,2.19,2.78h.15c.44.58,1,1.31,1.6,2,1.61,1.9,2.92,3.8,4.24,5.7.73,1,1.61,2.19,2.34,3.21,4.67,7,7.59,11.54,8.61,13.58a30.63,30.63,0,0,1,2.93,13.3,25.12,25.12,0,0,1-3.8,13.29A20.43,20.43,0,0,1,161.52,225a30.64,30.64,0,0,1-8,1.9,57,57,0,0,1-7.6.73c-1,0-1.9.15-2.92.15-7.74.15-13.87.15-18.11.15a94.29,94.29,0,0,1-15.19-1c-2.78-.44-5.26-1-7.6-1.6a43.38,43.38,0,0,1-5.69-2c-8.18-4.09-12.27-11.1-12.27-20.89,0-6.57,2.92-14.16,8.91-23.07,1.46-2.05,3.21-4.38,5.11-6.87C98.72,171.57,99.59,170.4,100.47,169.23Zm-2.49-28v19.57H66c-20.74.44-33.6-12-38.27-37.54-1.31-29.07,9.35-44,31.84-44.4H197c22.5.58,33.16,15.33,31.85,44.4-4.68,24.54-16.66,36.95-36.08,37.54h-33V141.19Zm2,2.19h57.69v17.23H100Zm-50.54,72a32.71,32.71,0,0,1,5.7,2.49A29.15,29.15,0,0,1,61,222.54a28,28,0,0,1,8.62,20.3A27.49,27.49,0,0,1,61,263.15a28.34,28.34,0,0,1-9.64,6.57l-6-13.44a14.62,14.62,0,0,0,5.26-3.36,13.77,13.77,0,0,0,4.24-10.08,14,14,0,0,0-4.24-10.07,13.63,13.63,0,0,0-10.08-4.09,14.2,14.2,0,0,0-14.16,14.16,14.18,14.18,0,0,0,1.16,5.7l-14.16,3.8a29.45,29.45,0,0,1-1.61-9.64,27.1,27.1,0,0,1,8.47-20.3,28.14,28.14,0,0,1,20.3-8.48A44.57,44.57,0,0,1,49.49,215.38Zm6.43.73-5.7-2.92a94.8,94.8,0,0,1,9.35-18l5.26,4.09A91,91,0,0,0,55.92,216.11Zm10.22-18.55L61,193.33A76.3,76.3,0,0,1,79.14,175.8l2.78,5.55A75.68,75.68,0,0,0,66.14,197.56ZM103,181.94a18.26,18.26,0,0,0-1.61,1.9c-5.69,7-6.71,14-3.5,21.17.29.73.73,1.32,1,1.9H160.5c.44-.73.73-1.31,1-1.9,3.36-7.15,2.19-14.16-3.5-21.17a9.87,9.87,0,0,0-1.61-1.9Zm-18.69-2.19-2.63-5.55a81,81,0,0,1,18.4-8.33l-5.7,8A114.11,114.11,0,0,0,84.26,179.75Zm19.86,4.09h51.41c5.7,7,6.87,14,3.51,21.17H100.76C97.4,197.86,98.57,190.7,104.12,183.84ZM164.73,173l-5.25-7.74H191.9V173Zm65.15,0H194.53v-7.74h35.35Zm2.63,0v-7.74h41.92V173Zm44.4-7.74h45.86V173H276.91ZM189.42,341c-17.24,2.92-34.91.87-52.73-6.58,2.05-20.3,13.29-33.59,33.59-39.43,19.28,9.35,29.8,21.47,31.85,36.66C202.56,336.18,198.33,339.24,189.42,341ZM153.2,247.52h-7.6v-9.64h7.6Zm0,10.37h-7.6v-8.77h7.6Zm0-21.91h-7.6v-6l7.6-1.31ZM145,259.79v48c-6,6.72-9.64,15.34-10.67,25.56-1.31-.58-2.48-1.17-3.79-1.75V259.79Zm2.48,0h22.78v33c-9.49,2.92-17.08,7-22.93,12.41V259.79Zm-37.83-31V236h-7.6v-8.91Zm0,8.91v9.64h-7.6v-9.64Zm0,11.54V258h-7.6v-8.76Zm-1.31,10.52v45.42c-5.7-5.4-13.3-9.49-22.94-12.41v-33ZM53,227.51a5.66,5.66,0,1,0-4,1.6A5.42,5.42,0,0,0,53,227.51ZM66.44,341c-8.91-1.76-13.15-4.82-12.71-9.35,2-15,12.71-27.31,31.84-36.66,20.3,5.84,31.55,19,33.59,39.43C101.2,341.87,83.67,343.92,66.44,341ZM111,307.84v-48h14.46v71.86c-1.31.58-2.62,1.17-3.79,1.75C120.48,323,117,314.71,111,307.84Z"/><path class="cls-3" d="M173.06,115.92a13.3,13.3,0,0,1,1.31-5.85l.44.44a6.08,6.08,0,0,0,4.24,1.61,6.58,6.58,0,0,0,4.23-1.61,5,5,0,0,0,1.76-3.94,4.71,4.71,0,0,0-1.76-3.8,1.16,1.16,0,0,0-.43-.29,17.74,17.74,0,0,1,6.28-1.17,16.13,16.13,0,0,1,11.39,4.38,13.38,13.38,0,0,1,4.67,10.52,13.87,13.87,0,0,1-4.67,10.52,15.9,15.9,0,0,1-11.39,4.38,16.4,16.4,0,0,1-11.4-4.38A15.5,15.5,0,0,1,173.06,115.92Zm-119.77-6c.15.14.15.29.44.44A6.09,6.09,0,0,0,58,112a6,6,0,0,0,4.09-1.6,5,5,0,0,0,1.76-4,4.7,4.7,0,0,0-1.76-3.79c-.14-.15-.29-.15-.43-.3a17.74,17.74,0,0,1,6.28-1.17,16.14,16.14,0,0,1,11.39,4.39A13.37,13.37,0,0,1,84,116.06a13.84,13.84,0,0,1-4.67,10.52A15.9,15.9,0,0,1,67.9,131a16.4,16.4,0,0,1-11.4-4.38,13.38,13.38,0,0,1-4.67-10.52A15.8,15.8,0,0,1,53.29,109.93ZM52,220.64a3.7,3.7,0,0,1,1.31,2.92A3.9,3.9,0,0,1,52,226.48a4.06,4.06,0,0,1-2.93,1.17,4.32,4.32,0,0,1-2.92-1.17A4.07,4.07,0,0,1,45,223.56a4.37,4.37,0,0,1,1.17-2.92,4.09,4.09,0,0,1,2.92-1.17A3.42,3.42,0,0,1,52,220.64Z"/></g><g id="Capa_2" data-name="Capa 2"><path class="cls-4" d="M402.81,228.82,397,229c-.15-1.75-.15-3.95-.44-6.57-.14-4.39-.44-8.33-.58-12,1.46-.15,3.21-.15,5.26-.44,5.55-.44,9.2-.73,11.1-.73q8.32,0,22.78.44c3.51.14,6.58.14,8.91.29-.14-5-.14-7.45-.14-7.74v-6.72l6.28-.15c-.15,1.61-.15,3.36-.15,5.55a15.53,15.53,0,0,0-.15,2.63c0,.3.15,5,.15,13.59-2.92.14-5.55.14-7.74.14H440.5c-3.22-.14-6.58-.29-10.37-.58-3.22-.29-6.28-.44-9.35-.44s-6.87.15-11.39.44c-2.63.14-5,.29-6.72.44.14,1.75.14,4.09.14,6.57A30.91,30.91,0,0,0,402.81,228.82Zm33.74,5.7c1.76-.15,3.8-.15,6.28-.29l-.14,12.56c0,.29,0,2.19.14,5.84q-4.38.44-8.32.44c-1.61.14-3.21.14-4.68.14-7.44,0-12,0-13.29.15s-5.69.44-13.73,1.17c0,2.34.15,5.4.15,9,0,.73,0,1.76.15,3.51a.56.56,0,0,0,.14.44c-1-.15-2-.15-2.92-.29h-2.48c-.44-6.58-.73-11.25-.73-13.59.14-2,.14-3.65.14-4.82,4.68-.29,11.54-.73,20.6-1,6.42-.29,12-.73,16.5-1a9.44,9.44,0,0,1,2.05-.15v-3.5C436.41,239.78,436.41,237,436.55,234.52Zm-56.81,52.29c1,0,1.89-.15,3.06-.15,6.58,0,24.4.73,53.32,2.34,1,0,2,.14,3.06.14A34.39,34.39,0,0,0,443,289v-1.75c0-4.39.15-8.48.29-12.13,2.63.15,5,.15,6.72.3,0,.43-.15.73-.15,1.16-.14,2.63-.29,4.39-.29,5.26,0,.29.15,4.24.29,11.83-5.25.44-9.93.73-13.87.73-.73,0-1.46-.14-2.05-.14-19.28-.59-31.25-.73-36.07-.73q-6.14,0-13.59.43c-1.75.15-3.36.15-4.38.3a23.71,23.71,0,0,1-.14-3.36Zm-66,1c2.33-.15,5.55-.15,9.93-.44.73,0,2.63-.14,5.69-.14.15-5.26.15-9.35.15-12.71,0-2.78-.15-8-.44-15.63s-.44-12.56-.44-14.9c0-2-.14-4.67-.43-8-.3-4.09-.44-7-.59-8.76-.14-1.17-.14-4.68-.14-10.23-.15-2.63-.15-4.82-.15-6.28,2.92-.29,8-.88,15.19-1.75s12.71-1.32,16.36-1.76c-.29-5.84-.44-10.66-.73-14.16h6.43c.43,4.52.73,9.93.73,16.06,0,.15-.15,2.05-.15,5.7-3.21.44-8.18.73-14.9,1-7.16.44-12.56.44-16.07.44.59,8.91,1.17,22.64,1.76,41q.43,14.68,1.31,35.5c-2,.14-5,.14-8.62.29-4.52.14-8.32.29-11.24.44-1.61.14-2.92.14-4.09.14A50.46,50.46,0,0,0,313.72,287.83ZM283.92,210c2,.15,4.09.15,5.84.15,4.38,0,7.6-.15,9.79-.15,1.31-.15,3.94-.29,7.74-.73.15,2,.29,4.09.44,6.28-2.19.15-4.24.44-6.14.44-8.61,0-14.31-.15-17.23-.15A58.44,58.44,0,0,1,283.92,210Zm235.45,59.3c-3.94,0-9.06,0-15.34.15-8.61.14-14.46.29-17.52.43-.15,2.49-.15,6.14-.15,11.11,0,1.6-.15,3.21-.15,4.67-.14,4.09-.14,7.45-.14,9.79h-1.61c-4.82,0-8.62-.15-11.39-.15-3.07-.15-5.55-.44-7.74-.73v-5.41h1.75c.73.15,1.9.15,3.65.3s2.34.14,2.78.14c.14,0,2.19-.14,6-.14,0-1.76.14-4.53.14-8.33,0-2,.15-4.23.15-6.72.14-4.82.14-8.32.44-10.51,1.75-.15,4.38-.15,7.15-.15.15,0,3.36,0,9.64.15,5.26.14,12.71.14,22.35.29C519.22,265.78,519.37,267.53,519.37,269.28Zm-7.16-73.91a33.38,33.38,0,0,1,4.09-.14c2.92,8.18,8,20.74,15.34,37.83,7.74,17.82,12.41,28.63,13.87,32.42,0,.88-.14,2-.14,3.22-.15,4.23-.29,7.88-.29,10.95q0,4.17.43,14.9c-2.33.15-6.13.15-11.53.44-2.63.14-5.7.14-9.06.14v-6.86c2,0,5.4.14,9.64.14,1.61,0,3.36.15,5.26.15.14-4.53.44-10.52.87-18.11.15-2.63.3-4.82.44-6.72-5.26-11.25-11.1-24.83-17.82-40.9-2.77-6.57-5.26-12.7-7.59-18.55C514.55,201.22,513.38,198.15,512.21,195.37ZM558.37,288c3.8,0,8.32,0,13.87-.15h3.51c-.15-1.31-.15-3.21-.15-5.4-.14-4.24-.29-7.89-.44-11.1v-1.61c0-11.1.15-21.62.15-31.55.15-4.24.15-7.45.15-9.93.73,1.75,1.6,3.65,2.48,5.69,1,2.34,2.63,5.55,4.38,9.5a31.85,31.85,0,0,0-.14,3.8c-.15,5-.44,9-.73,12.26v35.35h-.73c-.74,0-2.34,0-5.12-.14-1.6-.15-3.65-.15-6.13-.15-5.7-.29-9.5-.44-11.1-.44,0-1-.15-2.19-.15-3.8A12.91,12.91,0,0,0,558.37,288Zm32.72-30.68h.29a35.82,35.82,0,0,1,4.09-.14c3.36-.15,6-.29,8-.59A127.47,127.47,0,0,1,611,240.36c1.46-2.92,3.07-5.7,4.67-8.91.15,4.09.15,10.37.15,18.55-3.8,6.28-6.57,10.66-8.18,13.29-2.63.15-7.16.44-13.44.73H594a23.19,23.19,0,0,1-1.46-3.21C592,259.35,591.52,258.18,591.09,257.3Zm47.76-61.05h5c-.43,8.47-.43,29.21-.43,62.08,0,2.77.14,7.15.14,13.29s.44,13.73.73,23.08a1.63,1.63,0,0,1-.73.14H640c-5.7-.14-9.64-.29-12-.29a36,36,0,0,0-5.84.15c-.15-2.34-.44-4.24-.44-5.7.73,0,1.31.14,1.75.14,2.34,0,6.28-.14,12-.43.87,0,1.6-.15,2.33-.15-.14-2.77-.58-7.45-1-13.88v-.14c-.73-10.52-1-18.11-1-22.64,0-6.87.44-16.51,1.31-28.77,1-12,1.61-19.58,1.61-22.5V196.4h.15Zm-57.7-1.17c1.17-.14,2.63-.14,4.39-.44.73,1.61,1.46,3.8,2.48,6.58,1.6,4.23,2.92,7.3,3.8,9.34a7.49,7.49,0,0,0,.58,1.17c1.46,2.78,3.51,6.87,6.28,12-.58,1-1,2-1.61,3.07-2.63-4.24-5-8.33-7.15-12.42-1.76-3.21-3.22-6.42-4.68-9.49C583.78,201.22,582.47,197.86,581.15,195.08Zm-77.41,30.38c-1,3.22-2,6-2.77,8.62-1.46,4.53-2.49,7.89-3.22,10.22-.87,0-1.6.15-2.33.15-4.24.15-6.58.15-6.87.15h-.15c.3-1,.74-2,1.17-3.36a9.38,9.38,0,0,1,.73-1.76c1.32-3.36,2.19-5.84,2.78-7.44,3.21-8.91,5.4-15,6.72-18.41.73,2.05,1.31,4.38,2,6.43C502.43,221.81,503.16,223.71,503.74,225.46ZM202.56,242.84c.3.15.44.15.73.3a45.1,45.1,0,0,0,11.4,2.19c6,.43,11.68.87,16.94,1.46,2.05.14,4.09.44,6.13.73a35.31,35.31,0,0,1,4.39.58,3.82,3.82,0,0,1,2.92,2.34,11.7,11.7,0,0,1,.87,3.07,42.77,42.77,0,0,0-8.91-.73c-2.62-.15-5-.15-7.15-.15-4.38-.15-7.45-.29-9.06-.44q-9.42-.66-13.58-3.5A12.84,12.84,0,0,1,202.56,242.84ZM261,236.56a19,19,0,0,1,5.69,3.36,11.76,11.76,0,0,1,2.63,2.92c2.05,3.51,3.07,9.79,3.07,19.14a61.94,61.94,0,0,1-2.48,18.11c-1.61,5-4.38,8-8.18,9.2a95,95,0,0,1-16.07,3.8c-2.63.29-5.55.58-8.91.73-1.75.14-3.65.14-5.69.14q-11.84,0-18.41-1.75a12.79,12.79,0,0,1-6.72-4.09,38.14,38.14,0,0,1-2.92-4.38c5.84,3.51,14.46,5.11,25.86,5.11,2.33,0,4.67,0,6.86-.14a75.51,75.51,0,0,0,14.75-1.61c6.28-1.31,10.52-3.8,12.71-7.16a19.39,19.39,0,0,0,1.9-5.84,28.68,28.68,0,0,0,.73-6.28c.14-4.09.44-7.45.58-9.93-.14-2.63-.14-4.24-.14-4.68a44.26,44.26,0,0,0-1.46-8.76,18.21,18.21,0,0,0-2.19-5.26C262.16,238.17,261.43,237.44,261,236.56Zm-45.13,24.69,5.25-1.46a30.45,30.45,0,0,0,.44,4.67,9.1,9.1,0,0,0,.73,2.34,10.19,10.19,0,0,0,1.76,2.63c-2.78-.44-4.68-1.32-5.7-2.34A9.25,9.25,0,0,1,215.86,261.25Zm35.49-43.09c1.75-.44,3.8-1,6-1.75,1.75-.44,3.94-1,6.57-1.61a.86.86,0,0,1,.58-.15c1-.14,1.9-.43,2.93-.58-.15-1.17-.44-2.34-.59-3.36a53.59,53.59,0,0,0-2-8.62,27.52,27.52,0,0,0-2.49-4.67c.73.29,1.17.58,1.61.73.58.44,1.31,1,2.19,1.75a12.15,12.15,0,0,1,1.9,1.9,20.17,20.17,0,0,1,4.82,13.58v3.51c-1.32.44-3.51,1-6.28,1.75-.88.15-1.75.44-2.92.73s-2.34.59-3.51.88c-2.92.73-5.4,1.31-7.15,1.9a13,13,0,0,0-.44-2.92A19,19,0,0,1,251.35,218.16ZM246.67,215a8.4,8.4,0,0,0-4.09-.88c-2.92-.15-5.4-.15-7.15-.15h-.15a28.36,28.36,0,0,0-5.26.59c-2,.44-3.21.58-3.65.73a4.82,4.82,0,0,0-3.21,3.07c-.44,1.16-.59,3.21-.59,6.28v3.21H222a6.41,6.41,0,0,1-5.11-2.19,8.68,8.68,0,0,1-1.61-5.26,33,33,0,0,1,1-5.84,7.09,7.09,0,0,1,1.17-2.63,5.51,5.51,0,0,1,2-2,21.69,21.69,0,0,1,6.72-2c1.16-.15,3.65-.15,7.3-.15,1.31,0,2.34.15,3.36.15a12.68,12.68,0,0,1,7.45,3.21A11.34,11.34,0,0,1,246.67,215Z"/><path class="cls-3" d="M379.74,286.81c-1.9,0-3.66.14-5,.14-.15-3.21-.15-5.55-.15-7.15-.14-8.62-.14-15.34-.14-20,0-14.17-.15-24.1-.44-29.65-.15-5.26-.29-18.26-.29-39.15h.73l12.41-.44h39c.88-.14,5.11-.14,13-.29,1.75,0,3.65-.14,5.26-.14-.15,2.33-.29,4.09-.29,4.82v7.44c0,.3.14,2.93.14,7.75-2.33-.15-5.26-.15-8.91-.3-9.64-.43-17.23-.43-22.78-.43-1.76,0-5.41.29-11.1.73-2,.14-3.8.29-5.26.43.14,3.8.44,7.75.58,12,.15,2.63.15,4.82.44,6.57l5.84-.14,1.46-.15q2.42,0,11.4.44c5.84.29,9.78.44,11.54.44,3.94,0,6.28,0,7.3-.15.73-.14,1.46-.14,2.34-.29a29.82,29.82,0,0,0-.15,3.8v1.46c-.15,2.48-.15,5.26-.15,8.47v3.51a10,10,0,0,1-2,.14c-4.68.44-10.23.73-16.51,1-9.05.44-16.06.73-20.59,1,0,1.31-.15,2.92-.15,4.82,0,2.33.15,6.86.73,13.58h2.49c.87.15,1.9.15,2.92.29,4.53.44,10.51.88,18.11,1.17q7.89.43,14.9.44c2.63.14,5.26.14,7.59.14-.14,1.76-.44,3.8-.44,5.85-.14,3.65-.29,7.74-.29,12.12v1.75a33.39,33.39,0,0,1-3.8.15,20.91,20.91,0,0,0-3.06-.15c-28.92-1.6-46.74-2.33-53.31-2.33A15.71,15.71,0,0,1,379.74,286.81Zm-72-71.43c-.15-2-.29-4.23-.44-6.28-3.8.3-6.28.59-7.74.73-2.19.15-5.41.15-9.79.15-1.75,0-3.8,0-5.84-.15-1.61-.14-3.36-.14-5.11-.14-.73-7.74-1.32-14-1.46-19l.58-.15c2.05-.14,3.8-.43,5.41-.43,2.48-.15,6.57-.3,12.12-.3l9.05.15c8.33,0,18.7-.44,31.12-1,5.69-.44,13-.73,22.49-1.32.14,1.32.14,3.22.29,5.55.15,3.51.44,8.33.73,14.17-3.65.44-9.05,1-16.36,1.75-7.15.73-12.27,1.32-15.19,1.76,0,1.46.15,3.5.15,6.28.14,5.55.14,8.91.14,10.22.15,1.75.3,4.68.59,8.76.14,3.22.44,6,.44,8q0,3.51.43,14.9c.3,7.59.44,12.7.44,15.62,0,3.22-.14,7.45-.14,12.71-3.22.15-5.12.15-5.7.15-4.38.14-7.74.29-9.93.44s-3.21.14-3.65.14h-2.05V288c0-2.63.15-5.7.44-9.35s.44-9.2.44-16.94c0-11.11-.15-20-.15-27C308.31,227.65,308,221.37,307.73,215.38Zm204.48-20c1.17,2.93,2.34,6,3.65,9.06,2.34,5.7,4.82,12,7.6,18.55,6.57,15.92,12.56,29.65,17.82,40.9-.15,1.75-.29,4.09-.44,6.72-.44,7.59-.73,13.58-.88,18.11-1.89,0-3.79-.15-5.25-.15-4.24-.15-7.45-.15-9.64-.15h-1c-1.75.15-3.36.15-4.67.3V276c0-2.19-.15-4.38-.15-6.72,0-1.75-.14-3.5-.14-5.4-9.64-.15-17-.15-22.35-.3-6.28-.14-9.35-.14-9.64-.14-2.92,0-5.4,0-7.16.14-.14,2.2-.29,5.7-.43,10.52-.15,2.48-.15,4.82-.15,6.72-.15,3.8-.15,6.57-.15,8.32-3.79.15-5.84.15-6,.15a26.67,26.67,0,0,1-2.77-.15c-1.61-.14-2.92-.14-3.65-.29h-7.74c-.15-3.21-.15-7.74-.3-13.43-.14-6.29-.29-11.69-.43-16.36.73-1.76,1.6-3.8,2.63-6.14q5.25-12,10.51-23.22,3.07-6.8,12.27-24.1c3.07-6,5.41-10.81,7.16-14.32,2.48,0,6.57-.14,12-.14,2.48-.15,5-.15,7.59-.29C511,192.31,511.63,193.91,512.21,195.37Zm68.94-.29c1.17,2.78,2.49,6,4.09,9.93,1.46,3.22,2.92,6.28,4.68,9.5,2,4.09,4.52,8.18,7.15,12.41a32.18,32.18,0,0,1,1.61-3.06c2.19-4.53,5-10.08,8.33-16.8.43-.88.87-1.75,1.31-2.63,2.92-5.7,5.26-10.37,6.87-13.88a4.34,4.34,0,0,0,1.46.15,42.64,42.64,0,0,0,7.45.73c2.77.15,6.13.15,10.22.15,1.75,0,3.21-.15,4.38-.15v9.06c-.14,2.92-.73,10.51-1.61,22.49-.87,12.27-1.31,21.76-1.31,28.77,0,4.53.29,12.13,1,22.64v.15c.44,6.28.73,10.95,1,13.87-.73,0-1.6.15-2.33.15-5.55.29-9.64.44-12,.44a6.91,6.91,0,0,1-1.75-.15c-1-.14-2-.14-3.36-.29l-1-.15c-.3-3.21-.59-6.86-.73-10.66-.3-5-.44-10.22-.44-16.06,0-4.39-.15-8.33-.15-11.84-.14-8.17-.14-14.46-.14-18.55-1.61,3.07-3.22,6-4.68,8.91a127.44,127.44,0,0,0-7.45,16.22c-2,.14-4.67.44-8,.58-1.61.15-2.92.15-4.09.15h-.29c-.44,0-1,.14-1.46.14s-.73.15-1.17.15c-.59-1.31-1.32-2.92-2-4.82-1.6-4.09-2.92-7-3.79-9.06,0-.14-.15-.14-.15-.29-1.75-3.8-3.21-7-4.38-9.49-1-2-1.75-3.95-2.48-5.7,0,2.34-.15,5.7-.15,9.93-.15,9.94-.15,20.45-.15,31.55v1.61c0,3.07.15,6.72.44,11.1.15,2.34.15,4.09.15,5.4h-3.51c-5.4.15-10.08.15-13.87.15h-4.53c.44-17.82.87-32.43,1.17-43.67.58-22.35.87-38.71.87-49.37v-4.24a6.33,6.33,0,0,1,1.76-.14c3.65,0,8,.14,13,.14,3.35.15,6.28.15,8.91.15A11.36,11.36,0,0,0,581.15,195.08Zm-83.4,49.22c1.46-.14,2.92-.14,4.82-.14,3.22-.15,6.14-.15,8.62-.15-1.46-3.5-2.63-6.42-3.65-9-.59-1.61-1.17-2.92-1.61-4.09-.73-1.76-1.31-3.51-2-5.26s-1.32-3.65-1.9-5.41c-.73-2-1.46-4.23-2.05-6.42-1.16,3.36-3.5,9.49-6.72,18.4-.58,1.61-1.46,4.09-2.77,7.45a9.3,9.3,0,0,1-.73,1.75c-.44,1.32-.88,2.34-1.17,3.36h.15c.29,0,2.63-.14,6.86-.14A4.89,4.89,0,0,1,497.75,244.3ZM262.16,197.42a20.21,20.21,0,0,1,2.48,4.67,32.1,32.1,0,0,1,2,8.62c.15,1,.44,2,.59,3.36-1,.15-2,.44-2.92.58-.15,0-.44.15-.59.15-2.48.58-4.67,1-6.57,1.61-2.34.73-4.38,1.31-6,1.75s-2.77.73-3.8,1a11,11,0,0,0-1-4.09,12.08,12.08,0,0,0-2.33-4.09,11.08,11.08,0,0,0-7.45-3.21,24.16,24.16,0,0,0-3.36-.15c-3.65,0-6,.15-7.31.15a31,31,0,0,0-6.71,2,5.42,5.42,0,0,0-2.05,2,7.09,7.09,0,0,0-1.17,2.63,24.15,24.15,0,0,0-1,5.84,8.33,8.33,0,0,0,1.61,5.26,6,6,0,0,0,5.11,2.19h.58c.88,0,1.76.15,2.92.15,1.61.14,2.63.29,3.22.29l6.57.14c1.46,0,4.53.15,9.35.59,2.33.14,4.09.44,5.4.58a20.69,20.69,0,0,1,2.48.29,11.69,11.69,0,0,1,2.05.73,17.47,17.47,0,0,1,3.51,2.63,31.89,31.89,0,0,1,2.92,3.22c.58.73,1.16,1.6,1.75,2.33a17.67,17.67,0,0,1,2.19,5.26,41.85,41.85,0,0,1,1.46,8.77,29,29,0,0,1,.15,4.67c-.15,2.63-.44,5.84-.59,9.93a21.34,21.34,0,0,1-.73,6.28,23.85,23.85,0,0,1-1.9,5.84c-2,3.51-6.42,5.85-12.7,7.16a75.62,75.62,0,0,1-14.76,1.61c-2.19.14-4.52.14-6.86.14-11.39,0-20-1.75-25.85-5.11a6.55,6.55,0,0,1-1-.73c-2.77-1.75-4.67-5-5.84-9.05A36,36,0,0,1,195,262c1.75-.73,4.23-1.61,7.3-2.63Q210.16,256.5,215,255a5.82,5.82,0,0,1,.15,1.75c.14.88.14,2,.29,3.94v.15a9.57,9.57,0,0,0,2.33,5.84c1,1,2.93,1.75,5.7,2.34h.15a31.9,31.9,0,0,0,5.69.73h2.05c4.38,0,7.89-.88,10.37-2.63s3.8-4.38,4.09-7.89v-.58a31.44,31.44,0,0,0-.44-5.41,10.7,10.7,0,0,0-.88-3.06,4.06,4.06,0,0,0-2.92-2.34,37.75,37.75,0,0,0-4.38-.58c-1.9-.3-4.09-.44-6.13-.73-5.26-.59-10.81-1-17-1.47-5-.43-8.91-1.16-11.39-2.19-.29-.14-.44-.14-.73-.29a11.23,11.23,0,0,1-5.11-5,18.48,18.48,0,0,1-1.9-9.06q0-.66-.44-5.7a22.23,22.23,0,0,1-.15-3.65v-2.33A70,70,0,0,1,195,205.6a22.42,22.42,0,0,1,3.36-9.06c1.46-2.19,4.53-4.09,9.35-5.55a48,48,0,0,1,13.58-2c5.7,0,12,.14,19,.44a49.2,49.2,0,0,1,9.35,1.16,24.33,24.33,0,0,1,6.71,2.19A16,16,0,0,1,262.16,197.42Z"/><g class="cls-5"><path class="cls-4" d="M210.89,305.5h10.66c4.82,0,8.33.73,10.66,2.05a7.24,7.24,0,0,1,3.36,6.57,8.08,8.08,0,0,1-1.46,5.11,5.82,5.82,0,0,1-3.79,2.34v.29a7.12,7.12,0,0,1,4.67,2.78,8.32,8.32,0,0,1,1.46,5.26,9,9,0,0,1-3.36,7.3q-3.28,2.63-9.2,2.63H211V305.5Zm7.3,13.59h4.24a7.87,7.87,0,0,0,4.23-.88,3.41,3.41,0,0,0,1.32-3.07,2.86,2.86,0,0,0-1.46-2.77,9.11,9.11,0,0,0-4.53-.88h-3.8v7.6Zm0,5.84v8.91h4.68a6.85,6.85,0,0,0,4.38-1.17,4.39,4.39,0,0,0,1.46-3.5c0-2.78-2.05-4.24-6.14-4.24Z"/><path class="cls-4" d="M281.44,339.83,279,331.65H266.39l-2.48,8.18H256l12.13-34.47h8.91l12.12,34.47Zm-4.24-14.17c-2.34-7.45-3.65-11.54-3.94-12.56s-.44-1.75-.59-2.34q-.87,3.08-4.38,14.9Z"/><path class="cls-4" d="M318.24,326.68v13.15h-7.3V305.5h9.93c4.68,0,8.18.88,10.37,2.49s3.36,4.23,3.36,7.74a9.79,9.79,0,0,1-1.6,5.4,9.91,9.91,0,0,1-4.68,3.65q7.67,11.61,10.08,14.9h-8l-8.18-13.14h-3.95Zm0-5.84h2.34a9.42,9.42,0,0,0,5.11-1.17A4.14,4.14,0,0,0,327.3,316a4,4,0,0,0-1.61-3.51,10.15,10.15,0,0,0-5.25-1h-2.2Z"/><path class="cls-4" d="M374.48,311.2a7.63,7.63,0,0,0-6.43,3.07c-1.46,2-2.19,5-2.19,8.61,0,7.6,2.92,11.54,8.62,11.54a28.76,28.76,0,0,0,8.76-1.75v6.14a24.58,24.58,0,0,1-9.49,1.75c-5,0-8.77-1.46-11.4-4.53s-3.94-7.3-3.94-13a21.06,21.06,0,0,1,1.9-9.35,15,15,0,0,1,5.55-6.13,16.44,16.44,0,0,1,8.62-2.19,23.25,23.25,0,0,1,10.08,2.48l-2.34,5.84c-1.32-.58-2.63-1.17-3.8-1.6A11.9,11.9,0,0,0,374.48,311.2Z"/><path class="cls-4" d="M427.5,339.83H407.78V305.5H427.5v6H415.08v7.6h11.54v6H415.08V334H427.5Z"/><path class="cls-4" d="M452,339.83V305.5h7.3v28.34h13.87v6Z"/><path class="cls-4" d="M527.55,322.74c0,5.7-1.46,10.08-4.24,13.14s-6.86,4.53-12.12,4.53-9.35-1.46-12.12-4.53-4.24-7.44-4.24-13.14,1.46-10.08,4.24-13.15,6.86-4.52,12.12-4.52,9.35,1.46,12.12,4.52S527.55,317,527.55,322.74Zm-25,0c0,3.8.73,6.72,2.19,8.62a7.83,7.83,0,0,0,6.58,2.92c5.84,0,8.76-3.8,8.76-11.54s-2.92-11.54-8.62-11.54a7.81,7.81,0,0,0-6.57,2.92C503.3,316,502.57,318.8,502.57,322.74Z"/><path class="cls-4" d="M582.32,339.83h-9.2l-14.9-26h-.14c.29,4.53.43,7.89.43,9.79v16.06h-6.42V305.36h9.2l14.9,25.7h.14c-.29-4.52-.29-7.59-.29-9.49V305.36h6.57v34.47Z"/><path class="cls-4" d="M629.35,339.83l-2.48-8.18H614.31l-2.48,8.18h-7.89l12.12-34.47H625l12.12,34.47Zm-4.23-14.17c-2.34-7.45-3.65-11.54-4-12.56s-.43-1.75-.58-2.34q-.87,3.08-4.38,14.9Z"/></g></g><g id="Capa_4" data-name="Capa 4"><path class="cls-2" d="M658.57,190.55a33.34,33.34,0,0,1-10.08,23.23l-.73.73-14-11.39a24.69,24.69,0,0,0,2-1.76,14.76,14.76,0,0,0,4.38-10.81v-.29a15.51,15.51,0,0,0-4.38-10.51,12.14,12.14,0,0,0-5-3.22v-19a32.65,32.65,0,0,1,17.82,9.35,32.31,32.31,0,0,1,9.79,22.93v.73Z"/></g></g></g></g></g></svg>