<svg xmlns="http://www.w3.org/2000/svg" viewBox="0 0 938.74 1201.61"><defs><style>.cls-1{fill:#5e3a80;}</style></defs><title>Asset 6</title><g id="Layer_2" data-name="Layer 2"><g id="home"><g id="workshops"><g id="gears"><path class="cls-1" d="M936.82,902.86l-45.49-24.19a3.17,3.17,0,0,1-1.9-3,157.84,157.84,0,0,0-7.56-40.63,3.14,3.14,0,0,1,.7-3.46l33.74-38.94a3.11,3.11,0,0,0,.48-4,208.2,208.2,0,0,0-23.49-36.11,3.08,3.08,0,0,0-3.84-1.17l-49.28,15.05a3.14,3.14,0,0,1-3.44-.76,157.73,157.73,0,0,0-34.08-23.38,3.16,3.16,0,0,1-1.95-2.94L797,688a3.1,3.1,0,0,0-2.48-3.16,207.74,207.74,0,0,0-42.14-8.92,3.08,3.08,0,0,0-3.54,1.88l-24.2,45.49a3.17,3.17,0,0,1-3,1.9,157.84,157.84,0,0,0-40.63,7.56,3.14,3.14,0,0,1-3.46-.7l-38.94-33.74a3.11,3.11,0,0,0-4-.48,208.2,208.2,0,0,0-36.11,23.49,3.1,3.1,0,0,0-1.17,3.84l15.06,49.28a3.16,3.16,0,0,1-.77,3.44,157.73,157.73,0,0,0-23.38,34.08,3.15,3.15,0,0,1-2.94,2L534,817.55A3.1,3.1,0,0,0,530.8,820a207.74,207.74,0,0,0-8.92,42.14,3.08,3.08,0,0,0,1.88,3.54l45.49,24.2a3.17,3.17,0,0,1,1.9,3,157.92,157.92,0,0,0,7.56,40.63A3.14,3.14,0,0,1,578,937l-33.74,38.94a3.11,3.11,0,0,0-.48,4A208.2,208.2,0,0,0,567.28,1016a3.1,3.1,0,0,0,3.84,1.17l49.28-15.06a3.16,3.16,0,0,1,3.44.77,157.73,157.73,0,0,0,34.08,23.38,3.15,3.15,0,0,1,2,2.94q1.85,25.69,3.68,51.4a3.1,3.1,0,0,0,2.48,3.16,207.74,207.74,0,0,0,42.14,8.92,3.1,3.1,0,0,0,3.55-1.88l24.19-45.49a3.17,3.17,0,0,1,3-1.9,157.43,157.43,0,0,0,40.63-7.57,3.16,3.16,0,0,1,3.46.71l38.94,33.74a3.11,3.11,0,0,0,4,.48A208.2,208.2,0,0,0,862,1047.3a3.09,3.09,0,0,0,1.17-3.84l-15.06-49.28a3.16,3.16,0,0,1,.77-3.44,157.73,157.73,0,0,0,23.38-34.08,3.15,3.15,0,0,1,2.94-1.95l51.4-3.68a3.11,3.11,0,0,0,3.16-2.48,207.74,207.74,0,0,0,8.92-42.14A3.1,3.1,0,0,0,936.82,902.86Zm-135,15.82a79.35,79.35,0,1,1-37.12-105.9A79.35,79.35,0,0,1,801.8,918.68Z"/><path class="cls-1" d="M483.77,988.32l-36,4.13a2.23,2.23,0,0,1-2.28-1,110.73,110.73,0,0,0-20.61-20.54,2.22,2.22,0,0,1-1-2.29l4-36a2.2,2.2,0,0,0-1.32-2.51,147.07,147.07,0,0,0-28-11.56,2.18,2.18,0,0,0-2.69.85l-22.57,28.41a2.23,2.23,0,0,1-2.3.93,111.17,111.17,0,0,0-29.1,0,2.21,2.21,0,0,1-2.3-.92L316.92,919.5a2.19,2.19,0,0,0-2.7-.84,145.59,145.59,0,0,0-28,11.65,2.18,2.18,0,0,0-1.31,2.5q2.07,18,4.13,36.05a2.2,2.2,0,0,1-1,2.28,111.09,111.09,0,0,0-20.55,20.61,2.21,2.21,0,0,1-2.28,1l-36.06-4a2.19,2.19,0,0,0-2.5,1.32,146.42,146.42,0,0,0-11.56,28,2.18,2.18,0,0,0,.85,2.69l28.4,22.57a2.22,2.22,0,0,1,.94,2.3,110.74,110.74,0,0,0,0,29.1,2.21,2.21,0,0,1-.92,2.3l-28.34,22.65a2.18,2.18,0,0,0-.84,2.7,146.18,146.18,0,0,0,11.64,28,2.17,2.17,0,0,0,2.51,1.3l36-4.12a2.23,2.23,0,0,1,2.29,1,110.79,110.79,0,0,0,20.61,20.55,2.23,2.23,0,0,1,1,2.28l-4,36.05a2.19,2.19,0,0,0,1.31,2.51,146.25,146.25,0,0,0,28,11.56,2.18,2.18,0,0,0,2.69-.85q11.28-14.2,22.57-28.4a2.22,2.22,0,0,1,2.3-.94,110.67,110.67,0,0,0,29.09,0,2.21,2.21,0,0,1,2.31.93l22.65,28.33a2.17,2.17,0,0,0,2.7.84,146.45,146.45,0,0,0,28-11.64,2.19,2.19,0,0,0,1.3-2.51q-2.06-18-4.13-36a2.25,2.25,0,0,1,1-2.29,110.73,110.73,0,0,0,20.54-20.61,2.25,2.25,0,0,1,2.29-1l36.05,4a2.19,2.19,0,0,0,2.51-1.31,147.16,147.16,0,0,0,11.56-28,2.18,2.18,0,0,0-.85-2.69l-28.41-22.57a2.23,2.23,0,0,1-.93-2.3,110.74,110.74,0,0,0-.05-29.1,2.24,2.24,0,0,1,.93-2.3l28.34-22.65a2.18,2.18,0,0,0,.84-2.7,146.49,146.49,0,0,0-11.65-28A2.19,2.19,0,0,0,483.77,988.32Zm-72,63.07A55.86,55.86,0,1,1,348,1004.8,55.87,55.87,0,0,1,411.78,1051.39Z"/><path class="cls-1" d="M732.66,272.23l-91.78-10.92a5.64,5.64,0,0,1-5.1-3.74,282.32,282.32,0,0,0-39-63,5.67,5.67,0,0,1-1.08-6.24l31.13-87c1.06-3,.57-4.88-1.79-7A373.31,373.31,0,0,0,562.3,49.19c-2.74-1.57-4.71-1.43-7.18.52L482.5,106.89a5.65,5.65,0,0,1-6.25,1,282.54,282.54,0,0,0-72.17-17,5.65,5.65,0,0,1-5.17-3.65L359.38,3.69C358,.85,356.33-.16,353.19,0a373.61,373.61,0,0,0-76.25,12.44c-3.05.83-4.34,2.33-4.71,5.46L261.31,109.7a5.64,5.64,0,0,1-3.74,5.1,282.69,282.69,0,0,0-63,39,5.67,5.67,0,0,1-6.24,1.08l-87-31.13c-3-1.06-4.88-.57-7,1.79a372.8,372.8,0,0,0-45.12,62.71c-1.57,2.74-1.43,4.71.52,7.18l57.19,72.62a5.67,5.67,0,0,1,1,6.25,282.54,282.54,0,0,0-17,72.17,5.65,5.65,0,0,1-3.65,5.17L3.69,391.2C.85,392.54-.16,394.25,0,397.39a373.61,373.61,0,0,0,12.44,76.25c.83,3.05,2.33,4.34,5.46,4.71l91.78,10.91a5.67,5.67,0,0,1,5.1,3.74,282.75,282.75,0,0,0,39,63,5.67,5.67,0,0,1,1.08,6.24q-15.57,43.51-31.13,87c-1.06,3-.57,4.89,1.79,7a372.24,372.24,0,0,0,62.71,45.12c2.74,1.57,4.71,1.43,7.18-.53q36.31-28.58,72.62-57.18a5.65,5.65,0,0,1,6.25-1,282.12,282.12,0,0,0,72.17,17,5.65,5.65,0,0,1,5.17,3.65q19.77,41.77,39.53,83.54c1.34,2.86,3.05,3.86,6.19,3.68a372.82,372.82,0,0,0,76.25-12.45c3.05-.82,4.34-2.32,4.71-5.45l10.92-91.78a5.66,5.66,0,0,1,3.74-5.1,282.69,282.69,0,0,0,63-39,5.67,5.67,0,0,1,6.24-1.08l87,31.13c3,1.06,4.88.57,7-1.79a372.64,372.64,0,0,0,45.12-62.71c1.57-2.74,1.43-4.71-.52-7.19q-28.59-36.3-57.19-72.61a5.68,5.68,0,0,1-1-6.26,282,282,0,0,0,17-72.16,5.65,5.65,0,0,1,3.65-5.17l83.55-39.53c2.85-1.35,3.85-3.05,3.67-6.2a373.62,373.62,0,0,0-12.44-76.24C737.29,273.89,735.79,272.6,732.66,272.23ZM517.18,386.36a142.32,142.32,0,1,1-130.82-153A142.32,142.32,0,0,1,517.18,386.36Z"/></g></g></g></g></svg>