<svg xmlns="http://www.w3.org/2000/svg" viewBox="0 0 1023.64 954.54"><defs><style>.cls-1{fill:#00a68d;}.cls-2{fill:#444;}.cls-3{fill:#ff9328;}.cls-4{fill:#c6009e;}.cls-5{fill:#e6cb46;}</style></defs><title>Asset 1</title><g id="Layer_2" data-name="Layer 2"><g id="home"><g id="hm-description"><g id="Layer_15" data-name="Layer 15"><circle class="cls-1" cx="496.11" cy="477.27" r="84.54"/><path class="cls-2" d="M991.14,566.08c11.56-64.39-70-137.39-202.37-194.34C854.35,243.41,870.53,135.17,820.54,93c-10-8.47-22.24-13.87-36.28-16.38-55.91-10-140.88,25.6-233.21,94.48C488.42,74.38,421.14,11.43,365.22,1.41c-14-2.52-27.36-1.7-39.71,2.75-61.54,22.19-84,129.3-67.12,272.43C114.46,284,12.64,324.07,1.09,388.46s70,137.4,202.37,194.34c-65.58,128.34-81.76,236.57-31.77,278.78,10,8.47,22.24,13.86,36.28,16.38,55.91,10,140.88-25.6,233.21-94.48C503.81,880.16,571.09,943.1,627,953.13c14,2.52,27.36,1.71,39.71-2.75,61.54-22.19,84-129.3,67.11-272.43C877.77,670.58,979.59,630.47,991.14,566.08Zm-383.82-402c70.5-46,133.28-68.34,172.26-61.35h0c9.7,1.74,17.49,5.18,23.83,10.53,27.62,23.32,26.38,85.82-3.32,167.17a713.93,713.93,0,0,1-35.94,81.14,1148.53,1148.53,0,0,0-133.8-43.33A1145.34,1145.34,0,0,0,565.2,193.63Q586.47,177.69,607.32,164.08ZM616.56,579q-29.2,34.59-59.87,66.33-43.68-4.85-88.41-12.86t-87.37-18.67c-11.78-26.88-22.84-54.62-33.07-83s-19.44-56.84-27.52-85q26-35.4,55.35-70.14,29.2-34.59,59.87-66.33,43.68,4.86,88.41,12.86t87.37,18.68q17.65,40.32,33.07,83t27.52,85Q645.86,544.21,616.56,579Zm64.21-37.64q8.79,34.14,15.33,67.63,4.32,22.2,7.53,43.51-21.54.42-44.16-.12-34.07-.81-69.26-3.77,23.53-25.15,46.64-52.48T680.77,541.31ZM533,669.2q-16.61,16.31-33.48,31.63-25.75,23.38-51.32,43.74-16.86-27.93-32.91-58.84-10.49-20.22-20.4-41.31,33.54,7.8,68.74,14.14T533,669.2Zm-184.62-64q-34-9.45-66.24-20.54-21.41-7.35-41.45-15.24,10.41-18.85,22.18-38.18,17.73-29.09,37.89-58.08,10,33,22.13,66.62T348.34,605.17ZM311.46,413.24q-8.79-34.15-15.33-67.63-4.32-22.22-7.53-43.52,21.54-.4,44.16.12Q366.83,303,402,306q-23.55,25.15-46.64,52.48T311.46,413.24Zm147.8-127.9q16.62-16.29,33.49-31.63,25.75-23.37,51.32-43.74Q560.93,237.9,577,268.82q10.5,20.22,20.4,41.3-33.54-7.8-68.74-14.14T459.26,285.34ZM669.38,414.79q-12.12-33.62-25.49-65.42,34,9.47,66.24,20.54,21.4,7.36,41.45,15.24Q741.17,404,729.4,423.33q-17.74,29.1-37.89,58.09Q681.49,448.45,669.38,414.79ZM279.52,187c.43-86.61,21-145.63,55-157.9,7.8-2.81,16.31-3.33,26-1.59h0c39,7,90.06,49.78,140.18,117.4q14.8,20,29.22,42.35a1147.6,1147.6,0,0,0-104.41,94.2A1148.37,1148.37,0,0,0,285,275.61,716.38,716.38,0,0,1,279.52,187Zm-143,332.69c-74.79-43.67-115.63-91-109.24-126.58s61.12-65.75,146.43-80.71A715,715,0,0,1,261.9,303a1145.63,1145.63,0,0,0,29.37,137.52,1146.68,1146.68,0,0,0-75.35,118.74A712.87,712.87,0,0,1,136.47,519.73ZM384.91,790.47c-70.5,46-133.28,68.34-172.25,61.35-9.7-1.74-17.5-5.19-23.84-10.54-27.62-23.32-26.38-85.81,3.32-167.17A713.93,713.93,0,0,1,228.08,593a1146,1146,0,0,0,133.8,43.33A1144.42,1144.42,0,0,0,427,760.91Q405.76,776.86,384.91,790.47Zm327.8-23c-.43,86.61-21,145.64-55,157.9-7.8,2.81-16.31,3.33-26,1.59-39-7-90.06-49.78-140.18-117.39q-14.81-20-29.23-42.36A1147.43,1147.43,0,0,0,566.7,673.05a1148.2,1148.2,0,0,0,140.51,5.88A714.77,714.77,0,0,1,712.71,767.5ZM818.57,642.1a713,713,0,0,1-88.24,9.45A1146.18,1146.18,0,0,0,701,514a1148.36,1148.36,0,0,0,75.35-118.74,715.47,715.47,0,0,1,79.45,39.53c74.79,43.68,115.63,91,109.24,126.58S903.88,627.15,818.57,642.1Z"/><circle class="cls-3" cx="956.83" cy="501.87" r="66.8"/><circle class="cls-4" cx="346.89" cy="831.32" r="66.8"/><circle class="cls-5" cx="271.36" cy="111.96" r="66.8"/></g></g></g></g></svg>