<?xml version="1.0" encoding="utf-8"?>
<!-- Generator: Adobe Illustrator 22.0.0, SVG Export Plug-In . SVG Version: 6.00 Build 0)  -->
<svg version="1.1" id="Layer_1" xmlns="http://www.w3.org/2000/svg" xmlns:xlink="http://www.w3.org/1999/xlink" x="0px" y="0px"
	 viewBox="0 0 655.7 952.5" style="enable-background:new 0 0 655.7 952.5;" xml:space="preserve">
<style type="text/css">
	.st0{fill:none;}
	.st1{fill:#FFFFFF;}
	.st2{fill:#8B4E92;}
	.st3{fill:#E46226;}
</style>
<title>Asset 4</title>
<path class="st0" d="M385,889.1c0,0.1,0,0.1,0,0.2C385,889.3,385,889.2,385,889.1z"/>
<path class="st0" d="M384.9,887.3c0,0.2,0,0.4,0,0.6C384.9,887.7,384.9,887.5,384.9,887.3z"/>
<path class="st0" d="M383.9,883.1c0.1,0.2,0.2,0.4,0.2,0.6C384,883.5,384,883.3,383.9,883.1z"/>
<path class="st0" d="M382.2,879.6c0.2,0.3,0.3,0.5,0.5,0.8C382.5,880.1,382.3,879.8,382.2,879.6z"/>
<path class="st0" d="M383.4,881.9c-0.1-0.2-0.2-0.4-0.3-0.6c0.1,0.2,0.2,0.4,0.3,0.7C383.4,882,383.4,881.9,383.4,881.9z"/>
<path class="st0" d="M619,569.4l0.5-0.2c2.1,1.2,4.9,2.7,7.6,4.2c7.4,3.8,14,7.9,20.5,12c2.7,1.6,5.8,3.4,8.7,5.2v-0.1
	c-2.9-1.7-5.9-3.5-8.6-5.2c-6.5-4.1-13.1-8.3-20.5-12c-2.8-1.5-5.5-3-7.6-4.2L619,569.4c-4.2-2.5-7.6-4.2-10.4-5.7l-147.1,62.7
	c0,0,0,0,0,0.1l147.1-62.7C611.4,565.2,614.8,567,619,569.4z"/>
<path class="st0" d="M642.3,620.2L642.3,620.2C642.3,620.2,642.3,620.2,642.3,620.2l-164.7,70.2c0,0,0,0,0,0L642.3,620.2
	C642.3,620.2,642.3,620.2,642.3,620.2z"/>
<path class="st0" d="M383.9,895.4c-0.1,0.3-0.2,0.6-0.3,0.9C383.7,896,383.8,895.7,383.9,895.4z"/>
<path class="st0" d="M384.3,894c0,0.2-0.1,0.3-0.1,0.5C384.3,894.3,384.3,894.2,384.3,894z"/>
<path class="st0" d="M379.9,876.6c0.2,0.2,0.4,0.5,0.7,0.7C380.4,877.1,380.2,876.8,379.9,876.6z"/>
<path class="st0" d="M381.1,878c0.2,0.3,0.4,0.5,0.6,0.8C381.5,878.5,381.3,878.3,381.1,878z"/>
<path class="st0" d="M377.2,874.2c0.3,0.2,0.5,0.4,0.8,0.6C377.7,874.6,377.5,874.4,377.2,874.2z"/>
<path class="st0" d="M502.5,297.4L502.5,297.4c-2.4-2.7-4.8-5.3-7.4-7.6C497.7,292.1,500.1,294.7,502.5,297.4z"/>
<path class="st0" d="M445.6,271.1c2.4,0,4.8,0.1,7.1,0.3C450.4,271.2,448,271.1,445.6,271.1z"/>
<path class="st0" d="M487.1,283.5c2.8,1.9,5.4,4,8,6.3C492.6,287.5,489.9,285.4,487.1,283.5z"/>
<path class="st0" d="M378.6,875.3c0.2,0.2,0.5,0.4,0.7,0.7C379.1,875.8,378.9,875.6,378.6,875.3z"/>
<polygon class="st0" points="569.3,848 559.9,826 569.3,848 "/>
<path class="st0" d="M303.9,885.1c-2-0.8-4-1.7-6-2.6C299.9,883.4,301.9,884.3,303.9,885.1z"/>
<polygon class="st0" points="548.3,863.4 548.2,863.4 560.8,893.1 584.2,883.1 584.2,883.1 560.9,893 "/>
<path class="st0" d="M262.8,631.2c7.2,1.6,14.3,2.3,21.4,2.3c-4.3,0-8.7-0.2-13-0.8C268.4,632.3,265.6,631.8,262.8,631.2z"/>
<path class="st0" d="M364.5,870.7c0.1,0,0.2,0,0.3,0c-0.2,0-0.3,0-0.5,0c0,0,0,0,0,0C364.3,870.7,364.4,870.7,364.5,870.7z"/>
<path class="st0" d="M568.3,910.5L568.3,910.5c-29.8,6.3-60.1,9.5-90.5,9.6h-1.3c-7.5,0-15-0.2-22.5-0.6c-10.3-22.7-28-39.2-52.2-49
	c-0.1-0.1-0.2-0.1-0.4-0.1c0.1,0.1,0.2,0.1,0.4,0.1c24.2,9.8,41.9,26.3,52.2,49c0,0,0,0,0,0c7.5,0.4,14.9,0.6,22.4,0.6h1.3
	C508.2,920.1,538.5,916.9,568.3,910.5l6.6,15.5L568.3,910.5C568.3,910.5,568.3,910.5,568.3,910.5z"/>
<path class="st0" d="M656.3,241.7L656.3,241.7c-7.9,1.6-16,4.1-24.4,7.4L208.5,429.7l423.4-180.6
	C640.3,245.8,648.4,243.3,656.3,241.7z"/>
<path class="st0" d="M586.7,889l6.5,15.4c0,0,0,0,0,0l0,0c0,0,0,0,0,0L586.7,889L586.7,889z"/>
<path class="st0" d="M208.5,429.7c-68.8,30.9-82,90.8-39.8,178.6C126.5,520.5,139.7,460.6,208.5,429.7z"/>
<path class="st0" d="M292.9,880.3c0.2,0.1,0.5,0.2,0.7,0.3C293.4,880.6,293.2,880.4,292.9,880.3z"/>
<path class="st0" d="M476.1,32.4c63.4,0,124.6,13.5,180.2,38.3v-0.4C601.2,45.9,540.3,32.3,476.1,32.4z"/>
<path class="st0" d="M451.2,663.1c0.3-1.1,0.5-2.3,0.8-3.5C451.7,660.8,451.4,661.9,451.2,663.1z"/>
<polygon class="st0" points="434.5,631.7 408.7,571.4 434.4,631.7 "/>
<polygon class="st0" points="599.1,490.2 624.8,550.5 624.8,550.5 599.1,490.2 "/>
<path class="st0" d="M369.7,871c-1.4-0.3-2.7-0.3-4.1-0.3c0,0,0,0,0,0C367,870.6,368.4,870.7,369.7,871z"/>
<polygon class="st0" points="616.3,715.3 656.3,698.2 656.3,698.2 "/>
<path class="st0" d="M656.3,564.9c-8.3,0.1-16.8,0.6-25.4,1.4l0,0C639.5,565.5,648,565,656.3,564.9L656.3,564.9z"/>
<path class="st0" d="M483.7,694.7C483.7,694.7,483.7,694.7,483.7,694.7c-0.6,2-1.1,4-1.5,6C482.6,698.7,483.1,696.7,483.7,694.7z"/>
<path class="st0" d="M251.9,437.6c0.5-0.2,1-0.3,1.4-0.5c-3.1,1-6.2,2.2-9.3,3.5c-0.9,0.4-1.8,0.8-2.6,1.2c0.9-0.4,1.7-0.8,2.6-1.2
	C246.6,439.5,249.2,438.5,251.9,437.6z"/>
<path class="st0" d="M168.7,608.3c17.2,26.1,35.5,45.6,54.8,58.5C204.2,653.9,186,634.4,168.7,608.3z"/>
<path class="st0" d="M322.4,367.2c2.9-35,23.4-61.6,61.9-80c1.8-1.2,3.7-2.2,5.7-3l3.1-1.3l-3.1,1.3c-2,0.8-3.9,1.8-5.7,3
	C345.8,305.6,325.3,332.2,322.4,367.2z"/>
<path class="st0" d="M480.1,717.5c-0.2,18.4,6.8,34.2,21,46.8l0,0C487,751.7,480,735.9,480.1,717.5z"/>
<path class="st0" d="M208.4,600c-3.6-4-6.8-8.4-9.8-13.2c11.1,17.9,26.8,30.9,47.2,39.1c0,0,0.1,0,0.1,0.1c0,0-0.1,0-0.1-0.1
	C230.8,619.9,218.4,611.2,208.4,600z"/>
<path class="st0" d="M384.4,884.9c0.1,0.2,0.1,0.4,0.2,0.6C384.5,885.3,384.5,885.1,384.4,884.9z"/>
<path class="st0" d="M356.9,823.7c0.1-0.8,0.1-1.6,0.2-2.4C357,822.1,356.9,822.9,356.9,823.7z"/>
<path class="st0" d="M373.8,872.2c0.4,0.2,0.8,0.3,1.2,0.5C374.6,872.6,374.2,872.4,373.8,872.2z"/>
<path class="st0" d="M356.2,856c-0.1-3-0.1-5.9-0.1-8.8C356.1,850.1,356.1,853,356.2,856z"/>
<polygon class="st0" points="396.2,702.8 396.2,702.8 412,716.2 "/>
<polygon class="st0" points="618.3,552.7 618.3,552.7 440.6,628.5 418,575.4 417.9,575.4 440.6,628.5 "/>
<path class="st0" d="M377.6,857.5L377.6,857.5c-0.4-21.3,1.4-42.6,5.4-63.5C379,814.9,377.2,836.2,377.6,857.5z"/>
<path class="st0" d="M375.6,873.2c0.3,0.2,0.6,0.4,0.9,0.6C376.2,873.5,375.9,873.3,375.6,873.2z"/>
<path class="st0" d="M369.8,871c0.6,0.1,1.2,0.3,1.7,0.4C371,871.2,370.4,871.1,369.8,871z"/>
<path class="st0" d="M361.4,788.4c-2.1,10.6-3.5,21.5-4.3,32.7C357.9,809.9,359.3,799,361.4,788.4L361.4,788.4z"/>
<polygon class="st0" points="342.2,172.2 388.3,280.1 382,282.8 356.3,222.6 382,282.9 388.3,280.2 342.3,172.2 "/>
<path class="st0" d="M356.7,826.4c0-0.3,0-0.5,0-0.8C356.7,825.8,356.7,826.1,356.7,826.4z"/>
<path class="st0" d="M371.9,871.5c0.5,0.1,0.9,0.3,1.4,0.5C372.8,871.8,372.4,871.7,371.9,871.5z"/>
<path class="st0" d="M356.1,846c0-1.1,0-2.1,0-3.2C356.1,843.8,356.1,844.9,356.1,846z"/>
<path class="st0" d="M320.9,129.7c5.7-2.9,11.1-2.6,17.4-0.5c5.8,2.4,9.7,6.5,12.2,12.4c2.3,5.4,2.4,11.4,0.3,16.9
	c-1.1,2.8-2.7,5.4-4.8,7.6c2.1-2.2,3.7-4.7,4.8-7.6c2.1-5.5,2-11.5-0.3-16.9c-2.5-5.9-6.4-10-12.2-12.4
	C332,127.1,326.6,126.7,320.9,129.7c-5.1,2.2-8.9,5.4-11.4,10.1C312,135.1,315.8,131.9,320.9,129.7z"/>
<path class="st1" d="M349.2,881.8c0.2-0.4,0.4-0.8,0.6-1.2C349.5,881,349.4,881.4,349.2,881.8z"/>
<path class="st1" d="M361.5,907.5c-0.1,0-0.2,0-0.3-0.1C361.3,907.4,361.4,907.5,361.5,907.5z"/>
<path class="st1" d="M359.2,906.7c-0.5-0.2-0.9-0.4-1.3-0.6C358.3,906.3,358.7,906.5,359.2,906.7z"/>
<path class="st1" d="M348.5,883.6c0.1-0.4,0.3-0.9,0.5-1.3C348.8,882.7,348.6,883.2,348.5,883.6z"/>
<path class="st1" d="M360.3,907.2c-0.2-0.1-0.5-0.2-0.7-0.2C359.9,907,360.1,907.1,360.3,907.2z"/>
<path class="st1" d="M357,905.7c-0.1-0.1-0.3-0.2-0.4-0.2C356.8,905.5,356.9,905.6,357,905.7z"/>
<polygon class="st1" points="501.1,764.3 501.2,764.4 501.1,764.3 "/>
<path class="st1" d="M353.5,875.7c0.3-0.2,0.5-0.5,0.8-0.7C354,875.2,353.8,875.4,353.5,875.7z"/>
<path class="st1" d="M356.4,873.5c0.3-0.2,0.6-0.4,0.9-0.5C357,873.1,356.7,873.3,356.4,873.5z"/>
<path class="st1" d="M354.9,874.5c0.3-0.2,0.6-0.4,0.9-0.7C355.5,874.1,355.2,874.3,354.9,874.5z"/>
<path class="st1" d="M564.1,413.1c4.6,10.8,10.5,20.1,17.6,28.1C574.6,433.2,568.7,423.9,564.1,413.1z"/>
<path class="st1" d="M358.9,872.2c-0.3,0.1-0.5,0.3-0.8,0.4c0.3-0.1,0.6-0.3,0.9-0.4C358.9,872.1,358.9,872.1,358.9,872.2z"/>
<path class="st1" d="M359.7,871.8c0.3-0.1,0.7-0.3,1-0.4C360.4,871.6,360.1,871.7,359.7,871.8z"/>
<polygon class="st1" points="616.3,715.3 501.2,764.4 656.3,698.2 656.3,698.2 "/>
<path class="st1" d="M190.2,495.4c-8.5,21-9.8,41.9-4.1,62.8C180.4,537.3,181.8,516.4,190.2,495.4z"/>
<path class="st1" d="M563.3,336.4c-1,2.4-1.8,4.8-2.6,7.2C561.4,341.2,562.3,338.8,563.3,336.4z"/>
<path class="st1" d="M351.1,878.4c0.2-0.3,0.4-0.6,0.6-0.8C351.5,877.8,351.3,878.1,351.1,878.4z"/>
<path class="st1" d="M350.1,880c0.2-0.3,0.4-0.6,0.6-1C350.5,879.4,350.3,879.7,350.1,880z"/>
<path class="st1" d="M348.4,884c-1,3.5-1.1,7.3,0.1,10.9C347.3,891.4,347.3,887.6,348.4,884z"/>
<path class="st1" d="M649.7,623.9c2.3,1.2,4.5,2.5,6.6,3.8v0C654.2,626.4,652,625.1,649.7,623.9c-2.3-1.5-4.8-2.8-7.4-3.7l0,0
	C644.9,621.1,647.4,622.4,649.7,623.9z"/>
<path class="st1" d="M656.3,636.3L656.3,636.3c-1.1-0.9-2.2-1.7-3.4-2.5C654.1,634.6,655.2,635.4,656.3,636.3z"/>
<path class="st1" d="M352.3,877c0.2-0.3,0.5-0.5,0.7-0.8C352.7,876.5,352.5,876.7,352.3,877z"/>
<path class="st1" d="M371,907.4c-6-1.5-12-3.1-18-4.8c0,0,0,0,0,0C359,904.3,365,905.9,371,907.4c-0.5,0.1-0.9,0.2-1.4,0.3
	C370.1,907.6,370.5,907.5,371,907.4C371,907.4,371,907.4,371,907.4C371,907.4,371,907.4,371,907.4z"/>
<path class="st1" d="M365.6,870.7C365.6,870.7,365.6,870.7,365.6,870.7c-0.3,0-0.6,0-0.9,0c-0.1,0-0.2,0-0.3,0
	C364.8,870.7,365.2,870.7,365.6,870.7z"/>
<path class="st1" d="M364.2,870.7C364.2,870.7,364.2,870.7,364.2,870.7c-1.1,0.1-2.2,0.4-3.3,0.7C362,871.1,363.1,870.9,364.2,870.7
	z"/>
<path class="st1" d="M322.7,625.1C322.7,625.1,322.7,625.1,322.7,625.1c-17.2,7.3-34.3,9.8-51.5,7.6c4.4,0.6,8.7,0.8,13,0.8
	C297,633.4,309.8,630.6,322.7,625.1C322.7,625.1,322.7,625.1,322.7,625.1z"/>
<path class="st1" d="M367.5,908c-0.1,0-0.2,0-0.3,0C367.3,908,367.4,908,367.5,908z"/>
<path class="st1" d="M320.7,439.8c-22.9-8.9-45.3-9.8-67.4-2.7c-0.5,0.2-1,0.3-1.4,0.5C274.5,429.9,297.3,430.7,320.7,439.8z"/>
<path class="st1" d="M211.4,462.5c8.9-9.1,19.8-16.4,32.6-21.9c-0.9,0.4-1.8,0.8-2.6,1.2C229.7,447.1,219.7,454,211.4,462.5z"/>
<path class="st1" d="M191.1,572.2c2.2,5.2,4.8,10.1,7.6,14.6c2.9,4.7,6.2,9.1,9.8,13.2C201.4,592,195.6,582.8,191.1,572.2z"/>
<path class="st1" d="M651.1,273.3c1.7-0.1,3.5-0.1,5.2-0.1v0C654.6,273.2,652.9,273.2,651.1,273.3z"/>
<path class="st1" d="M375.5,572.3c0.3-0.7,0.6-1.3,0.9-2c0,0,0,0,0,0c0,0,0,0,0,0C376.1,571,375.8,571.6,375.5,572.3z"/>
<path class="st1" d="M369.1,907.8c-0.2,0-0.5,0.1-0.7,0.1C368.6,907.9,368.9,907.9,369.1,907.8z"/>
<path class="st1" d="M642.1,627.2c2.5,1.3,4.9,2.7,7.2,4.1C647,629.8,644.6,628.5,642.1,627.2l-158.4,67.5c0,0,0,0,0,0c0,0,0,0,0,0
	L642.1,627.2z"/>
<path class="st1" d="M375.6,493.7c3.3,7.9,5.7,15.7,7,23.5C381.3,509.4,379,501.6,375.6,493.7z"/>
<path class="st0" d="M251.9,437.6c-2.6,0.9-5.3,1.9-7.9,3h0C246.6,439.5,249.2,438.5,251.9,437.6z"/>
<path class="st0" d="M230,533.8c0.6,0.3,0.8,0.7,1.9,0.8c4.9,1.8,10.4,1.5,15.2-0.6c4.7-2,8.4-5.7,10.5-10.3c1.4-2.9,2-6.1,1.6-9.3
	c0.1,2.6-0.4,5.3-1.6,8.2c-2.1,4.6-5.8,8.3-10.5,10.3c-4.8,2.1-10.2,2.3-15.2,0.6C230.8,534.4,230.6,534,230,533.8L230,533.8
	c-0.1,0.7-0.1,1.4-0.1,2.2C229.9,535.2,230,534.5,230,533.8L230,533.8z"/>
<path class="st0" d="M245.7,498.3c0.3,0.1,0.6,0.2,0.9,0.3c5-4.6,10.7-8.3,16.9-11c13.5-5.8,27.6-6.4,40.9-1.5
	c13.7,4.8,22.7,13.2,28.2,26.3c3.9,9.1,4.8,17.9,3.1,26.8c2.1-9.3,1-18.4-3-27.9c-5.3-12.6-14.9-21.3-28.2-26.3s-26.9-4.5-40.8,1.5
	C256.9,489.3,250.9,493.3,245.7,498.3z"/>
<path class="st0" d="M245.9,625.9c-15.1-6.1-27.5-14.7-37.5-25.9C218.4,611.2,230.8,619.9,245.9,625.9c0,0,0.1,0,0.1,0.1
	c5.6,2.3,11.2,4,16.8,5.2c2.8,0.6,5.6,1.1,8.4,1.5C262.8,631.6,254.4,629.3,245.9,625.9z"/>
<path class="st1" d="M251.9,437.6c-2.6,0.9-5.2,1.9-7.9,3h0c-12.8,5.5-23.7,12.8-32.6,21.9c-8.9,9.1-16,20.1-21.1,32.9
	c-8.4,21-9.8,41.9-4.1,62.8c1.3,4.6,2.9,9.3,4.9,13.9c4.5,10.6,10.3,19.8,17.3,27.8c10,11.3,22.4,19.9,37.5,25.9
	c8.5,3.4,16.9,5.6,25.3,6.8c17.1,2.2,34.2-0.3,51.4-7.6c0,0,0,0,0,0c24.9-10.6,42.4-28.2,52.8-52.8c0.3-0.7,0.6-1.3,0.9-2
	c0,0,0,0,0,0c7.1-17.7,9.2-35.3,6.2-53c-1.3-7.8-3.7-15.7-7-23.5c0-0.1-0.1-0.1-0.1-0.2c-10.9-25.7-29.1-43.4-54.8-53.7c0,0,0,0,0,0
	C297.3,430.7,274.5,429.9,251.9,437.6z M304.4,485c13.3,5,22.8,13.7,28.2,26.3c4.1,9.5,5.1,18.6,3,27.9c-0.7,3.9-2,7.8-3.6,11.7
	c-5.6,13-15.4,22.5-29.3,28.5c-12.9,5.7-27.6,6.3-40.9,1.5c-13.7-4.8-22.7-13.2-28.2-26.3c-2.3-6.6-3.7-12.7-3.6-18.6
	c0-0.7,0-1.4,0-2.2l0,0c0.7,0.3,0.8,0.7,2-0.3c5,1.7,10.4,1.4,15.2-0.6c4.7-2,8.4-5.7,10.5-10.3c1.1-2.8,1.6-5.5,1.6-8.2
	c-0.2-1.8-0.7-3.5-1.4-5.2c-1.8-4.6-5.6-8.1-10.4-9.4c-0.6-0.3-1.1-0.1-1.7-0.3c0.3-0.3,0.6-0.6,0.9-0.9c-0.3-0.1-0.6-0.1-0.9-0.3
	c5.1-5,11.2-9,17.8-11.9C277.5,480.5,291.1,480,304.4,485z"/>
<path class="st2" d="M332.5,512.4c-5.6-13-14.5-21.5-28.2-26.3c-13.3-5-27.3-4.3-40.9,1.5c-6.2,2.7-11.9,6.4-16.9,11
	c0.3,0,0.6,0.1,0.9,0.1c4.7,1.4,8.5,4.9,10.4,9.4c0.9,2,1.3,4.1,1.4,6.3c0.3,3.2-0.2,6.4-1.6,9.3c-2.1,4.6-5.8,8.3-10.5,10.3
	c-4.8,2.1-10.2,2.4-15.2,0.6c-1.1-0.1-1.3-0.5-1.9-0.8v0c0,0.7-0.1,1.4-0.1,2.2c0,6,1.2,12,3.7,17.5c5.4,12.6,14.9,21.3,28.2,26.3
	c13.3,5,26.9,4.5,40.9-1.5c13.5-5.8,23.7-15.5,29.3-28.5c1.7-3.6,2.8-7.1,3.6-10.6C337.3,530.3,336.4,521.5,332.5,512.4z"/>
<path class="st2" d="M247.5,498.6c-0.3,0-0.6,0-0.9-0.1c-0.3,0.3-0.6,0.6-0.9,0.9c0.6,0.3,1.1,0.1,1.7,0.3c4.7,1.3,8.6,4.8,10.4,9.4
	c0.8,1.6,1.2,3.4,1.4,5.2c-0.1-2.2-0.5-4.3-1.4-6.3C256,503.5,252.1,500.1,247.5,498.6z"/>
<path class="st2" d="M302.7,578.3c-13.9,5.9-27.6,6.5-40.9,1.5c-13.3-5-22.8-13.7-28.2-26.3c-2.4-5.5-3.7-11.5-3.7-17.5
	c0,5.9,1.3,12.1,3.6,18.6c5.6,13,14.5,21.5,28.2,26.3c13.3,4.8,27.9,4.3,40.9-1.5c13.9-5.9,23.8-15.4,29.3-28.5
	c1.7-3.9,2.9-7.8,3.6-11.7c-0.8,3.5-2,7-3.6,10.6C326.4,562.9,316.2,572.6,302.7,578.3z"/>
<path class="st0" d="M477.6,690.4c-0.2,0.5-0.4,1-0.6,1.5C477.2,691.4,477.4,690.9,477.6,690.4L477.6,690.4z"/>
<path class="st0" d="M475.6,698.2c0-0.9,0.1-1.9,0.3-2.8c-0.3,1-0.5,1.9-0.8,2.9c-8.4,29.1-2.3,52,17,69.9c1.9,1.9,4,3.1,5.6,4.5
	l0.4-0.2c-2.3-1.7-4-3.1-5.6-4.5C472.8,750.4,467.2,727.3,475.6,698.2z"/>
<path class="st0" d="M642.3,620.2C642.3,620.2,642.3,620.2,642.3,620.2l-164.7,70.2c0,0,0,0,0,0L642.3,620.2z"/>
<path class="st0" d="M480.1,717.5c0.1-5.4,0.7-11,2-16.8c0.4-2,0.9-4,1.5-6c-8.3,29.1-2.7,52.2,17,69.8l0.5-0.2
	C487,751.7,480,735.9,480.1,717.5z"/>
<path class="st1" d="M501.2,764.4C501.1,764.4,501.1,764.4,501.2,764.4l-0.5,0.2c-19.7-17.6-25.3-40.8-17-69.8c0,0,0,0,0,0
	l158.4-67.5c2.5,1.3,4.9,2.7,7.2,4.1c1.3,0.8,2.5,1.6,3.7,2.5c1.2,0.8,2.3,1.7,3.4,2.5v-8.6c-2.1-1.3-4.3-2.6-6.6-3.8
	c-2.3-1.5-4.8-2.8-7.4-3.7l-164.7,70.2c0,0,0,0,0,0l0,0.1c-0.2,0.5-0.4,1-0.6,1.5c-0.4,1.2-0.8,2.4-1.1,3.5
	c-0.2,0.9-0.3,1.8-0.3,2.8c-8.4,29.1-2.8,52.2,17,69.8c1.6,1.4,3.3,2.8,5.6,4.5l158.1-67.5v-6.9L501.2,764.4z"/>
<path class="st0" d="M401.8,870.5c24.2,9.8,41.9,26.3,52.2,49c7.5,0.4,14.9,0.6,22.5,0.6h1.3c30.4-0.1,60.7-3.3,90.5-9.6l-4.9-11.5
	l23.4-10l0,0h0l6.6,15.4c21.6-6,42.6-13.5,63-22.5V781.3c-21.4,9.6-38.7,16.9-50.8,22.1c-17.5,7.5-33.7,13.3-48.1,16.8
	c-9.1,2.3-17.5,3.7-25.5,5c-6.7,0.9-13.5,1.3-20.2,1.2c-30.6-1.9-52.4-18.1-65.2-48.2c-8.6-20.2-9.6-47.5-2.9-82.8
	c1.8-8.2,4.1-17.7,6.7-27.9c0.3-1.3,0.6-2.8,0.9-4.4c0.3-1.1,0.5-2.3,0.8-3.5c0.4-1.6,0.8-3.3,1.2-5c1.4-5.4,3.4-12.1,5.6-19.4
	c0.8-3,1.9-5.6,2.7-8.6l0,0c0,0,0,0,0-0.1l147.1-62.7c2.8,1.5,6.2,3.2,10.4,5.7l0.5-0.2c2.1,1.2,4.9,2.7,7.6,4.2
	c7.5,3.7,14,7.9,20.5,12c2.7,1.6,5.8,3.4,8.6,5.2v-8.7l-25.4-15.6c0,0,0,0,0,0l0,0c8.6-0.8,17.1-1.2,25.4-1.4v-27.8l-31.5,13.4l0,0
	h0l-25.7-60.3l-190.3,81.2l25.7,60.3l0,0l0,0l-98.5,42c-40.6,18.3-78.1,16.1-112.4-6.9c-19.3-12.9-37.5-32.4-54.8-58.5
	c-42.2-87.8-29-147.7,39.8-178.6l423.4-180.6c8.4-3.3,16.5-5.8,24.4-7.4v-171c-55.7-24.8-116.9-38.3-180.2-38.3h-1.3
	C297,33.1,136.9,139.8,67.7,303.5c-93.8,222.1,6.9,477.7,225.2,576.8c0.2,0.1,0.5,0.2,0.7,0.3c1.4,0.6,2.8,1.3,4.2,1.9
	c2,0.9,4,1.7,6,2.6c7.1-5.9,15.1-10.7,23.6-14.3c9.8-3.1,19.7-6.3,29.4-7.2c7.3-0.4,14.1-0.7,20.8,0.2c0,0,0.1,0,0.1,0
	c7.9,1.3,15.9,3.1,23.7,6.5C401.5,870.5,401.7,870.5,401.8,870.5z M584.3,883.1L584.3,883.1L584.3,883.1l-23.4,10.1l-12.7-29.7
	l0.1,0l0-0.1l23.4-10L584.3,883.1z M559.9,826l9.4,22l0,0l0,0l-23.4,10l-11.7-27.5L559.9,826z M393.1,282.9
	c19.3-8,36.8-11.9,52.5-11.8c2.4,0,4.8,0.1,7.1,0.3c12.8,1.2,24.3,5.2,34.4,12.1c2.8,1.9,5.4,4,8,6.3c2.6,2.3,5,4.8,7.4,7.6h0l0,0
	l-180.4,76.9c0-2.4,0.2-4.8,0.3-7.1c2.9-35,23.4-61.7,61.9-80.1c1.8-1.2,3.7-2.2,5.7-3L393.1,282.9z M382,282.9l-25.7-60.3
	l-20.4-47.7l6.3-2.7l0,0.1l0,0l46,108L382,282.9z M308.5,141.9c0.3-0.7,0.6-1.4,1-2.1c2.4-4.7,6.3-7.9,11.4-10.1
	c5.7-2.9,11.1-2.6,17.4-0.5c5.8,2.3,9.7,6.5,12.2,12.4c2.3,5.4,2.4,11.4,0.3,16.9c-1.1,2.9-2.7,5.4-4.8,7.6
	c-2.1,2.2-4.6,3.9-7.4,5.1c-5.6,2.3-11.9,2.3-17.5,0c-5.5-2.2-9.8-6.5-12-11.9C306.8,153.7,306.6,147.5,308.5,141.9z M417.9,575.4
	L417.9,575.4L417.9,575.4l177.8-75.9l22.6,53.1l0,0l0,0l-177.7,75.8L417.9,575.4z M447.5,644.7l-7,32.3c-8.3,10-16.1,20.4-23.4,31.2
	l-15.4-13.7C414.2,676.5,429.7,660.3,447.5,644.7z M396.2,702.8L396.2,702.8C396.2,702.8,396.2,702.8,396.2,702.8l15.8,13.5
	c-12.6,22.1-21.8,45.9-27.3,70.7l-21.3-6.3C369.9,753,381,726.7,396.2,702.8z M377.6,857.5L377.6,857.5
	C377.6,857.5,377.6,857.5,377.6,857.5l-21.4-1.5c-0.1-3-0.1-5.9-0.1-8.8c0-0.4,0-0.8,0-1.2c0-1.1,0-2.1,0-3.2
	c0.1-5.5,0.3-11,0.6-16.4c0-0.3,0-0.5,0-0.8c0-0.6,0.1-1.3,0.1-1.9c0.1-0.8,0.1-1.6,0.2-2.4c0-0.1,0-0.2,0-0.2
	c0.9-11.2,2.3-22.1,4.3-32.7l0,0c0,0,0,0,0-0.1L383,794C379,814.9,377.2,836.2,377.6,857.5z"/>
<path class="st3" d="M656.3,564.9c-8.3,0.1-16.8,0.6-25.4,1.4l25.4,15.6V564.9z"/>
<polygon class="st3" points="630.9,566.2 630.9,566.2 656.3,581.8 656.3,581.8 "/>
<path class="st0" d="M603.2,375.2l1.9,0.8c4.9,1.8,10.4,1.5,15.2-0.6c5-2.1,8.2-5.6,10.9-10.5c2.3-4.5,2.3-9.8,0.2-14.5
	c0,0,0-0.1,0-0.1c1.6,4.3,1.4,8.8-0.5,13.6c-2.2,4.8-6.1,8.5-10.9,10.5c-5,2.1-9.8,2-15.2,0.6l-1.9-0.8c-0.1,4.9,0.5,9.8,1.8,14.5
	C603.5,384.4,603,379.8,603.2,375.2z"/>
<path class="st0" d="M606.8,394.9L606.8,394.9c3,7,7.3,12.8,12.8,17.5C614,407.5,609.7,401.7,606.8,394.9z"/>
<path class="st0" d="M656.3,324.1v-1c-6.4,0.4-13,1.9-19.6,4.8c-6.6,2.8-12.6,6.8-17.8,11.9c0.3,0.1,0.7,0.2,1,0.3
	c5-4.7,10.8-8.5,17.1-11.2C643.5,326.1,649.9,324.5,656.3,324.1z"/>
<path class="st1" d="M618.9,466.8c12.5,5,25,7.6,37.4,7.6v-49.1c-7,0.3-14.1-0.8-20.9-3.2c-6.1-2.6-11.3-5.8-15.8-9.7
	c-5.5-4.6-9.8-10.4-12.8-17.5h0v0c-0.9-2-1.6-4-2.1-6.1c-1.3-4.7-2-9.6-1.8-14.5l1.9,0.8c5.4,1.4,10.2,1.5,15.2-0.6
	c4.9-2,8.8-5.7,10.9-10.5c1.9-4.8,2.1-9.4,0.5-13.6c-1.8-4.5-5.6-8-10.3-9.3c-0.5-0.2-1.1-0.3-1.7-0.3c0.2-0.2,0.5-0.4,0.7-0.6
	c-0.4,0-0.7-0.1-1-0.3c5.1-5,11.2-9,17.8-11.9c6.6-2.8,13.1-4.4,19.6-4.8v-50c-1.7,0-3.5,0-5.2,0.1c-11.4,0.6-22.7,3.4-34.1,8.2
	c-25.2,10.7-43.4,29.1-53.7,54.8v0c-1,2.4-1.8,4.8-2.6,7.2c-7.6,23.2-6.4,46.3,3.5,69.5c4.6,10.8,10.5,20.1,17.6,28.1
	C591.6,452.3,604,460.8,618.9,466.8z"/>
<path class="st2" d="M656.3,424.4V324.1c-6.4,0.4-12.9,2-19.2,4.7c-6.3,2.7-12.1,6.5-17.1,11.2c0.2,0,0.5,0.1,0.7,0
	c4.7,1.4,8.5,4.9,10.4,9.4c0.1,0.3,0.2,0.5,0.3,0.8c0,0,0,0.1,0,0.1c2.1,4.6,2,9.9-0.2,14.5c-2.7,4.9-5.9,8.4-10.9,10.5
	c-4.8,2.1-10.2,2.4-15.2,0.6l-1.9-0.8c-0.2,4.6,0.3,9.2,1.5,13.6c0.6,2.1,1.3,4.1,2.2,6.1h0c2.9,6.8,7.2,12.6,12.8,17.5
	c4.4,3.7,9.5,6.6,15.4,8.8C642.1,423.8,649.1,424.9,656.3,424.4z"/>
<path class="st2" d="M635,421.1c-5.9-2.2-11-5.1-15.4-8.8c4.5,3.9,9.7,7.1,15.8,9.7c6.8,2.4,13.8,3.5,20.9,3.2v-0.8
	C649.1,424.9,642.1,423.8,635,421.1z"/>
<path class="st2" d="M620.7,340.1c-0.2,0-0.5,0-0.7,0c-0.2,0.2-0.5,0.4-0.7,0.6c0.6,0,1.2,0.1,1.7,0.3c4.7,1.3,8.5,4.8,10.3,9.3
	c-0.1-0.3-0.2-0.5-0.3-0.8C629.2,344.9,625.4,341.5,620.7,340.1z"/>
<path class="st2" d="M604.7,388.8c0.6,2.1,1.3,4.1,2.1,6.1v0h0C606,392.9,605.3,390.9,604.7,388.8z"/>
<path class="st0" d="M353.3,884.4c-1.3,3.4-1.2,7.1,0.3,10.4c0.1,0.3,0.3,0.7,0.5,1c-0.2-0.3-0.3-0.7-0.5-1
	C352.1,891.2,352.3,888,353.3,884.4z"/>
<path class="st0" d="M371.6,902c0.7-0.3,1.4-0.7,2-1.1C373,901.3,372.3,901.7,371.6,902c-3.6,1.5-6.9,1.3-10.5,0.2
	c-0.1-0.1-0.3-0.1-0.4-0.2c0.1,0.1,0.3,0.2,0.4,0.2C364.5,904,368,903.6,371.6,902z"/>
<path class="st0" d="M365.6,870.7c2.4,0,4.8,0.4,7.2,1.3c4.7,1.8,8.5,5.5,10.5,10.2c2.1,5,1.8,9.3,0.3,14.2c0,0,0,0,0,0
	c0.1-0.3,0.2-0.6,0.3-0.9c0.1-0.3,0.2-0.6,0.3-0.9c0-0.2,0.1-0.3,0.1-0.5c0.4-1.5,0.6-3.1,0.6-4.7c0-0.1,0-0.1,0-0.2
	c0-0.4,0-0.8-0.1-1.2c0-0.2,0-0.4,0-0.6c-0.1-0.6-0.2-1.2-0.3-1.8c0-0.2-0.1-0.4-0.2-0.6c-0.1-0.4-0.2-0.8-0.3-1.2
	c-0.1-0.2-0.1-0.4-0.2-0.6c-0.1-0.4-0.3-0.8-0.4-1.1c-0.1-0.2-0.2-0.5-0.3-0.7c-0.2-0.3-0.3-0.7-0.5-1c-0.1-0.3-0.3-0.5-0.5-0.8
	c-0.2-0.3-0.3-0.5-0.5-0.8c-0.2-0.3-0.4-0.5-0.6-0.8c-0.2-0.2-0.3-0.5-0.5-0.7c-0.2-0.3-0.4-0.5-0.7-0.7c-0.2-0.2-0.4-0.4-0.6-0.6
	c-0.2-0.2-0.5-0.4-0.7-0.7c-0.2-0.2-0.4-0.4-0.6-0.6c-0.3-0.2-0.5-0.4-0.8-0.6c-0.2-0.2-0.4-0.3-0.7-0.5c-0.3-0.2-0.6-0.4-0.9-0.6
	c-0.2-0.1-0.4-0.3-0.6-0.4c-0.4-0.2-0.8-0.4-1.2-0.5c-0.2-0.1-0.3-0.2-0.5-0.2c-0.5-0.2-0.9-0.3-1.4-0.5c-0.1,0-0.2-0.1-0.4-0.1
	c-0.6-0.2-1.2-0.3-1.7-0.4c0,0,0,0-0.1,0C368.4,870.7,367,870.6,365.6,870.7z"/>
<path class="st0" d="M379.1,894.6c1.7-3.4,1.8-7.3,0.2-10.7C380.8,887.5,380.6,890.7,379.1,894.6z"/>
<path class="st0" d="M354.5,896.5c-0.1-0.1-0.2-0.3-0.2-0.4C354.3,896.2,354.4,896.3,354.5,896.5z"/>
<path class="st0" d="M364.2,870.7c0.1,0,0.2,0,0.2,0C364.4,870.7,364.3,870.7,364.2,870.7z"/>
<path class="st1" d="M373.5,906.5c0.1,0,0.1,0,0.2-0.1c4.7-2,8.1-5.8,9.9-10.1c1.6-4.9,1.8-9.2-0.3-14.2c-2-4.7-5.8-8.4-10.5-10.2
	c-2.4-0.9-4.8-1.3-7.2-1.3c-0.4,0-0.8,0-1.2,0.1c-0.1,0-0.2,0-0.2,0c-1.1,0.1-2.2,0.4-3.3,0.7c-0.1,0-0.1,0-0.2,0
	c-0.3,0.1-0.7,0.2-1,0.4c-0.3,0.1-0.5,0.2-0.8,0.3c-0.3,0.1-0.6,0.3-0.9,0.4c-0.3,0.1-0.5,0.2-0.8,0.4c-0.3,0.2-0.6,0.4-0.9,0.5
	c-0.2,0.1-0.4,0.3-0.6,0.4c-0.3,0.2-0.6,0.4-0.9,0.7c-0.2,0.1-0.4,0.3-0.6,0.4c-0.3,0.2-0.5,0.5-0.8,0.7c-0.2,0.2-0.4,0.3-0.5,0.5
	c-0.2,0.2-0.5,0.5-0.7,0.8c-0.2,0.2-0.3,0.4-0.5,0.6c-0.2,0.3-0.4,0.6-0.6,0.8c-0.2,0.2-0.3,0.4-0.5,0.6c-0.2,0.3-0.4,0.6-0.6,1
	c-0.1,0.2-0.2,0.4-0.4,0.6c-0.2,0.4-0.4,0.8-0.6,1.2c-0.1,0.2-0.2,0.3-0.2,0.5c-0.2,0.4-0.3,0.9-0.5,1.3c0,0.1-0.1,0.3-0.1,0.4
	c-1.1,3.6-1,7.4,0.1,10.9c0.2,0.6,0.4,1.2,0.7,1.8c0.9,2.2,2.2,4.2,3.9,5.9c0,0,0,0,0,0c0,0,0,0,0,0c5.9,1.7,11.9,3.3,18,4.8
	C371.8,907.2,372.7,906.9,373.5,906.5z M354.5,896.5c-0.1-0.1-0.2-0.3-0.2-0.4c0-0.1-0.1-0.2-0.1-0.2c-0.2-0.3-0.3-0.6-0.5-1
	c-1.5-3.3-1.6-7-0.3-10.4c0-0.1,0-0.1,0-0.2c1.4-3.4,4.1-6.1,7.5-7.4c4-1.7,7.1-2,10.5-0.2v0c3.6,1.1,6.5,3.8,7.9,7.3
	c1.6,3.4,1.5,7.4-0.2,10.7c0,0,0,0,0,0c-1.1,2.6-3,4.9-5.4,6.3c-0.6,0.4-1.3,0.8-2,1.1c-3.6,1.5-7.1,2-10.5,0.2
	c-0.2-0.1-0.3-0.2-0.4-0.2C358,900.9,355.9,898.9,354.5,896.5z"/>
<path class="st2" d="M371.6,902c0.7-0.3,1.4-0.7,2-1.1c2.4-1.5,4-3.6,5.4-6.3c0,0,0,0,0,0c1.5-3.8,1.7-7.1,0.2-10.7
	c-1.5-3.6-4-5.7-7.9-7.3c-3.4-1.3-7.2-1.3-10.5,0.2c-3.6,1.5-5.7,4-7.5,7.4c0,0,0,0.1,0,0.1c-1.1,3.6-1.2,6.8,0.3,10.4
	c0.1,0.3,0.3,0.7,0.5,1c0,0.1,0.1,0.2,0.1,0.2c0.1,0.1,0.2,0.3,0.2,0.4c1.5,2.5,3.5,4.2,6.2,5.6c0.1,0.1,0.3,0.1,0.4,0.2
	C364.7,903.3,368,903.5,371.6,902z"/>
<path class="st2" d="M379.3,883.9c-1.4-3.5-4.3-6.2-7.9-7.3C375.3,878.1,377.7,880.3,379.3,883.9z"/>
<path class="st2" d="M360.9,876.8c3.3-1.5,7.1-1.6,10.5-0.2v0C368,874.8,364.9,875.1,360.9,876.8c-3.4,1.3-6.1,4-7.5,7.4
	c0,0.1,0,0.1,0,0.2c0,0,0-0.1,0-0.1C355.1,880.8,357.3,878.4,360.9,876.8z"/>
<path class="st2" d="M373.6,900.9c2.4-1.5,4.3-3.7,5.4-6.3c0,0,0,0,0,0c0,0,0,0,0,0C377.7,897.3,376.1,899.4,373.6,900.9z"/>
<path class="st2" d="M354.5,896.5c1.4,2.4,3.6,4.4,6.2,5.6C358,900.6,355.9,898.9,354.5,896.5z"/>
<path class="st2" d="M354.2,896c0-0.1-0.1-0.2-0.1-0.2C354.1,895.9,354.2,896,354.2,896z"/>
<polygon class="st3" points="569.3,848 559.9,826 534.2,830.6 545.9,858 "/>
<polygon class="st3" points="569.3,848 569.3,848 545.9,858 534.2,830.6 545.9,858 "/>
<polygon class="st3" points="618.3,552.7 595.7,499.6 418,575.4 440.6,628.5 "/>
<polygon class="st3" points="618.3,552.7 618.3,552.7 595.7,499.6 418,575.4 418,575.4 595.7,499.6 "/>
<path class="st3" d="M568.3,910.5L568.3,910.5c8.3-1.8,16.7-3.8,24.9-6.1l-6.5-15.4l-23.4,10L568.3,910.5
	C568.3,910.5,568.2,910.5,568.3,910.5L568.3,910.5C568.3,910.5,568.3,910.5,568.3,910.5z"/>
<polygon class="st3" points="586.7,889 563.3,899 586.7,889 "/>
<path class="st3" d="M563.3,899l4.9,11.5c0,0,0,0,0,0L563.3,899z"/>
<path class="st3" d="M357.1,821.1c0,0.1,0,0.2,0,0.2c-0.1,0.8-0.1,1.6-0.2,2.4c0,0.6-0.1,1.3-0.1,1.9c0,0.3,0,0.5,0,0.8
	c-0.3,5.4-0.5,10.9-0.6,16.4c0,1.1,0,2.1,0,3.2c0,0.4,0,0.8,0,1.2c0,2.9,0,5.9,0.1,8.8l21.4,1.5c-0.4-21.3,1.4-42.6,5.4-63.5
	l-21.6-5.6C359.3,799,357.9,809.9,357.1,821.1z"/>
<path class="st3" d="M361.4,788.4L383,794L361.4,788.4C361.4,788.3,361.4,788.3,361.4,788.4z"/>
<path class="st3" d="M356.8,825.6c0-0.6,0.1-1.3,0.1-1.9C356.8,824.3,356.8,824.9,356.8,825.6z"/>
<path class="st3" d="M356.1,847.2c0-0.4,0-0.8,0-1.2C356.1,846.4,356.1,846.8,356.1,847.2z"/>
<path class="st3" d="M377.6,857.5C377.6,857.5,377.6,857.5,377.6,857.5l-21.4-1.5L377.6,857.5z"/>
<path class="st3" d="M356.1,842.8c0.1-5.5,0.3-11,0.6-16.4C356.4,831.8,356.2,837.2,356.1,842.8z"/>
<path class="st3" d="M357,821.3c0-0.1,0-0.2,0-0.2C357.1,821.1,357.1,821.2,357,821.3z"/>
<path class="st3" d="M412,716.2l-15.8-13.5C381,726.7,370,753,363.4,780.5l21.3,6.3C390.2,762.1,399.4,738.3,412,716.2z"/>
<path class="st3" d="M396.2,702.8c-15.1,23.9-26.2,50.2-32.8,77.8C370,753,381,726.7,396.2,702.8L396.2,702.8z"/>
<path class="st3" d="M440.5,677l7-32.2c-17.8,15.6-33.3,31.7-45.8,49.8l15.4,13.7C424.3,697.4,432.1,687,440.5,677z"/>
<path class="st3" d="M417.1,708.2c7.3-10.8,15.1-21.2,23.4-31.2l7-32.3l-7,32.2C432.1,687,424.3,697.4,417.1,708.2z"/>
<polygon class="st3" points="548.3,863.4 560.9,893 584.2,883.1 571.6,853.4 "/>
<polygon class="st3" points="548.3,863.4 571.6,853.4 584.2,883.1 584.3,883.1 571.6,853.4 548.2,863.3 "/>
<path class="st3" d="M656.3,474.4c-12.4,0-24.9-2.5-37.4-7.6c-12.6-5.1-23.5-12-32.5-20.7c-9.3-9-16.8-20-22.3-33
	c-2.7-6.4-4.8-12.8-6.2-19.2c-4.2-19.3-2.5-38.6,5.4-57.5c10.3-25.7,28.1-43.9,53.7-54.8c7-3,13.9-5.1,20.9-6.5
	c6.2-1.2,12.3-1.9,18.5-1.9v-31.4c-7.9,1.6-16,4.1-24.4,7.4L208.5,429.7c-68.7,30.9-82,90.8-39.8,178.6
	c17.2,26.1,35.5,45.6,54.8,58.5c34.3,23,71.9,25.2,112.4,6.9l98.5-42l-25.7-60.3l190.3-81.2l0,0h0l25.7,60.3l31.5-13.4V474.4z
	 M376.4,570.3c-10.3,25.7-28.1,43.9-53.7,54.8c-12.8,5.5-25.6,8.3-38.4,8.4c-7.1,0.1-14.3-0.7-21.4-2.3c-5.6-1.2-11.2-3-16.8-5.2
	c0,0-0.1,0-0.1-0.1c-20.5-8.2-36.2-21.2-47.2-39.1c-2.8-4.6-5.4-9.4-7.6-14.6c-10.9-25.6-11.1-51.1-0.8-76.8
	c10-24.8,26.9-42.6,51.1-53.6c0.9-0.4,1.7-0.8,2.6-1.2c3.1-1.3,6.2-2.5,9.3-3.5c22.5-7.3,44.9-6.4,67.5,2.7
	c25.7,10.3,43.9,28.1,54.8,53.7C386.5,519.2,386.7,544.6,376.4,570.3z"/>
<path class="st3" d="M560.6,343.6c0.8-2.4,1.7-4.8,2.6-7.2c-7.9,18.9-9.6,38.2-5.4,57.5C554.2,377.1,555.2,360.4,560.6,343.6z"/>
<path class="st3" d="M656.3,273.2L656.3,273.2c-6.2,0-12.3,0.6-18.5,1.8c4.4-0.9,8.9-1.5,13.3-1.7
	C652.9,273.2,654.6,273.2,656.3,273.2z"/>
<path class="st3" d="M186.2,558.3c-5.8-20.9-4.4-41.8,4.1-62.8c5.2-12.8,12.2-23.8,21.1-32.9c8.3-8.5,18.3-15.4,30-20.7
	c-24.2,11-41.1,28.8-51.1,53.6c-10.3,25.7-10.1,51.1,0.8,76.8c2.2,5.2,4.8,10.1,7.6,14.6c-2.8-4.6-5.4-9.4-7.6-14.6
	C189.1,567.5,187.4,562.9,186.2,558.3z"/>
<path class="st3" d="M320.8,439.8c-22.6-9.1-45-10-67.5-2.7C275.4,430,297.8,430.9,320.8,439.8C320.7,439.8,320.7,439.8,320.8,439.8
	c25.6,10.3,43.9,28.1,54.8,53.7c0,0.1,0.1,0.1,0.1,0.2c3.3,7.9,5.7,15.7,7,23.5c3,17.6,0.9,35.3-6.2,53c0,0,0,0,0,0
	c-0.3,0.7-0.6,1.4-0.9,2c-10.4,24.6-27.9,42.2-52.8,52.8c0,0,0,0,0,0c-12.8,5.5-25.6,8.3-38.4,8.4c12.8-0.1,25.6-2.9,38.4-8.4
	c25.6-10.9,43.4-29.1,53.7-54.8s10.1-51.1-0.8-76.8C364.6,467.9,346.4,450.1,320.8,439.8z"/>
<path class="st3" d="M617,281.5c-25.6,10.9-43.4,29.1-53.7,54.8C573.6,310.7,591.8,292.3,617,281.5z"/>
<path class="st3" d="M581.7,441.2c-7.2-8-13-17.4-17.6-28.1c5.5,13,13,24,22.3,33C584.8,444.6,583.2,442.9,581.7,441.2z"/>
<path class="st3" d="M262.8,631.2c-5.6-1.2-11.2-3-16.8-5.2C251.6,628.2,257.2,630,262.8,631.2z"/>
<path class="st3" d="M190.2,495.4c5.2-12.8,12.2-23.8,21.1-32.9C202.4,471.6,195.4,482.6,190.2,495.4z"/>
<path class="st3" d="M375.5,493.5c0,0.1,0.1,0.1,0.1,0.2C375.6,493.6,375.6,493.6,375.5,493.5c-10.9-25.7-29.1-43.4-54.8-53.7
	c0,0,0,0,0,0c0,0,0,0,0,0C346.4,450.1,364.6,467.9,375.5,493.5z"/>
<path class="st3" d="M376.4,570.2c7.1-17.7,9.2-35.3,6.2-53C385.6,534.9,383.5,552.5,376.4,570.2z"/>
<path class="st3" d="M191.1,572.2c-2-4.7-3.6-9.3-4.9-13.9C187.4,562.9,189.1,567.5,191.1,572.2z"/>
<path class="st3" d="M322.7,625.1c24.9-10.6,42.4-28.2,52.8-52.8C365.1,596.9,347.6,614.4,322.7,625.1z"/>
<path class="st3" d="M223.5,666.8c34.3,23,71.9,25.2,112.4,6.9l98.5-42l0,0l-98.5,42C295.3,692,257.8,689.8,223.5,666.8z"/>
<polygon class="st3" points="408.7,571.4 599.1,490.2 599.1,490.2 "/>
<polygon class="st3" points="624.8,550.5 624.8,550.5 656.3,537.1 656.3,537.1 "/>
<path class="st3" d="M564.1,413.1c-2.7-6.4-4.8-12.8-6.2-19.2C559.3,400.3,561.4,406.7,564.1,413.1z"/>
<path class="st3" d="M618.9,466.8c-12.6-5.1-23.5-12-32.5-20.7C595.5,454.9,606.3,461.8,618.9,466.8c12.5,5.1,25,7.6,37.4,7.6v0
	C643.9,474.4,631.4,471.9,618.9,466.8z"/>
<path class="st3" d="M617,281.5c7-3,13.9-5.1,20.9-6.5C630.9,276.4,624,278.6,617,281.5z"/>
<path class="st3" d="M560.6,343.6c-5.5,16.8-6.4,33.5-2.7,50.3c1.4,6.4,3.5,12.8,6.2,19.2C554.2,389.9,553.1,366.8,560.6,343.6z"/>
<path class="st3" d="M617,281.5c11.4-4.9,22.8-7.6,34.1-8.2c-4.4,0.2-8.9,0.8-13.3,1.7C630.9,276.4,624,278.6,617,281.5
	c-25.2,10.7-43.4,29.1-53.7,54.8v0C573.6,310.7,591.8,292.3,617,281.5z"/>
<path class="st3" d="M656.3,474.4L656.3,474.4c-12.4,0-24.9-2.5-37.4-7.6c-14.9-6-27.3-14.5-37.2-25.6c1.5,1.7,3.1,3.3,4.7,4.9
	c9,8.7,19.9,15.6,32.5,20.7C631.4,471.9,643.9,474.4,656.3,474.4z"/>
<path class="st3" d="M310.7,888c13.6,5.5,27.4,10.2,41.3,14.3c-4.7-5.1-6.4-12.7-3.7-19.6c2.7-6.9,9-11.3,15.9-12c0.2,0,0.3,0,0.5,0
	c0.3,0,0.6,0,0.9-0.1c1.4-0.1,2.8,0,4.1,0.3c0,0,0,0,0.1,0c0.6,0.1,1.2,0.3,1.7,0.4c0.1,0,0.2,0.1,0.4,0.1c0.5,0.1,0.9,0.3,1.4,0.5
	c0,0,0.1,0,0.1,0c0.1,0.1,0.3,0.1,0.4,0.2c0.4,0.2,0.8,0.3,1.2,0.5c0.2,0.1,0.4,0.2,0.6,0.4c0.3,0.2,0.6,0.4,0.9,0.6
	c0.2,0.2,0.5,0.3,0.7,0.5c0.3,0.2,0.5,0.4,0.8,0.6c0.2,0.2,0.4,0.4,0.6,0.6c0.2,0.2,0.5,0.4,0.7,0.7c0.2,0.2,0.4,0.4,0.6,0.6
	c0.2,0.2,0.4,0.5,0.7,0.7c0.2,0.2,0.3,0.4,0.5,0.7c0.2,0.3,0.4,0.5,0.6,0.8c0.2,0.3,0.3,0.5,0.5,0.8c0.2,0.3,0.3,0.5,0.5,0.8
	c0.2,0.3,0.3,0.6,0.5,1c0.1,0.2,0.2,0.4,0.3,0.6c0,0,0,0.1,0,0.1c0.2,0.4,0.3,0.8,0.4,1.1c0.1,0.2,0.2,0.4,0.2,0.6
	c0.1,0.4,0.2,0.8,0.3,1.2c0.1,0.2,0.1,0.4,0.2,0.6c0.1,0.6,0.2,1.2,0.3,1.8c0,0.2,0,0.4,0,0.6c0,0.4,0.1,0.8,0.1,1.2
	c0,0.1,0,0.1,0,0.2c0,1.6-0.2,3.1-0.6,4.7c0,0.2-0.1,0.3-0.1,0.5c-0.1,0.3-0.2,0.6-0.3,0.9c-0.1,0.3-0.2,0.6-0.3,0.9
	c0,0,0,0.1,0,0.1c0,0,0,0,0,0c-2.2,5.5-6.7,9.5-11.9,11.2c27,6.6,54.6,10.6,82.4,12c-10.3-22.7-28-39.3-52.2-49
	c-0.1-0.1-0.2-0.1-0.4-0.1c-7.7-3.4-15.8-5.2-23.7-6.5c0,0-0.1,0-0.1,0c-6.7-0.8-13.5-0.6-20.8-0.2c-9.7,0.9-19.5,4.1-29.4,7.2
	c-8.5,3.6-16.5,8.4-23.6,14.3c0,0,0,0,0,0c0,0,0,0,0,0C306.1,886.1,308.4,887.1,310.7,888z"/>
<path class="st3" d="M364.7,870.7c0.3,0,0.6,0,0.9-0.1C365.3,870.7,365,870.7,364.7,870.7z"/>
<path class="st3" d="M373.5,906.5c-0.8,0.4-1.7,0.6-2.6,0.9c0,0,0,0,0,0c0,0,0,0,0,0c0,0,0,0,0,0c0,0,0,0,0,0
	c0.2,0.1,0.4,0.1,0.6,0.2c5.3-1.7,9.8-5.6,11.9-11.2C381.7,901,378.1,904.7,373.5,906.5z"/>
<path class="st3" d="M349.1,896.7c-0.2-0.6-0.5-1.2-0.7-1.8c-1.2-3.7-1.1-7.4-0.1-10.9c0-0.1,0.1-0.3,0.1-0.4
	c0.1-0.5,0.3-0.9,0.5-1.3c0,0,0-0.1,0-0.1c0.1-0.1,0.1-0.3,0.2-0.4c0.2-0.4,0.4-0.8,0.6-1.2c0.1-0.2,0.2-0.4,0.4-0.6
	c0.2-0.3,0.4-0.6,0.6-1c0.1-0.2,0.3-0.4,0.5-0.6c0.2-0.3,0.4-0.6,0.6-0.8c0.2-0.2,0.3-0.4,0.5-0.6c0.2-0.3,0.5-0.5,0.7-0.8
	c0.2-0.2,0.4-0.3,0.5-0.5c0.3-0.2,0.5-0.5,0.8-0.7c0.2-0.2,0.4-0.3,0.6-0.4c0.3-0.2,0.6-0.4,0.9-0.7c0.2-0.1,0.4-0.3,0.6-0.4
	c0.3-0.2,0.6-0.4,0.9-0.5c0.2-0.1,0.5-0.3,0.8-0.4c0.3-0.1,0.5-0.3,0.8-0.4c0,0,0.1,0,0.1-0.1c0.2-0.1,0.5-0.2,0.8-0.3
	c0.3-0.1,0.7-0.3,1-0.4c0.1,0,0.1,0,0.2,0c1.1-0.3,2.2-0.6,3.3-0.7c-6.9,0.7-13.2,5.1-15.9,12c-2.7,6.9-1,14.5,3.7,19.6
	c0.3,0.1,0.7,0.2,1,0.3C351.3,900.9,350,898.9,349.1,896.7z"/>
<path class="st3" d="M377.8,863.9c7.8,1.3,15.9,3.1,23.7,6.5C393.7,867,385.6,865.2,377.8,863.9z"/>
<path class="st3" d="M375,872.8c0.2,0.1,0.4,0.2,0.6,0.4C375.4,873,375.2,872.9,375,872.8z"/>
<path class="st3" d="M373.4,872C373.3,872,373.3,872,373.4,872c0.1,0,0.3,0.1,0.4,0.2C373.6,872.2,373.5,872.1,373.4,872z"/>
<path class="st3" d="M369.7,871C369.8,871,369.8,871,369.7,871C369.8,871,369.7,871,369.7,871z"/>
<path class="st3" d="M371.5,871.4c0.1,0,0.2,0.1,0.4,0.1C371.8,871.5,371.6,871.4,371.5,871.4z"/>
<path class="st3" d="M383.5,882c0.2,0.4,0.3,0.8,0.4,1.1C383.7,882.8,383.6,882.4,383.5,882z"/>
<path class="st3" d="M384.9,887.9c0,0.4,0.1,0.8,0.1,1.2C385,888.7,384.9,888.3,384.9,887.9z"/>
<path class="st3" d="M385,889.3c0,1.6-0.2,3.2-0.6,4.7C384.7,892.5,385,890.9,385,889.3z"/>
<path class="st3" d="M383.6,896.4C383.6,896.4,383.6,896.4,383.6,896.4C383.6,896.4,383.6,896.4,383.6,896.4c0,0,0-0.1,0-0.1
	C383.6,896.3,383.6,896.3,383.6,896.4C383.6,896.3,383.6,896.4,383.6,896.4z"/>
<path class="st3" d="M384.6,885.5c0.1,0.6,0.2,1.2,0.3,1.8C384.8,886.7,384.7,886.1,384.6,885.5z"/>
<path class="st3" d="M384.2,894.5c-0.1,0.3-0.2,0.6-0.3,0.9C384,895.1,384.1,894.8,384.2,894.5z"/>
<path class="st3" d="M380.6,877.3c0.2,0.2,0.3,0.4,0.5,0.7C381,877.8,380.8,877.6,380.6,877.3z"/>
<path class="st3" d="M378,874.8c0.2,0.2,0.4,0.4,0.6,0.6C378.4,875.1,378.2,875,378,874.8z"/>
<path class="st3" d="M381.7,878.8c0.2,0.3,0.3,0.5,0.5,0.8C382,879.3,381.9,879,381.7,878.8z"/>
<path class="st3" d="M376.5,873.7c0.2,0.2,0.5,0.3,0.7,0.5C377,874,376.8,873.9,376.5,873.7z"/>
<path class="st3" d="M384.1,883.7c0.1,0.4,0.2,0.8,0.3,1.2C384.3,884.5,384.2,884.1,384.1,883.7z"/>
<path class="st3" d="M382.7,880.3c0.2,0.3,0.3,0.6,0.5,1C383,881,382.8,880.7,382.7,880.3z"/>
<path class="st3" d="M379.4,876c0.2,0.2,0.4,0.4,0.6,0.6C379.8,876.4,379.6,876.2,379.4,876z"/>
<path class="st3" d="M349.7,880.6c0.1-0.2,0.2-0.4,0.4-0.6C350,880.2,349.9,880.4,349.7,880.6z"/>
<path class="st3" d="M350.7,879.1c0.1-0.2,0.3-0.4,0.5-0.6C351,878.6,350.8,878.8,350.7,879.1z"/>
<path class="st3" d="M348.4,884c0-0.1,0.1-0.3,0.1-0.4C348.5,883.8,348.4,883.9,348.4,884z"/>
<path class="st3" d="M349,882.2C349,882.3,349,882.3,349,882.2c0-0.1,0.1-0.3,0.2-0.4C349.1,881.9,349.1,882.1,349,882.2z"/>
<path class="st3" d="M349.1,896.7c-0.3-0.6-0.5-1.2-0.7-1.8C348.7,895.6,348.9,896.2,349.1,896.7c0.9,2.2,2.2,4.2,3.9,5.9
	c0,0,0,0,0,0C351.3,900.9,350,898.9,349.1,896.7z"/>
<path class="st3" d="M359,872.1c0.2-0.1,0.5-0.2,0.8-0.3C359.5,871.9,359.2,872,359,872.1z"/>
<path class="st3" d="M360.7,871.5c0.1,0,0.1,0,0.2,0C360.9,871.4,360.8,871.5,360.7,871.5z"/>
<path class="st3" d="M383.6,896.3c-1.8,4.4-5.2,8.1-9.9,10.1c-0.1,0-0.1,0-0.2,0.1c-0.8,0.4-1.7,0.6-2.5,0.9c0,0,0,0,0,0
	c0.9-0.2,1.7-0.5,2.6-0.9C378.1,904.7,381.7,901,383.6,896.3C383.6,896.4,383.6,896.4,383.6,896.3
	C383.6,896.4,383.6,896.3,383.6,896.3z"/>
<path class="st3" d="M357.3,872.9c0.2-0.1,0.5-0.3,0.8-0.4C357.8,872.7,357.6,872.8,357.3,872.9z"/>
<path class="st3" d="M353,876.2c0.2-0.2,0.4-0.3,0.5-0.5C353.3,875.9,353.1,876,353,876.2z"/>
<path class="st3" d="M351.8,877.6c0.2-0.2,0.3-0.4,0.5-0.6C352.1,877.2,351.9,877.4,351.8,877.6z"/>
<path class="st3" d="M354.3,875c0.2-0.2,0.4-0.3,0.6-0.4C354.7,874.7,354.5,874.8,354.3,875z"/>
<path class="st3" d="M355.8,873.9c0.2-0.1,0.4-0.3,0.6-0.4C356.2,873.6,356,873.7,355.8,873.9z"/>
<path class="st3" d="M308.5,141.9c-1.9,5.6-1.8,11.8,0.5,17.3c2.2,5.4,6.5,9.7,12,11.9c5.6,2.3,11.9,2.3,17.5,0
	c2.8-1.2,5.3-2.9,7.4-5c2.1-2.1,3.7-4.7,4.8-7.6c2.1-5.5,2-11.5-0.3-16.9c-2.5-5.9-6.4-10-12.2-12.4c-6.2-2.1-11.7-2.5-17.4,0.5
	c-5.1,2.2-8.9,5.4-11.4,10.1C309.2,140.5,308.8,141.1,308.5,141.9L308.5,141.9z"/>
<path class="st3" d="M321,171.1c5.6,2.3,11.9,2.3,17.5,0c2.8-1.2,5.3-2.9,7.4-5.1c-2.1,2.1-4.6,3.9-7.4,5
	C332.9,173.4,326.6,173.4,321,171.1c-5.4-2.2-9.8-6.5-12-11.9c-2.2-5.5-2.4-11.7-0.5-17.3l0,0c0.3-0.7,0.6-1.4,1-2.1
	c-0.4,0.7-0.7,1.4-1,2.1c-1.9,5.6-1.8,11.8,0.5,17.3C311.2,164.6,315.5,168.9,321,171.1z"/>
<path class="st3" d="M483.7,694.7c-0.6,2-1.1,4-1.5,6c-1.3,5.8-2,11.4-2,16.8c-0.2,18.4,6.8,34.1,21,46.8l115.1-49.1l40-17.1v-61.4
	c-4.3-3.4-9.2-6.6-14.7-9.5L483.7,694.7z"/>
<polygon class="st3" points="501.1,764.3 501.2,764.4 616.3,715.3 "/>
<path class="st3" d="M483.7,694.7l157.9-67.3c5.5,2.9,10.4,6.1,14.7,9.5v-0.6c-1.1-0.9-2.2-1.7-3.4-2.5c-1.2-0.8-2.4-1.7-3.7-2.5
	c-2.3-1.4-4.6-2.8-7.2-4.1L483.7,694.7z"/>
<path class="st3" d="M480.1,717.5c0.1-5.4,0.7-11,2-16.8C480.9,706.5,480.2,712.1,480.1,717.5z"/>
<path class="st3" d="M649.2,631.3c1.3,0.8,2.5,1.6,3.7,2.5C651.7,632.9,650.5,632.1,649.2,631.3z"/>
<polygon class="st3" points="388.3,280.1 342.2,172.2 336,174.9 356.3,222.6 382,282.8 "/>
<polygon class="st3" points="342.2,172.2 342.2,172.1 335.9,174.8 356.3,222.6 336,174.9 "/>
<path class="st3" d="M443.5,695.3c-6.8,35.3-5.8,62.6,2.9,82.8c12.9,30.1,34.7,46.4,65.2,48.2c6.8,0.1,13.5-0.3,20.2-1.2
	c8-1.2,16.4-2.7,25.5-5c14.5-3.5,30.6-9.3,48.1-16.8c12.2-5.2,29.4-12.5,50.8-22.1v-76.1l-158.1,67.4c0,0,0,0,0,0l-0.4,0.2
	c-1.6-1.4-3.8-2.6-5.6-4.5c-19.3-17.9-25.3-40.8-17-69.9c0.2-1.1,0.5-2.1,0.8-3.2c0.2-0.9,0.5-1.7,0.8-2.6c0.3-0.7,0.5-1.5,0.8-2.2
	l0,0c0,0,0,0,0,0l164.7-70.2c0,0,0,0,0,0l0.4-0.2c2.6,1.1,5.1,2.3,7.5,3.7c2.1,1.1,4.2,2.3,6.2,3.5v-36.7c-2.9-1.7-6-3.5-8.7-5.2
	c-6.5-4.1-13.1-8.2-20.5-12c-2.8-1.5-5.5-3-7.6-4.2l-0.5,0.2c-4.2-2.5-7.6-4.2-10.4-5.7l-147.1,62.7c-0.8,3-1.9,5.6-2.7,8.5
	c-2.2,7.3-4.1,14-5.6,19.4c-0.4,1.7-0.9,3.4-1.2,5.1c-0.3,1.2-0.6,2.4-0.8,3.5c-0.4,1.6-0.7,3.1-0.9,4.4
	C447.7,677.6,445.3,687.1,443.5,695.3z"/>
<path class="st3" d="M656.3,627.7v-0.4c-2-1.2-4-2.4-6.2-3.5c-2.4-1.4-4.9-2.7-7.5-3.7l-0.4,0.2c2.6,0.9,5.1,2.2,7.4,3.7
	C652,625.1,654.2,626.4,656.3,627.7z"/>
<path class="st3" d="M476,695.2c0.3-0.9,0.5-1.7,0.8-2.6C476.5,693.5,476.2,694.3,476,695.2z"/>
<path class="st3" d="M498.2,772.6C498.2,772.6,498.2,772.6,498.2,772.6l158.1-67.4v0L498.2,772.6z"/>
<path class="st3" d="M477.6,690.4L477.6,690.4L477.6,690.4C477.6,690.4,477.6,690.4,477.6,690.4L477.6,690.4
	c-0.3,0.7-0.6,1.5-0.8,2.2c0.1-0.2,0.2-0.5,0.3-0.7C477.2,691.4,477.4,690.9,477.6,690.4z"/>
<path class="st3" d="M497.8,772.7c-1.7-1.4-3.8-2.6-5.6-4.5c-19.3-17.8-25.4-40.8-17-69.9c0.2-1,0.5-1.9,0.8-2.9
	c0-0.1,0-0.2,0.1-0.3c-0.3,1.1-0.6,2.1-0.8,3.2c-8.3,29.1-2.3,52,17,69.9C494,770.1,496.1,771.3,497.8,772.7l0.4-0.2c0,0,0,0,0,0
	L497.8,772.7z"/>
<path class="st3" d="M477,691.9c-0.1,0.2-0.2,0.5-0.3,0.7c-0.3,0.9-0.6,1.7-0.8,2.6c0,0.1,0,0.2-0.1,0.3
	C476.2,694.3,476.6,693.1,477,691.9z"/>
<path class="st3" d="M477.6,690.4L477.6,690.4C477.6,690.4,477.6,690.4,477.6,690.4L477.6,690.4z"/>
<polygon class="st3" points="656.3,705.1 498.2,772.6 498.2,772.6 656.3,705.1 "/>
<path class="st3" d="M458.8,635c0.8-3,1.9-5.6,2.7-8.5l0,0C460.7,629.5,459.6,632.1,458.8,635c-2.2,7.4-4.2,14.1-5.6,19.5
	c-0.4,1.7-0.8,3.4-1.2,5c0.4-1.7,0.8-3.4,1.2-5.1C454.7,649,456.6,642.4,458.8,635z"/>
<path class="st3" d="M605.5,803.3c-17.5,7.5-33.7,13.3-48.1,16.8c-9.1,2.3-17.5,3.8-25.5,5c-6.7,0.9-13.5,1.3-20.2,1.2
	c-30.6-1.8-52.4-18.1-65.2-48.2c-8.6-20.2-9.6-47.5-2.9-82.8c1.8-8.2,4.1-17.7,6.7-27.9c0.2-1.3,0.6-2.8,0.9-4.4
	c-0.4,1.6-0.7,3.1-0.9,4.4c-2.6,10.1-4.9,19.7-6.7,27.9c-6.8,35.3-5.8,62.6,2.9,82.8c12.9,30.1,34.7,46.4,65.2,48.2
	c6.8,0.1,13.5-0.3,20.2-1.2c8-1.3,16.4-2.7,25.5-5C571.8,816.7,587.9,810.9,605.5,803.3c12.1-5.1,29.4-12.5,50.8-22v-0.1
	C634.9,790.8,617.7,798.2,605.5,803.3z"/>
<path class="st3" d="M384.3,287.2c-38.5,18.4-59,45-61.9,80c-0.2,2.3-0.3,4.7-0.3,7.1l180.4-77c-2.4-2.7-4.8-5.3-7.4-7.6
	c-2.6-2.3-5.2-4.4-8-6.3c-10.1-6.9-21.6-11-34.4-12.1c-2.3-0.2-4.7-0.3-7.1-0.3c-15.7-0.1-33.2,3.8-52.5,11.8l-3.1,1.3
	C388,285,386.1,286,384.3,287.2z"/>
<polygon class="st3" points="502.5,297.4 502.5,297.4 322.1,374.3 "/>
<path class="st3" d="M353,902.6c1.1,1.1,2.3,2.1,3.6,2.8c0.1,0.1,0.3,0.2,0.4,0.2c0.3,0.1,0.5,0.3,0.8,0.4c0.4,0.2,0.9,0.4,1.3,0.6
	c0.2,0.1,0.3,0.1,0.5,0.2c0.2,0.1,0.4,0.2,0.7,0.2c0.3,0.1,0.6,0.2,0.9,0.3c0.1,0,0.2,0,0.3,0.1c1.9,0.5,3.8,0.7,5.7,0.6
	c0.1,0,0.2,0,0.3,0c0.3,0,0.6-0.1,0.9-0.1c0.2,0,0.5-0.1,0.7-0.1c0.2,0,0.3-0.1,0.5-0.1c0.5-0.1,0.9-0.2,1.4-0.3
	C365,905.9,359,904.3,353,902.6z"/>
<path class="st3" d="M293.7,880.7c-0.2-0.1-0.5-0.2-0.7-0.3c-158-71.5-260.3-228.9-260.7-403.1C31.6,232.2,229.7,33,474.8,32.4h1.3
	c64.2-0.1,125.1,13.5,180.2,37.9V35.5c-9-3.7-18.2-7.1-27.6-10.3C579.6,8.5,528,0,476.1,0h-1.4C211.8,0.7-0.7,214.4,0,477.3
	c0.2,63.9,13.2,127,38.3,185.7c47,110.6,134.2,199.2,243.9,248c5.6-9.9,12.9-18.7,21.6-25.9c-2-0.8-4-1.7-6-2.6
	C296.5,881.9,295.1,881.3,293.7,880.7z"/>
<path class="st3" d="M32.2,477.2c0.4,174.2,102.7,331.6,260.7,403.1C74.6,781.3-26.1,525.7,67.7,303.5
	C136.9,139.8,297,33.1,474.8,32.4C229.7,33,31.6,232.2,32.2,477.2z"/>
<path class="st3" d="M293.7,880.7c1.4,0.6,2.8,1.3,4.2,1.9C296.5,881.9,295.1,881.3,293.7,880.7z"/>
<path class="st3" d="M593.3,904.4L593.3,904.4C593.3,904.4,593.3,904.4,593.3,904.4L593.3,904.4
	C593.3,904.4,593.3,904.4,593.3,904.4l4.9,11.6l-23.4,10l-6.6-15.5c-29.7,6.3-60.1,9.6-90.5,9.7h-1.3c-7.5,0-15-0.2-22.4-0.6
	c0.3,0.7,0.7,1.4,1,2.2c2.8,6.4,4.8,13,6.1,19.8c0.7,3.6,1.2,7.2,1.5,10.8c4.6,0.1,9.3,0.2,13.9,0.2h1.4
	c61.8-0.3,122.3-12.6,178.4-35.5v-35.2C635.9,890.9,614.9,898.5,593.3,904.4z"/>
<path class="st3" d="M593.3,904.4L593.3,904.4c21.6-5.9,42.6-13.5,63-22.5v0C635.9,890.9,614.9,898.4,593.3,904.4z"/>
<path class="st3" d="M383.3,915.7c-12.2-4.9-24.3-4.5-36.4,0.6c-6.8,2.8-12.8,7.2-17.5,12.8c26.9,8.8,54.5,15.1,82.6,19
	c-0.6-2.4-1.4-4.7-2.4-7c-0.3-0.8-0.7-1.5-1-2.2C403.3,928.1,394.9,920.8,383.3,915.7z"/>
<path class="st3" d="M454,919.6C454,919.6,454,919.6,454,919.6C454,919.6,454,919.6,454,919.6c-27.8-1.4-55.4-5.4-82.4-12
	c-4,1.3-8.4,1.2-12.5-0.4c-2.8-1.1-5.2-2.8-7.1-4.9c-13.9-4.1-27.7-8.8-41.3-14.3c-2.3-0.9-4.6-1.9-6.9-2.9
	c-8.7,7.3-16.1,16.1-21.6,26c5.4,2.4,10.9,4.8,16.4,7c10.1,4.1,20.4,7.8,30.7,11.2c0,0,0,0,0-0.1c0,0,0,0-0.1,0
	c4.7-5.7,10.7-10.1,17.5-12.9c12.2-5.2,24.2-5.5,36.4-0.6c11.6,5,20,12.3,25.3,23.3c0.4,0.7,0.7,1.5,1,2.2c1,2.3,1.8,4.6,2.4,7
	c16.8,2.3,33.7,3.7,50.6,4.2c-0.3-3.6-0.8-7.3-1.5-10.8c-1.3-6.8-3.3-13.4-6.1-19.7C454.7,921.1,454.3,920.3,454,919.6z"/>
<path class="st3" d="M369.6,907.7c-0.2,0-0.3,0.1-0.5,0.1c-0.2,0-0.5,0.1-0.7,0.1c-0.3,0-0.6,0.1-0.9,0.1c-0.1,0-0.2,0-0.3,0
	c-1.9,0.1-3.9-0.1-5.7-0.6c-0.1,0-0.2,0-0.3-0.1c-0.3-0.1-0.6-0.2-0.9-0.3c-0.2-0.1-0.5-0.2-0.7-0.2c-0.1-0.1-0.3-0.1-0.4-0.1
	c0,0-0.1,0-0.1,0c-0.5-0.2-0.9-0.4-1.3-0.6c-0.3-0.1-0.5-0.3-0.8-0.4c-0.1-0.1-0.3-0.2-0.4-0.2c-1.3-0.8-2.6-1.7-3.7-2.9
	c0,0,0,0,0.1,0c0,0,0,0,0,0c0,0,0,0,0,0l0,0c-0.3-0.1-0.7-0.2-1-0.3c1.9,2.1,4.3,3.8,7.1,4.9c4.2,1.6,8.6,1.7,12.5,0.4
	c-0.2-0.1-0.4-0.1-0.6-0.2C370.5,907.5,370.1,907.6,369.6,907.7z"/>
<path class="st3" d="M353,902.6C353,902.6,353,902.6,353,902.6L353,902.6L353,902.6C353,902.6,353,902.6,353,902.6
	C353,902.6,353,902.6,353,902.6C353,902.6,353,902.6,353,902.6z"/>
<path class="st3" d="M371.6,907.6c27,6.6,54.6,10.6,82.4,12C426.2,918.2,398.7,914.2,371.6,907.6
	C371.6,907.6,371.6,907.6,371.6,907.6z"/>
<path class="st3" d="M352,902.3C352,902.3,352,902.3,352,902.3c-13.9-4.1-27.7-8.8-41.3-14.3c-2.3-0.9-4.6-1.9-6.9-2.9c0,0,0,0,0,0
	c2.3,1,4.6,1.9,6.9,2.9C324.3,893.5,338.1,898.2,352,902.3z"/>
<path class="st3" d="M371,907.4C371,907.4,371,907.4,371,907.4c0.2,0.1,0.4,0.1,0.6,0.2c0,0,0,0,0,0
	C371.4,907.5,371.2,907.5,371,907.4z"/>
<path class="st3" d="M353,902.6c-0.3-0.1-0.7-0.2-1-0.3c0,0,0,0,0,0C352.3,902.4,352.7,902.5,353,902.6
	C353,902.6,353,902.6,353,902.6z"/>
<polygon class="st3" points="353,902.6 353,902.6 353,902.6 353,902.6 "/>
<path class="st3" d="M359.3,906.8c0.1,0.1,0.3,0.1,0.4,0.1C359.5,906.9,359.3,906.8,359.3,906.8
	C359.2,906.7,359.2,906.8,359.3,906.8z"/>
<path class="st3" d="M357.8,906.1c-0.3-0.1-0.5-0.3-0.8-0.4C357.3,905.8,357.6,906,357.8,906.1z"/>
<path class="st3" d="M361.2,907.4c-0.3-0.1-0.6-0.2-0.9-0.3C360.6,907.3,360.9,907.3,361.2,907.4z"/>
<path class="st3" d="M353,902.6c1.1,1.1,2.3,2.1,3.7,2.9C355.3,904.7,354.1,903.7,353,902.6C353,902.6,353,902.6,353,902.6z"/>
<path class="st3" d="M361.5,907.5c1.9,0.5,3.8,0.7,5.7,0.6C365.3,908.2,363.3,908,361.5,907.5z"/>
<path class="st3" d="M369.6,907.7c-0.2,0-0.3,0.1-0.5,0.1C369.3,907.8,369.4,907.8,369.6,907.7z"/>
<path class="st3" d="M368.4,907.9c-0.3,0-0.6,0.1-0.9,0.1C367.8,908,368.1,908,368.4,907.9z"/>
<path class="st3" d="M454,919.6C454,919.6,454,919.6,454,919.6c0.3,0.7,0.7,1.4,1,2.2c2.8,6.3,4.8,13,6.1,19.7
	c-1.3-6.8-3.3-13.4-6.1-19.8C454.7,921,454.3,920.3,454,919.6z"/>
<path class="st3" d="M383.3,915.7c-12.2-4.9-24.3-4.5-36.4,0.6c-6.8,2.8-12.8,7.2-17.5,12.9c0,0,0,0,0.1,0
	c4.7-5.6,10.7-10,17.5-12.8C359,911.2,371.1,910.8,383.3,915.7c11.6,5.1,20,12.4,25.3,23.3C403.3,928,394.9,920.7,383.3,915.7z"/>
<path class="st3" d="M593.3,904.4c-8.3,2.3-16.6,4.3-24.9,6.1l6.5,15.5l23.4-10L593.3,904.4C593.3,904.4,593.3,904.4,593.3,904.4
	L593.3,904.4z"/>
<path class="st3" d="M568.3,910.5c8.4-1.8,16.7-3.8,24.9-6.1l0,0C585,906.7,576.7,908.7,568.3,910.5L568.3,910.5z"/>
<polygon class="st3" points="593.3,904.4 593.3,904.4 598.2,916 "/>
</svg>
