<?xml version="1.0" encoding="utf-8"?>
<!-- Generator: Adobe Illustrator 22.0.0, SVG Export Plug-In . SVG Version: 6.00 Build 0)  -->
<svg version="1.1" id="Layer_1" xmlns="http://www.w3.org/2000/svg" xmlns:xlink="http://www.w3.org/1999/xlink" x="0px" y="0px"
	 viewBox="0 0 255.9 241.3" style="enable-background:new 0 0 255.9 241.3;" xml:space="preserve">
<g>
	<path d="M242.3,13.5c0,1.1-0.9,1.9-1.9,1.9c-1.1,0-1.9-0.9-1.9-1.9c0-1.1,0.9-1.9,1.9-1.9C241.5,11.6,242.3,12.4,242.3,13.5"/>
	<path d="M242.3,20.4c0,1.1-0.9,1.9-1.9,1.9c-1.1,0-1.9-0.9-1.9-1.9c0-1.1,0.9-1.9,1.9-1.9C241.5,18.4,242.3,19.3,242.3,20.4"/>
	<path d="M242.3,27.8c0,1.1-0.9,1.9-1.9,1.9c-1.1,0-1.9-0.9-1.9-1.9c0-1.1,0.9-1.9,1.9-1.9C241.5,25.9,242.3,26.7,242.3,27.8"/>
	<path d="M242.3,35.2c0,1.1-0.9,1.9-1.9,1.9c-1.1,0-1.9-0.9-1.9-1.9c0-1.1,0.9-1.9,1.9-1.9C241.5,33.3,242.3,34.2,242.3,35.2"/>
	<path d="M242.3,43.2c0,1.1-0.9,1.9-1.9,1.9c-1.1,0-1.9-0.9-1.9-1.9c0-1.1,0.9-1.9,1.9-1.9C241.5,41.3,242.3,42.2,242.3,43.2"/>
	<path d="M242.3,51.2c0,1.1-0.9,1.9-1.9,1.9c-1.1,0-1.9-0.9-1.9-1.9c0-1.1,0.9-1.9,1.9-1.9C241.5,49.3,242.3,50.2,242.3,51.2"/>
	<path d="M242.3,59.5c0,1.1-0.9,1.9-1.9,1.9c-1.1,0-1.9-0.9-1.9-1.9c0-1.1,0.9-1.9,1.9-1.9C241.5,57.5,242.3,58.4,242.3,59.5"/>
	<path d="M242.3,67.7c0,1.1-0.9,1.9-1.9,1.9c-1.1,0-1.9-0.9-1.9-1.9c0-1.1,0.9-1.9,1.9-1.9C241.5,65.8,242.3,66.6,242.3,67.7"/>
	<path d="M242.3,76.6c0,1.1-0.9,1.9-1.9,1.9c-1.1,0-1.9-0.9-1.9-1.9c0-1.1,0.9-1.9,1.9-1.9C241.5,74.7,242.3,75.5,242.3,76.6"/>
	<path d="M242.3,85.5c0,1.1-0.9,1.9-1.9,1.9c-1.1,0-1.9-0.9-1.9-1.9c0-1.1,0.9-1.9,1.9-1.9C241.5,83.6,242.3,84.5,242.3,85.5"/>
	<path d="M242.3,94.9c0,1.1-0.9,1.9-1.9,1.9c-1.1,0-1.9-0.9-1.9-1.9c0-1.1,0.9-1.9,1.9-1.9C241.5,93,242.3,93.8,242.3,94.9"/>
	<path d="M242.3,104.5c0,1.1-0.9,1.9-1.9,1.9c-1.1,0-1.9-0.9-1.9-1.9c0-1.1,0.9-1.9,1.9-1.9C241.5,102.6,242.3,103.4,242.3,104.5"/>
	<path d="M242.3,114.6c0,1.1-0.9,1.9-1.9,1.9c-1.1,0-1.9-0.9-1.9-1.9c0-1.1,0.9-1.9,1.9-1.9C241.5,112.6,242.3,113.5,242.3,114.6"/>
	<path d="M242.3,126c0,1.1-0.9,1.9-1.9,1.9c-1.1,0-1.9-0.9-1.9-1.9c0-1.1,0.9-1.9,1.9-1.9C241.5,124.1,242.3,124.9,242.3,126"/>
	<path d="M242.3,138.6c0,1.1-0.9,1.9-1.9,1.9c-1.1,0-1.9-0.9-1.9-1.9c0-1.1,0.9-1.9,1.9-1.9C241.5,136.7,242.3,137.5,242.3,138.6"/>
	<path d="M242.3,153.4c0,1.1-0.9,1.9-1.9,1.9c-1.1,0-1.9-0.9-1.9-1.9c0-1.1,0.9-1.9,1.9-1.9C241.5,151.5,242.3,152.4,242.3,153.4"/>
	<path d="M242.3,169.4c0,1.1-0.9,1.9-1.9,1.9c-1.1,0-1.9-0.9-1.9-1.9c0-1.1,0.9-1.9,1.9-1.9C241.5,167.5,242.3,168.4,242.3,169.4"/>
	<path d="M242.3,187.7c0,1.1-0.9,1.9-1.9,1.9c-1.1,0-1.9-0.9-1.9-1.9c0-1.1,0.9-1.9,1.9-1.9C241.5,185.8,242.3,186.7,242.3,187.7"/>
	<path d="M242.3,208.3c0,1.1-0.9,1.9-1.9,1.9c-1.1,0-1.9-0.9-1.9-1.9c0-1.1,0.9-1.9,1.9-1.9C241.5,206.4,242.3,207.3,242.3,208.3"/>
	<path d="M242.3,231.2c0,1.1-0.9,1.9-1.9,1.9c-1.1,0-1.9-0.9-1.9-1.9c0-1.1,0.9-1.9,1.9-1.9C241.5,229.3,242.3,230.1,242.3,231.2"/>
	<rect x="93.9" y="118" width="113.1" height="4.7"/>
	<rect x="87.5" y="126" width="125.7" height="4.7"/>
	<rect x="81.6" y="134.1" width="137.8" height="4.7"/>
	<rect x="93.9" y="58.2" width="113.1" height="4.7"/>
	<polygon points="116.8,55.1 150.4,45 183.4,55.1 197.2,55.1 150.4,40.7 103,55.1 	"/>
	<polygon points="93.9,55.1 150.1,37.9 207,55.1 207,50 150.4,32.6 93.9,50 	"/>
	<path d="M100.5,111.8c0,0,0,3.6,4,3.6s3.8-3.6,3.8-3.6v-46h-3v46.1c0,0,0,0.8-1.1,0.8s-0.8-1.1-0.8-1.1V65.8h-3L100.5,111.8
		L100.5,111.8z"/>
	<polygon points="119.1,115.4 121.5,115.4 121.5,85.6 124.5,115.4 127,115.4 127,65.8 124.5,65.8 124.5,92.3 121.5,65.8 119.1,65.8 
			"/>
	<polygon points="138,115.4 145.6,115.4 145.6,112.8 141.3,112.8 141.3,90.4 144.5,90.4 144.5,87.6 141.3,87.6 141.3,68.3 
		144.5,68.3 144.5,65.8 138,65.8 	"/>
	<path d="M181.6,80.5V69.4c0,0-0.1-3.6-3.9-3.6c-3.8,0-3.8,3.6-3.8,3.6v42.4c0,0-0.1,3.6,3.8,3.6c3.9,0,3.9-3.6,3.9-3.6V99.4h-3
		v12.5c0,0,0,0.9-0.9,0.9s-1.1-0.9-1.1-0.9V69.4c0,0,0-1.1,1.1-1.1c0.9,0,0.9,1.1,0.9,1.1v11.1H181.6z"/>
	<path d="M200.5,69.4c0,0,0.2-3.6-3.9-3.6c-4.1,0-4.1,3.6-4.1,3.6v42.4c0,0,0,3.6,3.9,3.6c4.2,0,4.2-3.6,4.2-3.6L200.5,69.4
		L200.5,69.4z M197.6,111.8c0,0,0.1,0.9-1.1,0.9c-1.2,0-1.2-0.9-1.2-0.9V69.4c0,0,0-1.1,1.1-1.1c1.2,0,1.2,1.1,1.2,1.1V111.8z"/>
	<path d="M159.9,111.8c0,0,0,0.9-0.8,0.9c-0.8-0.1-0.8-0.9-0.8-0.9V99.4h-3.1v12.4c0,0-0.1,3.6,3.8,3.6c3.9,0,3.9-3.6,3.9-3.6
		s0-8.3,0-10.7c0-5.8-4.6-16.9-4.6-20.6V69.4c0,0-0.1-1.1,0.7-1.1s0.8,1.1,0.8,1.1v11.1h3.1V69.4c0,0,0.1-3.7-3.8-3.6
		c-3.9,0.1-3.9,3.6-3.9,3.6v9.5c0,6.2,4.6,16.7,4.6,21.5v11.4H159.9z"/>
	<g>
		<path d="M112.7,159.9h1.7v7.4c0,1.3-0.1,2.3-0.4,3.1s-0.8,1.4-1.6,1.9c-0.8,0.5-1.8,0.7-3,0.7s-2.2-0.2-3-0.6
			c-0.8-0.4-1.3-1-1.6-1.8c-0.3-0.8-0.5-1.9-0.5-3.2V160h1.7v7.4c0,1.1,0.1,1.9,0.3,2.5c0.2,0.5,0.6,0.9,1.1,1.2s1.1,0.4,1.9,0.4
			c1.3,0,2.1-0.3,2.7-0.9c0.5-0.6,0.8-1.7,0.8-3.3L112.7,159.9L112.7,159.9z"/>
		<path d="M117.1,172.8v-9.3h1.4v1.3c0.7-1,1.7-1.5,3-1.5c0.6,0,1.1,0.1,1.5,0.3c0.5,0.2,0.8,0.5,1.1,0.8c0.2,0.3,0.4,0.7,0.5,1.2
			c0.1,0.3,0.1,0.8,0.1,1.5v5.7h-1.6v-5.7c0-0.6-0.1-1.1-0.2-1.4c-0.1-0.3-0.3-0.6-0.7-0.8c-0.3-0.2-0.7-0.3-1.1-0.3
			c-0.7,0-1.3,0.2-1.7,0.6c-0.5,0.4-0.7,1.2-0.7,2.4v5.1L117.1,172.8L117.1,172.8z"/>
		<path d="M127.1,161.7v-1.8h1.6v1.8H127.1z M127.1,172.8v-9.3h1.6v9.3H127.1z"/>
		<path d="M134.5,171.3l0.2,1.4c-0.4,0.1-0.8,0.1-1.2,0.1c-0.6,0-1-0.1-1.3-0.3s-0.5-0.4-0.7-0.7c-0.1-0.3-0.2-0.9-0.2-1.9v-5.4
			h-1.2v-1.2h1.2V161l1.6-0.9v3.3h1.6v1.2h-1.6v5.4c0,0.5,0,0.7,0.1,0.9c0.1,0.1,0.1,0.2,0.3,0.3c0.1,0.1,0.3,0.1,0.5,0.1
			C134,171.4,134.2,171.4,134.5,171.3z"/>
		<path d="M142.4,169.8l1.6,0.2c-0.3,1-0.7,1.7-1.4,2.2s-1.6,0.8-2.7,0.8c-1.4,0-2.4-0.4-3.2-1.3c-0.8-0.8-1.2-2-1.2-3.5
			c0-1.6,0.4-2.8,1.2-3.6c0.8-0.9,1.9-1.3,3.1-1.3c1.2,0,2.3,0.4,3.1,1.3c0.8,0.8,1.2,2,1.2,3.6c0,0.1,0,0.2,0,0.4h-6.9
			c0.1,1,0.3,1.8,0.9,2.4c0.5,0.5,1.2,0.8,1.9,0.8c0.6,0,1.1-0.2,1.5-0.5S142.2,170.4,142.4,169.8z M137.2,167.2h5.2
			c-0.1-0.8-0.3-1.4-0.6-1.8c-0.5-0.6-1.2-0.9-2-0.9c-0.7,0-1.3,0.2-1.8,0.7C137.6,165.7,137.3,166.4,137.2,167.2z"/>
		<path d="M152.1,172.8v-1.2c-0.6,0.9-1.5,1.4-2.6,1.4c-0.7,0-1.4-0.2-2-0.6c-0.6-0.4-1.1-1-1.4-1.7c-0.3-0.7-0.5-1.6-0.5-2.5
			s0.2-1.8,0.5-2.5c0.3-0.8,0.8-1.3,1.4-1.7c0.6-0.4,1.3-0.6,2.1-0.6c0.6,0,1.1,0.1,1.5,0.4c0.4,0.2,0.8,0.5,1.1,0.9v-4.6h1.6V173
			h-1.7V172.8z M147.1,168.1c0,1.2,0.3,2.1,0.8,2.7c0.5,0.6,1.1,0.9,1.8,0.9s1.3-0.3,1.8-0.8c0.5-0.6,0.7-1.4,0.7-2.6
			c0-1.3-0.2-2.2-0.7-2.8s-1.1-0.9-1.8-0.9s-1.3,0.3-1.8,0.9C147.3,166,147.1,166.9,147.1,168.1z"/>
		<path d="M161.2,172.8v-12.9h1.7l6.8,10.1v-10.1h1.6v12.9h-1.7l-6.8-10.1v10.1H161.2z"/>
		<path d="M180.1,171.6c-0.6,0.5-1.1,0.8-1.7,1.1c-0.5,0.2-1.1,0.3-1.7,0.3c-1,0-1.8-0.3-2.4-0.7c-0.5-0.5-0.8-1.1-0.8-1.9
			c0-0.5,0.1-0.9,0.3-1.3c0.2-0.4,0.5-0.7,0.8-0.9s0.7-0.4,1.1-0.5c0.3-0.1,0.8-0.2,1.4-0.2c1.3-0.2,2.2-0.3,2.8-0.5
			c0-0.2,0-0.4,0-0.4c0-0.6-0.1-1.1-0.4-1.4c-0.4-0.4-1-0.5-1.8-0.5c-0.7,0-1.3,0.1-1.6,0.4c-0.4,0.3-0.6,0.7-0.8,1.4l-1.5-0.2
			c0.1-0.7,0.4-1.2,0.7-1.6c0.3-0.4,0.8-0.7,1.4-0.9c0.6-0.2,1.3-0.3,2.1-0.3s1.4,0.1,1.9,0.3s0.9,0.4,1.1,0.7
			c0.2,0.3,0.4,0.6,0.5,1.1c0.1,0.3,0.1,0.8,0.1,1.5v2.1c0,1.5,0,2.4,0.1,2.8c0.1,0.4,0.2,0.8,0.4,1.1h-1.6
			C180.2,172.4,180.1,172,180.1,171.6z M180,168.1c-0.6,0.2-1.4,0.4-2.6,0.6c-0.6,0.1-1.1,0.2-1.4,0.3c-0.3,0.1-0.5,0.3-0.6,0.5
			s-0.2,0.5-0.2,0.8c0,0.4,0.2,0.8,0.5,1.1s0.8,0.4,1.4,0.4c0.6,0,1.1-0.1,1.6-0.4c0.5-0.3,0.8-0.6,1-1.1c0.2-0.4,0.3-0.9,0.3-1.6
			V168.1z"/>
		<path d="M187.4,171.3l0.2,1.4c-0.4,0.1-0.8,0.1-1.2,0.1c-0.6,0-1-0.1-1.3-0.3s-0.5-0.4-0.7-0.7c-0.1-0.3-0.2-0.9-0.2-1.9v-5.4H183
			v-1.2h1.2V161l1.6-0.9v3.3h1.6v1.2h-1.6v5.4c0,0.5,0,0.7,0.1,0.9c0.1,0.1,0.1,0.2,0.3,0.3c0.1,0.1,0.3,0.1,0.5,0.1
			C186.9,171.4,187.2,171.4,187.4,171.3z"/>
		<path d="M189,161.7v-1.8h1.6v1.8H189z M189,172.8v-9.3h1.6v9.3H189z"/>
		<path d="M192.4,168.1c0-1.7,0.5-3,1.4-3.8c0.8-0.7,1.8-1,2.9-1c1.3,0,2.3,0.4,3.1,1.3c0.8,0.8,1.2,2,1.2,3.5
			c0,1.2-0.2,2.1-0.5,2.8c-0.4,0.7-0.9,1.2-1.6,1.6c-0.7,0.4-1.4,0.6-2.3,0.6c-1.3,0-2.4-0.4-3.2-1.3
			C192.8,170.9,192.4,169.7,192.4,168.1z M194,168.1c0,1.2,0.3,2.1,0.8,2.7c0.5,0.6,1.2,0.9,2,0.9s1.4-0.3,2-0.9
			c0.5-0.6,0.8-1.5,0.8-2.7s-0.3-2-0.8-2.6s-1.2-0.9-2-0.9s-1.4,0.3-2,0.9C194.3,166,194,166.9,194,168.1z"/>
		<path d="M203,172.8v-9.3h1.4v1.3c0.7-1,1.7-1.5,3-1.5c0.6,0,1.1,0.1,1.5,0.3c0.5,0.2,0.8,0.5,1.1,0.8s0.4,0.7,0.5,1.2
			c0.1,0.3,0.1,0.8,0.1,1.5v5.7H209v-5.7c0-0.6-0.1-1.1-0.2-1.4c-0.1-0.3-0.3-0.6-0.7-0.8c-0.3-0.2-0.7-0.3-1.1-0.3
			c-0.7,0-1.3,0.2-1.7,0.6c-0.5,0.4-0.7,1.2-0.7,2.4v5.1L203,172.8L203,172.8z"/>
		<path d="M212.3,170l1.6-0.2c0.1,0.6,0.3,1.1,0.7,1.4c0.4,0.3,1,0.5,1.7,0.5s1.3-0.1,1.6-0.4c0.4-0.3,0.5-0.6,0.5-1
			s-0.2-0.6-0.5-0.8c-0.2-0.1-0.8-0.3-1.6-0.5c-1.2-0.3-2-0.5-2.4-0.8c-0.4-0.2-0.8-0.5-1-0.9s-0.3-0.8-0.3-1.3
			c0-0.4,0.1-0.8,0.3-1.2s0.4-0.6,0.8-0.9c0.2-0.2,0.6-0.3,1-0.5c0.4-0.1,0.9-0.2,1.4-0.2c0.7,0,1.4,0.1,1.9,0.3
			c0.6,0.2,1,0.5,1.2,0.9c0.3,0.4,0.4,0.8,0.5,1.4l-1.5,0.2c-0.1-0.5-0.3-0.9-0.6-1.1c-0.3-0.3-0.8-0.4-1.4-0.4
			c-0.7,0-1.2,0.1-1.6,0.4c-0.3,0.2-0.5,0.5-0.5,0.8c0,0.2,0.1,0.4,0.2,0.6c0.1,0.2,0.3,0.3,0.6,0.4c0.2,0.1,0.6,0.2,1.4,0.4
			c1.1,0.3,1.9,0.5,2.3,0.7c0.4,0.2,0.8,0.5,1,0.8c0.3,0.4,0.4,0.8,0.4,1.4c0,0.5-0.2,1-0.5,1.5s-0.8,0.8-1.3,1.1
			c-0.6,0.3-1.2,0.4-2,0.4c-1.2,0-2.1-0.3-2.8-0.8C212.9,171.7,212.5,171,212.3,170z"/>
	</g>
	<g>
		<path d="M11.5,192.4v-12.9h9.3v1.5h-7.6v3.9h7.1v1.5h-7.1v4.4h7.9v1.5h-9.6V192.4z"/>
		<path d="M29.2,192.4v-1.2c-0.6,0.9-1.5,1.4-2.6,1.4c-0.7,0-1.4-0.2-2-0.6c-0.6-0.4-1.1-1-1.4-1.7s-0.5-1.6-0.5-2.5
			s0.2-1.8,0.5-2.5c0.3-0.8,0.8-1.3,1.4-1.7s1.3-0.6,2.1-0.6c0.6,0,1.1,0.1,1.5,0.4c0.4,0.2,0.8,0.5,1.1,0.9v-4.6h1.6v12.9h-1.7
			V192.4z M24.3,187.7c0,1.2,0.3,2.1,0.8,2.7s1.1,0.9,1.8,0.9c0.7,0,1.3-0.3,1.8-0.8c0.5-0.6,0.7-1.4,0.7-2.6c0-1.3-0.2-2.2-0.7-2.8
			s-1.1-0.9-1.8-0.9c-0.7,0-1.3,0.3-1.8,0.9C24.5,185.6,24.3,186.5,24.3,187.7z"/>
		<path d="M39.3,192.4V191c-0.7,1.1-1.7,1.6-3,1.6c-0.5,0-1.1-0.1-1.5-0.3c-0.5-0.2-0.8-0.5-1.1-0.8c-0.2-0.3-0.4-0.7-0.5-1.2
			c-0.1-0.3-0.1-0.8-0.1-1.5V183h1.6v5.2c0,0.8,0,1.4,0.1,1.7c0.1,0.4,0.3,0.7,0.6,1c0.3,0.2,0.7,0.4,1.2,0.4s0.9-0.1,1.3-0.4
			c0.4-0.2,0.7-0.6,0.9-1s0.3-1,0.3-1.8v-5h1.6v9.3H39.3z"/>
		<path d="M49.3,188.9l1.6,0.2c-0.2,1.1-0.6,1.9-1.3,2.5s-1.6,0.9-2.6,0.9c-1.3,0-2.3-0.4-3.1-1.3c-0.8-0.8-1.2-2-1.2-3.6
			c0-1,0.2-1.9,0.5-2.6s0.8-1.3,1.5-1.7s1.4-0.6,2.2-0.6c1,0,1.8,0.3,2.5,0.8c0.6,0.5,1.1,1.2,1.2,2.2l-1.5,0.2
			c-0.1-0.6-0.4-1.1-0.8-1.4c-0.4-0.3-0.8-0.5-1.3-0.5c-0.8,0-1.4,0.3-1.9,0.9c-0.5,0.6-0.7,1.5-0.7,2.7c0,1.3,0.2,2.2,0.7,2.7
			c0.5,0.6,1.1,0.9,1.9,0.9c0.6,0,1.1-0.2,1.6-0.6C48.9,190.3,49.2,189.7,49.3,188.9z"/>
		<path d="M58.2,191.2c-0.6,0.5-1.1,0.8-1.7,1.1c-0.5,0.2-1.1,0.3-1.7,0.3c-1,0-1.8-0.3-2.4-0.7c-0.5-0.5-0.8-1.1-0.8-1.9
			c0-0.5,0.1-0.9,0.3-1.3c0.2-0.4,0.5-0.7,0.8-0.9s0.7-0.4,1.1-0.5c0.3-0.1,0.8-0.2,1.4-0.2c1.3-0.2,2.2-0.3,2.8-0.5
			c0-0.2,0-0.4,0-0.4c0-0.6-0.1-1.1-0.4-1.4c-0.4-0.4-1-0.5-1.8-0.5c-0.7,0-1.3,0.1-1.6,0.4c-0.4,0.3-0.6,0.7-0.8,1.4l-1.5-0.2
			c0.1-0.7,0.4-1.2,0.7-1.6c0.3-0.4,0.8-0.7,1.4-0.9c0.6-0.2,1.3-0.3,2.1-0.3s1.4,0.1,1.9,0.3s0.9,0.4,1.1,0.7
			c0.2,0.3,0.4,0.6,0.5,1.1c0.1,0.3,0.1,0.8,0.1,1.5v2.1c0,1.5,0,2.4,0.1,2.8c0.1,0.4,0.2,0.8,0.4,1.1h-1.6
			C58.4,192,58.3,191.7,58.2,191.2z M58.1,187.7c-0.6,0.2-1.4,0.4-2.6,0.6c-0.6,0.1-1.1,0.2-1.4,0.3c-0.3,0.1-0.5,0.3-0.6,0.5
			s-0.2,0.5-0.2,0.8c0,0.4,0.2,0.8,0.5,1.1s0.8,0.4,1.4,0.4c0.6,0,1.1-0.1,1.6-0.4c0.5-0.3,0.8-0.6,1-1.1c0.2-0.4,0.3-0.9,0.3-1.6
			V187.7z"/>
		<path d="M65.6,190.9l0.2,1.4c-0.4,0.1-0.8,0.1-1.2,0.1c-0.6,0-1-0.1-1.3-0.3s-0.5-0.4-0.7-0.7c-0.1-0.3-0.2-0.9-0.2-1.9v-5.4h-1.2
			V183h1.2v-2.3l1.6-0.9v3.3h1.6v1.2H64v5.4c0,0.5,0,0.7,0.1,0.9c0.1,0.1,0.1,0.2,0.3,0.3c0.1,0.1,0.3,0.1,0.5,0.1
			S65.3,191,65.6,190.9z"/>
		<path d="M67.2,181.3v-1.8h1.6v1.8H67.2z M67.2,192.4V183h1.6v9.3L67.2,192.4L67.2,192.4z"/>
		<path d="M70.6,187.7c0-1.7,0.5-3,1.4-3.8c0.8-0.7,1.8-1,2.9-1c1.3,0,2.3,0.4,3.1,1.3c0.8,0.8,1.2,2,1.2,3.5c0,1.2-0.2,2.1-0.5,2.8
			c-0.4,0.7-0.9,1.2-1.6,1.6c-0.7,0.4-1.4,0.6-2.3,0.6c-1.3,0-2.4-0.4-3.2-1.3C71,190.5,70.6,189.3,70.6,187.7z M72.2,187.7
			c0,1.2,0.3,2.1,0.8,2.7c0.5,0.6,1.2,0.9,2,0.9s1.4-0.3,2-0.9c0.5-0.6,0.8-1.5,0.8-2.7s-0.3-2-0.8-2.6s-1.2-0.9-2-0.9
			s-1.4,0.3-2,0.9S72.2,186.5,72.2,187.7z"/>
		<path d="M81.1,192.4V183h1.4v1.3c0.7-1,1.7-1.5,3-1.5c0.6,0,1.1,0.1,1.5,0.3c0.5,0.2,0.8,0.5,1.1,0.8c0.2,0.3,0.4,0.7,0.5,1.2
			c0.1,0.3,0.1,0.8,0.1,1.5v5.7h-1.6v-5.7c0-0.6-0.1-1.1-0.2-1.4c-0.1-0.3-0.3-0.6-0.7-0.8c-0.3-0.2-0.7-0.3-1.1-0.3
			c-0.7,0-1.3,0.2-1.7,0.6c-0.5,0.4-0.7,1.2-0.7,2.4v5.1h-1.6V192.4z"/>
		<path d="M97.2,191.2c-0.6,0.5-1.1,0.8-1.7,1.1c-0.5,0.2-1.1,0.3-1.7,0.3c-1,0-1.8-0.3-2.4-0.7c-0.5-0.5-0.8-1.1-0.8-1.9
			c0-0.5,0.1-0.9,0.3-1.3c0.2-0.4,0.5-0.7,0.8-0.9s0.7-0.4,1.1-0.5c0.3-0.1,0.8-0.2,1.4-0.2c1.3-0.2,2.2-0.3,2.8-0.5
			c0-0.2,0-0.4,0-0.4c0-0.6-0.1-1.1-0.4-1.4c-0.4-0.4-1-0.5-1.8-0.5c-0.7,0-1.3,0.1-1.6,0.4c-0.4,0.3-0.6,0.7-0.8,1.4l-1.5-0.2
			c0.1-0.7,0.4-1.2,0.7-1.6c0.3-0.4,0.8-0.7,1.4-0.9s1.3-0.3,2.1-0.3c0.8,0,1.4,0.1,1.9,0.3s0.9,0.4,1.1,0.7s0.4,0.6,0.5,1.1
			c0.1,0.3,0.1,0.8,0.1,1.5v2.1c0,1.5,0,2.4,0.1,2.8c0.1,0.4,0.2,0.8,0.4,1.1h-1.6C97.4,192,97.3,191.7,97.2,191.2z M97.1,187.7
			c-0.6,0.2-1.4,0.4-2.6,0.6c-0.6,0.1-1.1,0.2-1.4,0.3s-0.5,0.3-0.6,0.5s-0.2,0.5-0.2,0.8c0,0.4,0.2,0.8,0.5,1.1s0.8,0.4,1.4,0.4
			s1.1-0.1,1.6-0.4c0.5-0.3,0.8-0.6,1-1.1c0.2-0.4,0.3-0.9,0.3-1.6C97.1,188.3,97.1,187.7,97.1,187.7z"/>
		<path d="M101.1,192.4v-12.9h1.6v12.9H101.1z"/>
		<path d="M105.5,192.4v-1.8h1.8v1.8c0,0.7-0.1,1.2-0.4,1.6c-0.2,0.4-0.6,0.7-1.1,0.9l-0.4-0.7c0.3-0.1,0.6-0.4,0.7-0.6
			c0.2-0.3,0.2-0.7,0.3-1.2H105.5z"/>
		<path d="M114.7,188.2l1.6-0.1c0.1,0.6,0.3,1.2,0.5,1.6c0.3,0.4,0.7,0.7,1.3,1c0.6,0.3,1.2,0.4,2,0.4c0.6,0,1.2-0.1,1.7-0.3
			s0.9-0.5,1.1-0.8s0.4-0.7,0.4-1.1c0-0.4-0.1-0.8-0.4-1.1c-0.2-0.3-0.6-0.6-1.2-0.8c-0.3-0.1-1.1-0.3-2.3-0.6
			c-1.2-0.3-2-0.6-2.5-0.8c-0.6-0.3-1.1-0.7-1.4-1.2s-0.5-1-0.5-1.6s0.2-1.3,0.6-1.8c0.4-0.6,0.9-1,1.6-1.3s1.5-0.4,2.4-0.4
			c1,0,1.8,0.2,2.5,0.5s1.3,0.8,1.7,1.4c0.4,0.6,0.6,1.3,0.6,2l-1.6,0.1c-0.1-0.8-0.4-1.4-0.9-1.8c-0.5-0.4-1.3-0.6-2.2-0.6
			c-1,0-1.8,0.2-2.3,0.6c-0.5,0.4-0.7,0.8-0.7,1.4c0,0.5,0.2,0.8,0.5,1.1s1.2,0.6,2.6,0.9c1.4,0.3,2.3,0.6,2.8,0.8
			c0.7,0.3,1.3,0.8,1.7,1.3c0.4,0.5,0.5,1.1,0.5,1.8s-0.2,1.3-0.6,1.9c-0.4,0.6-1,1.1-1.7,1.4c-0.7,0.3-1.6,0.5-2.5,0.5
			c-1.2,0-2.1-0.2-2.9-0.5s-1.4-0.8-1.9-1.5C115,189.9,114.7,189.1,114.7,188.2z"/>
		<path d="M133.2,188.9l1.6,0.2c-0.2,1.1-0.6,1.9-1.3,2.5s-1.6,0.9-2.6,0.9c-1.3,0-2.3-0.4-3.1-1.3c-0.8-0.8-1.2-2-1.2-3.6
			c0-1,0.2-1.9,0.5-2.6s0.8-1.3,1.5-1.7c0.7-0.4,1.4-0.6,2.2-0.6c1,0,1.8,0.3,2.5,0.8c0.6,0.5,1.1,1.2,1.2,2.2L133,186
			c-0.1-0.6-0.4-1.1-0.8-1.4c-0.4-0.3-0.8-0.5-1.3-0.5c-0.8,0-1.4,0.3-1.9,0.9c-0.5,0.6-0.7,1.5-0.7,2.7c0,1.3,0.2,2.2,0.7,2.7
			c0.5,0.6,1.1,0.9,1.9,0.9c0.6,0,1.1-0.2,1.6-0.6C132.8,190.3,133,189.7,133.2,188.9z"/>
		<path d="M136.1,181.3v-1.8h1.6v1.8H136.1z M136.1,192.4V183h1.6v9.3L136.1,192.4L136.1,192.4z"/>
		<path d="M146.4,189.4l1.6,0.2c-0.3,1-0.7,1.7-1.4,2.2s-1.6,0.8-2.7,0.8c-1.4,0-2.4-0.4-3.2-1.3c-0.8-0.8-1.2-2-1.2-3.5
			c0-1.6,0.4-2.8,1.2-3.6c0.8-0.9,1.9-1.3,3.1-1.3c1.2,0,2.3,0.4,3.1,1.3s1.2,2,1.2,3.6c0,0.1,0,0.2,0,0.4h-6.9
			c0.1,1,0.3,1.8,0.9,2.4c0.5,0.5,1.2,0.8,1.9,0.8c0.6,0,1.1-0.2,1.5-0.5C145.9,190.5,146.2,190,146.4,189.4z M141.2,186.8h5.2
			c-0.1-0.8-0.3-1.4-0.6-1.8c-0.5-0.6-1.2-0.9-2-0.9c-0.7,0-1.3,0.2-1.8,0.7C141.6,185.3,141.3,186,141.2,186.8z"/>
		<path d="M150,192.4V183h1.4v1.3c0.7-1,1.7-1.5,3-1.5c0.6,0,1.1,0.1,1.5,0.3c0.5,0.2,0.8,0.5,1.1,0.8c0.2,0.3,0.4,0.7,0.5,1.2
			c0.1,0.3,0.1,0.8,0.1,1.5v5.7H156v-5.7c0-0.6-0.1-1.1-0.2-1.4c-0.1-0.3-0.3-0.6-0.7-0.8c-0.3-0.2-0.7-0.3-1.1-0.3
			c-0.7,0-1.3,0.2-1.7,0.6c-0.5,0.4-0.7,1.2-0.7,2.4v5.1H150V192.4z"/>
		<path d="M163.5,190.9l0.2,1.4c-0.4,0.1-0.8,0.1-1.2,0.1c-0.6,0-1-0.1-1.3-0.3s-0.5-0.4-0.7-0.7c-0.1-0.3-0.2-0.9-0.2-1.9v-5.4
			h-1.2V183h1.2v-2.3l1.6-0.9v3.3h1.6v1.2h-1.6v5.4c0,0.5,0,0.7,0.1,0.9c0.1,0.1,0.1,0.2,0.3,0.3c0.1,0.1,0.3,0.1,0.5,0.1
			C163,191,163.2,191,163.5,190.9z"/>
		<path d="M165,181.3v-1.8h1.6v1.8H165z M165,192.4V183h1.6v9.3L165,192.4L165,192.4z"/>
		<path d="M169.4,192.4v-8.1H168V183h1.4v-0.9c0-0.9,0.2-1.6,0.6-2.1c0.4-0.5,1-0.7,1.9-0.7c0.6,0,1.1,0.1,1.6,0.2l-0.2,1.3
			c-0.3-0.1-0.6-0.1-0.9-0.1c-0.5,0-0.9,0.1-1.1,0.3s-0.3,0.7-0.3,1.4v0.6h1.8v1.2H171v8.1L169.4,192.4L169.4,192.4z M174,181.3
			v-1.8h1.6v1.8H174z M174,192.4V183h1.6v9.3L174,192.4L174,192.4z"/>
		<path d="M184.1,188.9l1.6,0.2c-0.2,1.1-0.6,1.9-1.3,2.5s-1.6,0.9-2.6,0.9c-1.3,0-2.3-0.4-3.1-1.3c-0.8-0.8-1.2-2-1.2-3.6
			c0-1,0.2-1.9,0.5-2.6s0.8-1.3,1.5-1.7s1.4-0.6,2.2-0.6c1,0,1.8,0.3,2.5,0.8c0.6,0.5,1.1,1.2,1.2,2.2L184,186
			c-0.1-0.6-0.4-1.1-0.8-1.4c-0.4-0.3-0.8-0.5-1.3-0.5c-0.8,0-1.4,0.3-1.9,0.9c-0.5,0.6-0.7,1.5-0.7,2.7c0,1.3,0.2,2.2,0.7,2.7
			c0.5,0.6,1.1,0.9,1.9,0.9c0.6,0,1.1-0.2,1.6-0.6S184,189.7,184.1,188.9z"/>
		<path d="M198.1,191.2c-0.6,0.5-1.1,0.8-1.7,1.1c-0.5,0.2-1.1,0.3-1.7,0.3c-1,0-1.8-0.3-2.4-0.7c-0.5-0.5-0.8-1.1-0.8-1.9
			c0-0.5,0.1-0.9,0.3-1.3c0.2-0.4,0.5-0.7,0.8-0.9s0.7-0.4,1.1-0.5c0.3-0.1,0.8-0.2,1.4-0.2c1.3-0.2,2.2-0.3,2.8-0.5
			c0-0.2,0-0.4,0-0.4c0-0.6-0.1-1.1-0.4-1.4c-0.4-0.4-1-0.5-1.8-0.5c-0.7,0-1.3,0.1-1.6,0.4c-0.4,0.3-0.6,0.7-0.8,1.4l-1.5-0.2
			c0.1-0.7,0.4-1.2,0.7-1.6c0.3-0.4,0.8-0.7,1.4-0.9c0.6-0.2,1.3-0.3,2.1-0.3s1.4,0.1,1.9,0.3s0.9,0.4,1.1,0.7
			c0.2,0.3,0.4,0.6,0.5,1.1c0.1,0.3,0.1,0.8,0.1,1.5v2.1c0,1.5,0,2.4,0.1,2.8c0.1,0.4,0.2,0.8,0.4,1.1h-1.6
			C198.2,192,198.1,191.7,198.1,191.2z M197.9,187.7c-0.6,0.2-1.4,0.4-2.6,0.6c-0.6,0.1-1.1,0.2-1.4,0.3c-0.3,0.1-0.5,0.3-0.6,0.5
			s-0.2,0.5-0.2,0.8c0,0.4,0.2,0.8,0.5,1.1s0.8,0.4,1.4,0.4c0.6,0,1.1-0.1,1.6-0.4c0.5-0.3,0.8-0.6,1-1.1c0.2-0.4,0.3-0.9,0.3-1.6
			V187.7z"/>
		<path d="M202,192.4V183h1.4v1.3c0.7-1,1.7-1.5,3-1.5c0.6,0,1.1,0.1,1.5,0.3c0.5,0.2,0.8,0.5,1.1,0.8c0.2,0.3,0.4,0.7,0.5,1.2
			c0.1,0.3,0.1,0.8,0.1,1.5v5.7H208v-5.7c0-0.6-0.1-1.1-0.2-1.4c-0.1-0.3-0.3-0.6-0.7-0.8c-0.3-0.2-0.7-0.3-1.1-0.3
			c-0.7,0-1.3,0.2-1.7,0.6c-0.5,0.4-0.7,1.2-0.7,2.4v5.1H202V192.4z"/>
		<path d="M218,192.4v-1.2c-0.6,0.9-1.5,1.4-2.6,1.4c-0.7,0-1.4-0.2-2-0.6c-0.6-0.4-1.1-1-1.4-1.7c-0.3-0.7-0.5-1.6-0.5-2.5
			s0.2-1.8,0.5-2.5c0.3-0.8,0.8-1.3,1.4-1.7s1.3-0.6,2.1-0.6c0.6,0,1.1,0.1,1.5,0.4c0.4,0.2,0.8,0.5,1.1,0.9v-4.6h1.6v12.9H218
			V192.4z M213,187.7c0,1.2,0.3,2.1,0.8,2.7c0.5,0.6,1.1,0.9,1.8,0.9s1.3-0.3,1.8-0.8c0.5-0.6,0.7-1.4,0.7-2.6
			c0-1.3-0.2-2.2-0.7-2.8s-1.1-0.9-1.8-0.9s-1.3,0.3-1.8,0.9C213.3,185.6,213,186.5,213,187.7z"/>
	</g>
	<g>
		<path d="M62.6,207.5l1.7,0.4c-0.4,1.4-1,2.5-1.9,3.2s-2.1,1.1-3.4,1.1c-1.4,0-2.5-0.3-3.4-0.8c-0.9-0.6-1.5-1.4-2-2.5
			s-0.7-2.2-0.7-3.4c0-1.3,0.3-2.5,0.8-3.5s1.2-1.8,2.2-2.3c0.9-0.5,2-0.8,3.1-0.8c1.3,0,2.4,0.3,3.2,1c0.9,0.7,1.5,1.6,1.8,2.8
			l-1.7,0.4c-0.3-0.9-0.7-1.6-1.3-2s-1.3-0.6-2.1-0.6c-1,0-1.8,0.2-2.5,0.7s-1.1,1.1-1.4,1.9c-0.3,0.8-0.4,1.6-0.4,2.5
			c0,1.1,0.2,2,0.5,2.9c0.3,0.8,0.8,1.4,1.5,1.8s1.4,0.6,2.2,0.6c1,0,1.8-0.3,2.4-0.8C61.9,209.4,62.3,208.5,62.6,207.5z"/>
		<path d="M72.3,212v-1.4c-0.7,1.1-1.7,1.6-3,1.6c-0.5,0-1.1-0.1-1.5-0.3c-0.5-0.2-0.8-0.5-1.1-0.8c-0.2-0.3-0.4-0.7-0.5-1.2
			c-0.1-0.3-0.1-0.8-0.1-1.5v-5.8h1.6v5.2c0,0.8,0,1.4,0.1,1.7c0.1,0.4,0.3,0.7,0.6,1c0.3,0.2,0.7,0.4,1.2,0.4s0.9-0.1,1.3-0.4
			c0.4-0.2,0.7-0.6,0.9-1c0.2-0.4,0.3-1,0.3-1.8v-5h1.6v9.3H72.3z"/>
		<path d="M76.1,212v-12.9h1.6V212H76.1z"/>
		<path d="M83.6,210.5l0.2,1.4c-0.4,0.1-0.8,0.1-1.2,0.1c-0.6,0-1-0.1-1.3-0.3s-0.5-0.4-0.7-0.7c-0.1-0.3-0.2-0.9-0.2-1.9v-5.4h-1.2
			v-1.2h1.2v-2.3l1.6-0.9v3.3h1.6v1.2H82v5.4c0,0.5,0,0.7,0.1,0.9c0.1,0.1,0.1,0.2,0.3,0.3c0.1,0.1,0.3,0.1,0.5,0.1
			C83.1,210.6,83.3,210.6,83.6,210.5z"/>
		<path d="M91.2,212v-1.4c-0.7,1.1-1.7,1.6-3,1.6c-0.5,0-1.1-0.1-1.5-0.3c-0.5-0.2-0.8-0.5-1.1-0.8c-0.2-0.3-0.4-0.7-0.5-1.2
			c-0.1-0.3-0.1-0.8-0.1-1.5v-5.8h1.6v5.2c0,0.8,0,1.4,0.1,1.7c0.1,0.4,0.3,0.7,0.6,1c0.3,0.2,0.7,0.4,1.2,0.4s0.9-0.1,1.3-0.4
			c0.4-0.2,0.7-0.6,0.9-1c0.2-0.4,0.3-1,0.3-1.8v-5h1.6v9.3H91.2z"/>
		<path d="M95.1,212v-9.3h1.4v1.4c0.4-0.7,0.7-1.1,1-1.3s0.6-0.3,1-0.3c0.5,0,1.1,0.2,1.6,0.5l-0.5,1.5c-0.4-0.2-0.8-0.3-1.2-0.3
			c-0.3,0-0.7,0.1-0.9,0.3c-0.3,0.2-0.5,0.5-0.6,0.9c-0.2,0.6-0.3,1.2-0.3,1.8v4.9L95.1,212L95.1,212z"/>
		<path d="M107.2,210.8c-0.6,0.5-1.1,0.8-1.7,1.1c-0.5,0.2-1.1,0.3-1.7,0.3c-1,0-1.8-0.3-2.4-0.7c-0.5-0.5-0.8-1.1-0.8-1.9
			c0-0.5,0.1-0.9,0.3-1.3c0.2-0.4,0.5-0.7,0.8-0.9s0.7-0.4,1.1-0.5c0.3-0.1,0.8-0.2,1.4-0.2c1.3-0.2,2.2-0.3,2.8-0.5
			c0-0.2,0-0.4,0-0.4c0-0.6-0.1-1.1-0.4-1.4c-0.4-0.4-1-0.5-1.8-0.5c-0.7,0-1.3,0.1-1.6,0.4c-0.4,0.3-0.6,0.7-0.8,1.4l-1.5-0.2
			c0.1-0.7,0.4-1.2,0.7-1.6c0.3-0.4,0.8-0.7,1.4-0.9s1.3-0.3,2.1-0.3c0.8,0,1.4,0.1,1.9,0.3s0.9,0.4,1.1,0.7s0.4,0.6,0.5,1.1
			c0.1,0.3,0.1,0.8,0.1,1.5v2.1c0,1.5,0,2.4,0.1,2.8c0.1,0.4,0.2,0.8,0.4,1.1h-1.6C107.3,211.6,107.2,211.3,107.2,210.8z
			 M107.1,207.3c-0.6,0.2-1.4,0.4-2.6,0.6c-0.6,0.1-1.1,0.2-1.4,0.3s-0.5,0.3-0.6,0.5s-0.2,0.5-0.2,0.8c0,0.4,0.2,0.8,0.5,1.1
			s0.8,0.4,1.4,0.4s1.1-0.1,1.6-0.4c0.5-0.3,0.8-0.6,1-1.1c0.2-0.4,0.3-0.9,0.3-1.6C107.1,207.9,107.1,207.3,107.1,207.3z"/>
		<path d="M111.1,212v-12.9h1.6V212H111.1z"/>
		<path d="M119.8,205.7c0-2.1,0.6-3.8,1.7-5s2.6-1.8,4.4-1.8c1.2,0,2.3,0.3,3.2,0.9c1,0.6,1.7,1.4,2.2,2.4s0.8,2.2,0.8,3.5
			s-0.3,2.5-0.8,3.5s-1.3,1.8-2.2,2.3c-1,0.5-2,0.8-3.1,0.8c-1.2,0-2.3-0.3-3.2-0.9c-1-0.6-1.7-1.4-2.2-2.4
			C120,207.9,119.8,206.8,119.8,205.7z M121.5,205.7c0,1.5,0.4,2.8,1.2,3.7c0.8,0.9,1.9,1.3,3.1,1.3c1.3,0,2.3-0.5,3.2-1.4
			c0.8-0.9,1.2-2.2,1.2-3.8c0-1-0.2-2-0.5-2.7c-0.4-0.8-0.9-1.4-1.6-1.8c-0.7-0.4-1.4-0.6-2.3-0.6c-1.2,0-2.2,0.4-3.1,1.2
			C122,202.4,121.5,203.8,121.5,205.7z"/>
		<path d="M134,212v-9.3h1.4v1.4c0.4-0.7,0.7-1.1,1-1.3s0.6-0.3,1-0.3c0.5,0,1.1,0.2,1.6,0.5l-0.5,1.5c-0.4-0.2-0.8-0.3-1.2-0.3
			c-0.3,0-0.7,0.1-0.9,0.3c-0.3,0.2-0.5,0.5-0.6,0.9c-0.2,0.6-0.3,1.2-0.3,1.8v4.9L134,212L134,212z"/>
		<path d="M139.8,212.7l1.5,0.2c0.1,0.5,0.2,0.8,0.5,1c0.4,0.3,0.9,0.4,1.6,0.4c0.7,0,1.3-0.1,1.7-0.4c0.4-0.3,0.7-0.7,0.8-1.2
			c0.1-0.3,0.1-1,0.1-2c-0.7,0.8-1.5,1.2-2.6,1.2c-1.3,0-2.3-0.5-3-1.4s-1.1-2-1.1-3.3c0-0.9,0.2-1.7,0.5-2.5s0.8-1.3,1.4-1.7
			c0.6-0.4,1.3-0.6,2.2-0.6c1.1,0,2,0.4,2.7,1.3v-1.1h1.5v8.1c0,1.5-0.1,2.5-0.4,3.1c-0.3,0.6-0.8,1.1-1.4,1.4
			c-0.6,0.4-1.4,0.5-2.4,0.5c-1.1,0-2-0.2-2.7-0.8C140.1,214.5,139.7,213.7,139.8,212.7z M141.1,207.1c0,1.2,0.2,2.1,0.7,2.7
			s1.1,0.8,1.8,0.8s1.3-0.3,1.8-0.8c0.5-0.6,0.7-1.4,0.7-2.6c0-1.1-0.3-2-0.8-2.6s-1.1-0.9-1.8-0.9s-1.3,0.3-1.8,0.9
			C141.3,205.2,141.1,206,141.1,207.1z"/>
		<path d="M156.1,210.8c-0.6,0.5-1.1,0.8-1.7,1.1c-0.5,0.2-1.1,0.3-1.7,0.3c-1,0-1.8-0.3-2.4-0.7c-0.5-0.5-0.8-1.1-0.8-1.9
			c0-0.5,0.1-0.9,0.3-1.3c0.2-0.4,0.5-0.7,0.8-0.9s0.7-0.4,1.1-0.5c0.3-0.1,0.8-0.2,1.4-0.2c1.3-0.2,2.2-0.3,2.8-0.5
			c0-0.2,0-0.4,0-0.4c0-0.6-0.1-1.1-0.4-1.4c-0.4-0.4-1-0.5-1.8-0.5c-0.7,0-1.3,0.1-1.6,0.4c-0.4,0.3-0.6,0.7-0.8,1.4l-1.5-0.2
			c0.1-0.7,0.4-1.2,0.7-1.6c0.3-0.4,0.8-0.7,1.4-0.9c0.6-0.2,1.3-0.3,2.1-0.3s1.4,0.1,1.9,0.3s0.9,0.4,1.1,0.7
			c0.2,0.3,0.4,0.6,0.5,1.1c0.1,0.3,0.1,0.8,0.1,1.5v2.1c0,1.5,0,2.4,0.1,2.8c0.1,0.4,0.2,0.8,0.4,1.1h-1.6
			C156.3,211.6,156.2,211.3,156.1,210.8z M156,207.3c-0.6,0.2-1.4,0.4-2.6,0.6c-0.6,0.1-1.1,0.2-1.4,0.3c-0.3,0.1-0.5,0.3-0.6,0.5
			s-0.2,0.5-0.2,0.8c0,0.4,0.2,0.8,0.5,1.1s0.8,0.4,1.4,0.4c0.6,0,1.1-0.1,1.6-0.4c0.5-0.3,0.8-0.6,1-1.1c0.2-0.4,0.3-0.9,0.3-1.6
			V207.3z"/>
		<path d="M160,212v-9.3h1.4v1.3c0.7-1,1.7-1.5,3-1.5c0.6,0,1.1,0.1,1.5,0.3c0.5,0.2,0.8,0.5,1.1,0.8s0.4,0.7,0.5,1.2
			c0.1,0.3,0.1,0.8,0.1,1.5v5.7H166v-5.7c0-0.6-0.1-1.1-0.2-1.4c-0.1-0.3-0.3-0.6-0.7-0.8c-0.3-0.2-0.7-0.3-1.1-0.3
			c-0.7,0-1.3,0.2-1.7,0.6c-0.5,0.4-0.7,1.2-0.7,2.4v5.1L160,212L160,212z"/>
		<path d="M170,200.9v-1.8h1.6v1.8H170z M170,212v-9.3h1.6v9.3H170z"/>
		<path d="M173.2,212v-1.3l5.9-6.8c-0.7,0-1.3,0.1-1.8,0.1h-3.8v-1.3h7.6v1l-5,5.9l-1,1.1c0.7-0.1,1.4-0.1,2-0.1h4.3v1.4L173.2,212
			L173.2,212z"/>
		<path d="M189.1,210.8c-0.6,0.5-1.1,0.8-1.7,1.1c-0.5,0.2-1.1,0.3-1.7,0.3c-1,0-1.8-0.3-2.4-0.7c-0.5-0.5-0.8-1.1-0.8-1.9
			c0-0.5,0.1-0.9,0.3-1.3c0.2-0.4,0.5-0.7,0.8-0.9s0.7-0.4,1.1-0.5c0.3-0.1,0.8-0.2,1.4-0.2c1.3-0.2,2.2-0.3,2.8-0.5
			c0-0.2,0-0.4,0-0.4c0-0.6-0.1-1.1-0.4-1.4c-0.4-0.4-1-0.5-1.8-0.5c-0.7,0-1.3,0.1-1.6,0.4c-0.4,0.3-0.6,0.7-0.8,1.4l-1.5-0.2
			c0.1-0.7,0.4-1.2,0.7-1.6c0.3-0.4,0.8-0.7,1.4-0.9c0.6-0.2,1.3-0.3,2.1-0.3s1.4,0.1,1.9,0.3s0.9,0.4,1.1,0.7
			c0.2,0.3,0.4,0.6,0.5,1.1c0.1,0.3,0.1,0.8,0.1,1.5v2.1c0,1.5,0,2.4,0.1,2.8c0.1,0.4,0.2,0.8,0.4,1.1h-1.6
			C189.2,211.6,189.1,211.3,189.1,210.8z M188.9,207.3c-0.6,0.2-1.4,0.4-2.6,0.6c-0.6,0.1-1.1,0.2-1.4,0.3c-0.3,0.1-0.5,0.3-0.6,0.5
			s-0.2,0.5-0.2,0.8c0,0.4,0.2,0.8,0.5,1.1s0.8,0.4,1.4,0.4c0.6,0,1.1-0.1,1.6-0.4c0.5-0.3,0.8-0.6,1-1.1c0.2-0.4,0.3-0.9,0.3-1.6
			V207.3z"/>
		<path d="M196.4,210.5l0.2,1.4c-0.4,0.1-0.8,0.1-1.2,0.1c-0.6,0-1-0.1-1.3-0.3s-0.5-0.4-0.7-0.7c-0.1-0.3-0.2-0.9-0.2-1.9v-5.4H192
			v-1.2h1.2v-2.3l1.6-0.9v3.3h1.6v1.2h-1.6v5.4c0,0.5,0,0.7,0.1,0.9c0.1,0.1,0.1,0.2,0.3,0.3c0.1,0.1,0.3,0.1,0.5,0.1
			C195.9,210.6,196.2,210.6,196.4,210.5z"/>
		<path d="M198,200.9v-1.8h1.6v1.8H198z M198,212v-9.3h1.6v9.3H198z"/>
		<path d="M201.4,207.3c0-1.7,0.5-3,1.4-3.8c0.8-0.7,1.8-1,2.9-1c1.3,0,2.3,0.4,3.1,1.3c0.8,0.8,1.2,2,1.2,3.5
			c0,1.2-0.2,2.1-0.5,2.8c-0.4,0.7-0.9,1.2-1.6,1.6c-0.7,0.4-1.4,0.6-2.3,0.6c-1.3,0-2.4-0.4-3.2-1.3
			C201.8,210.1,201.4,208.9,201.4,207.3z M203,207.3c0,1.2,0.3,2.1,0.8,2.7c0.5,0.6,1.2,0.9,2,0.9s1.4-0.3,2-0.9
			c0.5-0.6,0.8-1.5,0.8-2.7s-0.3-2-0.8-2.6s-1.2-0.9-2-0.9s-1.4,0.3-2,0.9C203.3,205.2,203,206.1,203,207.3z"/>
		<path d="M212,212v-9.3h1.4v1.3c0.7-1,1.7-1.5,3-1.5c0.6,0,1.1,0.1,1.5,0.3c0.5,0.2,0.8,0.5,1.1,0.8c0.2,0.3,0.4,0.7,0.5,1.2
			c0.1,0.3,0.1,0.8,0.1,1.5v5.7H218v-5.7c0-0.6-0.1-1.1-0.2-1.4c-0.1-0.3-0.3-0.6-0.7-0.8c-0.3-0.2-0.7-0.3-1.1-0.3
			c-0.7,0-1.3,0.2-1.7,0.6c-0.5,0.4-0.7,1.2-0.7,2.4v5.1L212,212L212,212z"/>
	</g>
</g>
</svg>
