<?xml version="1.0" encoding="utf-8"?>
<!-- Generator: Adobe Illustrator 22.0.0, SVG Export Plug-In . SVG Version: 6.00 Build 0)  -->
<svg version="1.1" id="Layer_1" xmlns="http://www.w3.org/2000/svg" xmlns:xlink="http://www.w3.org/1999/xlink" x="0px" y="0px"
	 viewBox="0 0 392.9 241.3" style="enable-background:new 0 0 392.9 241.3;" xml:space="preserve">
<style type="text/css">
	.st0{fill:#231F20;}
</style>
<path class="st0" d="M241.9,13.7c0,1.1-0.9,1.9-1.9,1.9c-1.1,0-1.9-0.9-1.9-1.9c0-1.1,0.9-1.9,1.9-1.9
	C241,11.8,241.9,12.7,241.9,13.7"/>
<path class="st0" d="M241.9,20.6c0,1.1-0.9,1.9-1.9,1.9c-1.1,0-1.9-0.9-1.9-1.9c0-1.1,0.9-1.9,1.9-1.9
	C241,18.6,241.9,19.5,241.9,20.6"/>
<path class="st0" d="M241.9,28c0,1.1-0.9,1.9-1.9,1.9c-1.1,0-1.9-0.9-1.9-1.9c0-1.1,0.9-1.9,1.9-1.9C241,26.1,241.9,26.9,241.9,28"
	/>
<path class="st0" d="M241.9,35.4c0,1.1-0.9,1.9-1.9,1.9c-1.1,0-1.9-0.9-1.9-1.9c0-1.1,0.9-1.9,1.9-1.9
	C241,33.5,241.9,34.4,241.9,35.4"/>
<path class="st0" d="M241.9,43.4c0,1.1-0.9,1.9-1.9,1.9c-1.1,0-1.9-0.9-1.9-1.9c0-1.1,0.9-1.9,1.9-1.9
	C241,41.5,241.9,42.3,241.9,43.4"/>
<path class="st0" d="M241.9,51.4c0,1.1-0.9,1.9-1.9,1.9c-1.1,0-1.9-0.9-1.9-1.9c0-1.1,0.9-1.9,1.9-1.9
	C241,49.5,241.9,50.3,241.9,51.4"/>
<path class="st0" d="M241.9,59.6c0,1.1-0.9,1.9-1.9,1.9c-1.1,0-1.9-0.9-1.9-1.9c0-1.1,0.9-1.9,1.9-1.9
	C241,57.7,241.9,58.6,241.9,59.6"/>
<path class="st0" d="M241.9,67.8c0,1.1-0.9,1.9-1.9,1.9c-1.1,0-1.9-0.9-1.9-1.9c0-1.1,0.9-1.9,1.9-1.9
	C241,65.9,241.9,66.8,241.9,67.8"/>
<path class="st0" d="M241.9,76.8c0,1.1-0.9,1.9-1.9,1.9c-1.1,0-1.9-0.9-1.9-1.9c0-1.1,0.9-1.9,1.9-1.9
	C241,74.8,241.9,75.7,241.9,76.8"/>
<path class="st0" d="M241.9,85.7c0,1.1-0.9,1.9-1.9,1.9c-1.1,0-1.9-0.9-1.9-1.9c0-1.1,0.9-1.9,1.9-1.9
	C241,83.7,241.9,84.6,241.9,85.7"/>
<path class="st0" d="M241.9,95c0,1.1-0.9,1.9-1.9,1.9c-1.1,0-1.9-0.9-1.9-1.9c0-1.1,0.9-1.9,1.9-1.9C241,93.1,241.9,94,241.9,95"/>
<path class="st0" d="M241.9,104.6c0,1.1-0.9,1.9-1.9,1.9c-1.1,0-1.9-0.9-1.9-1.9c0-1.1,0.9-1.9,1.9-1.9
	C241,102.7,241.9,103.6,241.9,104.6"/>
<path class="st0" d="M241.9,114.7c0,1.1-0.9,1.9-1.9,1.9c-1.1,0-1.9-0.9-1.9-1.9c0-1.1,0.9-1.9,1.9-1.9
	C241,112.7,241.9,113.6,241.9,114.7"/>
<path class="st0" d="M241.9,126.1c0,1.1-0.9,1.9-1.9,1.9c-1.1,0-1.9-0.9-1.9-1.9c0-1.1,0.9-1.9,1.9-1.9
	C241,124.2,241.9,125,241.9,126.1"/>
<path class="st0" d="M241.9,138.7c0,1.1-0.9,1.9-1.9,1.9c-1.1,0-1.9-0.9-1.9-1.9c0-1.1,0.9-1.9,1.9-1.9
	C241,136.7,241.9,137.6,241.9,138.7"/>
<path class="st0" d="M241.9,153.5c0,1.1-0.9,1.9-1.9,1.9c-1.1,0-1.9-0.9-1.9-1.9c0-1.1,0.9-1.9,1.9-1.9
	C241,151.6,241.9,152.4,241.9,153.5"/>
<path class="st0" d="M241.9,169.5c0,1.1-0.9,1.9-1.9,1.9c-1.1,0-1.9-0.9-1.9-1.9c0-1.1,0.9-1.9,1.9-1.9
	C241,167.6,241.9,168.4,241.9,169.5"/>
<path class="st0" d="M241.9,187.7c0,1.1-0.9,1.9-1.9,1.9c-1.1,0-1.9-0.9-1.9-1.9c0-1.1,0.9-1.9,1.9-1.9
	C241,185.8,241.9,186.7,241.9,187.7"/>
<path class="st0" d="M241.9,208.3c0,1.1-0.9,1.9-1.9,1.9c-1.1,0-1.9-0.9-1.9-1.9c0-1.1,0.9-1.9,1.9-1.9
	C241,206.4,241.9,207.3,241.9,208.3"/>
<path class="st0" d="M241.9,231.2c0,1.1-0.9,1.9-1.9,1.9c-1.1,0-1.9-0.9-1.9-1.9c0-1.1,0.9-1.9,1.9-1.9
	C241,229.2,241.9,230.1,241.9,231.2"/>
<rect x="93.6" y="118.1" class="st0" width="113" height="4.7"/>
<rect x="87.2" y="126.1" class="st0" width="125.5" height="4.7"/>
<rect x="81.3" y="134.2" class="st0" width="137.6" height="4.7"/>
<rect x="93.6" y="58.3" class="st0" width="113" height="4.7"/>
<polygon class="st0" points="116.5,55.3 150.1,45.2 183,55.3 196.8,55.3 150.1,40.8 102.7,55.3 "/>
<polygon class="st0" points="93.6,55.3 149.8,38.1 206.6,55.3 206.6,50.2 150.1,32.8 93.6,50.2 "/>
<path class="st0" d="M100.3,111.9c0,0,0,3.6,4,3.6c4,0,3.8-3.6,3.8-3.6V66h-3V112c0,0,0,0.8-1.1,0.8c-1.1,0-0.8-1.1-0.8-1.1V66h-3
	V111.9z"/>
<polygon class="st0" points="118.8,115.5 121.2,115.5 121.2,85.7 124.2,115.5 126.7,115.5 126.7,66 124.2,66 124.2,92.4 121.2,66 
	118.8,66 "/>
<polygon class="st0" points="137.7,115.5 145.3,115.5 145.3,112.9 141,112.9 141,90.5 144.2,90.5 144.2,87.8 141,87.8 141,68.5 
	144.2,68.5 144.2,66 137.7,66 "/>
<path class="st0" d="M181.3,80.7V69.5c0,0-0.1-3.6-3.9-3.6c-3.8,0-3.8,3.6-3.8,3.6v42.4c0,0-0.1,3.6,3.8,3.6c3.9,0,3.9-3.6,3.9-3.6
	V99.5h-3v12.4c0,0,0,0.9-0.9,0.9c-0.9,0-1.1-0.9-1.1-0.9V69.5c0,0,0-1.1,1.1-1.1c0.9,0,0.9,1.1,0.9,1.1v11.1H181.3z"/>
<path class="st0" d="M200.1,69.5c0,0,0.2-3.6-3.9-3.6c-4.1,0-4.1,3.6-4.1,3.6v42.4c0,0,0,3.6,3.9,3.6c4.1,0,4.1-3.6,4.1-3.6V69.5z
	 M197.2,111.9c0,0,0.1,0.9-1.1,0.9c-1.2,0-1.2-0.9-1.2-0.9V69.5c0,0,0-1.1,1.1-1.1c1.2,0,1.2,1.1,1.2,1.1V111.9z"/>
<path class="st0" d="M159.6,111.9c0,0,0,0.9-0.8,0.9c-0.8-0.1-0.8-0.9-0.8-0.9V99.5H155v12.4c0,0-0.1,3.6,3.8,3.6
	c3.9,0,3.9-3.6,3.9-3.6s0-8.3,0-10.7c0-5.8-4.6-16.9-4.6-20.6V69.5c0,0-0.1-1.1,0.7-1.1c0.8,0,0.8,1.1,0.8,1.1v11.1h3.1V69.5
	c0,0,0.1-3.7-3.8-3.6c-3.9,0.1-3.9,3.6-3.9,3.6V79c0,6.2,4.6,16.7,4.6,21.5V111.9z"/>
<g>
	<path d="M261.5,98.5h4.2v11.4c0,1.8,0.1,3,0.2,3.5c0.2,0.9,0.6,1.6,1.3,2.1s1.6,0.8,2.8,0.8c1.2,0,2.1-0.2,2.7-0.7
		c0.6-0.5,1-1.1,1.1-1.8c0.1-0.7,0.2-1.9,0.2-3.6V98.5h4.2v11c0,2.5-0.1,4.3-0.3,5.3c-0.2,1-0.7,1.9-1.3,2.6s-1.4,1.3-2.5,1.7
		s-2.4,0.6-4,0.6c-2,0-3.5-0.2-4.6-0.7s-1.9-1.1-2.5-1.8s-1-1.5-1.2-2.3c-0.3-1.2-0.4-3-0.4-5.3V98.5z"/>
	<path d="M282.7,119.5v-21h4.1l8.6,14v-14h3.9v21h-4.3l-8.5-13.7v13.7H282.7z"/>
	<path d="M303.9,119.5v-21h15.6v3.6h-11.3v4.7h10.6v3.5h-10.6v5.7h11.7v3.5H303.9z"/>
	<path d="M322.4,112.7l4.1-0.4c0.2,1.4,0.8,2.4,1.5,3.1c0.8,0.7,1.8,1,3.1,1c1.4,0,2.4-0.3,3.1-0.9c0.7-0.6,1-1.3,1-2
		c0-0.5-0.1-0.9-0.4-1.3c-0.3-0.3-0.8-0.7-1.5-0.9c-0.5-0.2-1.6-0.5-3.4-0.9c-2.3-0.6-3.9-1.3-4.8-2.1c-1.3-1.2-1.9-2.6-1.9-4.2
		c0-1.1,0.3-2.1,0.9-3c0.6-0.9,1.5-1.6,2.6-2.1c1.1-0.5,2.5-0.7,4.1-0.7c2.6,0,4.6,0.6,6,1.7c1.3,1.2,2,2.7,2.1,4.6l-4.2,0.2
		c-0.2-1.1-0.6-1.9-1.2-2.3c-0.6-0.5-1.5-0.7-2.7-0.7c-1.2,0-2.2,0.3-2.9,0.8c-0.4,0.3-0.7,0.8-0.7,1.3c0,0.5,0.2,0.9,0.6,1.3
		c0.5,0.4,1.8,0.9,3.9,1.4s3.6,1,4.6,1.5s1.8,1.2,2.3,2.1c0.6,0.9,0.8,2,0.8,3.3c0,1.2-0.3,2.3-1,3.4c-0.7,1.1-1.6,1.8-2.8,2.3
		c-1.2,0.5-2.7,0.8-4.6,0.8c-2.7,0-4.7-0.6-6.1-1.8C323.6,116.8,322.7,115.1,322.4,112.7z"/>
	<path d="M356.5,111.8l4.1,1.3c-0.6,2.3-1.7,4-3.1,5.1c-1.5,1.1-3.3,1.7-5.6,1.7c-2.8,0-5.1-1-6.9-2.9c-1.8-1.9-2.7-4.5-2.7-7.8
		c0-3.5,0.9-6.2,2.7-8.2c1.8-1.9,4.2-2.9,7.1-2.9c2.6,0,4.7,0.8,6.3,2.3c1,0.9,1.7,2.2,2.2,3.9l-4.2,1c-0.2-1.1-0.8-2-1.6-2.6
		c-0.8-0.6-1.7-0.9-2.9-0.9c-1.6,0-2.8,0.6-3.8,1.7c-1,1.1-1.5,2.9-1.5,5.4c0,2.7,0.5,4.6,1.4,5.7c1,1.1,2.2,1.7,3.7,1.7
		c1.1,0,2.1-0.4,2.9-1.1S356.2,113.4,356.5,111.8z"/>
	<path d="M363.4,109.2c0-2.1,0.3-3.9,1-5.4c0.5-1.1,1.1-2,2-2.9c0.8-0.9,1.7-1.5,2.7-1.9c1.3-0.6,2.8-0.8,4.5-0.8
		c3.1,0,5.6,1,7.4,2.9s2.8,4.6,2.8,8c0,3.4-0.9,6-2.8,8c-1.8,1.9-4.3,2.9-7.4,2.9c-3.1,0-5.6-1-7.5-2.9
		C364.4,115.1,363.4,112.5,363.4,109.2z M367.8,109c0,2.4,0.5,4.2,1.6,5.4c1.1,1.2,2.5,1.8,4.2,1.8c1.7,0,3.1-0.6,4.2-1.8
		c1.1-1.2,1.6-3,1.6-5.5c0-2.4-0.5-4.2-1.6-5.4c-1.1-1.2-2.5-1.8-4.2-1.8s-3.2,0.6-4.2,1.8C368.3,104.8,367.8,106.6,367.8,109z"/>
</g>
<g>
	<path class="st0" d="M112.5,160h1.7v7.4c0,1.3-0.1,2.3-0.4,3.1c-0.3,0.8-0.8,1.4-1.6,1.9c-0.8,0.5-1.8,0.7-3,0.7
		c-1.2,0-2.2-0.2-3-0.6c-0.8-0.4-1.3-1-1.6-1.8c-0.3-0.8-0.5-1.9-0.5-3.2V160h1.7v7.4c0,1.1,0.1,1.9,0.3,2.5
		c0.2,0.5,0.6,0.9,1.1,1.2c0.5,0.3,1.1,0.4,1.9,0.4c1.2,0,2.1-0.3,2.7-0.8c0.5-0.6,0.8-1.7,0.8-3.3V160z"/>
	<path class="st0" d="M116.8,172.8v-9.3h1.4v1.3c0.7-1,1.7-1.5,3-1.5c0.6,0,1.1,0.1,1.5,0.3s0.8,0.5,1.1,0.8
		c0.2,0.3,0.4,0.7,0.5,1.2c0.1,0.3,0.1,0.8,0.1,1.5v5.7h-1.6v-5.7c0-0.6-0.1-1.1-0.2-1.4c-0.1-0.3-0.3-0.6-0.7-0.8
		c-0.3-0.2-0.7-0.3-1.1-0.3c-0.7,0-1.3,0.2-1.7,0.6c-0.5,0.4-0.7,1.2-0.7,2.4v5.1H116.8z"/>
	<path class="st0" d="M126.8,161.8V160h1.6v1.8H126.8z M126.8,172.8v-9.3h1.6v9.3H126.8z"/>
	<path class="st0" d="M134.2,171.4l0.2,1.4c-0.4,0.1-0.8,0.1-1.2,0.1c-0.6,0-1-0.1-1.3-0.3c-0.3-0.2-0.5-0.4-0.7-0.7
		c-0.1-0.3-0.2-0.9-0.2-1.9v-5.4h-1.2v-1.2h1.2v-2.3l1.6-0.9v3.3h1.6v1.2h-1.6v5.4c0,0.5,0,0.7,0.1,0.9c0.1,0.1,0.1,0.2,0.3,0.3
		c0.1,0.1,0.3,0.1,0.5,0.1C133.7,171.4,133.9,171.4,134.2,171.4z"/>
	<path class="st0" d="M142.1,169.8l1.6,0.2c-0.3,1-0.7,1.7-1.4,2.2c-0.7,0.5-1.6,0.8-2.7,0.8c-1.4,0-2.4-0.4-3.2-1.3
		c-0.8-0.8-1.2-2-1.2-3.5c0-1.6,0.4-2.8,1.2-3.6c0.8-0.9,1.9-1.3,3.1-1.3c1.2,0,2.3,0.4,3,1.3c0.8,0.8,1.2,2,1.2,3.6
		c0,0.1,0,0.2,0,0.4h-6.9c0.1,1,0.3,1.8,0.9,2.3c0.5,0.5,1.2,0.8,1.9,0.8c0.6,0,1.1-0.2,1.5-0.5C141.5,171,141.9,170.5,142.1,169.8z
		 M136.9,167.3h5.2c-0.1-0.8-0.3-1.4-0.6-1.8c-0.5-0.6-1.2-0.9-2-0.9c-0.7,0-1.3,0.2-1.8,0.7C137.3,165.8,137,166.4,136.9,167.3z"/>
	<path class="st0" d="M151.8,172.8v-1.2c-0.6,0.9-1.5,1.4-2.6,1.4c-0.7,0-1.4-0.2-2-0.6c-0.6-0.4-1.1-1-1.4-1.7s-0.5-1.6-0.5-2.5
		c0-0.9,0.2-1.8,0.5-2.5c0.3-0.8,0.8-1.3,1.4-1.7c0.6-0.4,1.3-0.6,2.1-0.6c0.6,0,1.1,0.1,1.5,0.4c0.4,0.2,0.8,0.5,1.1,0.9V160h1.6
		v12.8H151.8z M146.8,168.2c0,1.2,0.3,2.1,0.8,2.7c0.5,0.6,1.1,0.9,1.8,0.9c0.7,0,1.3-0.3,1.8-0.8c0.5-0.6,0.7-1.4,0.7-2.6
		c0-1.3-0.2-2.2-0.7-2.8c-0.5-0.6-1.1-0.9-1.8-0.9c-0.7,0-1.3,0.3-1.8,0.9C147,166,146.8,166.9,146.8,168.2z"/>
	<path class="st0" d="M160.9,172.8V160h1.7l6.7,10.1V160h1.6v12.8h-1.7l-6.7-10.1v10.1H160.9z"/>
	<path class="st0" d="M179.7,171.7c-0.6,0.5-1.1,0.8-1.7,1.1c-0.5,0.2-1.1,0.3-1.7,0.3c-1,0-1.8-0.2-2.4-0.7
		c-0.5-0.5-0.8-1.1-0.8-1.9c0-0.5,0.1-0.9,0.3-1.2c0.2-0.4,0.5-0.7,0.8-0.9c0.3-0.2,0.7-0.4,1.1-0.5c0.3-0.1,0.8-0.2,1.4-0.2
		c1.3-0.2,2.2-0.3,2.8-0.5c0-0.2,0-0.4,0-0.4c0-0.6-0.1-1.1-0.4-1.4c-0.4-0.4-1-0.5-1.8-0.5c-0.7,0-1.3,0.1-1.6,0.4
		s-0.6,0.7-0.8,1.4l-1.5-0.2c0.1-0.7,0.4-1.2,0.7-1.6s0.8-0.7,1.4-0.9s1.3-0.3,2.1-0.3c0.8,0,1.4,0.1,1.9,0.3
		c0.5,0.2,0.9,0.4,1.1,0.7s0.4,0.6,0.5,1.1c0.1,0.3,0.1,0.8,0.1,1.5v2.1c0,1.5,0,2.4,0.1,2.8s0.2,0.8,0.4,1.1H180
		C179.9,172.5,179.8,172.1,179.7,171.7z M179.6,168.1c-0.6,0.2-1.4,0.4-2.6,0.6c-0.6,0.1-1.1,0.2-1.4,0.3c-0.3,0.1-0.5,0.3-0.6,0.5
		c-0.1,0.2-0.2,0.5-0.2,0.7c0,0.4,0.2,0.8,0.5,1.1c0.3,0.3,0.8,0.4,1.4,0.4c0.6,0,1.1-0.1,1.6-0.4s0.8-0.6,1-1.1
		c0.2-0.4,0.3-0.9,0.3-1.6V168.1z"/>
	<path class="st0" d="M187.1,171.4l0.2,1.4c-0.4,0.1-0.8,0.1-1.2,0.1c-0.6,0-1-0.1-1.3-0.3c-0.3-0.2-0.5-0.4-0.7-0.7
		c-0.1-0.3-0.2-0.9-0.2-1.9v-5.4h-1.2v-1.2h1.2v-2.3l1.6-0.9v3.3h1.6v1.2h-1.6v5.4c0,0.5,0,0.7,0.1,0.9c0.1,0.1,0.1,0.2,0.3,0.3
		c0.1,0.1,0.3,0.1,0.5,0.1C186.6,171.4,186.8,171.4,187.1,171.4z"/>
	<path class="st0" d="M188.6,161.8V160h1.6v1.8H188.6z M188.6,172.8v-9.3h1.6v9.3H188.6z"/>
	<path class="st0" d="M192,168.1c0-1.7,0.5-3,1.4-3.8c0.8-0.7,1.8-1,2.9-1c1.3,0,2.3,0.4,3.1,1.3c0.8,0.8,1.2,2,1.2,3.5
		c0,1.2-0.2,2.1-0.5,2.8c-0.4,0.7-0.9,1.2-1.6,1.6s-1.4,0.6-2.2,0.6c-1.3,0-2.4-0.4-3.2-1.3C192.4,170.9,192,169.7,192,168.1z
		 M193.6,168.1c0,1.2,0.3,2.1,0.8,2.7c0.5,0.6,1.2,0.9,2,0.9c0.8,0,1.4-0.3,2-0.9c0.5-0.6,0.8-1.5,0.8-2.7c0-1.2-0.3-2-0.8-2.6
		s-1.2-0.9-1.9-0.9c-0.8,0-1.4,0.3-2,0.9C193.9,166.1,193.6,167,193.6,168.1z"/>
	<path class="st0" d="M202.6,172.8v-9.3h1.4v1.3c0.7-1,1.7-1.5,3-1.5c0.6,0,1.1,0.1,1.5,0.3c0.5,0.2,0.8,0.5,1.1,0.8
		c0.2,0.3,0.4,0.7,0.5,1.2c0.1,0.3,0.1,0.8,0.1,1.5v5.7h-1.6v-5.7c0-0.6-0.1-1.1-0.2-1.4c-0.1-0.3-0.3-0.6-0.7-0.8
		c-0.3-0.2-0.7-0.3-1.1-0.3c-0.7,0-1.3,0.2-1.7,0.6c-0.5,0.4-0.7,1.2-0.7,2.4v5.1H202.6z"/>
	<path class="st0" d="M211.9,170l1.6-0.2c0.1,0.6,0.3,1.1,0.7,1.4c0.4,0.3,1,0.5,1.7,0.5c0.7,0,1.3-0.1,1.6-0.4s0.5-0.6,0.5-1
		c0-0.4-0.2-0.6-0.5-0.8c-0.2-0.1-0.8-0.3-1.6-0.5c-1.2-0.3-2-0.5-2.4-0.8c-0.4-0.2-0.8-0.5-1-0.9s-0.3-0.8-0.3-1.2
		c0-0.4,0.1-0.8,0.3-1.2s0.4-0.6,0.8-0.9c0.2-0.2,0.6-0.3,1-0.5c0.4-0.1,0.9-0.2,1.4-0.2c0.7,0,1.4,0.1,1.9,0.3
		c0.6,0.2,1,0.5,1.2,0.9s0.4,0.8,0.5,1.4l-1.5,0.2c-0.1-0.5-0.3-0.9-0.6-1.1s-0.8-0.4-1.4-0.4c-0.7,0-1.2,0.1-1.6,0.4
		c-0.3,0.2-0.5,0.5-0.5,0.8c0,0.2,0.1,0.4,0.2,0.6c0.1,0.2,0.3,0.3,0.6,0.4c0.2,0.1,0.6,0.2,1.4,0.4c1.1,0.3,1.9,0.5,2.3,0.7
		c0.4,0.2,0.8,0.5,1,0.8c0.3,0.4,0.4,0.8,0.4,1.3c0,0.5-0.2,1-0.5,1.5c-0.3,0.5-0.7,0.8-1.3,1.1s-1.2,0.4-2,0.4
		c-1.2,0-2.1-0.3-2.8-0.8C212.5,171.8,212.1,171,211.9,170z"/>
</g>
<g>
	<path class="st0" d="M11.3,192.4v-12.8h9.3v1.5H13v3.9h7.1v1.5H13v4.4h7.9v1.5H11.3z"/>
	<path class="st0" d="M29,192.4v-1.2c-0.6,0.9-1.5,1.4-2.6,1.4c-0.7,0-1.4-0.2-2-0.6c-0.6-0.4-1.1-1-1.4-1.7s-0.5-1.6-0.5-2.5
		c0-0.9,0.2-1.8,0.5-2.5c0.3-0.8,0.8-1.3,1.4-1.7c0.6-0.4,1.3-0.6,2.1-0.6c0.6,0,1.1,0.1,1.5,0.4c0.4,0.2,0.8,0.5,1.1,0.9v-4.6h1.6
		v12.8H29z M24.1,187.7c0,1.2,0.3,2.1,0.8,2.7c0.5,0.6,1.1,0.9,1.8,0.9c0.7,0,1.3-0.3,1.8-0.8c0.5-0.6,0.7-1.4,0.7-2.6
		c0-1.3-0.2-2.2-0.7-2.8c-0.5-0.6-1.1-0.9-1.8-0.9c-0.7,0-1.3,0.3-1.8,0.9C24.3,185.6,24.1,186.5,24.1,187.7z"/>
	<path class="st0" d="M39.1,192.4V191c-0.7,1.1-1.7,1.6-3,1.6c-0.5,0-1.1-0.1-1.5-0.3c-0.5-0.2-0.8-0.5-1.1-0.8
		c-0.2-0.3-0.4-0.7-0.5-1.2c-0.1-0.3-0.1-0.8-0.1-1.5v-5.8h1.6v5.2c0,0.8,0,1.4,0.1,1.7c0.1,0.4,0.3,0.7,0.6,1s0.7,0.4,1.2,0.4
		s0.9-0.1,1.3-0.4c0.4-0.2,0.7-0.6,0.9-1c0.2-0.4,0.3-1,0.3-1.8v-5h1.6v9.3H39.1z"/>
	<path class="st0" d="M49,189l1.6,0.2c-0.2,1.1-0.6,1.9-1.3,2.5c-0.7,0.6-1.6,0.9-2.6,0.9c-1.3,0-2.3-0.4-3.1-1.2
		c-0.8-0.8-1.2-2-1.2-3.6c0-1,0.2-1.9,0.5-2.6c0.3-0.8,0.8-1.3,1.5-1.7s1.4-0.6,2.2-0.6c1,0,1.8,0.3,2.5,0.8
		c0.6,0.5,1.1,1.2,1.2,2.2l-1.5,0.2c-0.1-0.6-0.4-1.1-0.8-1.4c-0.4-0.3-0.8-0.5-1.3-0.5c-0.8,0-1.4,0.3-1.9,0.9s-0.7,1.5-0.7,2.7
		c0,1.3,0.2,2.2,0.7,2.7s1.1,0.8,1.9,0.8c0.6,0,1.1-0.2,1.6-0.6C48.7,190.3,48.9,189.8,49,189z"/>
	<path class="st0" d="M58,191.2c-0.6,0.5-1.1,0.8-1.7,1.1c-0.5,0.2-1.1,0.3-1.7,0.3c-1,0-1.8-0.2-2.4-0.7c-0.5-0.5-0.8-1.1-0.8-1.9
		c0-0.5,0.1-0.9,0.3-1.2s0.5-0.7,0.8-0.9c0.3-0.2,0.7-0.4,1.1-0.5c0.3-0.1,0.8-0.2,1.4-0.2c1.3-0.2,2.2-0.3,2.8-0.5
		c0-0.2,0-0.4,0-0.4c0-0.6-0.1-1.1-0.4-1.4c-0.4-0.4-1-0.5-1.8-0.5c-0.7,0-1.3,0.1-1.6,0.4s-0.6,0.7-0.8,1.4l-1.5-0.2
		c0.1-0.7,0.4-1.2,0.7-1.6s0.8-0.7,1.4-0.9c0.6-0.2,1.3-0.3,2.1-0.3c0.8,0,1.4,0.1,1.9,0.3c0.5,0.2,0.9,0.4,1.1,0.7
		c0.2,0.3,0.4,0.6,0.5,1.1c0.1,0.3,0.1,0.8,0.1,1.5v2.1c0,1.5,0,2.4,0.1,2.8c0.1,0.4,0.2,0.8,0.4,1.1h-1.6
		C58.2,192,58.1,191.7,58,191.2z M57.9,187.7c-0.6,0.2-1.4,0.4-2.6,0.6c-0.6,0.1-1.1,0.2-1.4,0.3c-0.3,0.1-0.5,0.3-0.6,0.5
		c-0.1,0.2-0.2,0.5-0.2,0.7c0,0.4,0.2,0.8,0.5,1.1c0.3,0.3,0.8,0.4,1.4,0.4c0.6,0,1.1-0.1,1.6-0.4s0.8-0.6,1-1.1
		c0.2-0.4,0.3-0.9,0.3-1.6V187.7z"/>
	<path class="st0" d="M65.4,191l0.2,1.4c-0.4,0.1-0.8,0.1-1.2,0.1c-0.6,0-1-0.1-1.3-0.3c-0.3-0.2-0.5-0.4-0.7-0.7
		c-0.1-0.3-0.2-0.9-0.2-1.9v-5.4h-1.2v-1.2h1.2v-2.3l1.6-0.9v3.3h1.6v1.2h-1.6v5.4c0,0.5,0,0.7,0.1,0.9c0.1,0.1,0.1,0.2,0.3,0.3
		c0.1,0.1,0.3,0.1,0.5,0.1C64.9,191,65.1,191,65.4,191z"/>
	<path class="st0" d="M66.9,181.3v-1.8h1.6v1.8H66.9z M66.9,192.4v-9.3h1.6v9.3H66.9z"/>
	<path class="st0" d="M70.3,187.7c0-1.7,0.5-3,1.4-3.8c0.8-0.7,1.8-1,2.9-1c1.3,0,2.3,0.4,3.1,1.3s1.2,2,1.2,3.5
		c0,1.2-0.2,2.1-0.5,2.8s-0.9,1.2-1.6,1.6c-0.7,0.4-1.4,0.6-2.2,0.6c-1.3,0-2.4-0.4-3.2-1.3C70.7,190.5,70.3,189.3,70.3,187.7z
		 M71.9,187.7c0,1.2,0.3,2.1,0.8,2.7c0.5,0.6,1.2,0.9,2,0.9c0.8,0,1.4-0.3,2-0.9s0.8-1.5,0.8-2.7c0-1.2-0.3-2-0.8-2.6
		c-0.5-0.6-1.2-0.9-1.9-0.9c-0.8,0-1.4,0.3-2,0.9C72.2,185.6,71.9,186.5,71.9,187.7z"/>
	<path class="st0" d="M80.9,192.4v-9.3h1.4v1.3c0.7-1,1.7-1.5,3-1.5c0.6,0,1.1,0.1,1.5,0.3s0.8,0.5,1.1,0.8c0.2,0.3,0.4,0.7,0.5,1.2
		c0.1,0.3,0.1,0.8,0.1,1.5v5.7h-1.6v-5.7c0-0.6-0.1-1.1-0.2-1.4c-0.1-0.3-0.3-0.6-0.7-0.8c-0.3-0.2-0.7-0.3-1.1-0.3
		c-0.7,0-1.3,0.2-1.7,0.6c-0.5,0.4-0.7,1.2-0.7,2.4v5.1H80.9z"/>
	<path class="st0" d="M96.9,191.2c-0.6,0.5-1.1,0.8-1.7,1.1c-0.5,0.2-1.1,0.3-1.7,0.3c-1,0-1.8-0.2-2.4-0.7
		c-0.5-0.5-0.8-1.1-0.8-1.9c0-0.5,0.1-0.9,0.3-1.2s0.5-0.7,0.8-0.9c0.3-0.2,0.7-0.4,1.1-0.5c0.3-0.1,0.8-0.2,1.4-0.2
		c1.3-0.2,2.2-0.3,2.8-0.5c0-0.2,0-0.4,0-0.4c0-0.6-0.1-1.1-0.4-1.4c-0.4-0.4-1-0.5-1.8-0.5c-0.7,0-1.3,0.1-1.6,0.4
		s-0.6,0.7-0.8,1.4l-1.5-0.2c0.1-0.7,0.4-1.2,0.7-1.6s0.8-0.7,1.4-0.9c0.6-0.2,1.3-0.3,2.1-0.3c0.8,0,1.4,0.1,1.9,0.3
		c0.5,0.2,0.9,0.4,1.1,0.7c0.2,0.3,0.4,0.6,0.5,1.1c0.1,0.3,0.1,0.8,0.1,1.5v2.1c0,1.5,0,2.4,0.1,2.8c0.1,0.4,0.2,0.8,0.4,1.1h-1.6
		C97.1,192,97,191.7,96.9,191.2z M96.8,187.7c-0.6,0.2-1.4,0.4-2.6,0.6c-0.6,0.1-1.1,0.2-1.4,0.3c-0.3,0.1-0.5,0.3-0.6,0.5
		c-0.1,0.2-0.2,0.5-0.2,0.7c0,0.4,0.2,0.8,0.5,1.1c0.3,0.3,0.8,0.4,1.4,0.4c0.6,0,1.1-0.1,1.6-0.4s0.8-0.6,1-1.1
		c0.2-0.4,0.3-0.9,0.3-1.6V187.7z"/>
	<path class="st0" d="M100.8,192.4v-12.8h1.6v12.8H100.8z"/>
	<path class="st0" d="M105.2,192.4v-1.8h1.8v1.8c0,0.7-0.1,1.2-0.4,1.6c-0.2,0.4-0.6,0.7-1.1,0.9l-0.4-0.7c0.3-0.1,0.6-0.4,0.7-0.6
		s0.2-0.7,0.3-1.2H105.2z"/>
	<path class="st0" d="M114.4,188.2l1.6-0.1c0.1,0.6,0.3,1.2,0.5,1.6c0.3,0.4,0.7,0.7,1.3,1c0.6,0.3,1.2,0.4,2,0.4
		c0.6,0,1.2-0.1,1.7-0.3s0.9-0.5,1.1-0.8c0.2-0.3,0.4-0.7,0.4-1.1c0-0.4-0.1-0.8-0.4-1.1c-0.2-0.3-0.6-0.6-1.2-0.8
		c-0.3-0.1-1.1-0.3-2.3-0.6c-1.2-0.3-2-0.6-2.5-0.8c-0.6-0.3-1.1-0.7-1.4-1.2s-0.5-1-0.5-1.6c0-0.6,0.2-1.3,0.6-1.8
		c0.4-0.6,0.9-1,1.6-1.3c0.7-0.3,1.5-0.4,2.4-0.4c1,0,1.8,0.2,2.5,0.5c0.7,0.3,1.3,0.8,1.7,1.4c0.4,0.6,0.6,1.3,0.6,2l-1.6,0.1
		c-0.1-0.8-0.4-1.4-0.9-1.8s-1.3-0.6-2.2-0.6c-1,0-1.8,0.2-2.2,0.6c-0.5,0.4-0.7,0.8-0.7,1.4c0,0.5,0.2,0.8,0.5,1.1
		c0.3,0.3,1.2,0.6,2.6,0.9c1.4,0.3,2.3,0.6,2.8,0.8c0.7,0.3,1.3,0.8,1.7,1.3c0.4,0.5,0.5,1.1,0.5,1.8c0,0.7-0.2,1.3-0.6,1.9
		c-0.4,0.6-1,1.1-1.7,1.4c-0.7,0.3-1.6,0.5-2.5,0.5c-1.2,0-2.1-0.2-2.9-0.5s-1.4-0.8-1.8-1.5C114.7,189.9,114.4,189.1,114.4,188.2z"
		/>
	<path class="st0" d="M132.8,189l1.6,0.2c-0.2,1.1-0.6,1.9-1.3,2.5c-0.7,0.6-1.6,0.9-2.6,0.9c-1.3,0-2.3-0.4-3.1-1.2
		c-0.8-0.8-1.2-2-1.2-3.6c0-1,0.2-1.9,0.5-2.6c0.3-0.8,0.8-1.3,1.5-1.7s1.4-0.6,2.2-0.6c1,0,1.8,0.3,2.5,0.8
		c0.6,0.5,1.1,1.2,1.2,2.2l-1.5,0.2c-0.1-0.6-0.4-1.1-0.8-1.4s-0.8-0.5-1.3-0.5c-0.8,0-1.4,0.3-1.9,0.9c-0.5,0.6-0.7,1.5-0.7,2.7
		c0,1.3,0.2,2.2,0.7,2.7c0.5,0.6,1.1,0.8,1.9,0.8c0.6,0,1.1-0.2,1.6-0.6C132.5,190.3,132.7,189.8,132.8,189z"/>
	<path class="st0" d="M135.8,181.3v-1.8h1.6v1.8H135.8z M135.8,192.4v-9.3h1.6v9.3H135.8z"/>
	<path class="st0" d="M146.1,189.4l1.6,0.2c-0.3,1-0.7,1.7-1.4,2.2c-0.7,0.5-1.6,0.8-2.7,0.8c-1.4,0-2.4-0.4-3.2-1.3
		c-0.8-0.8-1.2-2-1.2-3.5c0-1.6,0.4-2.8,1.2-3.6c0.8-0.9,1.9-1.3,3.1-1.3c1.2,0,2.3,0.4,3,1.3c0.8,0.8,1.2,2,1.2,3.6
		c0,0.1,0,0.2,0,0.4h-6.9c0.1,1,0.3,1.8,0.9,2.3c0.5,0.5,1.2,0.8,1.9,0.8c0.6,0,1.1-0.2,1.5-0.5C145.5,190.5,145.9,190,146.1,189.4z
		 M140.9,186.8h5.2c-0.1-0.8-0.3-1.4-0.6-1.8c-0.5-0.6-1.2-0.9-2-0.9c-0.7,0-1.3,0.2-1.8,0.7C141.2,185.4,141,186,140.9,186.8z"/>
	<path class="st0" d="M149.7,192.4v-9.3h1.4v1.3c0.7-1,1.7-1.5,3-1.5c0.6,0,1.1,0.1,1.5,0.3c0.5,0.2,0.8,0.5,1.1,0.8
		c0.2,0.3,0.4,0.7,0.5,1.2c0.1,0.3,0.1,0.8,0.1,1.5v5.7h-1.6v-5.7c0-0.6-0.1-1.1-0.2-1.4c-0.1-0.3-0.3-0.6-0.7-0.8
		c-0.3-0.2-0.7-0.3-1.1-0.3c-0.7,0-1.3,0.2-1.7,0.6c-0.5,0.4-0.7,1.2-0.7,2.4v5.1H149.7z"/>
	<path class="st0" d="M163.1,191l0.2,1.4c-0.4,0.1-0.8,0.1-1.2,0.1c-0.6,0-1-0.1-1.3-0.3c-0.3-0.2-0.5-0.4-0.7-0.7
		c-0.1-0.3-0.2-0.9-0.2-1.9v-5.4h-1.2v-1.2h1.2v-2.3l1.6-0.9v3.3h1.6v1.2h-1.6v5.4c0,0.5,0,0.7,0.1,0.9c0.1,0.1,0.1,0.2,0.3,0.3
		c0.1,0.1,0.3,0.1,0.5,0.1C162.6,191,162.9,191,163.1,191z"/>
	<path class="st0" d="M164.7,181.3v-1.8h1.6v1.8H164.7z M164.7,192.4v-9.3h1.6v9.3H164.7z"/>
	<path class="st0" d="M169.1,192.4v-8.1h-1.4v-1.2h1.4v-0.9c0-0.9,0.2-1.6,0.6-2.1s1-0.7,1.9-0.7c0.6,0,1.1,0.1,1.6,0.2l-0.2,1.3
		c-0.3-0.1-0.6-0.1-0.8-0.1c-0.5,0-0.9,0.1-1.1,0.3c-0.2,0.2-0.3,0.7-0.3,1.4v0.6h1.8v1.2h-1.8v8.1H169.1z M173.7,181.3v-1.8h1.6
		v1.8H173.7z M173.7,192.4v-9.3h1.6v9.3H173.7z"/>
	<path class="st0" d="M183.7,189l1.6,0.2c-0.2,1.1-0.6,1.9-1.3,2.5s-1.6,0.9-2.6,0.9c-1.3,0-2.3-0.4-3.1-1.2c-0.8-0.8-1.2-2-1.2-3.6
		c0-1,0.2-1.9,0.5-2.6c0.3-0.8,0.8-1.3,1.5-1.7s1.4-0.6,2.2-0.6c1,0,1.8,0.3,2.5,0.8c0.6,0.5,1.1,1.2,1.2,2.2l-1.5,0.2
		c-0.1-0.6-0.4-1.1-0.8-1.4s-0.8-0.5-1.3-0.5c-0.8,0-1.4,0.3-1.9,0.9c-0.5,0.6-0.7,1.5-0.7,2.7c0,1.3,0.2,2.2,0.7,2.7
		c0.5,0.6,1.1,0.8,1.9,0.8c0.6,0,1.1-0.2,1.6-0.6S183.6,189.8,183.7,189z"/>
	<path class="st0" d="M197.7,191.2c-0.6,0.5-1.1,0.8-1.7,1.1c-0.5,0.2-1.1,0.3-1.7,0.3c-1,0-1.8-0.2-2.4-0.7
		c-0.5-0.5-0.8-1.1-0.8-1.9c0-0.5,0.1-0.9,0.3-1.2c0.2-0.4,0.5-0.7,0.8-0.9c0.3-0.2,0.7-0.4,1.1-0.5c0.3-0.1,0.8-0.2,1.4-0.2
		c1.3-0.2,2.2-0.3,2.8-0.5c0-0.2,0-0.4,0-0.4c0-0.6-0.1-1.1-0.4-1.4c-0.4-0.4-1-0.5-1.8-0.5c-0.7,0-1.3,0.1-1.6,0.4
		s-0.6,0.7-0.8,1.4l-1.5-0.2c0.1-0.7,0.4-1.2,0.7-1.6s0.8-0.7,1.4-0.9s1.3-0.3,2.1-0.3c0.8,0,1.4,0.1,1.9,0.3
		c0.5,0.2,0.9,0.4,1.1,0.7s0.4,0.6,0.5,1.1c0.1,0.3,0.1,0.8,0.1,1.5v2.1c0,1.5,0,2.4,0.1,2.8s0.2,0.8,0.4,1.1H198
		C197.8,192,197.7,191.7,197.7,191.2z M197.5,187.7c-0.6,0.2-1.4,0.4-2.6,0.6c-0.6,0.1-1.1,0.2-1.4,0.3c-0.3,0.1-0.5,0.3-0.6,0.5
		c-0.1,0.2-0.2,0.5-0.2,0.7c0,0.4,0.2,0.8,0.5,1.1c0.3,0.3,0.8,0.4,1.4,0.4c0.6,0,1.1-0.1,1.6-0.4s0.8-0.6,1-1.1
		c0.2-0.4,0.3-0.9,0.3-1.6V187.7z"/>
	<path class="st0" d="M201.6,192.4v-9.3h1.4v1.3c0.7-1,1.7-1.5,3-1.5c0.6,0,1.1,0.1,1.5,0.3c0.5,0.2,0.8,0.5,1.1,0.8
		c0.2,0.3,0.4,0.7,0.5,1.2c0.1,0.3,0.1,0.8,0.1,1.5v5.7h-1.6v-5.7c0-0.6-0.1-1.1-0.2-1.4c-0.1-0.3-0.3-0.6-0.7-0.8
		c-0.3-0.2-0.7-0.3-1.1-0.3c-0.7,0-1.3,0.2-1.7,0.6c-0.5,0.4-0.7,1.2-0.7,2.4v5.1H201.6z"/>
	<path class="st0" d="M217.6,192.4v-1.2c-0.6,0.9-1.5,1.4-2.6,1.4c-0.7,0-1.4-0.2-2-0.6c-0.6-0.4-1.1-1-1.4-1.7s-0.5-1.6-0.5-2.5
		c0-0.9,0.2-1.8,0.5-2.5c0.3-0.8,0.8-1.3,1.4-1.7c0.6-0.4,1.3-0.6,2.1-0.6c0.6,0,1.1,0.1,1.5,0.4c0.4,0.2,0.8,0.5,1.1,0.9v-4.6h1.6
		v12.8H217.6z M212.6,187.7c0,1.2,0.3,2.1,0.8,2.7c0.5,0.6,1.1,0.9,1.8,0.9c0.7,0,1.3-0.3,1.8-0.8c0.5-0.6,0.7-1.4,0.7-2.6
		c0-1.3-0.2-2.2-0.7-2.8c-0.5-0.6-1.1-0.9-1.8-0.9c-0.7,0-1.3,0.3-1.8,0.9C212.8,185.6,212.6,186.5,212.6,187.7z"/>
</g>
<g>
	<path class="st0" d="M62.3,207.5l1.7,0.4c-0.4,1.4-1,2.5-1.9,3.2c-0.9,0.7-2.1,1.1-3.4,1.1c-1.4,0-2.5-0.3-3.4-0.8
		c-0.9-0.6-1.5-1.4-2-2.4c-0.5-1.1-0.7-2.2-0.7-3.4c0-1.3,0.3-2.5,0.8-3.5c0.5-1,1.2-1.8,2.2-2.3c0.9-0.5,2-0.8,3.1-0.8
		c1.3,0,2.4,0.3,3.2,1c0.9,0.7,1.5,1.6,1.8,2.8l-1.7,0.4c-0.3-0.9-0.7-1.6-1.3-2s-1.3-0.6-2.1-0.6c-1,0-1.8,0.2-2.5,0.7
		c-0.7,0.5-1.1,1.1-1.4,1.9c-0.3,0.8-0.4,1.6-0.4,2.5c0,1.1,0.2,2,0.5,2.9c0.3,0.8,0.8,1.4,1.5,1.8c0.7,0.4,1.4,0.6,2.2,0.6
		c1,0,1.8-0.3,2.4-0.8C61.7,209.3,62.1,208.5,62.3,207.5z"/>
	<path class="st0" d="M72,212v-1.4c-0.7,1.1-1.7,1.6-3,1.6c-0.5,0-1.1-0.1-1.5-0.3c-0.5-0.2-0.8-0.5-1.1-0.8
		c-0.2-0.3-0.4-0.7-0.5-1.2c-0.1-0.3-0.1-0.8-0.1-1.5v-5.8h1.6v5.2c0,0.8,0,1.4,0.1,1.7c0.1,0.4,0.3,0.7,0.6,1s0.7,0.4,1.2,0.4
		s0.9-0.1,1.3-0.4c0.4-0.2,0.7-0.6,0.9-1c0.2-0.4,0.3-1,0.3-1.8v-5h1.6v9.3H72z"/>
	<path class="st0" d="M75.9,212v-12.8h1.6V212H75.9z"/>
	<path class="st0" d="M83.3,210.5l0.2,1.4c-0.4,0.1-0.8,0.1-1.2,0.1c-0.6,0-1-0.1-1.3-0.3c-0.3-0.2-0.5-0.4-0.7-0.7
		c-0.1-0.3-0.2-0.9-0.2-1.9v-5.4H79v-1.2h1.2v-2.3l1.6-0.9v3.3h1.6v1.2h-1.6v5.4c0,0.5,0,0.7,0.1,0.9c0.1,0.1,0.1,0.2,0.3,0.3
		c0.1,0.1,0.3,0.1,0.5,0.1C82.8,210.6,83.1,210.6,83.3,210.5z"/>
	<path class="st0" d="M91,212v-1.4c-0.7,1.1-1.7,1.6-3,1.6c-0.5,0-1.1-0.1-1.5-0.3c-0.5-0.2-0.8-0.5-1.1-0.8
		c-0.2-0.3-0.4-0.7-0.5-1.2c-0.1-0.3-0.1-0.8-0.1-1.5v-5.8h1.6v5.2c0,0.8,0,1.4,0.1,1.7c0.1,0.4,0.3,0.7,0.6,1s0.7,0.4,1.2,0.4
		s0.9-0.1,1.3-0.4c0.4-0.2,0.7-0.6,0.9-1c0.2-0.4,0.3-1,0.3-1.8v-5h1.6v9.3H91z"/>
	<path class="st0" d="M94.8,212v-9.3h1.4v1.4c0.4-0.7,0.7-1.1,1-1.3c0.3-0.2,0.6-0.3,1-0.3c0.5,0,1.1,0.2,1.6,0.5l-0.5,1.5
		c-0.4-0.2-0.8-0.3-1.2-0.3c-0.3,0-0.7,0.1-0.9,0.3c-0.3,0.2-0.5,0.5-0.6,0.9c-0.2,0.6-0.3,1.2-0.3,1.8v4.9H94.8z"/>
	<path class="st0" d="M106.9,210.8c-0.6,0.5-1.1,0.8-1.7,1.1c-0.5,0.2-1.1,0.3-1.7,0.3c-1,0-1.8-0.2-2.4-0.7
		c-0.5-0.5-0.8-1.1-0.8-1.9c0-0.5,0.1-0.9,0.3-1.2s0.5-0.7,0.8-0.9c0.3-0.2,0.7-0.4,1.1-0.5c0.3-0.1,0.8-0.2,1.4-0.2
		c1.3-0.2,2.2-0.3,2.8-0.5c0-0.2,0-0.4,0-0.4c0-0.6-0.1-1.1-0.4-1.4c-0.4-0.4-1-0.5-1.8-0.5c-0.7,0-1.3,0.1-1.6,0.4
		s-0.6,0.7-0.8,1.4l-1.5-0.2c0.1-0.7,0.4-1.2,0.7-1.6s0.8-0.7,1.4-0.9c0.6-0.2,1.3-0.3,2.1-0.3c0.8,0,1.4,0.1,1.9,0.3
		c0.5,0.2,0.9,0.4,1.1,0.7c0.2,0.3,0.4,0.6,0.5,1.1c0.1,0.3,0.1,0.8,0.1,1.5v2.1c0,1.5,0,2.4,0.1,2.8c0.1,0.4,0.2,0.8,0.4,1.1h-1.6
		C107.1,211.6,107,211.2,106.9,210.8z M106.8,207.3c-0.6,0.2-1.4,0.4-2.6,0.6c-0.6,0.1-1.1,0.2-1.4,0.3c-0.3,0.1-0.5,0.3-0.6,0.5
		c-0.1,0.2-0.2,0.5-0.2,0.7c0,0.4,0.2,0.8,0.5,1.1c0.3,0.3,0.8,0.4,1.4,0.4c0.6,0,1.1-0.1,1.6-0.4s0.8-0.6,1-1.1
		c0.2-0.4,0.3-0.9,0.3-1.6V207.3z"/>
	<path class="st0" d="M110.8,212v-12.8h1.6V212H110.8z"/>
	<path class="st0" d="M119.5,205.7c0-2.1,0.6-3.8,1.7-5c1.1-1.2,2.6-1.8,4.4-1.8c1.2,0,2.3,0.3,3.2,0.9s1.7,1.4,2.2,2.4
		c0.5,1,0.8,2.2,0.8,3.4c0,1.3-0.3,2.5-0.8,3.5s-1.3,1.8-2.2,2.3c-1,0.5-2,0.8-3.1,0.8c-1.2,0-2.3-0.3-3.2-0.9s-1.7-1.4-2.2-2.4
		C119.7,207.9,119.5,206.8,119.5,205.7z M121.2,205.7c0,1.5,0.4,2.8,1.2,3.7c0.8,0.9,1.9,1.3,3.1,1.3c1.3,0,2.3-0.5,3.2-1.3
		s1.2-2.2,1.2-3.8c0-1-0.2-2-0.5-2.7c-0.4-0.8-0.9-1.4-1.6-1.8c-0.7-0.4-1.4-0.6-2.3-0.6c-1.2,0-2.2,0.4-3.1,1.2
		C121.7,202.4,121.2,203.8,121.2,205.7z"/>
	<path class="st0" d="M133.7,212v-9.3h1.4v1.4c0.4-0.7,0.7-1.1,1-1.3c0.3-0.2,0.6-0.3,1-0.3c0.5,0,1.1,0.2,1.6,0.5l-0.5,1.5
		c-0.4-0.2-0.8-0.3-1.2-0.3c-0.3,0-0.7,0.1-0.9,0.3s-0.5,0.5-0.6,0.9c-0.2,0.6-0.3,1.2-0.3,1.8v4.9H133.7z"/>
	<path class="st0" d="M139.4,212.7l1.5,0.2c0.1,0.5,0.2,0.8,0.5,1c0.4,0.3,0.9,0.4,1.6,0.4c0.7,0,1.3-0.1,1.7-0.4
		c0.4-0.3,0.7-0.7,0.8-1.2c0.1-0.3,0.1-1,0.1-2c-0.7,0.8-1.5,1.2-2.6,1.2c-1.3,0-2.3-0.5-3-1.4c-0.7-0.9-1.1-2-1.1-3.3
		c0-0.9,0.2-1.7,0.5-2.5c0.3-0.8,0.8-1.3,1.4-1.7c0.6-0.4,1.3-0.6,2.2-0.6c1.1,0,2,0.4,2.7,1.3v-1.1h1.5v8c0,1.4-0.1,2.5-0.4,3.1
		s-0.8,1.1-1.4,1.4s-1.4,0.5-2.4,0.5c-1.1,0-2-0.2-2.7-0.7C139.7,214.5,139.4,213.7,139.4,212.7z M140.7,207.1
		c0,1.2,0.2,2.1,0.7,2.7c0.5,0.6,1.1,0.8,1.8,0.8c0.7,0,1.3-0.3,1.8-0.8c0.5-0.6,0.7-1.4,0.7-2.6c0-1.1-0.3-2-0.8-2.6
		c-0.5-0.6-1.1-0.9-1.8-0.9c-0.7,0-1.3,0.3-1.8,0.9C141,205.2,140.7,206,140.7,207.1z"/>
	<path class="st0" d="M155.8,210.8c-0.6,0.5-1.1,0.8-1.7,1.1c-0.5,0.2-1.1,0.3-1.7,0.3c-1,0-1.8-0.2-2.4-0.7
		c-0.5-0.5-0.8-1.1-0.8-1.9c0-0.5,0.1-0.9,0.3-1.2c0.2-0.4,0.5-0.7,0.8-0.9c0.3-0.2,0.7-0.4,1.1-0.5c0.3-0.1,0.8-0.2,1.4-0.2
		c1.3-0.2,2.2-0.3,2.8-0.5c0-0.2,0-0.4,0-0.4c0-0.6-0.1-1.1-0.4-1.4c-0.4-0.4-1-0.5-1.8-0.5c-0.7,0-1.3,0.1-1.6,0.4
		s-0.6,0.7-0.8,1.4l-1.5-0.2c0.1-0.7,0.4-1.2,0.7-1.6s0.8-0.7,1.4-0.9s1.3-0.3,2.1-0.3c0.8,0,1.4,0.1,1.9,0.3
		c0.5,0.2,0.9,0.4,1.1,0.7s0.4,0.6,0.5,1.1c0.1,0.3,0.1,0.8,0.1,1.5v2.1c0,1.5,0,2.4,0.1,2.8s0.2,0.8,0.4,1.1h-1.6
		C155.9,211.6,155.8,211.2,155.8,210.8z M155.6,207.3c-0.6,0.2-1.4,0.4-2.6,0.6c-0.6,0.1-1.1,0.2-1.4,0.3c-0.3,0.1-0.5,0.3-0.6,0.5
		c-0.1,0.2-0.2,0.5-0.2,0.7c0,0.4,0.2,0.8,0.5,1.1c0.3,0.3,0.8,0.4,1.4,0.4c0.6,0,1.1-0.1,1.6-0.4s0.8-0.6,1-1.1
		c0.2-0.4,0.3-0.9,0.3-1.6V207.3z"/>
	<path class="st0" d="M159.7,212v-9.3h1.4v1.3c0.7-1,1.7-1.5,3-1.5c0.6,0,1.1,0.1,1.5,0.3c0.5,0.2,0.8,0.5,1.1,0.8
		c0.2,0.3,0.4,0.7,0.5,1.2c0.1,0.3,0.1,0.8,0.1,1.5v5.7h-1.6v-5.7c0-0.6-0.1-1.1-0.2-1.4c-0.1-0.3-0.3-0.6-0.7-0.8
		c-0.3-0.2-0.7-0.3-1.1-0.3c-0.7,0-1.3,0.2-1.7,0.6c-0.5,0.4-0.7,1.2-0.7,2.4v5.1H159.7z"/>
	<path class="st0" d="M169.7,200.9v-1.8h1.6v1.8H169.7z M169.7,212v-9.3h1.6v9.3H169.7z"/>
	<path class="st0" d="M172.8,212v-1.3l5.9-6.8c-0.7,0-1.3,0.1-1.8,0.1h-3.8v-1.3h7.6v1l-5,5.9l-1,1.1c0.7-0.1,1.4-0.1,2-0.1h4.3v1.4
		H172.8z"/>
	<path class="st0" d="M188.7,210.8c-0.6,0.5-1.1,0.8-1.7,1.1c-0.5,0.2-1.1,0.3-1.7,0.3c-1,0-1.8-0.2-2.4-0.7
		c-0.5-0.5-0.8-1.1-0.8-1.9c0-0.5,0.1-0.9,0.3-1.2c0.2-0.4,0.5-0.7,0.8-0.9c0.3-0.2,0.7-0.4,1.1-0.5c0.3-0.1,0.8-0.2,1.4-0.2
		c1.3-0.2,2.2-0.3,2.8-0.5c0-0.2,0-0.4,0-0.4c0-0.6-0.1-1.1-0.4-1.4c-0.4-0.4-1-0.5-1.8-0.5c-0.7,0-1.3,0.1-1.6,0.4
		s-0.6,0.7-0.8,1.4l-1.5-0.2c0.1-0.7,0.4-1.2,0.7-1.6s0.8-0.7,1.4-0.9s1.3-0.3,2.1-0.3c0.8,0,1.4,0.1,1.9,0.3
		c0.5,0.2,0.9,0.4,1.1,0.7s0.4,0.6,0.5,1.1c0.1,0.3,0.1,0.8,0.1,1.5v2.1c0,1.5,0,2.4,0.1,2.8s0.2,0.8,0.4,1.1H189
		C188.9,211.6,188.7,211.2,188.7,210.8z M188.6,207.3c-0.6,0.2-1.4,0.4-2.6,0.6c-0.6,0.1-1.1,0.2-1.4,0.3c-0.3,0.1-0.5,0.3-0.6,0.5
		c-0.1,0.2-0.2,0.5-0.2,0.7c0,0.4,0.2,0.8,0.5,1.1c0.3,0.3,0.8,0.4,1.4,0.4c0.6,0,1.1-0.1,1.6-0.4s0.8-0.6,1-1.1
		c0.2-0.4,0.3-0.9,0.3-1.6V207.3z"/>
	<path class="st0" d="M196.1,210.5l0.2,1.4c-0.4,0.1-0.8,0.1-1.2,0.1c-0.6,0-1-0.1-1.3-0.3c-0.3-0.2-0.5-0.4-0.7-0.7
		c-0.1-0.3-0.2-0.9-0.2-1.9v-5.4h-1.2v-1.2h1.2v-2.3l1.6-0.9v3.3h1.6v1.2h-1.6v5.4c0,0.5,0,0.7,0.1,0.9c0.1,0.1,0.1,0.2,0.3,0.3
		c0.1,0.1,0.3,0.1,0.5,0.1C195.5,210.6,195.8,210.6,196.1,210.5z"/>
	<path class="st0" d="M197.6,200.9v-1.8h1.6v1.8H197.6z M197.6,212v-9.3h1.6v9.3H197.6z"/>
	<path class="st0" d="M201,207.3c0-1.7,0.5-3,1.4-3.8c0.8-0.7,1.8-1,2.9-1c1.3,0,2.3,0.4,3.1,1.3c0.8,0.8,1.2,2,1.2,3.5
		c0,1.2-0.2,2.1-0.5,2.8c-0.4,0.7-0.9,1.2-1.6,1.6s-1.4,0.6-2.2,0.6c-1.3,0-2.4-0.4-3.2-1.3C201.4,210.1,201,208.9,201,207.3z
		 M202.6,207.3c0,1.2,0.3,2.1,0.8,2.7c0.5,0.6,1.2,0.9,2,0.9c0.8,0,1.4-0.3,2-0.9c0.5-0.6,0.8-1.5,0.8-2.7c0-1.2-0.3-2-0.8-2.6
		s-1.2-0.9-1.9-0.9c-0.8,0-1.4,0.3-2,0.9C202.9,205.2,202.6,206.1,202.6,207.3z"/>
	<path class="st0" d="M211.6,212v-9.3h1.4v1.3c0.7-1,1.7-1.5,3-1.5c0.6,0,1.1,0.1,1.5,0.3c0.5,0.2,0.8,0.5,1.1,0.8
		c0.2,0.3,0.4,0.7,0.5,1.2c0.1,0.3,0.1,0.8,0.1,1.5v5.7h-1.6v-5.7c0-0.6-0.1-1.1-0.2-1.4c-0.1-0.3-0.3-0.6-0.7-0.8
		c-0.3-0.2-0.7-0.3-1.1-0.3c-0.7,0-1.3,0.2-1.7,0.6c-0.5,0.4-0.7,1.2-0.7,2.4v5.1H211.6z"/>
</g>
</svg>
