<?xml version="1.0" encoding="utf-8"?>
<!-- Generator: Adobe Illustrator 22.0.0, SVG Export Plug-In . SVG Version: 6.00 Build 0)  -->
<svg version="1.1" id="Layer_1" xmlns="http://www.w3.org/2000/svg" xmlns:xlink="http://www.w3.org/1999/xlink" x="0px" y="0px"
	 viewBox="0 0 655.7 830.2" style="enable-background:new 0 0 655.7 830.2;" xml:space="preserve">
<style type="text/css">
	.st0{fill:none;}
	.st1{fill:#FFFFFF;}
	.st2{fill:#8B4E92;}
	.st3{fill:#E46226;}
</style>
<title>Asset 4</title>
<path class="st0" d="M502.5,297.4L502.5,297.4c-2.4-2.7-4.8-5.3-7.4-7.6C497.7,292.1,500.1,294.7,502.5,297.4z"/>
<path class="st0" d="M445.6,271.1c2.4,0,4.8,0.1,7.1,0.3C450.4,271.2,448,271.1,445.6,271.1z"/>
<path class="st0" d="M487.1,283.5c2.8,1.9,5.4,4,8,6.3C492.6,287.5,489.9,285.4,487.1,283.5z"/>
<path class="st0" d="M656.3,241.7L656.3,241.7c-7.9,1.6-16,4.1-24.4,7.4L208.5,429.7l423.4-180.6
	C640.3,245.8,648.4,243.3,656.3,241.7z"/>
<path class="st0" d="M476.1,32.4c63.4,0,124.6,13.5,180.2,38.3v-0.4C601.2,45.9,540.3,32.3,476.1,32.4z"/>
<polygon class="st0" points="599.1,490.2 624.8,550.5 624.8,550.5 "/>
<path class="st0" d="M656.3,564.9c-8.3,0.1-16.8,0.6-25.4,1.4l0,0C639.5,565.5,648,565,656.3,564.9L656.3,564.9z"/>
<path class="st0" d="M251.9,437.6c0.5-0.2,1-0.3,1.4-0.5c-3.1,1-6.2,2.2-9.3,3.5c-0.9,0.4-1.8,0.8-2.6,1.2c0.9-0.4,1.7-0.8,2.6-1.2
	C246.6,439.5,249.2,438.5,251.9,437.6z"/>
<path class="st0" d="M322.4,367.2c2.9-35,23.4-61.6,61.9-80c1.8-1.2,3.7-2.2,5.7-3l3.1-1.3l-3.1,1.3c-2,0.8-3.9,1.8-5.7,3
	C345.8,305.6,325.3,332.2,322.4,367.2z"/>
<polygon class="st0" points="342.2,172.2 388.3,280.1 382,282.8 356.3,222.6 382,282.9 388.3,280.2 342.3,172.2 "/>
<path class="st0" d="M320.9,129.7c5.7-2.9,11.1-2.6,17.4-0.5c5.8,2.4,9.7,6.5,12.2,12.4c2.3,5.4,2.4,11.4,0.3,16.9
	c-1.1,2.8-2.7,5.4-4.8,7.6c2.1-2.2,3.7-4.7,4.8-7.6c2.1-5.5,2-11.5-0.3-16.9c-2.5-5.9-6.4-10-12.2-12.4
	C332,127.1,326.6,126.7,320.9,129.7c-5.1,2.2-8.9,5.4-11.4,10.1C312,135.1,315.8,131.9,320.9,129.7z"/>
<path class="st1" d="M564.1,413.1c4.6,10.8,10.5,20.1,17.6,28.1C574.6,433.2,568.7,423.9,564.1,413.1z"/>
<path class="st1" d="M190.2,495.4c-8.5,21-9.8,41.9-4.1,62.8C180.4,537.3,181.8,516.4,190.2,495.4z"/>
<path class="st1" d="M563.3,336.4c-1,2.4-1.8,4.8-2.6,7.2C561.4,341.2,562.3,338.8,563.3,336.4z"/>
<path class="st1" d="M320.7,439.8c-22.9-8.9-45.3-9.8-67.4-2.7c-0.5,0.2-1,0.3-1.4,0.5C274.5,429.9,297.3,430.7,320.7,439.8z"/>
<path class="st1" d="M211.4,462.5c8.9-9.1,19.8-16.4,32.6-21.9c-0.9,0.4-1.8,0.8-2.6,1.2C229.7,447.1,219.7,454,211.4,462.5z"/>
<path class="st1" d="M651.1,273.3c1.7-0.1,3.5-0.1,5.2-0.1l0,0C654.6,273.2,652.9,273.2,651.1,273.3z"/>
<path class="st1" d="M375.5,572.3c0.3-0.7,0.6-1.3,0.9-2l0,0l0,0C376.1,571,375.8,571.6,375.5,572.3z"/>
<path class="st1" d="M375.6,493.7c3.3,7.9,5.7,15.7,7,23.5C381.3,509.4,379,501.6,375.6,493.7z"/>
<path class="st0" d="M251.9,437.6c-2.6,0.9-5.3,1.9-7.9,3l0,0C246.6,439.5,249.2,438.5,251.9,437.6z"/>
<path class="st0" d="M230,533.8c0.6,0.3,0.8,0.7,1.9,0.8c4.9,1.8,10.4,1.5,15.2-0.6c4.7-2,8.4-5.7,10.5-10.3c1.4-2.9,2-6.1,1.6-9.3
	c0.1,2.6-0.4,5.3-1.6,8.2c-2.1,4.6-5.8,8.3-10.5,10.3c-4.8,2.1-10.2,2.3-15.2,0.6C230.8,534.4,230.6,534,230,533.8L230,533.8
	c-0.1,0.7-0.1,1.4-0.1,2.2C229.9,535.2,230,534.5,230,533.8L230,533.8z"/>
<path class="st0" d="M245.7,498.3c0.3,0.1,0.6,0.2,0.9,0.3c5-4.6,10.7-8.3,16.9-11c13.5-5.8,27.6-6.4,40.9-1.5
	c13.7,4.8,22.7,13.2,28.2,26.3c3.9,9.1,4.8,17.9,3.1,26.8c2.1-9.3,1-18.4-3-27.9c-5.3-12.6-14.9-21.3-28.2-26.3s-26.9-4.5-40.8,1.5
	C256.9,489.3,250.9,493.3,245.7,498.3z"/>
<path class="st2" d="M247.5,498.6c-0.3,0-0.6,0-0.9-0.1c-0.3,0.3-0.6,0.6-0.9,0.9c0.6,0.3,1.1,0.1,1.7,0.3c4.7,1.3,8.6,4.8,10.4,9.4
	c0.8,1.6,1.2,3.4,1.4,5.2c-0.1-2.2-0.5-4.3-1.4-6.3C256,503.5,252.1,500.1,247.5,498.6z"/>
<path class="st0" d="M603.2,375.2l1.9,0.8c4.9,1.8,10.4,1.5,15.2-0.6c5-2.1,8.2-5.6,10.9-10.5c2.3-4.5,2.3-9.8,0.2-14.5v-0.1
	c1.6,4.3,1.4,8.8-0.5,13.6c-2.2,4.8-6.1,8.5-10.9,10.5c-5,2.1-9.8,2-15.2,0.6l-1.9-0.8c-0.1,4.9,0.5,9.8,1.8,14.5
	C603.5,384.4,603,379.8,603.2,375.2z"/>
<path class="st0" d="M606.8,394.9L606.8,394.9c3,7,7.3,12.8,12.8,17.5C614,407.5,609.7,401.7,606.8,394.9z"/>
<path class="st0" d="M656.3,324.1v-1c-6.4,0.4-13,1.9-19.6,4.8c-6.6,2.8-12.6,6.8-17.8,11.9c0.3,0.1,0.7,0.2,1,0.3
	c5-4.7,10.8-8.5,17.1-11.2C643.5,326.1,649.9,324.5,656.3,324.1z"/>
<path class="st1" d="M618.9,466.8c12.5,5,25,7.6,37.4,7.6v-49.1c-7,0.3-14.1-0.8-20.9-3.2c-6.1-2.6-11.3-5.8-15.8-9.7
	c-5.5-4.6-9.8-10.4-12.8-17.5l0,0l0,0c-0.9-2-1.6-4-2.1-6.1c-1.3-4.7-2-9.6-1.8-14.5l1.9,0.8c5.4,1.4,10.2,1.5,15.2-0.6
	c4.9-2,8.8-5.7,10.9-10.5c1.9-4.8,2.1-9.4,0.5-13.6c-1.8-4.5-5.6-8-10.3-9.3c-0.5-0.2-1.1-0.3-1.7-0.3c0.2-0.2,0.5-0.4,0.7-0.6
	c-0.4,0-0.7-0.1-1-0.3c5.1-5,11.2-9,17.8-11.9c6.6-2.8,13.1-4.4,19.6-4.8v-50c-1.7,0-3.5,0-5.2,0.1c-11.4,0.6-22.7,3.4-34.1,8.2
	c-25.2,10.7-43.4,29.1-53.7,54.8l0,0c-1,2.4-1.8,4.8-2.6,7.2c-7.6,23.2-6.4,46.3,3.5,69.5c4.6,10.8,10.5,20.1,17.6,28.1
	C591.6,452.3,604,460.8,618.9,466.8z"/>
<path class="st2" d="M656.3,424.4V324.1c-6.4,0.4-12.9,2-19.2,4.7S625,335.3,620,340c0.2,0,0.5,0.1,0.7,0c4.7,1.4,8.5,4.9,10.4,9.4
	c0.1,0.3,0.2,0.5,0.3,0.8v0.1c2.1,4.6,2,9.9-0.2,14.5c-2.7,4.9-5.9,8.4-10.9,10.5c-4.8,2.1-10.2,2.4-15.2,0.6l-1.9-0.8
	c-0.2,4.6,0.3,9.2,1.5,13.6c0.6,2.1,1.3,4.1,2.2,6.1l0,0c2.9,6.8,7.2,12.6,12.8,17.5c4.4,3.7,9.5,6.6,15.4,8.8
	C642.1,423.8,649.1,424.9,656.3,424.4z"/>
<path class="st2" d="M635,421.1c-5.9-2.2-11-5.1-15.4-8.8c4.5,3.9,9.7,7.1,15.8,9.7c6.8,2.4,13.8,3.5,20.9,3.2v-0.8
	C649.1,424.9,642.1,423.8,635,421.1z"/>
<path class="st2" d="M620.7,340.1c-0.2,0-0.5,0-0.7,0c-0.2,0.2-0.5,0.4-0.7,0.6c0.6,0,1.2,0.1,1.7,0.3c4.7,1.3,8.5,4.8,10.3,9.3
	c-0.1-0.3-0.2-0.5-0.3-0.8C629.2,344.9,625.4,341.5,620.7,340.1z"/>
<path class="st2" d="M604.7,388.8c0.6,2.1,1.3,4.1,2.1,6.1l0,0l0,0C606,392.9,605.3,390.9,604.7,388.8z"/>
<polygon class="st3" points="618.3,552.7 618.3,552.7 595.7,499.6 418,575.4 418,575.4 595.7,499.6 "/>
<path class="st3" d="M560.6,343.6c0.8-2.4,1.7-4.8,2.6-7.2c-7.9,18.9-9.6,38.2-5.4,57.5C554.2,377.1,555.2,360.4,560.6,343.6z"/>
<path class="st3" d="M656.3,273.2L656.3,273.2c-6.2,0-12.3,0.6-18.5,1.8c4.4-0.9,8.9-1.5,13.3-1.7
	C652.9,273.2,654.6,273.2,656.3,273.2z"/>
<path class="st3" d="M617,281.5c-25.6,10.9-43.4,29.1-53.7,54.8C573.6,310.7,591.8,292.3,617,281.5z"/>
<path class="st3" d="M581.7,441.2c-7.2-8-13-17.4-17.6-28.1c5.5,13,13,24,22.3,33C584.8,444.6,583.2,442.9,581.7,441.2z"/>
<path class="st3" d="M190.2,495.4c5.2-12.8,12.2-23.8,21.1-32.9C202.4,471.6,195.4,482.6,190.2,495.4z"/>
<path class="st3" d="M375.5,493.5c0,0.1,0.1,0.1,0.1,0.2C375.6,493.6,375.6,493.6,375.5,493.5c-10.9-25.7-29.1-43.4-54.8-53.7l0,0
	l0,0C346.4,450.1,364.6,467.9,375.5,493.5z"/>
<path class="st3" d="M376.4,570.2c7.1-17.7,9.2-35.3,6.2-53C385.6,534.9,383.5,552.5,376.4,570.2z"/>
<path class="st3" d="M191.1,572.2c-2-4.7-3.6-9.3-4.9-13.9C187.4,562.9,189.1,567.5,191.1,572.2z"/>
<polygon class="st3" points="408.7,571.4 599.1,490.2 599.1,490.2 "/>
<polygon class="st3" points="624.8,550.5 624.8,550.5 656.3,537.1 656.3,537.1 "/>
<path class="st3" d="M564.1,413.1c-2.7-6.4-4.8-12.8-6.2-19.2C559.3,400.3,561.4,406.7,564.1,413.1z"/>
<path class="st3" d="M618.9,466.8c-12.6-5.1-23.5-12-32.5-20.7C595.5,454.9,606.3,461.8,618.9,466.8c12.5,5.1,25,7.6,37.4,7.6l0,0
	C643.9,474.4,631.4,471.9,618.9,466.8z"/>
<path class="st3" d="M617,281.5c7-3,13.9-5.1,20.9-6.5C630.9,276.4,624,278.6,617,281.5z"/>
<path class="st3" d="M560.6,343.6c-5.5,16.8-6.4,33.5-2.7,50.3c1.4,6.4,3.5,12.8,6.2,19.2C554.2,389.9,553.1,366.8,560.6,343.6z"/>
<path class="st3" d="M617,281.5c11.4-4.9,22.8-7.6,34.1-8.2c-4.4,0.2-8.9,0.8-13.3,1.7C630.9,276.4,624,278.6,617,281.5
	c-25.2,10.7-43.4,29.1-53.7,54.8l0,0C573.6,310.7,591.8,292.3,617,281.5z"/>
<path class="st3" d="M656.3,474.4L656.3,474.4c-12.4,0-24.9-2.5-37.4-7.6c-14.9-6-27.3-14.5-37.2-25.6c1.5,1.7,3.1,3.3,4.7,4.9
	c9,8.7,19.9,15.6,32.5,20.7C631.4,471.9,643.9,474.4,656.3,474.4z"/>
<path class="st3" d="M308.5,141.9c-1.9,5.6-1.8,11.8,0.5,17.3c2.2,5.4,6.5,9.7,12,11.9c5.6,2.3,11.9,2.3,17.5,0
	c2.8-1.2,5.3-2.9,7.4-5s3.7-4.7,4.8-7.6c2.1-5.5,2-11.5-0.3-16.9c-2.5-5.9-6.4-10-12.2-12.4c-6.2-2.1-11.7-2.5-17.4,0.5
	c-5.1,2.2-8.9,5.4-11.4,10.1C309.2,140.5,308.8,141.1,308.5,141.9L308.5,141.9z"/>
<path class="st3" d="M321,171.1c5.6,2.3,11.9,2.3,17.5,0c2.8-1.2,5.3-2.9,7.4-5.1c-2.1,2.1-4.6,3.9-7.4,5
	C332.9,173.4,326.6,173.4,321,171.1c-5.4-2.2-9.8-6.5-12-11.9c-2.2-5.5-2.4-11.7-0.5-17.3l0,0c0.3-0.7,0.6-1.4,1-2.1
	c-0.4,0.7-0.7,1.4-1,2.1c-1.9,5.6-1.8,11.8,0.5,17.3C311.2,164.6,315.5,168.9,321,171.1z"/>
<polygon class="st3" points="388.3,280.1 342.2,172.2 336,174.9 356.3,222.6 382,282.8 "/>
<polygon class="st3" points="342.2,172.2 342.2,172.1 335.9,174.8 356.3,222.6 336,174.9 "/>
<path class="st3" d="M384.3,287.2c-38.5,18.4-59,45-61.9,80c-0.2,2.3-0.3,4.7-0.3,7.1l180.4-77c-2.4-2.7-4.8-5.3-7.4-7.6
	c-2.6-2.3-5.2-4.4-8-6.3c-10.1-6.9-21.6-11-34.4-12.1c-2.3-0.2-4.7-0.3-7.1-0.3c-15.7-0.1-33.2,3.8-52.5,11.8l-3.1,1.3
	C388,285,386.1,286,384.3,287.2z"/>
<polygon class="st3" points="502.5,297.4 502.5,297.4 322.1,374.3 "/>
<path class="st0" d="M256.7,436.1c1-0.3,2.1-0.6,3.1-0.8C258.8,435.5,257.7,435.8,256.7,436.1z"/>
<path class="st0" d="M248.4,438.9c1.1-0.4,2.2-0.8,3.2-1.2C250.5,438.1,249.5,438.5,248.4,438.9z"/>
<path class="st0" d="M253.4,437.1c-0.4,0.1-0.8,0.3-1.2,0.4c0.9-0.3,1.8-0.6,2.8-0.9C254.5,436.8,253.9,436.9,253.4,437.1z"/>
<path class="st0" d="M359.6,467.3c0.2,0.2,0.4,0.5,0.6,0.7c0,0,0,0,0,0c4.9,5.9,9.2,12.6,12.9,19.9c-11.1-22.6-28.4-38.6-52.2-48.1
	c-12.7-5.1-25.4-7.6-38-7.6c12.6-0.1,25.2,2.5,37.9,7.6C336.5,446.1,349.4,455.3,359.6,467.3z"/>
<path class="st0" d="M270.4,433.2c-0.2,0-0.4,0.1-0.7,0.1C270,433.3,270.2,433.2,270.4,433.2z"/>
<path class="st0" d="M301.3,434.2c-0.7-0.1-1.3-0.3-2-0.4C300,433.9,300.6,434,301.3,434.2z"/>
<path class="st0" d="M319.5,626.4c-11.8,4.6-23.5,7-35.2,7.1c0,0,0.1,0,0.1,0c12.8-0.1,25.6-2.9,38.4-8.4
	C321.6,625.6,320.6,626,319.5,626.4C319.5,626.4,319.5,626.4,319.5,626.4z"/>
<path class="st0" d="M232.5,619.4c-0.7-0.4-1.4-0.8-2-1.2C231.1,618.6,231.8,619,232.5,619.4z"/>
<path class="st0" d="M222.2,612.6c-0.2-0.2-0.4-0.3-0.6-0.5C221.8,612.3,222,612.4,222.2,612.6z"/>
<path class="st0" d="M225.1,614.8c-0.2-0.1-0.4-0.3-0.6-0.4C224.7,614.5,224.9,614.6,225.1,614.8z"/>
<path class="st0" d="M263.3,434.5c-0.9,0.2-1.8,0.4-2.6,0.6C261.6,434.8,262.5,434.6,263.3,434.5z"/>
<path class="st0" d="M247.1,534c4.7-2,8.4-5.7,10.5-10.3c1.3-2.6,1.8-5.5,1.7-8.4c-0.1,2.4-0.6,4.8-1.6,7.3
	c-2.1,4.6-5.8,8.3-10.5,10.3c-4.8,2-10.2,2.3-15.2,0.6c-1.2,1-1.3,0.6-2,0.3c0.6,0.3,0.8,0.7,1.9,0.8
	C236.9,536.4,242.3,536.1,247.1,534z"/>
<path class="st0" d="M247.4,498.7c-0.2,0-0.5-0.1-0.7-0.1c-0.3,0.3-0.6,0.6-0.9,0.9c0.6,0.2,1.1,0,1.7,0.3c4.8,1.3,8.6,4.8,10.4,9.4
	c0.5,1.3,0.9,2.5,1.2,3.8c-0.2-1.7-0.6-3.4-1.3-4.9C255.9,503.6,252.1,500.1,247.4,498.7z"/>
<path class="st0" d="M275.1,633.1c3,0.3,6.1,0.4,9.1,0.4c-0.9,0-1.8,0-2.7,0C279.4,633.4,277.3,633.3,275.1,633.1z"/>
<path class="st0" d="M281.5,633.5c0.9,0,1.8,0,2.7,0c0,0,0,0,0,0C283.3,633.5,282.4,633.5,281.5,633.5
	C281.5,633.5,281.5,633.5,281.5,633.5z"/>
<path class="st0" d="M304.3,486.1c13.7,4.8,22.6,13.3,28.2,26.3c3.9,9.1,4.8,17.9,3.1,26.8c-0.2,0.8-0.4,1.7-0.6,2.5
	c-0.7,3.1-1.7,6.1-3.1,9.2c-2,4.9-4.7,9.3-8,13.1c3.3-3.9,6-8.3,8.1-13.1c1.6-3.9,2.9-7.8,3.6-11.7c2.1-9.3,1.1-18.4-3-27.9
	c-5.4-12.6-14.9-21.3-28.2-26.3s-26.9-4.5-40.8,1.4c-6.6,2.9-12.7,6.9-17.8,11.9c0.2,0.2,0.5,0.2,0.7,0.3c5-4.6,10.7-8.3,16.9-11
	C277,481.8,291,481.1,304.3,486.1z"/>
<path class="st0" d="M326.8,559.1c-5.9,8.4-14.1,14.8-24.1,19.2C312.8,574.1,321,567.6,326.8,559.1z"/>
<path class="st0" d="M312.8,573.9c-0.2,0.1-0.3,0.2-0.5,0.3C312.5,574.2,312.6,574.1,312.8,573.9z"/>
<path class="st0" d="M273.9,633c-0.5,0-1-0.1-1.5-0.2C272.9,632.9,273.4,633,273.9,633z"/>
<path class="st0" d="M266.9,433.8c-0.5,0.1-1.1,0.2-1.6,0.3C265.8,433.9,266.3,433.9,266.9,433.8z"/>
<path class="st0" d="M295.2,582.1c2.6-0.7,5.1-1.6,7.5-2.7c3.3-1.4,6.3-3,9.1-4.8c-2.8,1.8-5.9,3.4-9.2,4.8
	C300.2,580.5,297.7,581.4,295.2,582.1z"/>
<path class="st0" d="M229.3,617.5c-0.5-0.3-1-0.6-1.5-1C228.3,616.9,228.8,617.2,229.3,617.5z"/>
<path class="st0" d="M162.5,790.3c14.5,14.4,30,27.9,46.5,40.3h0C192.6,818.2,177,804.7,162.5,790.3z"/>
<path class="st0" d="M32.6,473.4c-0.8,138.8,63.9,272.3,176.5,357.2h0C96.5,745.7,31.8,612.2,32.6,473.4z"/>
<polygon class="st0" points="534.2,830.5 534.2,830.6 559.9,826 "/>
<path class="st0" d="M656.3,627.7c-0.7-0.5-1.5-0.9-2.3-1.4C654.8,626.8,655.6,627.2,656.3,627.7z"/>
<path class="st0" d="M329.9,621.7c-0.9,0.4-1.7,0.9-2.6,1.3C328.2,622.6,329.1,622.1,329.9,621.7z"/>
<path class="st0" d="M486.5,820.8c-0.3-0.1-0.5-0.2-0.8-0.3C486,820.6,486.2,820.7,486.5,820.8z"/>
<path class="st0" d="M356.6,830.6c0.1-1.4,0.1-2.8,0.2-4.2c0-0.3,0-0.5,0-0.8c0-0.6,0.1-1.3,0.1-1.9c0-0.8,0.1-1.6,0.2-2.4
	c0,0,0-0.1,0-0.2v0c0,0,0-0.1,0-0.1c0.8-11.2,2.2-22,4.3-32.6c0,0,0-0.1,0-0.1l-0.1,0c0,0.1,0,0.1,0,0.1c-2,10.6-3.4,21.5-4.3,32.7
	v0c0.1,0,0.1,0.1,0,0.2v0c-0.1,0.8-0.1,1.6-0.2,2.4c0,0.6-0.1,1.3-0.1,1.9v0c0,0.3,0,0.5,0,0.8v0v0
	C356.6,827.8,356.6,829.2,356.6,830.6L356.6,830.6z M356.9,823.7c0,0.6-0.1,1.3-0.1,1.9C356.8,824.9,356.8,824.3,356.9,823.7z"/>
<polygon class="st0" points="561.9,830.6 559.9,826 561.9,830.6 "/>
<path class="st0" d="M361.5,788.4C361.5,788.4,361.5,788.4,361.5,788.4l13.9,3.6L361.5,788.4C361.4,788.3,361.4,788.4,361.5,788.4
	L361.5,788.4z"/>
<path class="st0" d="M361.4,788.4c-2.1,10.6-3.5,21.4-4.3,32.6C357.9,809.8,359.3,799,361.4,788.4L361.4,788.4z"/>
<path class="st0" d="M531.8,825.1c-6.7,0.9-13.3,1.3-20.1,1.2c0,0,0,0,0,0c6.7,0.1,13.5-0.3,20.2-1.2c0.5-0.1,1.1-0.2,1.6-0.3
	C532.9,824.9,532.4,825,531.8,825.1z"/>
<path class="st0" d="M434.4,631.7L434.4,631.7l-98.5,42c-17.7,8-34.9,12.1-51.5,12.2c-20.9,0.2-40.9-6-59.9-18.5
	c-0.3-0.2-0.7-0.4-1-0.6c-4.8-3.2-9.6-6.8-14.3-10.9c4.7,4.1,9.5,7.7,14.4,11c34.3,23,71.8,25.2,112.4,6.9L434.4,631.7L434.4,631.7
	L434.4,631.7L434.4,631.7z"/>
<path class="st0" d="M641.3,245.8c2-0.7,4.1-1.3,6.1-1.9C645.4,244.5,643.4,245.2,641.3,245.8z"/>
<path class="st0" d="M491.7,767.9c0.1,0.1,0.2,0.2,0.4,0.3c1.8,1.9,4,3.1,5.6,4.5h0c-1.6-1.4-3.7-2.6-5.6-4.5
	C492,768.1,491.9,768,491.7,767.9z"/>
<polygon class="st0" points="408.7,571.4 423.5,606 408.8,571.5 599.1,490.3 599,490.2 "/>
<path class="st0" d="M335.4,618.7c-1.2,0.7-2.4,1.4-3.7,2.1C333,620.1,334.2,619.4,335.4,618.7z"/>
<polygon class="st0" points="408.7,571.4 408.7,571.4 434.4,631.7 434.4,631.7 "/>
<path class="st0" d="M651,632.5c0.2,0.1,0.3,0.2,0.5,0.3C651.3,632.7,651.2,632.6,651,632.5z"/>
<path class="st0" d="M485.8,761.2c-0.2-0.2-0.3-0.4-0.4-0.5C485.5,760.8,485.7,761,485.8,761.2z"/>
<path class="st0" d="M501.1,764.3L501.1,764.3c-14.1-12.7-21.1-28.4-20.9-46.8c0-5.4,0.7-11,2-16.8c0.1-0.4,0.2-0.8,0.3-1.1
	c-0.5,2-0.9,3.9-1.2,5.9c-0.7,4.1-1.1,8.2-1.1,12.1C480,735.9,487,751.7,501.1,764.3z"/>
<path class="st0" d="M500.6,764.5c-1.2-1.1-2.3-2.2-3.4-3.3c1.1,1.1,2.3,2.3,3.5,3.4l0.5-0.2c0,0-0.1,0-0.1,0s0,0,0.1,0l-0.1-0.1
	L500.6,764.5z"/>
<path class="st0" d="M335.5,618.6c-1.2,0.7-2.4,1.4-3.6,2.1c-0.6,0.3-1.2,0.6-1.8,0.9c-0.9,0.4-1.7,0.9-2.6,1.3
	c-1.5,0.7-3.1,1.4-4.6,2.1c-4.8,2.1-9.6,3.7-14.4,5c-2.4,0.7-4.8,1.2-7.2,1.7c-1.6,0.3-3.2,0.6-4.8,0.8s-3.2,0.4-4.8,0.5
	c-2.4,0.2-4.8,0.3-7.2,0.3c2.4,0,4.8-0.1,7.2-0.3c1.6-0.1,3.2-0.3,4.8-0.5s3.2-0.5,4.8-0.8c2.4-0.5,4.8-1,7.2-1.7
	c4.8-1.3,9.6-3,14.4-5c1.6-0.7,3.1-1.4,4.6-2.1c0.9-0.4,1.7-0.9,2.6-1.3c0.6-0.3,1.2-0.6,1.8-0.9C333.1,620,334.3,619.3,335.5,618.6
	c0.2-0.1,0.4-0.2,0.6-0.3c17.9-10.8,31-26,39.5-46c-5.2,12.3-12.2,22.8-20.9,31.6c7.7-7.7,13.9-16.6,18.9-26.9
	c0.1-0.1,0.1-0.3,0.2-0.4c0.6-1.3,1.2-2.6,1.7-3.9c0.3-0.8,0.7-1.6,1-2.4c8-20.1,9.7-39.9,4.9-59.9c-0.1-0.4-0.2-0.7-0.3-1.1
	c-0.1-0.3-0.2-0.6-0.2-1c-1.3-4.9-3-9.7-5.1-14.7c0-0.1-0.1-0.1-0.1-0.2c-4.1-9.6-9.2-18.1-15.3-25.5c0,0,0,0,0,0
	c-0.2-0.2-0.4-0.5-0.6-0.7c-10.2-12-23.1-21.2-38.8-27.5c0,0-0.1,0-0.1,0s0,0,0.1,0c-5.9-2.3-11.7-4-17.5-5.2
	c5.7,1.2,11.5,3,17.3,5.2c25.7,10.3,43.9,28,54.8,53.7c0,0.1,0.1,0.1,0.1,0.2c3.3,7.8,5.7,15.7,7,23.5c3,17.7,0.9,35.3-6.2,53
	c-0.3,0.7-0.6,1.3-0.9,2c-10.4,24.6-27.9,42.2-52.8,52.8c-17.2,7.3-34.3,9.8-51.4,7.6c-8.4-1.2-16.8-3.4-25.3-6.8
	c-4.7-1.9-9.1-4-13.3-6.4c4.2,2.4,8.7,4.6,13.4,6.5c0,0,0,0,0,0c0.8,0.3,1.6,0.6,2.4,0.9c0.3,0.1,0.7,0.3,1,0.4
	c0.7,0.2,1.3,0.5,2,0.7c0.7,0.2,1.4,0.5,2,0.7c0.5,0.2,1.1,0.3,1.6,0.5c2.6,0.8,5.3,1.5,7.9,2.1c0.5,0.1,0.9,0.2,1.4,0.3
	c0.9,0.2,1.7,0.4,2.6,0.5c0.1,0,0.2,0,0.2,0c0.9,0.2,1.7,0.3,2.6,0.4c2.2,0.3,4.3,0.6,6.5,0.7c0,0,0,0,0,0c0.8,0.1,1.5,0.1,2.3,0.1
	c13.7,0.7,27.3-1.6,41-6.9c0,0,0,0,0,0c1.1-0.4,2.1-0.9,3.2-1.3c4.7-2,9.1-4.3,13.3-6.8C335.8,618.4,335.7,618.5,335.5,618.6z"/>
<path class="st0" d="M322.4,367.2c-0.1,2.3-0.3,4.7-0.3,7.1l180.4-76.9c-2.4-2.8-4.8-5.3-7.4-7.6c-2.6-2.3-5.2-4.4-8-6.3
	c-10.1-6.9-21.6-10.9-34.4-12.1c-2.3-0.2-4.7-0.3-7.1-0.3c-15.7-0.1-33.2,3.8-52.5,11.8l-3.1,1.2c-2,0.8-3.9,1.8-5.7,3
	C345.8,305.5,325.3,332.2,322.4,367.2z"/>
<polygon class="st0" points="342.2,172.2 335.9,174.9 356.3,222.6 382,282.9 388.2,280.3 342.2,172.3 "/>
<path class="st0" d="M653.4,242.4c-2,0.5-4,1-6,1.5C649.4,243.4,651.4,242.9,653.4,242.4z"/>
<path class="st0" d="M321.1,171.2c5.6,2.3,11.9,2.3,17.5,0c2.8-1.2,5.3-2.9,7.4-5.1s3.7-4.7,4.8-7.6c2.1-5.5,2-11.5-0.3-16.9
	c-2.5-5.9-6.4-10.1-12.2-12.4c-6.3-2.1-11.7-2.4-17.4,0.5c-5.1,2.2-9,5.4-11.4,10.1c-0.4,0.7-0.7,1.4-1,2.1
	c-1.9,5.6-1.7,11.8,0.6,17.4C311.3,164.7,315.6,169,321.1,171.2z"/>
<path class="st0" d="M367,767c4.2-14.2,9.6-28.1,16.3-41.3C376.7,738.9,371.2,752.7,367,767z"/>
<polygon class="st0" points="595.7,499.6 618.3,552.6 618.3,552.6 595.7,499.5 417.9,575.4 418,575.4 "/>
<path class="st0" d="M447.5,644.8l0-0.1c-17.8,15.6-33.3,31.8-45.8,49.8l0,0C414.2,676.5,429.7,660.4,447.5,644.8z"/>
<path class="st0" d="M363.4,780.5c0,0.1,0,0.1,0,0.2l21.3,6.3c5.5-24.8,14.7-48.6,27.3-70.7l0,0c-12.6,22.1-21.8,45.9-27.3,70.5
	L363.4,780.5z"/>
<path class="st0" d="M346.7,611c-0.8,0.6-1.6,1.3-2.4,1.9c-1.2,0.9-2.4,1.7-3.6,2.5c0,0-0.1,0.1-0.1,0.1c-1.5,1-3,2-4.6,2.9
	c7.2-4.3,13.7-9.4,19.4-15.2c-2.4,2.4-4.9,4.7-7.6,6.9C347.4,610.4,347,610.7,346.7,611z"/>
<path class="st0" d="M281.5,633.5c-2.2,0-4.4-0.2-6.6-0.4c0.1,0,0.1,0,0.2,0C277.3,633.3,279.4,633.4,281.5,633.5
	C281.5,633.5,281.5,633.5,281.5,633.5z"/>
<path class="st0" d="M271.9,632.8c1.4,0.2,2.9,0.3,4.3,0.4c-2.2-0.2-4.3-0.4-6.5-0.7c0.4,0.1,0.9,0.1,1.3,0.2
	C271.3,632.7,271.6,632.7,271.9,632.8z"/>
<path class="st0" d="M284.2,633.5C284.2,633.5,284.2,633.5,284.2,633.5c-0.9,0-1.8,0-2.7,0C282.4,633.5,283.3,633.5,284.2,633.5z"/>
<path class="st0" d="M276.2,633.2c0.8,0.1,1.5,0.1,2.3,0.1C277.7,633.3,277,633.3,276.2,633.2z"/>
<path class="st0" d="M272.2,632.8c0.1,0,0.2,0,0.2,0c0.5,0.1,1,0.1,1.5,0.2c0.1,0,0.1,0,0.2,0C273.5,633,272.8,632.9,272.2,632.8z"
	/>
<polygon class="st0" points="408.7,571.4 434.4,631.7 434.5,631.7 423.5,606 408.7,571.4 "/>
<path class="st0" d="M356.9,823.7c0.1-0.8,0.1-1.6,0.2-2.4C357,822.1,356.9,822.9,356.9,823.7z"/>
<polygon class="st0" points="418,575.4 417.9,575.4 433.8,612.6 "/>
<polygon class="st1" points="656.3,698.2 597.9,723.1 616.3,715.3 "/>
<path class="st1" d="M319.5,626.4C319.5,626.4,319.5,626.4,319.5,626.4C319.5,626.4,319.5,626.4,319.5,626.4z"/>
<path class="st1" d="M276.2,633.2C276.2,633.2,276.2,633.2,276.2,633.2C276.2,633.2,276.2,633.2,276.2,633.2z"/>
<path class="st1" d="M322.7,625.1c-1.1,0.5-2.1,0.9-3.2,1.3C320.6,626,321.6,625.6,322.7,625.1z"/>
<path class="st1" d="M278.5,633.3c1,0.1,2,0.1,3.1,0.1c0.9,0,1.8,0,2.7,0c0,0,0,0,0,0c11.7-0.1,23.4-2.5,35.2-7.1
	C305.8,631.8,292.1,634,278.5,633.3z"/>
<path class="st1" d="M272.2,632.8c0.6,0.1,1.3,0.2,1.9,0.2c0.3,0,0.6,0.1,0.8,0.1c2.2,0.2,4.4,0.3,6.6,0.4c-1,0-2-0.1-3.1-0.1
	c-0.7,0-1.5-0.1-2.3-0.1c0,0,0,0,0,0c-1.4-0.1-2.9-0.2-4.3-0.4C272,632.8,272.1,632.8,272.2,632.8z"/>
<path class="st0" d="M271,632.7c-0.4-0.1-0.9-0.1-1.3-0.2c-0.8-0.1-1.5-0.2-2.3-0.4C268.6,632.3,269.8,632.5,271,632.7z"/>
<path class="st0" d="M253.4,628.6c0.5,0.2,1.1,0.3,1.6,0.5C254.5,629,253.9,628.8,253.4,628.6z"/>
<path class="st0" d="M249.4,627.2c0.7,0.2,1.3,0.5,2,0.7C250.7,627.7,250.1,627.5,249.4,627.2z"/>
<path class="st0" d="M246.1,626c0.8,0.3,1.5,0.6,2.3,0.9C247.6,626.6,246.8,626.3,246.1,626C246.1,626,246.1,626,246.1,626z"/>
<path class="st0" d="M264.3,631.5c0.9,0.2,1.7,0.4,2.6,0.5C266,631.8,265.1,631.7,264.3,631.5z"/>
<path class="st0" d="M269.7,632.5c-0.9-0.1-1.7-0.3-2.6-0.4c0.1,0,0.2,0,0.3,0.1C268.2,632.2,268.9,632.3,269.7,632.5z"/>
<path class="st1" d="M271.2,632.6c17.1,2.2,34.2-0.3,51.4-7.6c24.9-10.6,42.4-28.2,52.8-52.8c0.3-0.7,0.6-1.3,0.9-2
	c7.1-17.7,9.2-35.3,6.2-53c-1.3-7.8-3.7-15.7-7-23.5c0-0.1-0.1-0.1-0.1-0.2c-10.9-25.7-29.1-43.4-54.8-53.7
	c-5.8-2.3-11.5-4-17.3-5.2c-0.7-0.1-1.4-0.3-2.1-0.4c-0.7-0.1-1.3-0.3-2-0.4c-9.7-1.7-19.3-1.8-28.9-0.6c-0.2,0-0.4,0.1-0.7,0.1
	c-1,0.1-1.9,0.3-2.9,0.5c-0.5,0.1-1.1,0.2-1.6,0.3c-0.6,0.1-1.3,0.3-1.9,0.4c-0.9,0.2-1.8,0.4-2.6,0.6c-0.3,0.1-0.6,0.1-0.9,0.2
	c0,0,0,0,0,0c-1,0.3-2.1,0.5-3.1,0.8c-0.6,0.2-1.1,0.3-1.7,0.5c-0.9,0.3-1.8,0.6-2.8,0.9c-0.2,0.1-0.4,0.1-0.6,0.2
	c-1.1,0.4-2.2,0.8-3.2,1.2c-1.4,0.5-2.9,1.1-4.3,1.7c-0.9,0.4-1.7,0.8-2.6,1.2c-5.7,2.6-11,5.6-16,9c4.9-3.3,10.2-6.3,15.9-8.9
	c-10.6,4.8-19.7,10.9-27.5,18.3c-0.1,0.1-0.2,0.2-0.3,0.3c-1,0.9-1.9,1.9-2.8,2.8c-0.2,0.2-0.3,0.4-0.5,0.6c-0.9,1-1.8,1.9-2.7,3
	c-0.1,0.1-0.1,0.2-0.2,0.2c-7,8.1-12.6,17.6-17,28.3c-10.3,25.7-10.1,51.2,0.8,76.8c2.2,5.2,4.8,10,7.6,14.6
	c6.1,10,13.7,18.4,22.8,25.3c0.2,0.2,0.4,0.3,0.6,0.5c0.8,0.6,1.5,1.1,2.3,1.7c0.2,0.1,0.4,0.3,0.6,0.4c0.9,0.6,1.8,1.2,2.7,1.8
	c0.5,0.3,1,0.6,1.5,1c0.4,0.2,0.8,0.5,1.1,0.7c0.7,0.4,1.4,0.8,2,1.2c0,0,0.1,0,0.1,0.1c4.2,2.4,8.6,4.5,13.3,6.4
	C254.4,629.2,262.8,631.4,271.2,632.6z M233.5,554.6c-1.2-3.3-2.1-6.5-2.7-9.6c-0.6-2.9-0.9-5.9-0.9-9c0-0.8,0.1-1.5,0.1-2.2
	c0,0,0,0,0,0c0.7,0.3,0.8,0.7,2-0.3c5,1.7,10.4,1.4,15.2-0.6c4.7-2,8.4-5.7,10.5-10.3c1-2.5,1.5-4.9,1.6-7.3c0-0.3,0-0.6-0.1-0.9
	c0-0.5-0.1-0.9-0.1-1.4c-0.3-1.3-0.7-2.6-1.2-3.8c-1.8-4.6-5.6-8.1-10.4-9.4c-0.6-0.3-1.1-0.1-1.7-0.3c0.3-0.3,0.6-0.6,0.9-0.9
	c-0.1,0-0.1,0-0.2,0c0,0,0,0,0,0c-0.2-0.1-0.5-0.1-0.7-0.3c5.1-5,11.2-9,17.8-11.9c13.9-5.9,27.5-6.4,40.8-1.4s22.8,13.7,28.2,26.3
	c4.1,9.5,5.1,18.6,3,27.9c-0.7,3.9-2,7.8-3.6,11.7c-2.1,4.9-4.8,9.2-8.1,13.1c-3.2,3.8-6.9,7.1-11.2,9.9c-0.2,0.1-0.3,0.2-0.5,0.3
	c-0.2,0.1-0.3,0.2-0.5,0.3c-2.8,1.8-5.9,3.4-9.1,4.8c-2.5,1.1-5,2-7.5,2.7c-11,3.1-22.7,2.7-33.5-1.2
	C248,576.1,239.1,567.6,233.5,554.6z"/>
<path class="st1" d="M213.6,460.5C213.6,460.5,213.6,460.5,213.6,460.5c0.1-0.1,0.2-0.2,0.3-0.3c0,0,0.1-0.1,0.1-0.1
	C213.9,460.2,213.7,460.3,213.6,460.5z"/>
<path class="st1" d="M216.8,457.5c0.2-0.2,0.4-0.4,0.7-0.6C217.3,457.1,217,457.3,216.8,457.5z"/>
<path class="st1" d="M210.6,463.4c0,0,0.1-0.1,0.1-0.1c0,0,0,0,0,0C210.7,463.3,210.7,463.4,210.6,463.4z"/>
<path class="st1" d="M220,454.9c0.4-0.3,0.8-0.6,1.2-1C220.8,454.3,220.4,454.6,220,454.9z"/>
<path class="st1" d="M223,452.6c0.7-0.5,1.4-1,2.1-1.5C224.3,451.6,223.7,452.1,223,452.6z"/>
<path class="st2" d="M230,536c-0.1,3.5,0.4,7.1,1.3,10.8c0.6,2.3,1.4,4.5,2.3,6.7c1.3,3.1,3,6.1,4.8,8.7c0.9,1.3,1.9,2.6,3,3.8
	c1.6,1.8,3.3,3.5,5.2,5.1c1.2,1,2.5,2,3.9,2.9c3.4,2.3,7.2,4.2,11.3,5.8c13.3,5,27,4.4,40.9-1.5c10-4.3,18.2-10.8,24.1-19.2
	c2-2.9,3.7-6,5.1-9.3c1.6-3.6,2.8-7.1,3.6-10.6c-0.1,0.8-0.3,1.7-0.5,2.5c0.2-0.8,0.4-1.7,0.6-2.5c1.7-8.9,0.8-17.7-3.1-26.8
	c-5.6-13-14.5-21.5-28.2-26.3c-13.3-5-27.3-4.3-40.9,1.5c-6.2,2.7-11.9,6.4-16.9,11c0.1,0,0.1,0,0.2,0c0,0,0,0,0,0
	c0.2,0,0.5,0.1,0.7,0.1c4.7,1.4,8.5,4.9,10.4,9.4c0.7,1.6,1.1,3.2,1.3,4.9c0.1,0.5,0.2,0.9,0.2,1.4c0,0.3,0,0.6,0,0.9
	c0.1,2.9-0.4,5.8-1.7,8.4c-2.1,4.6-5.8,8.3-10.5,10.3c-4.8,2.1-10.2,2.4-15.2,0.6c-1.1-0.1-1.3-0.5-1.9-0.8c0,0,0,0,0,0
	C230,534.6,230,535.3,230,536z"/>
<path class="st2" d="M259.1,513c0,0.5,0.1,0.9,0.1,1.4c0,0.3,0,0.6,0.1,0.9c0-0.3,0-0.6,0-0.9C259.2,513.9,259.2,513.5,259.1,513z"
	/>
<path class="st2" d="M246.5,498.6C246.5,498.6,246.5,498.6,246.5,498.6c0,0,0.1,0.1,0.1,0.1c0,0,0,0,0,0
	C246.6,498.6,246.6,498.6,246.5,498.6z"/>
<path class="st2" d="M229.9,536c0,1.3,0.1,2.5,0.2,3.8c0.2,2.3,0.6,4.7,1.2,6.9C230.4,543.1,229.9,539.5,229.9,536
	c0.1-0.7,0.1-1.4,0.1-2.2c0,0,0,0,0,0c0,0,0,0,0,0C230,534.5,229.9,535.2,229.9,536c0,3,0.3,6,0.9,9c-0.3-1.7-0.6-3.4-0.7-5.1
	C230,538.6,229.9,537.3,229.9,536z"/>
<path class="st2" d="M335,541.7c-0.7,2.7-1.7,5.4-3,8.1c-1.4,3.3-3.2,6.4-5.2,9.3c-5.8,8.4-14,14.9-24.1,19.2
	c-14,6-27.6,6.5-40.9,1.5c-4.2-1.6-7.9-3.5-11.3-5.8c-1.4-0.9-2.7-1.9-3.9-2.9c-1.9-1.6-3.6-3.2-5.2-5.1c-1.1-1.2-2-2.5-3-3.8
	c-1.9-2.7-3.5-5.6-4.8-8.7c-0.8-1.7-1.4-3.5-2-5.4c0.5,2.1,1.2,4.3,2,6.5c5.5,13.1,14.5,21.5,28.2,26.3c10.8,3.9,22.5,4.2,33.4,1.2
	c2.5-0.7,5-1.6,7.4-2.7c3.3-1.4,6.4-3,9.2-4.8c0.2-0.1,0.3-0.2,0.5-0.3c0.2-0.1,0.3-0.2,0.5-0.3c4.3-2.8,8-6.1,11.2-9.9
	c3.2-3.9,5.9-8.3,8-13.1C333.2,547.8,334.3,544.8,335,541.7z"/>
<path class="st2" d="M312.3,574.3c-0.2,0.1-0.3,0.2-0.5,0.3C312,574.5,312.2,574.4,312.3,574.3z"/>
<path class="st2" d="M312.8,573.9c4.3-2.8,8-6.1,11.2-9.9C320.8,567.8,317,571.1,312.8,573.9z"/>
<path class="st2" d="M295.2,582.1c-10.9,3-22.6,2.7-33.4-1.2c-13.7-4.8-22.7-13.2-28.2-26.3c-0.8-2.2-1.4-4.4-2-6.5
	c-0.3-1-0.6-2.1-0.8-3.2c0.6,3.1,1.5,6.4,2.7,9.6c5.6,13,14.5,21.5,28.2,26.3C272.5,584.8,284.2,585.2,295.2,582.1z"/>
<path class="st2" d="M302.7,578.3c-13.9,5.9-27.6,6.5-40.9,1.5c-4.2-1.6-7.9-3.5-11.3-5.8c3.4,2.3,7.2,4.2,11.3,5.8
	C275.1,584.8,288.7,584.3,302.7,578.3z"/>
<path class="st2" d="M238.4,562.2c0.9,1.3,1.9,2.6,3,3.8C240.3,564.8,239.3,563.6,238.4,562.2z"/>
<path class="st2" d="M238.4,562.2c-1.9-2.7-3.5-5.6-4.8-8.7c-0.9-2.2-1.7-4.4-2.3-6.7c0.1,0.4,0.2,0.9,0.3,1.3
	c0.5,1.8,1.2,3.6,2,5.4C235,556.6,236.6,559.6,238.4,562.2z"/>
<path class="st2" d="M246.6,571.1c1.2,1,2.5,2,3.9,2.9C249.1,573.1,247.8,572.1,246.6,571.1z"/>
<path class="st2" d="M335,541.7c0.2-0.8,0.4-1.7,0.5-2.5c-0.8,3.5-2,7-3.6,10.6c-1.4,3.3-3.1,6.5-5.1,9.3c2-2.9,3.8-6,5.2-9.3
	C333.3,547.1,334.2,544.4,335,541.7z"/>
<path class="st2" d="M230.1,539.8c-0.1-1.3-0.2-2.6-0.2-3.8C229.9,537.3,230,538.6,230.1,539.8z"/>
<path class="st2" d="M231.3,546.8c-0.6-2.3-1-4.6-1.2-6.9c0.2,1.7,0.4,3.4,0.7,5.1c0.2,1.1,0.5,2.1,0.8,3.2
	C231.5,547.7,231.4,547.2,231.3,546.8z"/>
<path class="st0" d="M491.7,767.9c0.1,0.1,0.2,0.2,0.4,0.3c1.9,1.9,4,3.1,5.6,4.5l0.1,0c-1.7-1.4-3.8-2.6-5.6-4.5
	c-19.3-17.8-25.4-40.8-17-69.9c0.2-0.8,0.4-1.5,0.6-2.2c0-0.2,0.1-0.5,0.1-0.7c-0.3,1-0.5,1.9-0.8,2.9c0,0,0,0,0,0
	C466.9,727.2,472.7,750,491.7,767.9z"/>
<path class="st0" d="M492.3,768.2c1.7,1.9,3.8,3.1,5.5,4.5l0.3-0.1c-2.2-1.6-3.8-3-5.4-4.3c-2.5-2.3-4.8-4.6-6.9-7
	c-0.2-0.2-0.3-0.4-0.4-0.5c-0.3-0.4-0.6-0.8-1-1.2c-13-16.3-15.9-36.7-8.8-61.3c0-0.6,0.1-1.2,0.1-1.8c-0.2,0.6-0.3,1.2-0.4,1.9
	C467,727.4,473,750.3,492.3,768.2z"/>
<path class="st0" d="M501.1,764.3c-14.2-12.6-21.2-28.4-21-46.8c0-2.6,0.2-5.2,0.5-7.8c-2.6,20.5,2.9,37.6,16.6,51.5
	c1.1,1.1,2.2,2.2,3.4,3.3L501.1,764.3z"/>
<path class="st0" d="M480.1,717.5c-0.2,18.4,6.8,34.2,21,46.8C487,751.7,480,735.9,480.1,717.5z"/>
<path class="st1" d="M485.8,761.2c2,2.4,4.2,4.6,6.7,6.8c1.6,1.4,3.3,2.8,5.6,4.5l158.1-67.4v0l0.1,0l-0.1,0v0.1l0.1,0l-0.1,0v0
	l0.2-0.1v-6.9l-155.2,66.1l-0.5,0.2c-1.2-1.1-2.4-2.2-3.5-3.4c-16.1-16.4-20.9-37.1-14.6-62.7c0.3-1.3,0.6-2.6,1-3.8
	c-0.4,1.3-0.7,2.6-1,3.8c-0.2,0.7-0.3,1.4-0.5,2.2c-0.3,1.6-0.6,3.2-0.9,4.7c0.3-1.9,0.7-3.9,1.2-5.9c0.4-1.6,0.8-3.2,1.2-4.9
	l157.9-67.5c0.1,0,0.1,0.1,0.2,0.1l0.2-0.1c0,0,0,0,0,0l0.1,0c2.5,1.3,4.9,2.6,7.2,4.1c-2.3-1.4-4.7-2.8-7.2-4.1l-0.1,0
	c2.6,1.3,4.9,2.7,7.2,4.1c0.6,0.4,1.2,0.8,1.8,1.2c0.2,0.1,0.3,0.2,0.5,0.3c0.5,0.3,0.9,0.7,1.4,1c0.6,0.4,1.2,0.8,1.7,1.2
	c-0.6-0.4-1.1-0.8-1.7-1.2c1.2,0.8,2.3,1.6,3.4,2.5c-0.5-0.5-1.1-0.9-1.7-1.3c0.6,0.4,1.1,0.8,1.7,1.3v0c0,0,0.1,0.1,0.1,0.1v-8.6
	c-1.6-1-3.3-2-5.1-3c-0.6-0.3-1.1-0.6-1.7-0.8c-2.3-1.5-4.7-2.8-7.3-3.7l-164.6,70.2v0.1c-0.2,0.5-0.4,1-0.6,1.5
	c-0.4,1.2-0.8,2.4-1.1,3.5c-0.2,0.9-0.3,1.8-0.3,2.8c-7.1,24.5-4.2,44.8,8.7,61.1c0.3,0.4,0.6,0.8,1,1.2
	C485.5,760.8,485.7,761,485.8,761.2z M652.9,633.8c-1.2-0.9-2.4-1.7-3.7-2.5C650.5,632.1,651.7,632.9,652.9,633.8z"/>
<path class="st1" d="M652.9,633.8c0.6,0.4,1.2,0.8,1.7,1.2c0.6,0.4,1.1,0.8,1.7,1.3C655.2,635.4,654.1,634.6,652.9,633.8z"/>
<path class="st1" d="M642.1,627.2c2.5,1.3,4.9,2.7,7.2,4.1C647,629.8,644.6,628.5,642.1,627.2z"/>
<path class="st1" d="M498.1,772.5c-2.3-1.7-4-3.1-5.6-4.5c-2.5-2.2-4.7-4.5-6.7-6.8c2.1,2.4,4.4,4.8,6.9,7
	C494.2,769.5,495.9,770.9,498.1,772.5L498.1,772.5L498.1,772.5z"/>
<path class="st1" d="M484.4,759.5c0.3,0.4,0.6,0.8,1,1.2C485,760.3,484.7,759.9,484.4,759.5z"/>
<path class="st1" d="M480.6,709.7c0.3-2.9,0.8-5.9,1.5-9c0.1-0.7,0.3-1.4,0.5-2.2c-6.3,25.6-1.5,46.4,14.6,62.7
	C483.5,747.3,478,730.2,480.6,709.7z"/>
<path class="st1" d="M482.6,698.5c0.3-1.3,0.6-2.5,1-3.8C483.2,696,482.9,697.3,482.6,698.5z"/>
<path class="st0" d="M208.5,429.7c-68.8,30.9-82,90.8-39.8,178.6C126.5,520.5,139.8,460.6,208.5,429.7z"/>
<polygon class="st0" points="656.3,590.7 656.3,590.7 656.3,590.6 656.3,590.6 "/>
<path class="st0" d="M32.6,473.4c-0.8,138.8,63.9,272.3,176.5,357.2h147.3c0.1-1.4,0.1-2.8,0.2-4.2c0-0.3,0-0.5,0-0.8v0
	c0-0.6,0.1-1.3,0.1-1.9c0.1-0.8,0.1-1.6,0.2-2.4v0c0,0,0,0,0,0c0-0.1,0-0.2,0-0.2c0,0,0,0,0,0v0c0.9-11.2,2.3-22.1,4.3-32.7
	c0,0,0,0,0-0.1l0.1,0v0v0l14,3.7l7.7,2c-2.3,12.1-3.9,24.3-4.7,36.6h155.8l0,0l0-0.1l25.7-4.5l2,4.6h94.5v-49.3
	c-21.4,9.6-38.7,16.9-50.8,22.1c-17.5,7.5-33.7,13.3-48.1,16.8c-9.1,2.3-17.5,3.7-25.5,5c-6.7,0.9-13.5,1.3-20.2,1.2
	c-8.7-0.5-16.6-2.2-23.9-5c-0.5-0.2-1-0.4-1.5-0.6c-0.3-0.1-0.5-0.2-0.8-0.3c-17.3-7.4-30.4-21.6-39.3-42.3
	c-8.7-20.2-9.7-47.5-2.9-82.8c1.8-8.2,4.2-17.7,6.8-28.2c0.2-1.3,0.5-2.8,0.9-4.4c0.2-1.1,0.5-2.3,0.8-3.5c0.3-1.7,0.8-3.4,1.2-5.1
	c1.5-5.4,3.4-12.1,5.6-19.4c0.8-2.9,1.9-5.5,2.7-8.5l147.1-62.7c2.8,1.5,6.2,3.2,10.4,5.7l0.5-0.2c2.1,1.2,4.8,2.7,7.6,4.2
	c2.4,1.2,4.7,2.5,7,3.8c0.7,0.4,1.4,0.8,2.1,1.2c3.9,2.3,7.7,4.6,11.4,7c2.7,1.7,5.8,3.5,8.7,5.2v0.1l0,0V582l-25.4-15.6
	c0,0,0.1,0,0.1,0l-0.1-0.1c0,0,0.1,0,0.1,0l-0.1-0.1l0.1,0.1c8.6-0.8,17-1.3,25.3-1.4v-27.7l-31.5,13.4l-0.1-0.1l0,0l-25.6-60.2
	l-190.3,81.2l14.7,34.5l11,25.7h0l0,0.1l-98.5,42c-40.6,18.3-78.1,16.1-112.4-6.9c-4.9-3.2-9.6-6.9-14.4-11
	c-14.1-12.2-27.6-28-40.5-47.6c-42.2-87.8-29-147.7,39.8-178.6L632,249.2c3.2-1.2,6.3-2.4,9.3-3.4c2-0.7,4.1-1.3,6.1-1.9
	c2-0.6,4-1.1,6-1.5c1-0.2,2-0.4,3-0.6v-171C600.7,46,539.5,32.5,476.2,32.5h-1.3c-172.3,0.6-328,100.7-400.4,255.8
	c-2.3,5-4.6,10.1-6.8,15.2C44.3,359,33,416.7,32.6,473.4z M417.9,575.4l177.8-75.9l22.6,53.1l0,0l0,0.1l-177.7,75.8L417.9,575.4z
	 M401.7,694.5c12.5-18,28-34.2,45.8-49.8l0,0.1c0,0,0,0,0,0l-7,32.2c-6.8,8.2-13.3,16.7-19.4,25.5c-1.3,1.9-2.7,3.9-4,5.8
	L401.7,694.5C401.7,694.6,401.7,694.6,401.7,694.5L401.7,694.5z M363.4,780.6C363.4,780.6,363.4,780.5,363.4,780.6L363.4,780.6
	c1.1-4.6,2.3-9.2,3.6-13.6c4.2-14.3,9.6-28.1,16.3-41.3c3.9-7.8,8.2-15.5,12.9-22.9l15.8,13.5c0,0,0,0,0,0.1l0,0
	c-12.6,22.1-21.8,45.9-27.3,70.7l-21.3-6.3C363.4,780.6,363.4,780.6,363.4,780.6L363.4,780.6C363.4,780.5,363.4,780.6,363.4,780.6z
	 M393.1,282.9c19.3-8,36.8-11.9,52.5-11.8c2.4,0,4.8,0.1,7.1,0.3c12.8,1.2,24.3,5.2,34.4,12.1c2.8,1.9,5.4,4,8,6.3
	c2.6,2.3,5,4.8,7.4,7.6l-180.4,76.9c0-2.4,0.2-4.8,0.3-7.1c2.9-35,23.4-61.7,61.9-80.1c1.8-1.2,3.7-2.2,5.7-3L393.1,282.9z
	 M382,282.9l-25.7-60.3l-20.4-47.7l6.3-2.7v0.1l46,108L382,282.9z M308.5,141.9c0.3-0.7,0.6-1.4,1-2.1c2.4-4.7,6.3-7.9,11.4-10.1
	c5.7-2.9,11.1-2.6,17.4-0.5c5.8,2.3,9.7,6.5,12.2,12.4c2.3,5.4,2.4,11.4,0.3,16.9c-1.1,2.9-2.7,5.4-4.8,7.6s-4.6,3.9-7.4,5.1
	c-5.6,2.3-11.9,2.3-17.5,0c-5.5-2.2-9.8-6.5-12-11.9C306.8,153.7,306.6,147.5,308.5,141.9z"/>
<path class="st0" d="M634.1,577c0.7,0.4,1.4,0.8,2.1,1.2C635.5,577.8,634.8,577.4,634.1,577z"/>
<polygon class="st0" points="656.3,590.6 656.3,590.6 656.3,590.5 656.3,590.5 "/>
<polygon class="st0" points="434.5,631.7 423.5,606 434.5,631.7 "/>
<polygon class="st0" points="433.8,612.6 417.9,575.4 440.6,628.5 "/>
<path class="st3" d="M631,566.4l25.3,15.5v-0.1l-25.1-15.4C631.1,566.4,631.1,566.4,631,566.4z"/>
<path class="st3" d="M656.3,581.8V565c-8.2,0.2-16.6,0.6-25.1,1.4L656.3,581.8z"/>
<path class="st3" d="M631.2,566.4c8.5-0.8,16.9-1.2,25.1-1.4v-0.1c-8.3,0.1-16.7,0.6-25.3,1.4L631.2,566.4z"/>
<path class="st3" d="M631,566.3c0,0-0.1,0-0.1,0l0.1,0.1c0,0,0.1,0,0.1,0L631,566.3z"/>
<polygon class="st3" points="561.9,830.6 559.9,826 534.2,830.6 534.2,830.6 "/>
<polygon class="st3" points="534.2,830.6 534.2,830.6 534.2,830.6 "/>
<polygon class="st3" points="418,575.4 433.8,612.6 440.6,628.4 618.3,552.6 595.7,499.6 "/>
<polygon class="st3" points="433.8,612.6 440.6,628.5 618.3,552.7 618.3,552.6 440.6,628.4 "/>
<path class="st3" d="M361.5,788.4L383,794l-7.6-2L361.5,788.4C361.5,788.4,361.5,788.4,361.5,788.4z"/>
<path class="st3" d="M383,794l-21.5-5.6c-2.2,10.6-3.6,21.4-4.4,32.6c0,0,0,0.1,0,0.1c0,0.1,0,0.2,0,0.2c-0.1,0.8-0.1,1.6-0.2,2.4
	c0,0.6-0.1,1.3-0.1,1.9c0,0.3,0,0.5,0,0.8c-0.1,1.4-0.1,2.8-0.2,4.2h21.7C379.1,818.3,380.7,806.1,383,794z"/>
<path class="st3" d="M357.1,821.1L357.1,821.1c0,0,0-0.1,0-0.1C357.1,821,357.1,821.1,357.1,821.1z"/>
<path class="st3" d="M378.3,830.6L378.3,830.6c0.9-12.3,2.5-24.5,4.8-36.6l-7.7-2l7.6,2C380.7,806.1,379.1,818.3,378.3,830.6z"/>
<path class="st3" d="M356.8,825.6c0-0.6,0.1-1.3,0.1-1.9C356.8,824.3,356.8,824.9,356.8,825.6z"/>
<path class="st3" d="M356.7,826.4c-0.1,1.4-0.1,2.8-0.2,4.2h0C356.6,829.2,356.6,827.8,356.7,826.4z"/>
<path class="st3" d="M357,821.1c0,0,0,0.1,0,0.2C357.1,821.2,357.1,821.1,357,821.1z"/>
<path class="st3" d="M357,821.1c0,0,0,0.1,0,0.2c0,0,0,0,0,0C357,821.2,357,821.1,357,821.1C357,821.1,357,821.1,357,821.1z"/>
<path class="st3" d="M365,774.2c-0.5,2.1-1.1,4.2-1.6,6.3l21.3,6.3c5.5-24.7,14.7-48.5,27.3-70.5l-15.8-13.5
	C382.3,724.9,371.7,749,365,774.2z"/>
<path class="st3" d="M396.2,702.8c-4.7,7.4-9,15-12.9,22.8c-6.6,13.3-12,27.1-16.3,41.3c-0.7,2.2-1.3,4.5-1.9,6.7
	C371.9,748.6,382.3,724.7,396.2,702.8z"/>
<path class="st3" d="M412,716.3C412,716.2,412,716.2,412,716.3l-15.8-13.5L412,716.3z"/>
<path class="st3" d="M367,767c-1.3,4.5-2.6,9-3.6,13.5l0,0c0.5-2.3,1.1-4.6,1.7-6.8C365.8,771.4,366.4,769.2,367,767z"/>
<path class="st3" d="M412,716.2l-15.8-13.5c-4.7,7.4-9,15.1-12.9,22.9c3.9-7.8,8.2-15.4,12.9-22.8L412,716.2z"/>
<path class="st3" d="M365,774.2c-0.6,2.1-1.1,4.2-1.6,6.3l0,0C363.9,778.4,364.5,776.3,365,774.2z"/>
<path class="st3" d="M363.4,780.6C363.4,780.6,363.4,780.5,363.4,780.6L363.4,780.6C363.4,780.5,363.4,780.6,363.4,780.6z"/>
<path class="st3" d="M365.2,773.7c0,0.2-0.1,0.4-0.2,0.6c6.7-25.3,17.2-49.4,31.2-71.4C382.3,724.7,371.9,748.6,365.2,773.7z"/>
<path class="st3" d="M365.2,773.7c-0.6,2.3-1.2,4.5-1.7,6.8l0,0c0.5-2.1,1-4.2,1.6-6.3C365.1,774.1,365.1,773.9,365.2,773.7z"/>
<path class="st3" d="M440.5,676.9l7-32.1c-17.8,15.6-33.2,31.6-45.7,49.7l15.4,13.7C424.3,697.4,432.1,687,440.5,676.9z"/>
<path class="st3" d="M417.1,708.3c1.3-2,2.6-3.9,4-5.8C419.7,704.4,418.4,706.3,417.1,708.3l-15.4-13.8c0,0,0,0,0,0.1L417.1,708.3z"
	/>
<path class="st3" d="M447.5,644.8C447.5,644.8,447.5,644.8,447.5,644.8l-7,32.2L447.5,644.8z"/>
<polygon class="st3" points="447.5,644.8 447.5,644.7 447.5,644.8 "/>
<path class="st3" d="M440.5,677c-6.9,8.2-13.4,16.7-19.4,25.5C427.2,693.7,433.7,685.2,440.5,677z"/>
<path class="st3" d="M440.5,676.9c-8.4,10.1-16.2,20.5-23.4,31.3c1.3-1.9,2.6-3.8,4-5.7C427.1,693.7,433.6,685.2,440.5,676.9l7-32.1
	c0,0,0,0,0,0L440.5,676.9z"/>
<path class="st3" d="M381,509.3c-0.1-0.3-0.2-0.6-0.2-1C380.9,508.7,380.9,509,381,509.3z"/>
<path class="st3" d="M191.1,572.2c2.2,5.2,4.8,10.1,7.6,14.6c0,0.1,0.1,0.1,0.1,0.2C195.9,582.3,193.3,577.4,191.1,572.2
	c-2-4.7-3.6-9.4-4.9-14c-3.6-13-4.3-26.1-2.4-39.1c-2.4,15.8-0.7,31.7,5.1,47.6c0.2,0.6,0.4,1.2,0.7,1.8c0.1,0.2,0.1,0.4,0.2,0.5
	C190.2,570.1,190.6,571.2,191.1,572.2c1.5,3.6,3.2,6.9,4.9,10.1C194.3,579.1,192.6,575.7,191.1,572.2z"/>
<path class="st3" d="M335.9,673.7l98.5-42v0L335.9,673.7c-17.7,8-34.9,12.1-51.5,12.2c0,0,0,0,0,0
	C301,685.8,318.2,681.7,335.9,673.7z"/>
<path class="st3" d="M185.8,509.1c-0.1,0.4-0.2,0.7-0.3,1.1C185.6,509.8,185.7,509.5,185.8,509.1z"/>
<path class="st3" d="M641.3,245.8c-3.1,1-6.2,2.1-9.3,3.4L208.6,429.8c-68.8,30.9-82,90.8-39.8,178.6c9.7,14.7,19.7,27.3,30.1,37.8
	c8,8.1,16.2,15,24.6,20.6c19.3,12.9,39.6,19.3,60.9,19.1c16.6-0.1,33.7-4.2,51.5-12.2l98.5-42l-25.7-60.3l0,0v0v0L599,490.2l0.1,0.1
	l0,0l25.6,60.2l31.5-13.4v-62.7h0.1c-12.4,0-24.9-2.5-37.4-7.6c-12.6-5.1-23.5-12-32.5-20.7c-9.3-9-16.8-20-22.3-33
	c-2.7-6.4-4.8-12.8-6.2-19.2c-4.2-19.3-2.5-38.6,5.4-57.5c10.3-25.7,28.1-43.9,53.7-54.8c7-3,13.9-5.1,20.9-6.5
	c6.2-1.2,12.3-1.9,18.5-1.9v-31.4c-1,0.2-2,0.4-3,0.6c-2,0.5-4,1-6,1.5C645.4,244.5,643.4,245.2,641.3,245.8z M376.5,570.2
	c-5.2,12.9-12.2,23.9-21.2,33c-5.7,5.8-12.1,10.8-19.4,15.2c-0.2,0.1-0.4,0.2-0.6,0.3c-1.2,0.7-2.4,1.4-3.7,2.1
	c-0.6,0.3-1.2,0.6-1.8,0.9c-0.9,0.4-1.7,0.9-2.6,1.3c-1.5,0.7-3.1,1.4-4.6,2.1c-12.8,5.5-25.6,8.3-38.4,8.4c0,0-0.1,0-0.1,0
	c0,0,0,0,0,0c0,0,0,0,0,0c0,0,0,0,0,0c0,0,0,0,0,0c0,0,0,0,0,0c-3,0-6-0.1-9.1-0.4c-0.4,0-0.8-0.1-1.2-0.1c-0.5-0.1-1-0.1-1.5-0.2
	c-0.4-0.1-0.8-0.1-1.3-0.1c-2.6-0.3-5.2-0.8-7.8-1.4c-0.2,0-0.4-0.1-0.6-0.1c-0.1,0-0.3-0.1-0.4-0.1c-0.5-0.1-0.9-0.2-1.4-0.3
	c-5-1.2-10-2.7-15-4.8c0,0,0-0.1,0-0.1c0,0,0,0-0.1,0c-14.2-5.6-25.9-13.6-35.6-23.8c5.6,5.9,11.9,11.1,19,15.5
	c0.4,0.3,0.9,0.6,1.3,0.8c0.4,0.3,0.9,0.5,1.3,0.8c0.8,0.5,1.7,1,2.6,1.4c0.1,0.1,0.2,0.1,0.3,0.2c1.1,0.6,2.2,1.2,3.4,1.7
	c0.1,0.1,0.3,0.1,0.4,0.2c1,0.5,2,1,3.1,1.4c0.2,0.1,0.3,0.2,0.5,0.2c1.2,0.5,2.4,1,3.6,1.5c0,0,0.1,0,0.1,0.1c0,0-0.1,0-0.1-0.1
	c-1.2-0.5-2.4-1-3.6-1.5c-0.2-0.1-0.3-0.2-0.5-0.2c-1-0.5-2.1-0.9-3.1-1.4c-0.1-0.1-0.3-0.1-0.4-0.2c-1.1-0.6-2.3-1.1-3.4-1.7
	c-0.1-0.1-0.2-0.1-0.3-0.2c-0.9-0.5-1.7-1-2.6-1.4c-0.5-0.3-0.9-0.5-1.3-0.8c-0.5-0.3-0.9-0.5-1.3-0.8c-7.5-4.7-14.1-10.2-20-16.6
	c-0.3-0.3-0.6-0.6-0.9-1c-0.1-0.1-0.2-0.2-0.3-0.3c-0.4-0.4-0.7-0.8-1.1-1.3c-1.4-1.6-2.8-3.3-4.1-5.1c-0.3-0.3-0.5-0.7-0.7-1.1
	c-0.5-0.7-1-1.3-1.4-2c-0.8-1.1-1.5-2.3-2.2-3.5c0.7,1.2,1.5,2.3,2.2,3.5c0.5,0.7,0.9,1.3,1.4,2c0.2,0.3,0.5,0.7,0.7,1.1
	c1.3,1.8,2.7,3.5,4.1,5.1c0.4,0.4,0.7,0.8,1.1,1.3c0.4,0.4,0.7,0.8,1.1,1.2c9.8,10.7,22,19,36.6,25c0,0,0,0,0.1,0c0,0,0,0,0.1,0
	c0,0,0,0,0,0c-4.7-1.9-9.2-4-13.4-6.5c0,0-0.1,0-0.1-0.1c-0.7-0.4-1.4-0.8-2-1.2c-0.4-0.2-0.8-0.5-1.1-0.7c-0.5-0.3-1-0.6-1.5-1
	c-0.9-0.6-1.8-1.2-2.7-1.8c-0.2-0.1-0.4-0.3-0.6-0.4c-0.8-0.6-1.6-1.1-2.3-1.7c-0.2-0.2-0.4-0.3-0.6-0.5c-4.8-3.7-9.2-7.7-13.2-12.2
	c-0.4-0.5-0.8-0.9-1.2-1.4c-3.7-4.3-6.9-8.9-9.9-13.9c0.4,0.8,0.9,1.5,1.3,2.3c-2.8-4.5-5.4-9.4-7.6-14.6c-0.5-1.1-0.9-2.2-1.4-3.3
	c-0.1-0.2-0.1-0.4-0.2-0.5c-0.2-0.6-0.5-1.2-0.7-1.8c-1-2.8-2-5.6-2.7-8.3c-5.1-18.3-4.6-36.6,1.3-55c0.8-2.6,1.8-5.3,2.8-7.9
	c5.1-12.8,12.2-23.8,21.1-32.9c8.9-9.1,19.8-16.4,32.6-21.9c1.5-0.6,2.9-1.2,4.4-1.7c1.1-0.4,2.2-0.8,3.2-1.2c0.1,0,0.2-0.1,0.3-0.1
	c0.1,0,0.2-0.1,0.3-0.1c0.4-0.1,0.8-0.3,1.2-0.4c0.5-0.2,1.1-0.3,1.6-0.5c0.6-0.2,1.1-0.3,1.7-0.5c1-0.3,2.1-0.6,3.1-0.8
	c0,0,0,0,0,0c-2.2,0.5-4.4,1.1-6.5,1.8c9.9-3.2,19.7-4.8,29.6-4.9c12.7-0.1,25.3,2.4,38,7.6c23.8,9.5,41.1,25.5,52.2,48.1
	c0.9,1.8,1.8,3.6,2.6,5.5c9,21.2,10.7,42.2,5.2,63.4c0,0.1,0,0.2-0.1,0.3c-0.3,1-0.5,2-0.9,3.1c0,0,0,0.1,0,0.1
	c-0.3,1-0.6,2.1-1,3.1c-0.1,0.2-0.1,0.4-0.2,0.7c-0.3,0.8-0.5,1.6-0.8,2.3c-0.1,0.3-0.2,0.6-0.3,0.9
	C377.3,568.2,376.9,569.2,376.5,570.2z"/>
<path class="st3" d="M378.8,564c0.1-0.2,0.2-0.4,0.2-0.7c0.3-1,0.7-2.1,1-3.1c0,0,0-0.1,0-0.1c0.3-1,0.6-2,0.9-3.1
	c0-0.1,0-0.2,0.1-0.3c3.4-13.2,4-26.4,1.8-39.6c-0.4-2.3-0.9-4.5-1.4-6.8c4.8,20,3.2,39.8-4.9,59.9c-0.3,0.8-0.7,1.6-1,2.4
	c0.1-0.2,0.2-0.3,0.2-0.5c0.3-0.6,0.6-1.3,0.9-2c0.4-1,0.8-2,1.1-3c0.1-0.3,0.2-0.6,0.3-0.9C378.2,565.6,378.5,564.8,378.8,564z"/>
<path class="st3" d="M248.4,626.9c0.3,0.1,0.7,0.2,1,0.4C249.1,627.1,248.7,627,248.4,626.9z"/>
<path class="st3" d="M251.4,627.9c0.7,0.2,1.4,0.5,2,0.7C252.7,628.4,252.1,628.2,251.4,627.9z"/>
<path class="st3" d="M185.2,511.9c-0.2,1-0.4,1.9-0.6,2.9C184.7,513.9,184.9,512.9,185.2,511.9z"/>
<path class="st3" d="M373.6,576.6c-0.1,0.1-0.1,0.3-0.2,0.4C373.5,576.8,373.6,576.7,373.6,576.6z"/>
<path class="st3" d="M184.4,515.6c-0.2,1.1-0.4,2.1-0.5,3.2C184,517.7,184.2,516.6,184.4,515.6z"/>
<path class="st3" d="M260.6,630.7c0.2,0,0.3,0.1,0.5,0.1c0.5,0.1,0.9,0.2,1.4,0.3c0,0,0,0,0.1,0C261.8,631,261.2,630.8,260.6,630.7z
	"/>
<path class="st3" d="M199,587.2c1.6,2.5,3.3,5,5.1,7.3C202.3,592.2,200.6,589.8,199,587.2z"/>
<path class="st3" d="M267,632C267,632,267.1,632,267,632c0,0-0.1,0-0.2,0C266.9,632,266.9,632,267,632C267,632,267,632,267,632z"/>
<path class="st3" d="M224.5,667.4c-0.3-0.2-0.7-0.4-1-0.6c-4.8-3.2-9.6-6.8-14.3-10.9c0,0,0,0,0,0c4.7,4,9.4,7.7,14.3,10.9
	C223.8,667,224.2,667.2,224.5,667.4z"/>
<path class="st3" d="M262.4,631.1c0.2,0.1,0.5,0.1,0.7,0.2c0.4,0.1,0.7,0.1,1.1,0.2c-0.5-0.1-0.9-0.2-1.4-0.3
	c-2.6-0.6-5.3-1.3-7.9-2.1c1.9,0.6,3.7,1.1,5.6,1.5C261.2,630.8,261.8,631,262.4,631.1z"/>
<path class="st3" d="M274.1,633c-0.1,0-0.1,0-0.2,0c0.4,0,0.8,0.1,1.2,0.1c-0.1,0-0.1,0-0.2,0C274.7,633.1,274.4,633.1,274.1,633z"
	/>
<path class="st3" d="M284.2,633.5C284.2,633.5,284.2,633.5,284.2,633.5C284.2,633.5,284.2,633.5,284.2,633.5
	C284.2,633.5,284.2,633.5,284.2,633.5z"/>
<path class="st3" d="M271.2,632.7c0.2,0,0.4,0,0.7,0.1c-0.3,0-0.6-0.1-0.9-0.1C271.1,632.7,271.1,632.7,271.2,632.7
	c0.4,0.1,0.8,0.1,1.3,0.1c-0.1,0-0.2,0-0.2,0C271.9,632.8,271.5,632.7,271.2,632.7z"/>
<path class="st3" d="M262.8,631.2c0.2,0,0.4,0.1,0.6,0.1c-0.1,0-0.2,0-0.3-0.1C263,631.2,262.9,631.2,262.8,631.2z"/>
<path class="st3" d="M267,632C267,632,267,632,267,632C267,632,267,632,267,632z"/>
<polygon class="st3" points="408.7,571.4 408.7,571.4 408.7,571.4 "/>
<path class="st3" d="M209.2,655.9c4.7,4,9.4,7.7,14.3,10.9c-8.4-5.6-16.6-12.5-24.6-20.6C202.3,649.6,205.7,652.9,209.2,655.9z"/>
<path class="st3" d="M229.3,617.5c-7-4.4-13.4-9.6-19-15.5c-0.3-0.4-0.7-0.7-1-1.1C215.1,607.4,221.8,612.9,229.3,617.5z"/>
<path class="st3" d="M230.6,618.4c0.4,0.3,0.9,0.5,1.3,0.8C231.5,618.9,231.1,618.6,230.6,618.4z"/>
<path class="st3" d="M245.9,626c0-0.1-0.1-0.1-0.1-0.1C245.8,626,245.9,626,245.9,626z"/>
<path class="st3" d="M234.5,620.6c0.1,0.1,0.2,0.1,0.3,0.2C234.8,620.7,234.6,620.7,234.5,620.6z"/>
<path class="st3" d="M207.1,598.4c-1.4-1.7-2.8-3.4-4.1-5.1C204.3,595.1,205.7,596.8,207.1,598.4z"/>
<path class="st3" d="M229.3,617.5c0.4,0.3,0.9,0.6,1.3,0.8C230.2,618.1,229.7,617.8,229.3,617.5z"/>
<path class="st3" d="M242.2,624.4c1.2,0.5,2.3,1,3.6,1.5C244.6,625.4,243.4,624.9,242.2,624.4z"/>
<path class="st3" d="M234.9,620.8c1.1,0.6,2.2,1.2,3.4,1.7C237.1,622,236,621.4,234.9,620.8z"/>
<path class="st3" d="M241.7,624.2c0.2,0.1,0.3,0.2,0.5,0.2C242.1,624.3,241.9,624.2,241.7,624.2z"/>
<path class="st3" d="M238.6,622.7c1,0.5,2,1,3.1,1.4C240.7,623.7,239.7,623.2,238.6,622.7z"/>
<path class="st3" d="M238.2,622.5c0.1,0.1,0.3,0.1,0.4,0.2C238.5,622.7,238.4,622.6,238.2,622.5z"/>
<path class="st3" d="M202.3,592.3c-0.5-0.7-1-1.3-1.4-2C201.3,590.9,201.8,591.6,202.3,592.3z"/>
<path class="st3" d="M200.8,590.3c-0.8-1.1-1.5-2.3-2.2-3.5C199.3,588,200.1,589.1,200.8,590.3z"/>
<path class="st3" d="M232,619.2c0.8,0.5,1.7,1,2.6,1.4C233.7,620.1,232.8,619.7,232,619.2z"/>
<path class="st3" d="M203,593.3c-0.3-0.3-0.5-0.7-0.7-1.1C202.5,592.6,202.8,593,203,593.3z"/>
<path class="st3" d="M208.1,599.7c0.1,0.1,0.2,0.2,0.3,0.3c0.3,0.3,0.6,0.6,0.9,0.9C208.9,600.5,208.5,600.1,208.1,599.7z"/>
<path class="st3" d="M208.1,599.7c-0.4-0.4-0.7-0.8-1.1-1.3C207.4,598.9,207.8,599.3,208.1,599.7z"/>
<path class="st3" d="M284.2,633.5C284.2,633.5,284.2,633.5,284.2,633.5C284.2,633.5,284.2,633.5,284.2,633.5
	C284.2,633.5,284.2,633.5,284.2,633.5z"/>
<path class="st3" d="M271.2,632.7c0.3,0,0.7,0.1,1,0.1c-0.1,0-0.2,0-0.4,0C271.6,632.7,271.4,632.7,271.2,632.7z"/>
<path class="st3" d="M274.9,633.1c-0.3,0-0.6,0-0.8-0.1C274.4,633.1,274.7,633.1,274.9,633.1z"/>
<path class="st3" d="M199,587.2c-0.1-0.1-0.1-0.2-0.2-0.2c0-0.1-0.1-0.1-0.1-0.2c-2.8-4.5-5.4-9.4-7.6-14.6
	c1.5,3.5,3.2,6.9,4.9,10.1c0.4,0.8,0.9,1.6,1.3,2.3c2.9,5,6.2,9.6,9.9,13.9c-1.1-1.3-2.2-2.6-3.2-4
	C202.3,592.2,200.5,589.7,199,587.2z"/>
<path class="st3" d="M209.3,600.9C209.3,600.9,209.3,601,209.3,600.9c0.4,0.4,0.7,0.8,1,1.1c9.7,10.2,21.4,18.2,35.6,23.8
	C231.2,620,219.1,611.7,209.3,600.9z"/>
<path class="st3" d="M245.9,625.9C245.9,625.9,245.9,625.9,245.9,625.9C245.9,625.9,245.9,625.9,245.9,625.9z"/>
<path class="st3" d="M262.4,631.1c0.1,0,0.2,0.1,0.4,0.1c0.1,0,0.2,0,0.3,0.1C262.9,631.2,262.7,631.2,262.4,631.1z"/>
<path class="st3" d="M246,626c5,2.1,10,3.6,15,4.8c-0.2,0-0.3-0.1-0.5-0.1C255.7,629.5,250.9,627.9,246,626z"/>
<path class="st3" d="M255,629.1c-0.5-0.2-1.1-0.3-1.6-0.5c-0.7-0.2-1.4-0.4-2-0.7c-0.7-0.2-1.3-0.5-2-0.7c-0.3-0.1-0.7-0.2-1-0.4
	c-0.8-0.3-1.5-0.6-2.3-0.9c0,0,0,0-0.1-0.1c0,0,0,0-0.1,0c0,0,0,0,0,0.1c4.9,1.9,9.7,3.5,14.6,4.7
	C258.7,630.2,256.9,629.7,255,629.1z"/>
<path class="st3" d="M267.4,632.1c-0.1,0-0.3,0-0.4-0.1c0,0,0,0,0,0c-1.2-0.2-2.4-0.4-3.5-0.7c2.6,0.6,5.2,1,7.8,1.4
	c-0.1,0-0.1,0-0.2,0C269.8,632.5,268.6,632.3,267.4,632.1z"/>
<path class="st3" d="M262.4,631.1c-0.5-0.1-0.9-0.2-1.4-0.3C261.5,630.9,261.9,631,262.4,631.1z"/>
<path class="st3" d="M262.4,631.1c0.1,0,0.3,0.1,0.4,0.1C262.7,631.2,262.6,631.1,262.4,631.1C262.4,631.1,262.4,631.1,262.4,631.1z
	"/>
<path class="st3" d="M267.4,632.1c-0.1,0-0.2,0-0.3-0.1c0,0-0.1,0-0.1,0C267.1,632.1,267.3,632.1,267.4,632.1z"/>
<path class="st3" d="M266.9,632c-0.9-0.2-1.7-0.3-2.6-0.5c-0.4-0.1-0.7-0.1-1.1-0.2c0.1,0,0.2,0,0.3,0.1c1.2,0.3,2.4,0.5,3.5,0.7
	C266.9,632,266.9,632,266.9,632z"/>
<path class="st3" d="M208.4,600c0.3,0.3,0.6,0.6,0.9,1c0,0,0,0,0,0C209,600.6,208.7,600.3,208.4,600z"/>
<path class="st3" d="M232.6,619.4C232.6,619.4,232.5,619.4,232.6,619.4C232.5,619.4,232.6,619.4,232.6,619.4z"/>
<path class="st3" d="M207.7,466.7c0,0-0.1,0.1-0.1,0.1c0.9-1,1.8-2,2.7-3c-0.1,0.1-0.3,0.3-0.4,0.4
	C209.1,465.1,208.4,465.9,207.7,466.7z"/>
<path class="st3" d="M190.3,495.5C190.3,495.5,190.3,495.5,190.3,495.5C190.3,495.5,190.3,495.5,190.3,495.5
	c2.6-6.4,5.6-12.4,9.1-17.8c0.1-0.1,0.1-0.2,0.2-0.2c0.8-1.2,1.6-2.4,2.4-3.6c0.3-0.4,0.6-0.9,1-1.3c0.6-0.8,1.2-1.6,1.8-2.4
	c0.5-0.7,1.1-1.4,1.7-2c0.4-0.5,0.8-1,1.2-1.5c0.7-0.8,1.4-1.6,2.2-2.4c0.3-0.3,0.5-0.6,0.8-0.9c0,0,0.1-0.1,0.1-0.1
	c0.2-0.2,0.4-0.5,0.6-0.7c0.7-0.7,1.4-1.4,2.2-2.1c0.1-0.1,0.3-0.3,0.4-0.4c0.9-0.9,1.9-1.7,2.8-2.5c0.2-0.2,0.4-0.4,0.7-0.6
	c0.8-0.7,1.7-1.4,2.5-2c0.4-0.3,0.8-0.6,1.2-1c0.6-0.4,1.2-0.9,1.8-1.3c0.7-0.5,1.4-1,2.1-1.5c0.2-0.1,0.3-0.2,0.5-0.3
	c4.9-3.4,10.2-6.4,16-9c0.9-0.4,1.7-0.8,2.6-1.2c1.4-0.6,2.9-1.2,4.3-1.7c-1.4,0.5-2.9,1.1-4.4,1.7c-12.8,5.5-23.7,12.8-32.6,21.9
	c-8.9,9.1-16,20.1-21.1,32.9c-1.1,2.6-2,5.3-2.8,7.9c0.5-1.6,1.1-3.3,1.7-4.9C189.5,497.4,189.9,496.5,190.3,495.5z"/>
<path class="st3" d="M230.5,618.2c-0.4-0.2-0.8-0.5-1.1-0.7C229.7,617.7,230.1,618,230.5,618.2z"/>
<polygon class="st3" points="259.8,435.3 259.8,435.3 259.8,435.3 "/>
<path class="st3" d="M198.8,586.8c-2.8-4.6-5.4-9.4-7.6-14.6c-10.9-25.6-11.1-51.1-0.8-76.8c4.3-10.8,10-20.2,17-28.3
	c-0.3,0.4-0.6,0.7-0.9,1.1c-0.6,0.7-1.1,1.3-1.7,2c-0.6,0.8-1.2,1.6-1.8,2.4c-0.3,0.4-0.7,0.9-1,1.3c-0.8,1.2-1.6,2.4-2.4,3.6
	c-0.1,0.1-0.1,0.2-0.2,0.2c-3.5,5.5-6.5,11.4-9.1,17.8c0,0,0,0,0,0c0,0,0,0,0,0c-0.4,1-0.8,1.9-1.1,2.9c-1.3,3.6-2.4,7.1-3.3,10.7
	c-0.1,0.4-0.2,0.7-0.3,1.1c-0.1,0.6-0.3,1.1-0.4,1.7c-0.2,1-0.4,1.9-0.6,2.9c0,0.2-0.1,0.5-0.1,0.7c-0.2,1.1-0.4,2.1-0.5,3.2
	c0,0.1,0,0.2,0,0.3c-1.9,13.1-1.2,26.1,2.4,39.1c1.3,4.6,2.9,9.3,4.9,13.9c2.2,5.3,4.8,10.2,7.7,14.9c0.1,0.1,0.1,0.2,0.2,0.2
	c1.6,2.5,3.3,5,5.1,7.3c1.4,1.9,2.9,3.7,4.4,5.5c-0.4-0.5-0.8-1-1.3-1.5c0.4,0.5,0.8,0.9,1.2,1.4c4,4.5,8.4,8.6,13.2,12.2
	C212.5,605.2,204.9,596.8,198.8,586.8z"/>
<path class="st3" d="M255,436.6c0.6-0.2,1.1-0.3,1.7-0.5C256.1,436.3,255.6,436.4,255,436.6z"/>
<path class="st3" d="M224.5,614.3c-0.8-0.6-1.6-1.1-2.3-1.7C222.9,613.2,223.7,613.7,224.5,614.3z"/>
<path class="st3" d="M227.8,616.5c-0.9-0.6-1.8-1.2-2.7-1.8C226,615.4,226.9,616,227.8,616.5z"/>
<path class="st3" d="M251.9,437.6c-0.1,0-0.2,0.1-0.3,0.1c0.2-0.1,0.4-0.1,0.6-0.2C252.1,437.5,252,437.6,251.9,437.6z"/>
<path class="st3" d="M198.8,587c0.1,0.1,0.1,0.2,0.2,0.2C198.9,587.1,198.9,587,198.8,587z"/>
<path class="st3" d="M204.1,594.5c1,1.4,2.1,2.7,3.2,4c0.4,0.5,0.8,1,1.3,1.5C207,598.2,205.5,596.4,204.1,594.5z"/>
<rect x="611.9" y="487.7" transform="matrix(0.9199 -0.3921 0.3921 0.9199 -155.0437 281.5796)" class="st3" width="0.1" height="65.4"/>
<path class="st3" d="M168.7,608.3c9.8,14.7,19.8,27.3,30.2,37.9C188.5,635.7,178.5,623.1,168.7,608.3
	c-42.1-87.7-28.9-147.6,39.9-178.5L632,249.2L208.5,429.7C139.8,460.6,126.5,520.5,168.7,608.3c12.9,19.6,26.4,35.5,40.5,47.6
	c0,0,0,0,0,0C195.1,643.8,181.6,627.9,168.7,608.3z"/>
<path class="st3" d="M168.7,608.3c12.9,19.6,26.4,35.5,40.5,47.6c-3.5-3-7-6.3-10.4-9.7C188.5,635.6,178.5,623,168.7,608.3z"/>
<path class="st3" d="M213.9,460.2c-0.1,0.1-0.2,0.2-0.3,0.3C213.7,460.4,213.8,460.3,213.9,460.2z"/>
<path class="st3" d="M207.6,466.8c-0.1,0.1-0.1,0.2-0.2,0.2C207.4,467,207.5,466.9,207.6,466.8z"/>
<path class="st3" d="M223,452.6c-0.6,0.4-1.2,0.9-1.8,1.3c-0.4,0.3-0.8,0.6-1.2,1c-0.8,0.7-1.7,1.3-2.5,2c-0.2,0.2-0.4,0.4-0.7,0.6
	c-1,0.8-1.9,1.7-2.8,2.5c0,0-0.1,0.1-0.1,0.1c7.8-7.4,17-13.5,27.5-18.3c-5.7,2.6-11,5.5-15.9,8.9c-0.2,0.1-0.3,0.2-0.5,0.3
	C224.3,451.6,223.7,452.1,223,452.6z"/>
<path class="st3" d="M210.8,463.3C210.8,463.3,210.8,463.3,210.8,463.3c0.9-1,1.9-1.9,2.8-2.8c0,0,0,0,0,0
	C212.6,461.4,211.7,462.3,210.8,463.3z"/>
<path class="st3" d="M210.2,463.9c0.2-0.2,0.3-0.4,0.5-0.6c0,0-0.1,0.1-0.1,0.1C210.5,463.6,210.4,463.7,210.2,463.9z"/>
<path class="st3" d="M189.5,568.4c-0.2-0.6-0.4-1.2-0.7-1.8C189.1,567.2,189.3,567.8,189.5,568.4z"/>
<path class="st3" d="M191.1,572.3c-0.5-1.1-0.9-2.2-1.4-3.3C190.2,570.1,190.6,571.2,191.1,572.3z"/>
<path class="st3" d="M189.7,569c-0.1-0.2-0.1-0.4-0.2-0.5C189.6,568.6,189.7,568.8,189.7,569z"/>
<path class="st3" d="M183.8,519.1c0-0.1,0-0.2,0-0.3c0.2-1.1,0.3-2.1,0.5-3.2c0-0.2,0.1-0.5,0.1-0.7c0.2-1,0.4-1.9,0.6-2.9
	c0.1-0.6,0.3-1.1,0.4-1.7c0.1-0.4,0.2-0.7,0.3-1.1c0.5-1.9,1-3.9,1.6-5.8c-5.9,18.4-6.4,36.7-1.3,55c0.7,2.8,1.6,5.5,2.7,8.3
	C183.1,550.7,181.4,534.9,183.8,519.1z"/>
<path class="st3" d="M191.1,572.3c2.2,5.2,4.8,10.1,7.6,14.6c-0.5-0.7-0.9-1.5-1.3-2.3c-0.4-0.8-0.9-1.5-1.3-2.3
	C194.3,579.1,192.6,575.8,191.1,572.3z"/>
<path class="st3" d="M197.4,584.6c-0.4-0.8-0.9-1.5-1.3-2.3C196.5,583.1,196.9,583.9,197.4,584.6z"/>
<path class="st3" d="M183.8,518.8c0,0.1,0,0.2,0,0.3C183.8,519,183.8,518.9,183.8,518.8z"/>
<path class="st3" d="M221.2,453.9c0.6-0.5,1.2-0.9,1.8-1.3C222.4,453.1,221.8,453.5,221.2,453.9z"/>
<path class="st3" d="M214,460.1c0.9-0.9,1.9-1.7,2.8-2.5C215.9,458.4,214.9,459.2,214,460.1z"/>
<path class="st3" d="M199.6,477.4c-0.1,0.1-0.1,0.2-0.2,0.2C199.5,477.6,199.6,477.5,199.6,477.4z"/>
<path class="st3" d="M202,473.8c-0.8,1.2-1.6,2.4-2.4,3.6C200.4,476.2,201.2,475,202,473.8z"/>
<path class="st3" d="M203,472.5c-0.3,0.4-0.7,0.9-1,1.3C202.4,473.4,202.7,473,203,472.5z"/>
<path class="st3" d="M199.4,477.7c-3.5,5.5-6.6,11.4-9.1,17.8C192.9,489.1,195.9,483.2,199.4,477.7z"/>
<path class="st3" d="M190.3,495.5c-0.4,1-0.8,1.9-1.1,2.9C189.5,497.4,189.9,496.5,190.3,495.5z"/>
<path class="st3" d="M185.5,510.2c-0.1,0.6-0.3,1.1-0.4,1.7C185.3,511.3,185.4,510.8,185.5,510.2z"/>
<path class="st3" d="M184.5,514.8c0,0.2-0.1,0.5-0.1,0.7C184.4,515.3,184.5,515.1,184.5,514.8z"/>
<path class="st3" d="M206.4,468.2c-0.6,0.7-1.1,1.3-1.7,2C205.3,469.5,205.9,468.8,206.4,468.2z"/>
<path class="st3" d="M204.8,470.2c-0.6,0.8-1.2,1.6-1.8,2.4C203.6,471.7,204.2,471,204.8,470.2z"/>
<path class="st3" d="M190.3,495.5C190.3,495.5,190.3,495.5,190.3,495.5C190.3,495.5,190.3,495.5,190.3,495.5
	C190.3,495.5,190.3,495.5,190.3,495.5C190.3,495.5,190.3,495.5,190.3,495.5z"/>
<path class="st3" d="M225.5,450.8c-0.2,0.1-0.3,0.2-0.5,0.3C225.2,451,225.4,450.9,225.5,450.8z"/>
<path class="st3" d="M217.5,456.9c0.8-0.7,1.7-1.4,2.5-2C219.1,455.6,218.3,456.2,217.5,456.9z"/>
<path class="st3" d="M211.4,462.6c-0.2,0.2-0.4,0.5-0.6,0.7c0.9-1,1.9-1.9,2.8-2.8C212.8,461.2,212.1,461.9,211.4,462.6z"/>
<path class="st3" d="M189.2,498.4c-0.6,1.6-1.2,3.3-1.7,4.9c-0.6,1.9-1.1,3.9-1.6,5.8C186.7,505.5,187.9,502,189.2,498.4z"/>
<path class="st3" d="M207.7,466.7c0.7-0.8,1.4-1.6,2.2-2.4C209.1,465.1,208.4,465.9,207.7,466.7z"/>
<path class="st3" d="M209.8,464.3c0.1-0.1,0.3-0.3,0.4-0.4c0.1-0.1,0.3-0.3,0.4-0.4C210.4,463.7,210.1,464,209.8,464.3z"/>
<path class="st3" d="M206.4,468.2c0.3-0.4,0.6-0.7,0.9-1.1c0.1-0.1,0.1-0.2,0.2-0.2c0,0,0.1-0.1,0.1-0.1
	C207.3,467.2,206.9,467.7,206.4,468.2z"/>
<path class="st3" d="M320.8,439.8c15.7,6.3,28.6,15.5,38.8,27.5C349.4,455.3,336.5,446.1,320.8,439.8z"/>
<path class="st3" d="M331.8,620.7c-0.6,0.3-1.2,0.6-1.8,0.9C330.6,621.3,331.2,621,331.8,620.7z"/>
<path class="st3" d="M354.6,603.9c-2.2,2.2-4.5,4.2-6.9,6.2c2.7-2.2,5.2-4.5,7.6-6.9c7.3-7.5,13.4-16.3,18.1-26.3
	C368.5,587.3,362.2,596.2,354.6,603.9z"/>
<path class="st3" d="M360.2,468c-0.2-0.2-0.4-0.5-0.6-0.7C359.8,467.5,360,467.7,360.2,468z"/>
<path class="st3" d="M360.3,468C360.2,468,360.2,468,360.3,468C360.2,468,360.2,468,360.3,468z"/>
<path class="st3" d="M375.6,493.5c0,0.1,0.1,0.1,0.1,0.2c2.1,4.9,3.8,9.8,5.1,14.7C379.5,503.4,377.8,498.5,375.6,493.5
	c-0.7-1.9-1.6-3.8-2.5-5.6c-3.6-7.3-7.9-14-12.9-19.9C366.4,475.4,371.5,483.9,375.6,493.5z"/>
<path class="st3" d="M340.6,615.4c0,0-0.1,0.1-0.1,0.1C340.6,615.4,340.6,615.4,340.6,615.4z"/>
<path class="st3" d="M260.7,435c0.9-0.2,1.8-0.4,2.6-0.6c0.6-0.1,1.3-0.3,1.9-0.4c0.5-0.1,1.1-0.2,1.6-0.3c1-0.2,1.9-0.3,2.9-0.5
	c0.2,0,0.4-0.1,0.7-0.1c9.6-1.3,19.2-1.1,28.9,0.6c0.7,0.1,1.3,0.3,2,0.4c0.7,0.1,1.4,0.3,2.1,0.4c5.8,1.2,11.6,3,17.5,5.2
	c-12.7-5.1-25.3-7.6-37.9-7.6C275.4,432.3,268,433.2,260.7,435C260.6,435.1,260.7,435,260.7,435z"/>
<path class="st3" d="M375.4,572.7c-0.6,1.3-1.1,2.6-1.7,3.9C374.2,575.3,374.8,574,375.4,572.7z"/>
<path class="st3" d="M335.5,618.6c-1.2,0.7-2.4,1.4-3.6,2.1C333.1,620,334.3,619.3,335.5,618.6z"/>
<path class="st3" d="M346.7,611c-0.8,0.6-1.6,1.3-2.4,1.9C345,612.2,345.9,611.6,346.7,611z"/>
<path class="st3" d="M330,621.6c-0.9,0.4-1.7,0.9-2.6,1.3C328.3,622.5,329.2,622,330,621.6z"/>
<path class="st3" d="M308.4,630c-2.4,0.7-4.8,1.2-7.2,1.7C303.6,631.3,306,630.7,308.4,630z"/>
<path class="st3" d="M296.4,632.5c-1.6,0.2-3.2,0.4-4.8,0.5C293.2,632.9,294.8,632.7,296.4,632.5z"/>
<path class="st3" d="M327.4,622.9c-1.5,0.7-3.1,1.4-4.6,2.1C324.4,624.3,325.9,623.6,327.4,622.9z"/>
<path class="st3" d="M335.5,618.6c0.2-0.1,0.4-0.2,0.5-0.3c0,0,0,0,0,0C335.9,618.4,335.7,618.5,335.5,618.6z"/>
<path class="st3" d="M381.3,510.4c-0.1-0.4-0.2-0.7-0.3-1.1C381.1,509.7,381.2,510,381.3,510.4z"/>
<path class="st3" d="M269.8,433.3c-1,0.1-1.9,0.3-2.9,0.5C267.8,433.6,268.8,433.4,269.8,433.3z"/>
<path class="st3" d="M259.8,435.3c0.3-0.1,0.6-0.2,0.9-0.2c0,0-0.1,0-0.1,0C260.4,435.1,260.1,435.2,259.8,435.3z"/>
<path class="st3" d="M303.3,434.6c-0.7-0.1-1.4-0.3-2.1-0.4C302,434.3,302.6,434.4,303.3,434.6z"/>
<path class="st3" d="M265.3,434.1c-0.6,0.1-1.3,0.3-1.9,0.4C264,434.3,264.6,434.2,265.3,434.1z"/>
<path class="st3" d="M270.4,433.2c9.6-1.3,19.2-1.1,28.9,0.6C289.6,432.1,280,431.9,270.4,433.2z"/>
<path class="st3" d="M282.9,432.2c-9.9,0-19.7,1.7-29.6,4.9c2.2-0.7,4.3-1.3,6.5-1.8c0.3-0.1,0.5-0.1,0.8-0.2
	C268,433.2,275.4,432.3,282.9,432.2z"/>
<path class="st3" d="M377.6,567.2c-0.4,1-0.7,2-1.1,3C376.9,569.2,377.3,568.2,377.6,567.2z"/>
<path class="st3" d="M378.8,564c-0.3,0.8-0.5,1.6-0.8,2.3C378.2,565.6,378.5,564.8,378.8,564z"/>
<path class="st3" d="M380.9,556.8c0,0.1,0,0.2-0.1,0.3C380.9,557,380.9,556.9,380.9,556.8z"/>
<path class="st3" d="M375.4,572.7c-0.6,1.3-1.1,2.6-1.7,3.9c-0.1,0.1-0.1,0.3-0.2,0.4c-4.8,10-10.8,18.8-18.1,26.3
	c9-9.1,16-20.1,21.2-33c-0.3,0.7-0.6,1.4-0.9,2C375.5,572.4,375.4,572.5,375.4,572.7z"/>
<path class="st3" d="M380.8,508.4c0.1,0.3,0.2,0.6,0.2,1c0.1,0.4,0.2,0.7,0.3,1.1c0.6,2.3,1,4.5,1.4,6.8c2.2,13.2,1.6,26.4-1.8,39.6
	c5.5-21.2,3.8-42.2-5.2-63.4c-0.8-1.9-1.7-3.7-2.6-5.5c0.9,1.8,1.8,3.7,2.6,5.6C377.8,498.5,379.5,503.4,380.8,508.4z"/>
<path class="st3" d="M377.6,567.2c0.1-0.3,0.2-0.6,0.3-0.9C377.8,566.7,377.7,567,377.6,567.2z"/>
<path class="st3" d="M379,563.4c-0.1,0.2-0.1,0.4-0.2,0.7C378.8,563.8,378.9,563.6,379,563.4z"/>
<path class="st3" d="M380.8,557.1c-0.3,1-0.6,2-0.9,3.1C380.3,559.1,380.6,558.1,380.8,557.1z"/>
<path class="st3" d="M380,560.1c0,0,0,0.1,0,0.1C380,560.2,380,560.2,380,560.1z"/>
<path class="st3" d="M380,560.3c-0.3,1-0.6,2.1-1,3.1C379.3,562.3,379.6,561.3,380,560.3z"/>
<path class="st3" d="M260.6,435.1c-0.3,0.1-0.5,0.1-0.8,0.2c0,0,0,0,0,0C260.1,435.2,260.4,435.1,260.6,435.1z"/>
<path class="st3" d="M344.2,612.9c-1.2,0.9-2.4,1.7-3.6,2.5C341.9,614.6,343.1,613.7,344.2,612.9z"/>
<path class="st3" d="M336.1,618.3C336,618.3,336,618.3,336.1,618.3c-4.2,2.5-8.7,4.8-13.4,6.8c1.6-0.7,3.1-1.4,4.6-2.1
	c0.9-0.4,1.7-0.9,2.6-1.3c0.6-0.3,1.2-0.6,1.8-0.9c1.2-0.7,2.5-1.4,3.7-2.1c0.2-0.1,0.4-0.2,0.6-0.3c1.6-0.9,3.1-1.9,4.6-2.9
	C339.1,616.4,337.6,617.4,336.1,618.3z"/>
<path class="st3" d="M347.7,610.1c-0.4,0.3-0.7,0.6-1.1,0.8C347,610.7,347.4,610.4,347.7,610.1z"/>
<path class="st3" d="M336,618.3C336.1,618.3,336.1,618.3,336,618.3c6.9-4.1,13.1-8.9,18.5-14.4c8.8-8.8,15.7-19.3,20.9-31.6
	C367.1,592.2,354,607.5,336,618.3z"/>
<path class="st3" d="M331.7,620.8c-0.6,0.3-1.2,0.6-1.8,0.9C330.5,621.4,331.1,621.1,331.7,620.8z"/>
<path class="st3" d="M327.3,623c-1.5,0.7-3.1,1.4-4.6,2.1C324.3,624.4,325.8,623.7,327.3,623z"/>
<path class="st3" d="M336,618.4c-0.2,0.1-0.4,0.2-0.6,0.3C335.6,618.6,335.8,618.5,336,618.4z"/>
<path class="st3" d="M336,618.3C336,618.3,336,618.3,336,618.3C336.1,618.3,336.1,618.3,336,618.3C336,618.3,336,618.3,336,618.3z"
	/>
<path class="st3" d="M340.5,615.5c0,0,0.1-0.1,0.1-0.1c1.2-0.8,2.4-1.7,3.6-2.5c0.8-0.6,1.6-1.3,2.4-1.9c0.4-0.3,0.7-0.6,1.1-0.8
	c2.4-2,4.7-4,6.9-6.2c-5.5,5.5-11.6,10.3-18.5,14.4C337.6,617.4,339.1,616.4,340.5,615.5z"/>
<path class="st3" d="M284.4,685.9c-20.9,0.2-40.9-6-59.9-18.5C243.5,679.9,263.5,686.1,284.4,685.9z"/>
<path class="st3" d="M284.4,685.9C284.4,685.9,284.4,685.9,284.4,685.9c-21.3,0.2-41.6-6.2-60.9-19.1c0.3,0.2,0.7,0.4,1,0.6
	C243.5,679.9,263.5,686.1,284.4,685.9z"/>
<path class="st3" d="M335.9,673.7c-17.8,8-34.9,12.1-51.5,12.2C301,685.8,318.2,681.7,335.9,673.7z"/>
<path class="st3" d="M483.7,694.8c-0.5,1.6-0.9,3.2-1.2,4.8c-0.1,0.4-0.2,0.8-0.3,1.1c-1.3,5.8-2,11.4-2,16.8
	c-0.2,18.4,6.8,34.1,21,46.8l34.4-14.6l80.8-34.4l40-17.1v-61.2c-4.3-3.4-9.1-6.6-14.6-9.4L483.7,694.8z"/>
<path class="st3" d="M641.6,627.2l-157.9,67.5l158.1-67.4C641.7,627.3,641.7,627.2,641.6,627.2z"/>
<path class="st3" d="M641.6,627.4l-157.9,67.3L641.6,627.4C641.6,627.4,641.6,627.4,641.6,627.4z"/>
<path class="st3" d="M641.7,627.5c0,0-0.1,0-0.1-0.1l-157.9,67.3c-0.5,1.6-0.9,3.2-1.2,4.9c0.4-1.6,0.8-3.2,1.2-4.8L641.7,627.5z"/>
<path class="st3" d="M501.2,764.3L501.2,764.3l0,0.1l96.7-41.3l-62.4,26.5L501.2,764.3C501.2,764.3,501.2,764.3,501.2,764.3z"/>
<polygon class="st3" points="616.3,715.3 597.9,723.1 501.2,764.4 "/>
<path class="st3" d="M501.2,764.3l34.3-14.7L501.2,764.3C501.2,764.3,501.2,764.3,501.2,764.3z"/>
<path class="st3" d="M651.5,632.8c-0.2-0.1-0.3-0.2-0.5-0.3c-0.6-0.4-1.1-0.7-1.7-1.1c-2.3-1.4-4.7-2.8-7.2-4.1l-0.2,0.1
	c5.4,2.9,10.2,6,14.4,9.3v-0.4c-1.1-0.8-2.1-1.6-3.3-2.4C652.5,633.5,652,633.2,651.5,632.8z"/>
<path class="st3" d="M654.6,635c-0.6-0.4-1.1-0.8-1.7-1.2c-0.5-0.3-0.9-0.6-1.4-1c0.5,0.3,1,0.7,1.5,1.1c1.2,0.8,2.2,1.6,3.3,2.4v0
	C655.8,635.9,655.2,635.4,654.6,635z"/>
<path class="st3" d="M641.9,627.4l0.2-0.1c2.5,1.3,4.9,2.7,7.2,4.1c0.6,0.4,1.1,0.7,1.7,1.1c-0.6-0.4-1.2-0.8-1.8-1.2
	c-2.3-1.4-4.6-2.8-7.2-4.1l-0.2,0.1C641.9,627.3,641.9,627.4,641.9,627.4z"/>
<path class="st3" d="M642,627.2C642,627.2,642,627.2,642,627.2l-0.3,0.1c0,0,0,0,0,0L642,627.2z"/>
<path class="st3" d="M641.7,627.5c5.5,2.9,10.3,6.1,14.6,9.4v-0.2c-4.2-3.3-9-6.5-14.4-9.3L641.7,627.5z"/>
<path class="st3" d="M641.6,627.4c0,0,0.1,0,0.1,0.1l0.2-0.1c0,0-0.1,0-0.1-0.1L641.6,627.4z"/>
<path class="st3" d="M641.6,627.4l0.2-0.1c0,0,0,0,0,0l-158.1,67.4L641.6,627.4C641.6,627.4,641.6,627.4,641.6,627.4z"/>
<path class="st3" d="M480.1,717.5c0.1-3.9,0.5-8,1.1-12.1c-0.3,1.4-0.5,2.9-0.6,4.3C480.3,712.3,480.1,714.9,480.1,717.5z"/>
<path class="st3" d="M481.2,705.4c0.3-1.6,0.5-3.1,0.9-4.7c-0.7,3-1.2,6-1.5,9C480.8,708.3,481,706.9,481.2,705.4z"/>
<path class="st3" d="M652.9,633.8c-1.2-0.9-2.4-1.7-3.7-2.5C650.5,632.1,651.7,632.9,652.9,633.8z"/>
<path class="st3" d="M485.7,820.4c0.3,0.1,0.5,0.2,0.8,0.3c0.5,0.2,1,0.4,1.5,0.6c7.2,2.8,15.1,4.4,23.7,4.9c0,0,0.1,0,0.1,0
	c-12.4-0.7-23.4-3.8-32.9-9.3C481,818.3,483.3,819.4,485.7,820.4z"/>
<path class="st3" d="M640.8,581.2c-3.5-2.1-7-4.2-10.8-6.2c-0.9-0.5-1.9-1-2.9-1.5c-2.7-1.5-5.5-3-7.6-4.2l-0.5,0.2
	c-1.2-0.7-2.3-1.3-3.3-1.9c-2.8-1.5-5.1-2.8-7.2-3.8l-147,62.7c0,0.1,0,0.1,0,0.1c-0.8,3-1.9,5.6-2.7,8.6c-2.2,7.3-4.2,14-5.6,19.4
	c-0.4,1.7-0.8,3.4-1.2,5c-0.3,1.2-0.5,2.4-0.8,3.5c-0.3,1.6-0.6,3.1-0.9,4.4c-2.6,10.2-4.9,19.7-6.7,27.9
	c-6.7,35.3-5.7,62.6,2.9,82.8c2.1,5,4.5,9.6,7.1,13.8c13.2,21.2,32.6,32.8,58,34.3c6.8,0.1,13.4-0.3,20.1-1.2
	c0.6-0.1,1.1-0.2,1.7-0.3c4.9-0.8,10-1.7,15.3-2.8c2.8-0.6,5.6-1.2,8.5-2c14.5-3.5,30.6-9.3,48.1-16.8c12.2-5.2,29.4-12.5,50.8-22.1
	v-75.9l-157.9,67.4c-0.1-0.1-0.1-0.1-0.2-0.2l-0.3,0.2c0,0,0,0,0,0l-0.1,0l0,0h0c-1.6-1.4-3.8-2.6-5.6-4.5c-0.1-0.1-0.2-0.2-0.4-0.3
	c-19-17.8-25-40.6-16.7-69.5c0,0,0,0,0,0c0.2-1.1,0.5-2.1,0.8-3.2c0.2-0.9,0.5-1.7,0.8-2.6c0.3-0.7,0.5-1.5,0.8-2.2l164.7-70.2
	l0.4-0.2c2.6,1.1,5.1,2.3,7.5,3.7c2.1,1.1,4.2,2.3,6.2,3.5v-36.4c-2.8-1.8-5.9-3.6-8.6-5.2C645.4,584.1,643.2,582.6,640.8,581.2z"/>
<path class="st3" d="M497.8,772.7C497.8,772.7,497.8,772.7,497.8,772.7l0.3-0.1c0,0,0,0,0,0L497.8,772.7z"/>
<path class="st3" d="M608.6,563.8c2,1,4.4,2.3,7.2,3.8C613.1,566.1,610.7,564.9,608.6,563.8L608.6,563.8z"/>
<path class="st3" d="M640.8,581.2c-3.4-2.1-7-4.2-10.8-6.2C633.8,577,637.4,579.1,640.8,581.2z"/>
<polygon class="st3" points="497.7,772.7 497.7,772.7 497.8,772.7 497.8,772.7 "/>
<polygon class="st3" points="498.1,772.5 498.1,772.5 497.8,772.7 497.8,772.7 "/>
<path class="st3" d="M491.7,767.9c-19-17.8-24.9-40.6-16.7-69.5C466.8,727.2,472.7,750,491.7,767.9z"/>
<polygon class="st3" points="656.2,705.2 656.2,705.1 498.2,772.6 "/>
<path class="st3" d="M498.2,772.6l158-67.5v0L498.2,772.6L498.2,772.6l-0.1-0.1C498.1,772.5,498.1,772.5,498.2,772.6L498.2,772.6
	L498.2,772.6c0,0,0,0,0.1,0.1l157.9-67.4v0L498.2,772.6z"/>
<polygon class="st3" points="498.1,772.5 498.1,772.5 498.1,772.5 498.1,772.5 498.1,772.5 "/>
<path class="st3" d="M487.9,821.4c-0.5-0.2-1-0.4-1.5-0.6C487,821,487.5,821.2,487.9,821.4z"/>
<path class="st3" d="M647.6,585.4c-2.2-1.4-4.5-2.8-6.8-4.2c2.3,1.4,4.6,2.9,6.9,4.3c2.7,1.6,5.8,3.4,8.6,5.2v-0.1
	C653.4,588.8,650.3,587,647.6,585.4z"/>
<path class="st3" d="M446.5,778.1c-8.7-20.2-9.7-47.5-2.9-82.8c1.8-8.2,4.1-17.8,6.7-27.9c0.2-1.3,0.5-2.8,0.9-4.4
	c-0.3,1.6-0.7,3.1-0.9,4.4c-2.6,10.2-4.9,19.7-6.7,27.9C436.9,730.6,437.9,757.9,446.5,778.1c2.1,5,4.6,9.6,7.2,13.9
	C451.1,787.8,448.7,783.2,446.5,778.1c-8.5-20.1-9.5-47.4-2.8-82.7c1.8-8.2,4.1-17.7,6.7-27.9c0.3-1.3,0.6-2.8,0.9-4.4
	c0.3-1.1,0.5-2.3,0.8-3.5c0.4-1.6,0.8-3.3,1.2-5c1.4-5.4,3.4-12.1,5.6-19.4c0.8-3,1.9-5.6,2.7-8.6c0,0,0,0,0-0.1l147-62.7
	c0,0,0,0,0,0l-147.1,62.7c-0.8,3-1.9,5.6-2.7,8.5c-2,6.6-3.7,12.5-5.1,17.6c-0.2,0.7-0.4,1.3-0.5,1.9c-0.4,1.7-0.8,3.4-1.2,5
	c0.4-1.7,0.8-3.4,1.2-5.1c0.2-0.6,0.3-1.2,0.5-1.8c1.4-5,3.1-11,5.1-17.6c0.8-3,1.9-5.6,2.7-8.5c0-0.1,0-0.1,0-0.1l147.1-62.7
	c2.8,1.5,6.2,3.2,10.4,5.7l0.6-0.3c2.1,1.2,4.8,2.7,7.6,4.2c2.4,1.2,4.7,2.4,6.9,3.7c-2.3-1.3-4.6-2.6-7-3.8c-2.8-1.5-5.5-3-7.6-4.2
	l-0.5,0.2c-4.2-2.5-7.6-4.2-10.4-5.7l-147.1,62.7c-0.8,3-1.9,5.6-2.7,8.5c-2.2,7.3-4.1,14-5.6,19.4c-0.4,1.7-0.9,3.4-1.2,5.1
	c-0.3,1.2-0.6,2.4-0.8,3.5c-0.4,1.6-0.7,3.1-0.9,4.4c-2.6,10.5-5,20-6.8,28.2C436.7,730.6,437.7,757.9,446.5,778.1
	c8.8,20.7,21.9,34.9,39.2,42.3c-2.4-1-4.6-2.2-6.9-3.4C464.9,809,454.1,796,446.5,778.1z M452,659.6c-0.3,1.2-0.5,2.4-0.8,3.5
	C451.4,661.9,451.7,660.8,452,659.6z"/>
<path class="st3" d="M656.3,590.5L656.3,590.5c-2.9-1.8-6-3.6-8.7-5.3c-3.7-2.3-7.5-4.7-11.4-7c3.9,2.3,7.7,4.7,11.5,7.1
	C650.4,587,653.4,588.8,656.3,590.5z"/>
<path class="st3" d="M619.5,569.2l-0.5,0.2c-1.1-0.6-2.2-1.2-3.2-1.8c1,0.6,2.1,1.2,3.3,1.9l0.5-0.2c2.1,1.2,4.9,2.7,7.6,4.2
	c1,0.5,1.9,1,2.9,1.5c-1-0.5-2-1-3-1.6C624.4,571.9,621.6,570.4,619.5,569.2z"/>
<path class="st3" d="M608.6,563.7l-147.1,62.7c0,0,0,0,0,0.1L608.6,563.7c0,0.1,0,0.1,0,0.1l0.1,0c2,1.1,4.4,2.3,7.1,3.8
	c1,0.6,2.1,1.2,3.2,1.8C614.8,566.9,611.4,565.2,608.6,563.7z"/>
<path class="st3" d="M619.6,569.1l-0.6,0.3l0.5-0.2c2.1,1.2,4.9,2.7,7.6,4.2c1,0.5,2,1,3,1.6c3.8,2,7.3,4.1,10.8,6.2
	c2.3,1.4,4.5,2.8,6.8,4.2c2.7,1.6,5.8,3.4,8.7,5.2v-0.1c-2.9-1.7-5.9-3.5-8.6-5.2c-3.7-2.4-7.5-4.8-11.5-7.1
	c-0.7-0.4-1.4-0.8-2.1-1.2c-2.2-1.3-4.5-2.5-6.9-3.7C624.4,571.8,621.7,570.3,619.6,569.1z"/>
<path class="st3" d="M452,659.6c-0.3,1.2-0.6,2.3-0.8,3.5C451.5,662,451.7,660.8,452,659.6z"/>
<path class="st3" d="M649.7,623.9c1.5,0.8,2.9,1.6,4.3,2.4c0.8,0.4,1.5,0.9,2.3,1.4v-0.4c-2-1.2-4-2.4-6.2-3.5
	c-2.4-1.4-4.9-2.7-7.5-3.7l-0.2,0.1c1.3,0.4,2.5,1,3.8,1.6C647.4,622.5,648.6,623.2,649.7,623.9z"/>
<path class="st3" d="M649.8,624c0.5,0.3,1,0.6,1.5,0.8c0.9,0.5,1.8,1,2.7,1.5c-1.4-0.8-2.8-1.7-4.3-2.4c-1.1-0.8-2.3-1.5-3.6-2.1
	c-1.2-0.6-2.5-1.2-3.8-1.6l-0.2,0.1c0,0,0.1,0,0.1,0l0.1,0C645,621.2,647.5,622.5,649.8,624z"/>
<path class="st3" d="M649.7,623.9c-1.1-0.8-2.3-1.4-3.6-2.1C647.4,622.5,648.6,623.2,649.7,623.9z"/>
<path class="st3" d="M651.3,624.8c-0.5-0.3-1-0.6-1.5-0.8c-2.3-1.5-4.8-2.8-7.4-3.7l-0.1,0c2.6,0.9,5,2.2,7.3,3.7
	C650.2,624.3,650.7,624.5,651.3,624.8z"/>
<path class="st3" d="M476,695.2c0.3-0.9,0.5-1.7,0.8-2.6C476.5,693.5,476.2,694.3,476,695.2z"/>
<path class="st3" d="M477.1,691.9c0.1-0.5,0.3-1,0.5-1.5c-0.3,0.7-0.6,1.5-0.8,2.2C476.9,692.4,477,692.1,477.1,691.9z"/>
<path class="st3" d="M476.1,695.1c-0.1,0.1-0.1,0.2-0.1,0.3c-0.1,0.2-0.1,0.5-0.2,0.7c0,0.1,0,0.2-0.1,0.3
	C475.9,696,476,695.6,476.1,695.1z"/>
<path class="st3" d="M492.2,768.2c1.8,1.9,3.9,3.1,5.6,4.5l0,0C496.1,771.3,494,770.1,492.2,768.2c-19.2-17.9-25.2-40.8-16.9-69.9
	c0.1-0.6,0.3-1.2,0.4-1.9c0-0.1,0-0.2,0.1-0.3c-0.2,0.7-0.4,1.4-0.6,2.2C466.8,727.4,472.9,750.4,492.2,768.2z"/>
<path class="st3" d="M497.8,772.7C497.8,772.7,497.8,772.7,497.8,772.7C497.8,772.7,497.8,772.7,497.8,772.7L497.8,772.7z"/>
<polygon class="st3" points="497.8,772.7 497.8,772.7 497.8,772.7 497.8,772.7 "/>
<path class="st3" d="M475.9,695.2L475.9,695.2c0.4-1.1,0.7-2.2,1.1-3.3c-0.1,0.2-0.2,0.5-0.3,0.7
	C476.4,693.5,476.1,694.3,475.9,695.2z"/>
<path class="st3" d="M475.9,695.2c0,0.1-0.1,0.2-0.1,0.3C475.9,695.4,475.9,695.3,475.9,695.2z"/>
<path class="st3" d="M452,659.5c0.4-1.6,0.8-3.3,1.2-5c0.2-0.6,0.3-1.3,0.5-1.9c-0.2,0.6-0.3,1.2-0.5,1.8
	C452.8,656.1,452.4,657.8,452,659.5z"/>
<path class="st3" d="M461.5,626.5c-0.8,2.9-1.9,5.5-2.7,8.5C459.6,632.1,460.7,629.5,461.5,626.5z"/>
<path class="st3" d="M458.8,635c-1.9,6.5-3.7,12.5-5.1,17.6C455.1,647.5,456.8,641.6,458.8,635z"/>
<path class="st3" d="M531.9,825.1c-6.7,0.9-13.5,1.3-20.2,1.2C518.5,826.4,525.2,826,531.9,825.1z"/>
<path class="st3" d="M656.3,781.2c-10,4.5-19.1,8.5-27.3,12C637.2,789.7,646.3,785.8,656.3,781.2L656.3,781.2z"/>
<path class="st3" d="M557.4,820.1c14.4-3.4,30.5-9.2,48.1-16.8C588,810.8,571.8,816.6,557.4,820.1z"/>
<path class="st3" d="M605.5,803.3c6.5-2.7,14.4-6.1,23.5-10.1C619.8,797.2,611.9,800.6,605.5,803.3z"/>
<polygon class="st3" points="511.7,826.3 511.7,826.3 511.7,826.3 "/>
<path class="st3" d="M531.9,825.1c8-1.2,16.4-2.7,25.5-5c-2.9,0.7-5.8,1.4-8.6,2c-5.3,1.1-10.4,2-15.3,2.8
	C533,824.9,532.4,825,531.9,825.1z"/>
<path class="st3" d="M548.8,822.1c-5.3,1.1-10.4,2-15.3,2.8C538.4,824.1,543.5,823.2,548.8,822.1z"/>
<path class="st3" d="M453.7,792c6.7,10.9,15.1,19.3,25.1,25c9.5,5.4,20.5,8.6,32.9,9.3l0,0C486.3,824.8,466.9,813.2,453.7,792z"/>
<path class="st3" d="M443.6,695.3c-6.8,35.3-5.8,62.6,2.9,82.8C437.9,757.9,436.9,730.6,443.6,695.3z"/>
<path class="st3" d="M478.8,817c-10-5.8-18.4-14.1-25.1-25c-2.6-4.2-5-8.9-7.2-13.9C454.1,796,464.9,809,478.8,817z"/>
<path class="st3" d="M443.6,695.3c1.8-8.2,4.1-17.7,6.7-27.9C447.7,677.5,445.4,687.1,443.6,695.3z"/>
<path class="st3" d="M450.3,667.4c0.2-1.3,0.6-2.8,0.9-4.4C450.8,664.6,450.5,666.1,450.3,667.4z"/>
<path class="st3" d="M162.5,790.3C80.9,708.8,32.5,597,32.2,477.2C31.6,243.7,211.6,51.8,440.7,33.8c11.3-0.9,22.7-1.3,34.1-1.4h1.3
	c64.2-0.1,125.1,13.5,180.2,37.9V35.5c-9-3.7-18.2-7.1-27.6-10.3C579.6,8.5,528,0,476.1,0h-1.4C211.8,0.7-0.7,214.4,0,477.3
	c0.2,63.9,13.2,127,38.3,185.7c27.4,64.5,68.5,121.6,119.8,167.6H209C192.5,818.2,177,804.7,162.5,790.3z"/>
<path class="st3" d="M32.3,477.3C32.6,597,81,708.8,162.5,790.3c14.5,14.5,30,27.9,46.5,40.3h0C96.5,745.8,31.8,612.2,32.6,473.4
	c0.3-56.8,11.6-114.4,35.1-169.9c2.2-5.1,4.4-10.2,6.8-15.2C146.9,133.2,302.6,33.1,474.8,32.4c-11.5,0-22.9,0.5-34.1,1.4
	C211.6,51.8,31.6,243.7,32.3,477.3z"/>
<path class="st3" d="M32.6,473.4C33,416.7,44.3,359,67.7,303.5C44.2,359,32.9,416.7,32.6,473.4z"/>
<path class="st3" d="M440.7,33.8c-229.1,18-409,209.9-408.5,443.4C32.5,597,80.9,708.8,162.5,790.3C81,708.8,32.6,597,32.3,477.3
	C31.6,243.7,211.6,51.8,440.7,33.8z"/>
</svg>
