<?xml version="1.0" encoding="utf-8"?>
<!-- Generator: Adobe Illustrator 22.0.0, SVG Export Plug-In . SVG Version: 6.00 Build 0)  -->
<svg version="1.1" id="Layer_1" xmlns="http://www.w3.org/2000/svg" xmlns:xlink="http://www.w3.org/1999/xlink" x="0px" y="0px"
	 viewBox="0 0 867.5 864.8" style="enable-background:new 0 0 867.5 864.8;" xml:space="preserve">
<style type="text/css">
	.st0{fill:none;stroke:#9E9E9E;stroke-width:51.0236;stroke-miterlimit:10;}
	.st1{fill:#686868;stroke:#686868;stroke-width:17.0079;stroke-miterlimit:10;}
</style>
<g>
	<circle class="st0" cx="435.2" cy="432.3" r="401.8"/>
	<g>
		<path class="st1" d="M662.3,276c40.5,0.2,57.7,17.8,57.7,58c0,61.8,0,123.5,0,185.3c0,36.2-6.7,43.3-43.2,43.3
			c-9.7,0-15,2-19,12.1c-9.2,23.1-27.5,35.1-52.7,34.9c-25-0.2-43.2-12.2-52.2-35.6c-3.6-9.5-8.8-11.4-17.8-11.3
			c-68.2,0.3-136.4,0.2-204.7,0c-8.3,0-13,1.5-16.5,10.7c-9.2,23.7-27.6,36.4-53.4,36.2c-25.9-0.2-42.8-13.8-53.6-36.8
			c-2.1-4.6-8.2-9.4-13.1-10.2c-34-6-47.4-20.9-47.4-55.3c-0.1-61.3,0-122.5,0-183.7c0-41.8,5.9-47.8,47.1-47.8
			c76.8,0,153.6,0,230.4,0C503.3,275.9,582.8,275.7,662.3,276z M186.5,295.3c-20.4,0-22,1.7-22,22c-0.1,62.8-0.1,125.7,0,188.5
			c0.1,22.9,9.3,34.9,27.1,37.2c7.7,0.9,12.3-0.2,15.6-9c9.2-24.4,27.3-37.8,54.1-37.6c26.9,0.2,43.6,14.5,54.2,38.3
			c1.8,4,8.1,8.4,12.4,8.4c70.4,0.6,140.7,0.6,211.1,0c4.2,0,10.2-4.7,12.1-8.8c10.8-23.7,27.7-37.8,54.5-37.9
			c26.8,0,44.7,13.5,54,37.9c6.5,17.1,20,7.2,30.2,8.6c9.6,1.2,12.2-6.7,12.2-15.1c0-66.6,0.4-133.2-0.2-199.7
			c-0.2-22.8-12.1-32.6-36.7-32.6c-80-0.2-160.1-0.1-240.1-0.1C345.4,295.2,265.9,295.2,186.5,295.3z M299.2,552.3
			c-0.3-20.9-17-36.8-38.7-36.7c-21.4,0.1-38.2,16.5-38.1,37.3c0.1,20.7,16.9,37.6,37.8,37.8C282.1,590.7,299.6,573.6,299.2,552.3z
			 M643.9,552.8c0.1-20.7-16.7-37.2-38.1-37.3c-22.2-0.1-39.3,16.9-38.7,38.4c0.7,20.6,17.8,36.8,38.9,36.7
			C626.9,590.4,643.8,573.6,643.9,552.8z"/>
		<path class="st1" d="M223.2,428.7c-9.8,0.1-13.8-4.2-13.7-15.2c0.3-21.5,0.2-42.9,0-64.4c-0.1-9.6,3.6-13.8,12.2-13.8
			c87,0.1,174.1,0.2,261.1,0c9.6,0,12.3,5.1,12.1,15.1c-0.4,20.1-0.7,40.2,0.1,60.1c0.5,13.4-3.2,18.5-15.7,18.3
			c-42.5-0.7-85-0.3-127.4-0.3C309,428.6,266.1,428.4,223.2,428.7z M293.2,352.4c0,19.6,0,38.5,0,58.2c16.8,0,33.5,0,51.1,0
			c0-18.7,0-37.6,0-58.2C327,352.4,310.5,352.4,293.2,352.4z M225.8,352.2c0,19.1,0,37.9,0,58.1c16.4,0,33.3,0,50.9,0
			c0-18.8,0-37.6,0-58.1C259.4,352.2,243.2,352.2,225.8,352.2z M428,410.3c16.8,0,33.3,0,50.7,0c0-18.7,0-37.8,0-57.6
			c-16.9,0-33.4,0-50.7,0C428,373,428,391,428,410.3z M411.7,410.7c0-19.5,0-38.3,0-58.2c-16.6,0-32.8,0-50.2,0
			c0,18.9,0,37.9,0,58.2C378.6,410.7,394.8,410.7,411.7,410.7z"/>
		<path class="st1" d="M659,449.8c0.1,8.9-4.5,13.8-15.2,12.6c-13.1-1.4-26.5-2.3-39.2-5.3c-30.4-7.1-50.8-26.7-51.5-49
			c-0.6-20.2,0.1-40.3-0.3-60.5c-0.2-8.6,3.8-12.4,13.8-12.3c26.1,0.2,52.1,0.2,78.3,0c10.1-0.1,14.1,4,14,12.3
			c-0.2,16.8-0.1,33.6-0.1,50.5C658.9,415.3,658.8,432.6,659,449.8z M640.4,350.4c-23.1,0-45.5,0-69.2,0c0,21-1.6,41.9,0.6,62.6
			c1.4,13.8,14.3,22.8,29.6,27.1c12.3,3.5,25.3,5.4,39.2,8.3C640.4,414.5,640.4,382.9,640.4,350.4z"/>
	</g>
</g>
</svg>
