<?xml version="1.0" encoding="utf-8"?>
<!-- Generator: Adobe Illustrator 22.0.0, SVG Export Plug-In . SVG Version: 6.00 Build 0)  -->
<svg version="1.1" id="Layer_1" xmlns="http://www.w3.org/2000/svg" xmlns:xlink="http://www.w3.org/1999/xlink" x="0px" y="0px"
	 viewBox="0 0 867.5 864.8" style="enable-background:new 0 0 867.5 864.8;" xml:space="preserve">
<style type="text/css">
	.st0{fill:none;stroke:#9E9E9E;stroke-width:51.0236;stroke-miterlimit:10;}
	.st1{fill:#686868;}
</style>
<g>
	<circle class="st0" cx="435.2" cy="432.3" r="402.8"/>
	<g>
		<path class="st1" d="M547.9,574.2c18.2,27.1,35.6,53.1,53,79.1c1.5,2.2,3.2,4.5,4.4,6.9c6.9,13.5-1.4,28.1-16.5,28.1
			c-102.9,0.1-205.8,0.3-308.7-0.4c-5.9,0-13.3-4.9-17.3-9.8c-5.5-6.6-2.9-14.7,2.1-21.6c18.4-25.3,36.8-50.7,55.2-76
			c1.4-1.9,2.6-3.9,4.3-6.3c-6.7-3.1-13.4-5.5-19.4-9c-25.3-14.8-38.4-37-38.5-66.3c-0.2-76-0.1-152,0-228c0.1-39,32.5-73,71.7-73.3
			c65.4-0.7,130.8-0.7,196.3-0.1c40.2,0.4,72.9,33,73.1,73.1c0.7,77.7,0.5,155.4,0,233.1c-0.2,29.7-22.5,57.7-52.1,67.9
			C553.4,572.3,551.2,573.1,547.9,574.2z M493.6,537.1c12.4,0,23.5,0.1,34.7,0c26.3-0.3,41.4-14.7,41.5-41.1
			c0.3-73.2,0.3-146.5-0.2-219.7c-0.1-8.4-2.8-17.6-7-24.9c-7.9-13.8-22.1-17-37.1-17c-58.2,0-116.5,0.4-174.7-0.2
			c-26.2-0.3-47.3,12.5-46.8,47c1.1,69.8,0.3,139.7,0.4,209.5c0,4.4,0.2,8.9,0.6,13.2c1.5,15.1,9.8,26.9,23.8,30.1
			c16.4,3.7,33.9,2.9,51.8,4c0-8.1-0.2-13.5,0-18.9c0.5-12.3,6.9-19,19.1-19.2c25.2-0.3,50.4-0.3,75.6,0
			c11.1,0.1,17.6,6.8,18.4,17.8C494,523.8,493.6,529.9,493.6,537.1z M317.8,650.2c78.5,0,156.2,0,233.9,0
			c-4.6-14.6-13.6-18.9-28.4-18.7c-59.3,0.9-118.5,1-177.7-0.1C330.5,631.2,323.4,637.7,317.8,650.2z M514.2,593.6
			c-5.3-12.2-11.5-19.3-26.6-18.6c-33.6,1.5-67.5,1.5-101.1,0c-15.1-0.7-22.1,6.1-27.9,18.5C410.6,593.6,461.8,593.6,514.2,593.6z"
			/>
		<path class="st1" d="M436.3,418.2c-25.6,0-51.2,0.1-76.8,0c-16.5,0-21.8-5.5-21.8-22c0-19.6-0.1-39.3,0-58.9
			c0.1-12.1,5.9-18.6,17.8-18.7c54.2-0.2,108.4-0.2,162.6,0c12.4,0.1,18.3,6.6,18.3,19.2c0.2,20.2,0.1,40.5,0,60.7
			c-0.1,13.4-6,19.5-19.7,19.6C490,418.3,463.1,418.2,436.3,418.2z M420,352.6c-16.8,0-32.7,0-48.8,0c0,10.8,0,21.1,0,31.4
			c16.6,0,32.5,0,48.8,0C420,373.4,420,363.4,420,352.6z M503.2,384.1c0-10.8,0-21,0-31.5c-16.5,0-32.4,0-48.6,0c0,10.8,0,21,0,31.5
			C470.9,384.1,486.8,384.1,503.2,384.1z"/>
		<path class="st1" d="M437.3,302.1c-15.8,0-31.5,0.1-47.3,0c-11.7-0.1-19.3-6.7-19.3-16.5c0-9.5,7-16.3,18.4-16.5
			c32.1-0.2,64.3-0.3,96.5,0c11.2,0.1,18.3,7.3,17.9,16.9c-0.3,9.6-7.6,16-18.8,16.1C468.9,302.3,453.1,302.1,437.3,302.1z"/>
		<path class="st1" d="M337.8,459.2c0-13.7,11.4-24.9,24.9-24.7c13.4,0.2,24.5,11.3,24.6,24.4c0.2,13.4-11.4,25.2-24.8,25.3
			C349.2,484.5,337.7,472.8,337.8,459.2z"/>
		<path class="st1" d="M536.5,459.5c-0.1,13.5-11.8,25.2-25.1,24.8c-13.4-0.4-24.9-12.4-24.5-25.6c0.4-13.2,11.6-24,24.9-24.1
			C525.4,434.5,536.5,445.8,536.5,459.5z"/>
	</g>
</g>
</svg>
