<?xml version="1.0" encoding="utf-8"?>
<!-- Generator: Adobe Illustrator 22.0.0, SVG Export Plug-In . SVG Version: 6.00 Build 0)  -->
<svg version="1.1" id="Layer_1" xmlns="http://www.w3.org/2000/svg" xmlns:xlink="http://www.w3.org/1999/xlink" x="0px" y="0px"
	 viewBox="0 0 867.5 864.8" style="enable-background:new 0 0 867.5 864.8;" xml:space="preserve">
<style type="text/css">
	.st0{fill:none;stroke:#9E9E9E;stroke-width:51.0236;stroke-miterlimit:10;}
	.st1{fill:#686868;stroke:#686868;stroke-width:25.5118;stroke-miterlimit:10;}
	.st2{fill:#686868;stroke:#686868;stroke-width:17.0079;stroke-miterlimit:10;}
	.st3{fill:#686868;stroke:#686868;stroke-width:25.5118;stroke-linejoin:round;stroke-miterlimit:10;}
</style>
<g>
	<circle class="st0" cx="435.2" cy="432.3" r="402.8"/>
	<g>
		<path class="st1" d="M620.7,569.4c0,9.1,0.2,28.3,0,37.3c-0.3,13-5.8,18.4-18.7,18.4c-19.2,0.1-38.3,0.1-57.5,0
			c-11.5-0.1-17.1-5.5-17.4-17c-0.3-9.5-0.1-29.3-0.1-39.1c-62.8,0-124.6,0-187.4,0c0,9.1,0.1,28.3,0,37.3
			c-0.2,13.5-5.6,18.7-19,18.8c-18.9,0.1-37.7,0.1-56.7,0c-11.9-0.1-17.5-5.5-17.9-17.4c-0.3-9.2-0.1-28.8-0.1-36.9
			c-10-3.5-19.4-5.6-27.6-10c-14.3-7.8-24.7-20.5-25.5-36.9c-1.4-27.2-1.4-54.6-0.1-81.8c0.7-15.8,11.1-27.3,24-36.3
			c3.6-2.5,7.1-6.7,8.5-10.9c10.4-31.6,20.1-63.4,30.3-95c9.8-30.7,34.5-49.6,66.6-49.8c73.9-0.4,147.8-0.4,221.6,0
			c32.7,0.2,57.3,19.2,67.5,51c10.1,31.4,19.8,62.9,30,94.3c1.3,3.9,4.6,7.9,8.1,10.2c14.8,10,24.3,23.5,25.2,41.1
			c1.1,24.3,1.9,48.7,0,73c-2,25.6-20,43.1-45.4,48.1C626.8,568.2,624.2,568.7,620.7,569.4z M433.6,412.8c-61.8,0-123.6,0-185.4,0
			c-22.3,0-40.4,15.9-40.7,36.3c-0.4,22.5-0.7,44.9,0.4,67.3c0.4,7.5,4.2,15.8,8.7,22.2c8.4,12,21.6,14.3,35.6,14.3
			c120.9-0.1,241.8-0.1,362.7-0.1c1.7,0,3.3,0,4.9-0.1c25-1.5,39.6-16.7,39.9-41.7c0.2-18.9,0.2-37.7,0-56.7
			c-0.3-25.8-16.4-41.8-42.2-41.8C556.1,412.8,494.8,412.8,433.6,412.8z M624.4,397.4c0-1.7,0.4-3.1-0.1-4.3
			c-9.4-29.9-18.4-60-28.5-89.5c-8.8-25.3-28.5-38.4-55.1-38.4c-71.7,0-143.3,0-215.1,0c-27.4,0-47.4,14.7-55.7,40.9
			c-8.7,27.3-17.3,54.5-26,81.8c-0.9,3-1.5,6.1-2.2,9.6C369.9,397.4,497.1,397.4,624.4,397.4z M323.9,569.2c-21.1,0-41.4,0-61.7,0
			c0,10.2,0,30.2,0,40.1c20.8,0,41.1,0,61.7,0C323.9,599.2,323.9,579.4,323.9,569.2z M542.8,609.9c10.9,0,21,0,31.1,0
			c10.2,0,20.5,0,30.6,0c0-11.1,0-31,0-41.3c-10.6,0-20.7,0-30.7,0c-10.2,0-20.5,0-30.8,0C542.8,579.4,542.8,599.2,542.8,609.9z"/>
		<path class="st2" d="M311.3,515.9c-18.4-0.1-32.8-14.8-32.7-33.4c0.1-17.9,15-32.6,33.1-32.6c18.3,0,33.2,15,33.1,33.2
			C344.7,501.4,329.8,516,311.3,515.9z M333.6,482.6c-0.2-12.3-10-21.8-22.3-21.7c-12,0.1-21.6,9.8-21.6,21.8
			c-0.1,12,10.2,22.3,22.1,22.3C323.6,505,333.8,494.7,333.6,482.6z"/>
		<path class="st2" d="M563.4,515.9c-18.5,0-33.2-14.8-33.1-33.1c0.1-18.2,15.2-33.1,33.5-32.9c18.5,0.2,32.9,14.9,32.8,33.5
			C596.5,501.4,581.7,515.9,563.4,515.9z M541.5,482c-0.5,12.1,8.9,22.3,21.2,23c11.7,0.6,22.3-9.4,22.7-21.6
			c0.4-11.7-8.9-21.9-20.5-22.4C552.1,460.4,542.1,469.4,541.5,482z"/>
		<path class="st3" d="M393.4,489.8c0-4.9,0-9,0-13.3c27.7,0,54.9,0,82.4,0v13.3c-23.1,0-53.1,0-76.2,0
			C397.6,489.8,395.7,489.8,393.4,489.8z"/>
	</g>
</g>
</svg>
